<svg id="visual" viewBox="0 0 900 200" width="900" height="200" xmlns="http://www.w3.org/2000/svg" xmlns:xlink="http://www.w3.org/1999/xlink" version="1.1"><path d="M0 131L7.2 131.2C14.3 131.3 28.7 131.7 43 128.7C57.3 125.7 71.7 119.3 86 111.8C100.3 104.3 114.7 95.7 128.8 96C143 96.3 157 105.7 171.2 109.5C185.3 113.3 199.7 111.7 214 114.2C228.3 116.7 242.7 123.3 257 124.3C271.3 125.3 285.7 120.7 300 115.3C314.3 110 328.7 104 343 100C357.3 96 371.7 94 386 99.3C400.3 104.7 414.7 117.3 428.8 116.8C443 116.3 457 102.7 471.2 100C485.3 97.3 499.7 105.7 514 112.2C528.3 118.7 542.7 123.3 557 120.8C571.3 118.3 585.7 108.7 600 109C614.3 109.3 628.7 119.7 643 121.8C657.3 124 671.7 118 686 118.8C700.3 119.7 714.7 127.3 728.8 123C743 118.7 757 102.3 771.2 97.7C785.3 93 799.7 100 814 107C828.3 114 842.7 121 857 118.5C871.3 116 885.7 104 892.8 98L900 92L900 201L892.8 201C885.7 201 871.3 201 857 201C842.7 201 828.3 201 814 201C799.7 201 785.3 201 771.2 201C757 201 743 201 728.8 201C714.7 201 700.3 201 686 201C671.7 201 657.3 201 643 201C628.7 201 614.3 201 600 201C585.7 201 571.3 201 557 201C542.7 201 528.3 201 514 201C499.7 201 485.3 201 471.2 201C457 201 443 201 428.8 201C414.7 201 400.3 201 386 201C371.7 201 357.3 201 343 201C328.7 201 314.3 201 300 201C285.7 201 271.3 201 257 201C242.7 201 228.3 201 214 201C199.7 201 185.3 201 171.2 201C157 201 143 201 128.8 201C114.7 201 100.3 201 86 201C71.7 201 57.3 201 43 201C28.7 201 14.3 201 7.2 201L0 201Z" fill="#002233" stroke-linecap="round" stroke-linejoin="miter"></path></svg>