<svg width="230" height="315" viewBox="0 0 230 315" fill="none" xmlns="http://www.w3.org/2000/svg">
<rect x="30" y="31" width="200" height="200" rx="16" fill="#F3F5F7"/>
<path d="M62 75C62 68.3726 67.3726 63 74 63H230V231H62V75Z" fill="white"/>
<path d="M106 97C100.49 97 96 101.49 96 107C96 112.51 100.49 117 106 117C111.51 117 116 112.51 116 107C116 101.49 111.51 97 106 97ZM110.78 104.7L105.11 110.37C104.97 110.51 104.78 110.59 104.58 110.59C104.38 110.59 104.19 110.51 104.05 110.37L101.22 107.54C100.93 107.25 100.93 106.77 101.22 106.48C101.51 106.19 101.99 106.19 102.28 106.48L104.58 108.78L109.72 103.64C110.01 103.35 110.49 103.35 110.78 103.64C111.07 103.93 111.07 104.4 110.78 104.7Z" fill="#9CD323"/>
<rect x="130" y="95" width="100" height="5" rx="2.5" fill="#C3D4E9"/>
<rect x="130" y="112" width="100" height="5" rx="2.5" fill="#C3D4E9"/>
<rect x="130" y="129" width="100" height="5" rx="2.5" fill="#C3D4E9"/>
<path d="M106 160C100.49 160 96 164.49 96 170C96 175.51 100.49 180 106 180C111.51 180 116 175.51 116 170C116 164.49 111.51 160 106 160ZM110.78 167.7L105.11 173.37C104.97 173.51 104.78 173.59 104.58 173.59C104.38 173.59 104.19 173.51 104.05 173.37L101.22 170.54C100.93 170.25 100.93 169.77 101.22 169.48C101.51 169.19 101.99 169.19 102.28 169.48L104.58 171.78L109.72 166.64C110.01 166.35 110.49 166.35 110.78 166.64C111.07 166.93 111.07 167.4 110.78 167.7Z" fill="#9CD323"/>
<rect x="130" y="158" width="100" height="5" rx="2.5" fill="#C3D4E9"/>
<rect x="130" y="175" width="100" height="5" rx="2.5" fill="#C3D4E9"/>
<rect x="130" y="192" width="100" height="5" rx="2.5" fill="#C3D4E9"/>
<path d="M84.1686 278V263.1H89.0486C90.5553 263.1 91.8686 263.407 92.9886 264.02C94.1086 264.633 94.9753 265.5 95.5886 266.62C96.2019 267.727 96.5086 269.033 96.5086 270.54C96.5086 272.033 96.2019 273.34 95.5886 274.46C94.9753 275.58 94.1086 276.453 92.9886 277.08C91.8686 277.693 90.5553 278 89.0486 278H84.1686ZM86.1286 276.2H89.0686C90.1753 276.2 91.1286 275.967 91.9286 275.5C92.7419 275.033 93.3686 274.38 93.8086 273.54C94.2486 272.687 94.4686 271.687 94.4686 270.54C94.4686 269.38 94.2419 268.38 93.7886 267.54C93.3486 266.7 92.7219 266.053 91.9086 265.6C91.1086 265.133 90.1619 264.9 89.0686 264.9H86.1286V276.2ZM103.493 278.24C102.453 278.24 101.513 278 100.673 277.52C99.8328 277.027 99.1661 276.353 98.6728 275.5C98.1795 274.647 97.9328 273.68 97.9328 272.6C97.9328 271.52 98.1728 270.56 98.6528 269.72C99.1461 268.88 99.8128 268.213 100.653 267.72C101.493 267.227 102.439 266.98 103.493 266.98C104.533 266.98 105.473 267.227 106.313 267.72C107.153 268.2 107.813 268.86 108.293 269.7C108.786 270.54 109.033 271.507 109.033 272.6C109.033 273.693 108.779 274.667 108.273 275.52C107.766 276.36 107.093 277.027 106.253 277.52C105.426 278 104.506 278.24 103.493 278.24ZM103.493 276.44C104.159 276.44 104.759 276.273 105.293 275.94C105.839 275.607 106.266 275.147 106.573 274.56C106.893 273.973 107.053 273.32 107.053 272.6C107.053 271.867 106.893 271.22 106.573 270.66C106.266 270.087 105.839 269.633 105.293 269.3C104.759 268.953 104.159 268.78 103.493 268.78C102.813 268.78 102.199 268.953 101.653 269.3C101.119 269.633 100.693 270.087 100.373 270.66C100.053 271.22 99.8928 271.867 99.8928 272.6C99.8928 273.32 100.053 273.973 100.373 274.56C100.693 275.147 101.119 275.607 101.653 275.94C102.199 276.273 102.813 276.44 103.493 276.44ZM111.059 278V267.22H112.879V269.32L112.579 269.14C112.845 268.46 113.272 267.933 113.859 267.56C114.459 267.173 115.159 266.98 115.959 266.98C116.732 266.98 117.419 267.153 118.019 267.5C118.632 267.847 119.112 268.327 119.459 268.94C119.819 269.553 119.999 270.247 119.999 271.02V278H118.119V271.62C118.119 271.02 118.012 270.513 117.799 270.1C117.585 269.687 117.279 269.367 116.879 269.14C116.492 268.9 116.045 268.78 115.539 268.78C115.032 268.78 114.579 268.9 114.179 269.14C113.792 269.367 113.485 269.693 113.259 270.12C113.032 270.533 112.919 271.033 112.919 271.62V278H111.059ZM127.22 278.24C126.18 278.24 125.254 277.993 124.44 277.5C123.627 277.007 122.987 276.333 122.52 275.48C122.054 274.613 121.82 273.647 121.82 272.58C121.82 271.5 122.047 270.54 122.5 269.7C122.967 268.86 123.594 268.2 124.38 267.72C125.18 267.227 126.074 266.98 127.06 266.98C127.86 266.98 128.567 267.127 129.18 267.42C129.807 267.7 130.334 268.087 130.76 268.58C131.2 269.06 131.534 269.613 131.76 270.24C132 270.853 132.12 271.493 132.12 272.16C132.12 272.307 132.107 272.473 132.08 272.66C132.067 272.833 132.047 273 132.02 273.16H123.18V271.56H130.94L130.06 272.28C130.18 271.587 130.114 270.967 129.86 270.42C129.607 269.873 129.234 269.44 128.74 269.12C128.247 268.8 127.687 268.64 127.06 268.64C126.434 268.64 125.86 268.8 125.34 269.12C124.82 269.44 124.414 269.9 124.12 270.5C123.84 271.087 123.727 271.787 123.78 272.6C123.727 273.387 123.847 274.08 124.14 274.68C124.447 275.267 124.874 275.727 125.42 276.06C125.98 276.38 126.587 276.54 127.24 276.54C127.96 276.54 128.567 276.373 129.06 276.04C129.554 275.707 129.954 275.28 130.26 274.76L131.82 275.56C131.607 276.053 131.274 276.507 130.82 276.92C130.38 277.32 129.854 277.64 129.24 277.88C128.64 278.12 127.967 278.24 127.22 278.24ZM134.465 280.78V279.88C134.879 279.773 135.192 279.567 135.405 279.26C135.619 278.953 135.739 278.533 135.765 278H134.865V275.6H136.805V277.3C136.805 278.26 136.605 279.033 136.205 279.62C135.819 280.207 135.239 280.593 134.465 280.78ZM142.779 278V262.86H144.639V278H142.779ZM152.085 278.24C151.045 278.24 150.118 277.993 149.305 277.5C148.492 277.007 147.852 276.333 147.385 275.48C146.918 274.613 146.685 273.647 146.685 272.58C146.685 271.5 146.912 270.54 147.365 269.7C147.832 268.86 148.458 268.2 149.245 267.72C150.045 267.227 150.938 266.98 151.925 266.98C152.725 266.98 153.432 267.127 154.045 267.42C154.672 267.7 155.198 268.087 155.625 268.58C156.065 269.06 156.398 269.613 156.625 270.24C156.865 270.853 156.985 271.493 156.985 272.16C156.985 272.307 156.972 272.473 156.945 272.66C156.932 272.833 156.912 273 156.885 273.16H148.045V271.56H155.805L154.925 272.28C155.045 271.587 154.978 270.967 154.725 270.42C154.472 269.873 154.098 269.44 153.605 269.12C153.112 268.8 152.552 268.64 151.925 268.64C151.298 268.64 150.725 268.8 150.205 269.12C149.685 269.44 149.278 269.9 148.985 270.5C148.705 271.087 148.592 271.787 148.645 272.6C148.592 273.387 148.712 274.08 149.005 274.68C149.312 275.267 149.738 275.727 150.285 276.06C150.845 276.38 151.452 276.54 152.105 276.54C152.825 276.54 153.432 276.373 153.925 276.04C154.418 275.707 154.818 275.28 155.125 274.76L156.685 275.56C156.472 276.053 156.138 276.507 155.685 276.92C155.245 277.32 154.718 277.64 154.105 277.88C153.505 278.12 152.832 278.24 152.085 278.24ZM163.39 278.12C162.337 278.12 161.524 277.82 160.95 277.22C160.39 276.62 160.11 275.773 160.11 274.68V269H158.15V267.22H158.55C159.03 267.22 159.41 267.073 159.69 266.78C159.97 266.487 160.11 266.1 160.11 265.62V264.74H161.97V267.22H164.39V269H161.97V274.62C161.97 274.98 162.024 275.293 162.13 275.56C162.25 275.827 162.444 276.04 162.71 276.2C162.977 276.347 163.33 276.42 163.77 276.42C163.864 276.42 163.977 276.413 164.11 276.4C164.257 276.387 164.39 276.373 164.51 276.36V278C164.337 278.04 164.144 278.067 163.93 278.08C163.717 278.107 163.537 278.12 163.39 278.12ZM166.86 268.08V267.18C167.273 267.073 167.58 266.88 167.78 266.6C167.993 266.307 168.12 265.94 168.16 265.5H167.26V263.1H169.2V264.8C169.2 265.667 169 266.387 168.6 266.96C168.213 267.52 167.633 267.893 166.86 268.08ZM175.977 278.24C174.897 278.24 173.957 277.973 173.157 277.44C172.357 276.907 171.79 276.187 171.457 275.28L172.937 274.56C173.243 275.2 173.663 275.707 174.197 276.08C174.73 276.453 175.323 276.64 175.977 276.64C176.563 276.64 177.05 276.5 177.437 276.22C177.823 275.94 178.017 275.573 178.017 275.12C178.017 274.8 177.923 274.547 177.737 274.36C177.563 274.16 177.35 274.007 177.097 273.9C176.843 273.78 176.61 273.693 176.397 273.64L174.777 273.18C173.803 272.9 173.09 272.5 172.637 271.98C172.197 271.46 171.977 270.853 171.977 270.16C171.977 269.52 172.137 268.967 172.457 268.5C172.79 268.02 173.237 267.647 173.797 267.38C174.37 267.113 175.01 266.98 175.717 266.98C176.663 266.98 177.51 267.22 178.257 267.7C179.017 268.18 179.557 268.853 179.877 269.72L178.357 270.42C178.117 269.86 177.757 269.42 177.277 269.1C176.797 268.767 176.257 268.6 175.657 268.6C175.11 268.6 174.677 268.74 174.357 269.02C174.037 269.287 173.877 269.627 173.877 270.04C173.877 270.347 173.957 270.6 174.117 270.8C174.277 270.987 174.47 271.133 174.697 271.24C174.923 271.333 175.143 271.413 175.357 271.48L177.117 272C177.997 272.253 178.677 272.647 179.157 273.18C179.65 273.713 179.897 274.353 179.897 275.1C179.897 275.7 179.73 276.24 179.397 276.72C179.063 277.2 178.603 277.573 178.017 277.84C177.43 278.107 176.75 278.24 175.977 278.24ZM52.5705 308.24C51.5171 308.24 50.5771 307.993 49.7505 307.5C48.9371 307.007 48.2971 306.333 47.8305 305.48C47.3638 304.627 47.1305 303.667 47.1305 302.6C47.1305 301.52 47.3638 300.56 47.8305 299.72C48.2971 298.88 48.9371 298.213 49.7505 297.72C50.5771 297.227 51.5171 296.98 52.5705 296.98C53.2771 296.98 53.9371 297.107 54.5505 297.36C55.1638 297.613 55.7038 297.953 56.1705 298.38C56.6371 298.807 56.9771 299.307 57.1905 299.88L55.5305 300.68C55.2771 300.12 54.8905 299.667 54.3705 299.32C53.8505 298.96 53.2505 298.78 52.5705 298.78C51.9171 298.78 51.3238 298.947 50.7905 299.28C50.2705 299.613 49.8571 300.067 49.5505 300.64C49.2438 301.213 49.0905 301.873 49.0905 302.62C49.0905 303.34 49.2438 303.993 49.5505 304.58C49.8571 305.153 50.2705 305.607 50.7905 305.94C51.3238 306.273 51.9171 306.44 52.5705 306.44C53.2505 306.44 53.8505 306.267 54.3705 305.92C54.8905 305.56 55.2771 305.087 55.5305 304.5L57.1905 305.34C56.9771 305.9 56.6371 306.4 56.1705 306.84C55.7038 307.267 55.1638 307.607 54.5505 307.86C53.9371 308.113 53.2771 308.24 52.5705 308.24ZM64.3413 308.24C63.3013 308.24 62.3613 308 61.5213 307.52C60.6813 307.027 60.0146 306.353 59.5213 305.5C59.0279 304.647 58.7813 303.68 58.7813 302.6C58.7813 301.52 59.0213 300.56 59.5013 299.72C59.9946 298.88 60.6613 298.213 61.5013 297.72C62.3413 297.227 63.2879 296.98 64.3413 296.98C65.3813 296.98 66.3213 297.227 67.1613 297.72C68.0013 298.2 68.6613 298.86 69.1413 299.7C69.6346 300.54 69.8813 301.507 69.8813 302.6C69.8813 303.693 69.6279 304.667 69.1213 305.52C68.6146 306.36 67.9413 307.027 67.1013 307.52C66.2746 308 65.3546 308.24 64.3413 308.24ZM64.3413 306.44C65.0079 306.44 65.6079 306.273 66.1413 305.94C66.6879 305.607 67.1146 305.147 67.4213 304.56C67.7413 303.973 67.9013 303.32 67.9013 302.6C67.9013 301.867 67.7413 301.22 67.4213 300.66C67.1146 300.087 66.6879 299.633 66.1413 299.3C65.6079 298.953 65.0079 298.78 64.3413 298.78C63.6613 298.78 63.0479 298.953 62.5013 299.3C61.9679 299.633 61.5413 300.087 61.2213 300.66C60.9013 301.22 60.7413 301.867 60.7413 302.6C60.7413 303.32 60.9013 303.973 61.2213 304.56C61.5413 305.147 61.9679 305.607 62.5013 305.94C63.0479 306.273 63.6613 306.44 64.3413 306.44ZM71.9072 308V297.22H73.7272V299.32L73.4272 299.14C73.6939 298.46 74.1205 297.933 74.7072 297.56C75.3072 297.173 76.0072 296.98 76.8072 296.98C77.5805 296.98 78.2672 297.153 78.8672 297.5C79.4805 297.847 79.9605 298.327 80.3072 298.94C80.6672 299.553 80.8472 300.247 80.8472 301.02V308H78.9672V301.62C78.9672 301.02 78.8605 300.513 78.6472 300.1C78.4339 299.687 78.1272 299.367 77.7272 299.14C77.3405 298.9 76.8939 298.78 76.3872 298.78C75.8805 298.78 75.4272 298.9 75.0272 299.14C74.6405 299.367 74.3339 299.693 74.1072 300.12C73.8805 300.533 73.7672 301.033 73.7672 301.62V308H71.9072ZM87.4888 308.12C86.4354 308.12 85.6221 307.82 85.0488 307.22C84.4888 306.62 84.2088 305.773 84.2088 304.68V299H82.2488V297.22H82.6488C83.1288 297.22 83.5088 297.073 83.7888 296.78C84.0688 296.487 84.2088 296.1 84.2088 295.62V294.74H86.0688V297.22H88.4888V299H86.0688V304.62C86.0688 304.98 86.1221 305.293 86.2288 305.56C86.3488 305.827 86.5421 306.04 86.8088 306.2C87.0754 306.347 87.4288 306.42 87.8688 306.42C87.9621 306.42 88.0754 306.413 88.2088 306.4C88.3554 306.387 88.4888 306.373 88.6088 306.36V308C88.4354 308.04 88.2421 308.067 88.0288 308.08C87.8154 308.107 87.6354 308.12 87.4888 308.12ZM90.6384 308V297.22H92.4984V308H90.6384ZM90.6384 295.5V293.1H92.4984V295.5H90.6384ZM94.9845 308V297.22H96.8045V299.32L96.5045 299.14C96.7712 298.46 97.1979 297.933 97.7845 297.56C98.3845 297.173 99.0845 296.98 99.8845 296.98C100.658 296.98 101.345 297.153 101.945 297.5C102.558 297.847 103.038 298.327 103.385 298.94C103.745 299.553 103.925 300.247 103.925 301.02V308H102.045V301.62C102.045 301.02 101.938 300.513 101.725 300.1C101.511 299.687 101.205 299.367 100.805 299.14C100.418 298.9 99.9712 298.78 99.4645 298.78C98.9579 298.78 98.5045 298.9 98.1045 299.14C97.7179 299.367 97.4112 299.693 97.1845 300.12C96.9579 300.533 96.8445 301.033 96.8445 301.62V308H94.9845ZM110.006 308.24C109.233 308.24 108.533 308.06 107.906 307.7C107.293 307.34 106.813 306.84 106.466 306.2C106.133 305.547 105.966 304.8 105.966 303.96V297.22H107.826V303.76C107.826 304.293 107.933 304.76 108.146 305.16C108.373 305.56 108.679 305.873 109.066 306.1C109.466 306.327 109.919 306.44 110.426 306.44C110.933 306.44 111.379 306.327 111.766 306.1C112.166 305.873 112.473 305.547 112.686 305.12C112.913 304.693 113.026 304.187 113.026 303.6V297.22H114.906V308H113.086V305.9L113.386 306.08C113.133 306.76 112.699 307.293 112.086 307.68C111.486 308.053 110.793 308.24 110.006 308.24ZM122.348 308.24C121.308 308.24 120.381 307.993 119.568 307.5C118.754 307.007 118.114 306.333 117.648 305.48C117.181 304.613 116.948 303.647 116.948 302.58C116.948 301.5 117.174 300.54 117.628 299.7C118.094 298.86 118.721 298.2 119.508 297.72C120.308 297.227 121.201 296.98 122.188 296.98C122.988 296.98 123.694 297.127 124.308 297.42C124.934 297.7 125.461 298.087 125.888 298.58C126.328 299.06 126.661 299.613 126.888 300.24C127.128 300.853 127.248 301.493 127.248 302.16C127.248 302.307 127.234 302.473 127.208 302.66C127.194 302.833 127.174 303 127.148 303.16H118.308V301.56H126.068L125.188 302.28C125.308 301.587 125.241 300.967 124.988 300.42C124.734 299.873 124.361 299.44 123.868 299.12C123.374 298.8 122.814 298.64 122.188 298.64C121.561 298.64 120.988 298.8 120.468 299.12C119.948 299.44 119.541 299.9 119.248 300.5C118.968 301.087 118.854 301.787 118.908 302.6C118.854 303.387 118.974 304.08 119.268 304.68C119.574 305.267 120.001 305.727 120.548 306.06C121.108 306.38 121.714 306.54 122.368 306.54C123.088 306.54 123.694 306.373 124.188 306.04C124.681 305.707 125.081 305.28 125.388 304.76L126.948 305.56C126.734 306.053 126.401 306.507 125.948 306.92C125.508 307.32 124.981 307.64 124.368 307.88C123.768 308.12 123.094 308.24 122.348 308.24ZM136.71 308.12C135.657 308.12 134.843 307.82 134.27 307.22C133.71 306.62 133.43 305.773 133.43 304.68V299H131.47V297.22H131.87C132.35 297.22 132.73 297.073 133.01 296.78C133.29 296.487 133.43 296.1 133.43 295.62V294.74H135.29V297.22H137.71V299H135.29V304.62C135.29 304.98 135.343 305.293 135.45 305.56C135.57 305.827 135.763 306.04 136.03 306.2C136.297 306.347 136.65 306.42 137.09 306.42C137.183 306.42 137.297 306.413 137.43 306.4C137.577 306.387 137.71 306.373 137.83 306.36V308C137.657 308.04 137.463 308.067 137.25 308.08C137.037 308.107 136.857 308.12 136.71 308.12ZM139.86 308V292.86H141.72V299.32L141.38 299.14C141.646 298.46 142.073 297.933 142.66 297.56C143.26 297.173 143.96 296.98 144.76 296.98C145.533 296.98 146.22 297.153 146.82 297.5C147.433 297.847 147.913 298.327 148.26 298.94C148.62 299.553 148.8 300.247 148.8 301.02V308H146.92V301.62C146.92 301.02 146.806 300.513 146.58 300.1C146.366 299.687 146.066 299.367 145.68 299.14C145.293 298.9 144.846 298.78 144.34 298.78C143.846 298.78 143.4 298.9 143 299.14C142.6 299.367 142.286 299.693 142.06 300.12C141.833 300.533 141.72 301.033 141.72 301.62V308H139.86ZM156.021 308.24C154.981 308.24 154.054 307.993 153.241 307.5C152.428 307.007 151.788 306.333 151.321 305.48C150.854 304.613 150.621 303.647 150.621 302.58C150.621 301.5 150.848 300.54 151.301 299.7C151.768 298.86 152.394 298.2 153.181 297.72C153.981 297.227 154.874 296.98 155.861 296.98C156.661 296.98 157.368 297.127 157.981 297.42C158.608 297.7 159.134 298.087 159.561 298.58C160.001 299.06 160.334 299.613 160.561 300.24C160.801 300.853 160.921 301.493 160.921 302.16C160.921 302.307 160.908 302.473 160.881 302.66C160.868 302.833 160.848 303 160.821 303.16H151.981V301.56H159.741L158.861 302.28C158.981 301.587 158.914 300.967 158.661 300.42C158.408 299.873 158.034 299.44 157.541 299.12C157.048 298.8 156.488 298.64 155.861 298.64C155.234 298.64 154.661 298.8 154.141 299.12C153.621 299.44 153.214 299.9 152.921 300.5C152.641 301.087 152.528 301.787 152.581 302.6C152.528 303.387 152.648 304.08 152.941 304.68C153.248 305.267 153.674 305.727 154.221 306.06C154.781 306.38 155.388 306.54 156.041 306.54C156.761 306.54 157.368 306.373 157.861 306.04C158.354 305.707 158.754 305.28 159.061 304.76L160.621 305.56C160.408 306.053 160.074 306.507 159.621 306.92C159.181 307.32 158.654 307.64 158.041 307.88C157.441 308.12 156.768 308.24 156.021 308.24ZM168.483 308L164.783 297.22H166.843L169.783 306.24L169.063 306.22L171.943 297.22H173.703L176.583 306.22L175.863 306.24L178.823 297.22H180.863L177.163 308H175.383L172.543 299H173.103L170.263 308H168.483ZM187.051 308.24C186.011 308.24 185.071 308 184.231 307.52C183.391 307.027 182.725 306.353 182.231 305.5C181.738 304.647 181.491 303.68 181.491 302.6C181.491 301.52 181.731 300.56 182.211 299.72C182.705 298.88 183.371 298.213 184.211 297.72C185.051 297.227 185.998 296.98 187.051 296.98C188.091 296.98 189.031 297.227 189.871 297.72C190.711 298.2 191.371 298.86 191.851 299.7C192.345 300.54 192.591 301.507 192.591 302.6C192.591 303.693 192.338 304.667 191.831 305.52C191.325 306.36 190.651 307.027 189.811 307.52C188.985 308 188.065 308.24 187.051 308.24ZM187.051 306.44C187.718 306.44 188.318 306.273 188.851 305.94C189.398 305.607 189.825 305.147 190.131 304.56C190.451 303.973 190.611 303.32 190.611 302.6C190.611 301.867 190.451 301.22 190.131 300.66C189.825 300.087 189.398 299.633 188.851 299.3C188.318 298.953 187.718 298.78 187.051 298.78C186.371 298.78 185.758 298.953 185.211 299.3C184.678 299.633 184.251 300.087 183.931 300.66C183.611 301.22 183.451 301.867 183.451 302.6C183.451 303.32 183.611 303.973 183.931 304.56C184.251 305.147 184.678 305.607 185.211 305.94C185.758 306.273 186.371 306.44 187.051 306.44ZM194.617 308V297.22H196.437V299.2L196.237 298.92C196.491 298.307 196.877 297.853 197.397 297.56C197.917 297.253 198.551 297.1 199.297 297.1H199.957V298.86H199.017C198.257 298.86 197.644 299.1 197.177 299.58C196.711 300.047 196.477 300.713 196.477 301.58V308H194.617ZM201.21 308V292.86H203.07V303.24L202.31 303.06L208.03 297.22H210.41L206.27 301.56L210.69 308H208.49L204.45 302.16L205.61 302.1L202.47 305.38L203.07 304.02V308H201.21ZM212.722 308V305.6H214.662V308H212.722Z" fill="white"/>
<circle cx="31" cy="31" r="28" fill="#7C5CFC" stroke="#0D121F" stroke-width="6"/>
<path d="M31.1961 41.288C30.2361 41.288 29.3321 41.112 28.4841 40.76C27.6521 40.408 26.9321 39.912 26.3241 39.272C25.7321 38.632 25.3081 37.88 25.0521 37.016L27.4521 36.104C27.7721 36.952 28.2601 37.608 28.9161 38.072C29.5721 38.536 30.3321 38.768 31.1961 38.768C31.9001 38.768 32.5081 38.632 33.0201 38.36C33.5481 38.088 33.9561 37.704 34.2441 37.208C34.5481 36.712 34.7001 36.112 34.7001 35.408C34.7001 34.72 34.5481 34.128 34.2441 33.632C33.9561 33.136 33.5481 32.76 33.0201 32.504C32.5081 32.248 31.9001 32.12 31.1961 32.12C30.9081 32.12 30.6121 32.144 30.3081 32.192C30.0201 32.24 29.7641 32.304 29.5401 32.384L28.9161 31.064L33.6201 25.52H26.0121V23.12H36.7881V25.4L32.1801 30.92L32.1081 30.008C33.1801 30.024 34.1241 30.264 34.9401 30.728C35.7561 31.176 36.3881 31.8 36.8361 32.6C37.3001 33.384 37.5321 34.296 37.5321 35.336C37.5321 36.456 37.2601 37.472 36.7161 38.384C36.1721 39.28 35.4201 39.992 34.4601 40.52C33.5161 41.032 32.4281 41.288 31.1961 41.288Z" fill="white"/>
</svg>
