<svg width="384" height="384" viewBox="0 0 384 384" fill="none" xmlns="http://www.w3.org/2000/svg">
<g clip-path="url(#clip0_3213_393)">
<rect width="384" height="384" rx="12" fill="#F3F5F7"/>
<rect x="-385" y="58" width="726" height="326" rx="10" fill="white"/>
<mask id="path-3-inside-1_3213_393" fill="white">
<path d="M-385 135H341V170H-385V135Z"/>
</mask>
<path d="M-385 136H341V134H-385V136ZM341 169H-385V171H341V169Z" fill="#F3F5F7" mask="url(#path-3-inside-1_3213_393)"/>
<path d="M61.132 159L64.336 150.06H65.728L68.932 159H67.672L66.94 156.9H63.124L62.392 159H61.132ZM63.496 155.82H66.568L64.864 150.912H65.2L63.496 155.82ZM69.6865 159V152.532H70.7785V153.852L70.6225 153.648C70.7825 153.24 71.0385 152.928 71.3905 152.712C71.7425 152.496 72.1385 152.388 72.5785 152.388C73.0825 152.388 73.5345 152.528 73.9345 152.808C74.3425 153.088 74.6225 153.456 74.7745 153.912L74.4625 153.924C74.6305 153.42 74.9145 153.04 75.3145 152.784C75.7145 152.52 76.1585 152.388 76.6465 152.388C77.0945 152.388 77.4985 152.492 77.8585 152.7C78.2265 152.908 78.5185 153.196 78.7345 153.564C78.9505 153.932 79.0585 154.348 79.0585 154.812V159H77.9305V155.172C77.9305 154.812 77.8665 154.508 77.7385 154.26C77.6105 154.012 77.4345 153.82 77.2105 153.684C76.9945 153.54 76.7385 153.468 76.4425 153.468C76.1545 153.468 75.8945 153.54 75.6625 153.684C75.4385 153.82 75.2585 154.016 75.1225 154.272C74.9945 154.52 74.9305 154.82 74.9305 155.172V159H73.8025V155.172C73.8025 154.812 73.7385 154.508 73.6105 154.26C73.4825 154.012 73.3065 153.82 73.0825 153.684C72.8665 153.54 72.6105 153.468 72.3145 153.468C72.0265 153.468 71.7665 153.54 71.5345 153.684C71.3105 153.82 71.1305 154.016 70.9945 154.272C70.8665 154.52 70.8025 154.82 70.8025 155.172V159H69.6865ZM83.4755 159.144C82.8515 159.144 82.2875 159 81.7835 158.712C81.2795 158.416 80.8795 158.012 80.5835 157.5C80.2875 156.988 80.1395 156.408 80.1395 155.76C80.1395 155.112 80.2835 154.536 80.5715 154.032C80.8675 153.528 81.2675 153.128 81.7715 152.832C82.2755 152.536 82.8435 152.388 83.4755 152.388C84.0995 152.388 84.6635 152.536 85.1675 152.832C85.6715 153.12 86.0675 153.516 86.3555 154.02C86.6515 154.524 86.7995 155.104 86.7995 155.76C86.7995 156.416 86.6475 157 86.3435 157.512C86.0395 158.016 85.6355 158.416 85.1315 158.712C84.6355 159 84.0835 159.144 83.4755 159.144ZM83.4755 158.064C83.8755 158.064 84.2355 157.964 84.5555 157.764C84.8835 157.564 85.1395 157.288 85.3235 156.936C85.5155 156.584 85.6115 156.192 85.6115 155.76C85.6115 155.32 85.5155 154.932 85.3235 154.596C85.1395 154.252 84.8835 153.98 84.5555 153.78C84.2355 153.572 83.8755 153.468 83.4755 153.468C83.0675 153.468 82.6995 153.572 82.3715 153.78C82.0515 153.98 81.7955 154.252 81.6035 154.596C81.4115 154.932 81.3155 155.32 81.3155 155.76C81.3155 156.192 81.4115 156.584 81.6035 156.936C81.7955 157.288 82.0515 157.564 82.3715 157.764C82.6995 157.964 83.0675 158.064 83.4755 158.064ZM90.3071 159.144C89.8431 159.144 89.4231 159.036 89.0471 158.82C88.6791 158.604 88.3911 158.304 88.1831 157.92C87.9831 157.528 87.8831 157.08 87.8831 156.576V152.532H88.9991V156.456C88.9991 156.776 89.0631 157.056 89.1911 157.296C89.3271 157.536 89.5111 157.724 89.7431 157.86C89.9831 157.996 90.2551 158.064 90.5591 158.064C90.8631 158.064 91.1311 157.996 91.3631 157.86C91.6031 157.724 91.7871 157.528 91.9151 157.272C92.0511 157.016 92.1191 156.712 92.1191 156.36V152.532H93.2471V159H92.1551V157.74L92.3351 157.848C92.1831 158.256 91.9231 158.576 91.5551 158.808C91.1951 159.032 90.7791 159.144 90.3071 159.144ZM94.736 159V152.532H95.828V153.792L95.648 153.684C95.808 153.276 96.064 152.96 96.416 152.736C96.776 152.504 97.196 152.388 97.676 152.388C98.14 152.388 98.552 152.492 98.912 152.7C99.28 152.908 99.568 153.196 99.776 153.564C99.992 153.932 100.1 154.348 100.1 154.812V159H98.972V155.172C98.972 154.812 98.908 154.508 98.78 154.26C98.652 154.012 98.468 153.82 98.228 153.684C97.996 153.54 97.728 153.468 97.424 153.468C97.12 153.468 96.848 153.54 96.608 153.684C96.376 153.82 96.192 154.016 96.056 154.272C95.92 154.52 95.852 154.82 95.852 155.172V159H94.736ZM104.085 159.072C103.453 159.072 102.965 158.892 102.621 158.532C102.285 158.172 102.117 157.664 102.117 157.008V153.6H100.941V152.532H101.181C101.469 152.532 101.697 152.444 101.865 152.268C102.033 152.092 102.117 151.86 102.117 151.572V151.044H103.233V152.532H104.685V153.6H103.233V156.972C103.233 157.188 103.265 157.376 103.329 157.536C103.401 157.696 103.517 157.824 103.677 157.92C103.837 158.008 104.049 158.052 104.313 158.052C104.369 158.052 104.437 158.048 104.517 158.04C104.605 158.032 104.685 158.024 104.757 158.016V159C104.653 159.024 104.537 159.04 104.409 159.048C104.281 159.064 104.173 159.072 104.085 159.072Z" fill="#90A3BF"/>
<path d="M125.96 152.475L122.7 155.735C122.315 156.12 121.685 156.12 121.3 155.735L118.04 152.475" stroke="#90A3BF" stroke-width="1.5" stroke-miterlimit="10" stroke-linecap="round" stroke-linejoin="round"/>
<path d="M212.068 159.144C211.5 159.144 210.98 159.04 210.508 158.832C210.036 158.616 209.636 158.324 209.308 157.956C208.98 157.588 208.744 157.176 208.6 156.72L209.62 156.3C209.836 156.876 210.156 157.32 210.58 157.632C211.012 157.936 211.516 158.088 212.092 158.088C212.444 158.088 212.752 158.032 213.016 157.92C213.28 157.808 213.484 157.652 213.628 157.452C213.78 157.244 213.856 157.004 213.856 156.732C213.856 156.356 213.748 156.06 213.532 155.844C213.324 155.62 213.016 155.452 212.608 155.34L210.964 154.836C210.316 154.636 209.82 154.32 209.476 153.888C209.132 153.456 208.96 152.96 208.96 152.4C208.96 151.912 209.076 151.484 209.308 151.116C209.548 150.74 209.876 150.448 210.292 150.24C210.716 150.024 211.196 149.916 211.732 149.916C212.268 149.916 212.752 150.012 213.184 150.204C213.624 150.396 213.996 150.656 214.3 150.984C214.604 151.304 214.828 151.672 214.972 152.088L213.964 152.508C213.772 152.004 213.484 151.624 213.1 151.368C212.716 151.104 212.264 150.972 211.744 150.972C211.424 150.972 211.14 151.028 210.892 151.14C210.652 151.244 210.464 151.4 210.328 151.608C210.2 151.808 210.136 152.048 210.136 152.328C210.136 152.656 210.24 152.948 210.448 153.204C210.656 153.46 210.972 153.656 211.396 153.792L212.896 154.236C213.6 154.452 214.132 154.76 214.492 155.16C214.852 155.56 215.032 156.056 215.032 156.648C215.032 157.136 214.904 157.568 214.648 157.944C214.4 158.32 214.052 158.616 213.604 158.832C213.164 159.04 212.652 159.144 212.068 159.144ZM219.01 159.072C218.378 159.072 217.89 158.892 217.546 158.532C217.21 158.172 217.042 157.664 217.042 157.008V153.6H215.866V152.532H216.106C216.394 152.532 216.622 152.444 216.79 152.268C216.958 152.092 217.042 151.86 217.042 151.572V151.044H218.158V152.532H219.61V153.6H218.158V156.972C218.158 157.188 218.19 157.376 218.254 157.536C218.326 157.696 218.442 157.824 218.602 157.92C218.762 158.008 218.974 158.052 219.238 158.052C219.294 158.052 219.362 158.048 219.442 158.04C219.53 158.032 219.61 158.024 219.682 158.016V159C219.578 159.024 219.462 159.04 219.334 159.048C219.206 159.064 219.098 159.072 219.01 159.072ZM222.714 159.144C222.29 159.144 221.914 159.068 221.586 158.916C221.266 158.756 221.014 158.54 220.83 158.268C220.646 157.988 220.554 157.668 220.554 157.308C220.554 156.964 220.626 156.656 220.77 156.384C220.922 156.104 221.154 155.868 221.466 155.676C221.786 155.484 222.186 155.348 222.666 155.268L225.066 154.872V155.808L222.918 156.168C222.502 156.24 222.198 156.372 222.006 156.564C221.822 156.756 221.73 156.992 221.73 157.272C221.73 157.536 221.834 157.756 222.042 157.932C222.258 158.108 222.526 158.196 222.846 158.196C223.254 158.196 223.606 158.112 223.902 157.944C224.206 157.768 224.442 157.532 224.61 157.236C224.786 156.94 224.874 156.612 224.874 156.252V154.608C224.874 154.256 224.742 153.972 224.478 153.756C224.222 153.532 223.882 153.42 223.458 153.42C223.09 153.42 222.762 153.516 222.474 153.708C222.194 153.892 221.986 154.14 221.85 154.452L220.878 153.948C220.998 153.652 221.19 153.388 221.454 153.156C221.718 152.916 222.026 152.728 222.378 152.592C222.73 152.456 223.098 152.388 223.482 152.388C223.978 152.388 224.414 152.484 224.79 152.676C225.166 152.86 225.458 153.12 225.666 153.456C225.882 153.784 225.99 154.168 225.99 154.608V159H224.898V157.776L225.102 157.848C224.966 158.104 224.782 158.328 224.55 158.52C224.318 158.712 224.046 158.864 223.734 158.976C223.422 159.088 223.082 159.144 222.714 159.144ZM229.991 159.072C229.359 159.072 228.871 158.892 228.527 158.532C228.191 158.172 228.023 157.664 228.023 157.008V153.6H226.847V152.532H227.087C227.375 152.532 227.603 152.444 227.771 152.268C227.939 152.092 228.023 151.86 228.023 151.572V151.044H229.139V152.532H230.591V153.6H229.139V156.972C229.139 157.188 229.171 157.376 229.235 157.536C229.307 157.696 229.423 157.824 229.583 157.92C229.743 158.008 229.955 158.052 230.219 158.052C230.275 158.052 230.343 158.048 230.423 158.04C230.511 158.032 230.591 158.024 230.663 158.016V159C230.559 159.024 230.443 159.04 230.315 159.048C230.187 159.064 230.079 159.072 229.991 159.072ZM234.173 159.144C233.709 159.144 233.289 159.036 232.913 158.82C232.545 158.604 232.257 158.304 232.049 157.92C231.849 157.528 231.749 157.08 231.749 156.576V152.532H232.865V156.456C232.865 156.776 232.929 157.056 233.057 157.296C233.193 157.536 233.377 157.724 233.609 157.86C233.849 157.996 234.121 158.064 234.425 158.064C234.729 158.064 234.997 157.996 235.229 157.86C235.469 157.724 235.653 157.528 235.781 157.272C235.917 157.016 235.985 156.712 235.985 156.36V152.532H237.113V159H236.021V157.74L236.201 157.848C236.049 158.256 235.789 158.576 235.421 158.808C235.061 159.032 234.645 159.144 234.173 159.144ZM240.917 159.144C240.269 159.144 239.705 158.984 239.225 158.664C238.745 158.344 238.405 157.912 238.205 157.368L239.093 156.936C239.277 157.32 239.529 157.624 239.849 157.848C240.169 158.072 240.525 158.184 240.917 158.184C241.269 158.184 241.561 158.1 241.793 157.932C242.025 157.764 242.141 157.544 242.141 157.272C242.141 157.08 242.085 156.928 241.973 156.816C241.869 156.696 241.741 156.604 241.589 156.54C241.437 156.468 241.297 156.416 241.169 156.384L240.197 156.108C239.613 155.94 239.185 155.7 238.913 155.388C238.649 155.076 238.517 154.712 238.517 154.296C238.517 153.912 238.613 153.58 238.805 153.3C239.005 153.012 239.273 152.788 239.609 152.628C239.953 152.468 240.337 152.388 240.761 152.388C241.329 152.388 241.837 152.532 242.285 152.82C242.741 153.108 243.065 153.512 243.257 154.032L242.345 154.452C242.201 154.116 241.985 153.852 241.697 153.66C241.409 153.46 241.085 153.36 240.725 153.36C240.397 153.36 240.137 153.444 239.945 153.612C239.753 153.772 239.657 153.976 239.657 154.224C239.657 154.408 239.705 154.56 239.801 154.68C239.897 154.792 240.013 154.88 240.149 154.944C240.285 155 240.417 155.048 240.545 155.088L241.601 155.4C242.129 155.552 242.537 155.788 242.825 156.108C243.121 156.428 243.269 156.812 243.269 157.26C243.269 157.62 243.169 157.944 242.969 158.232C242.769 158.52 242.493 158.744 242.141 158.904C241.789 159.064 241.381 159.144 240.917 159.144Z" fill="#90A3BF"/>
<path d="M263.96 152.475L260.7 155.735C260.315 156.12 259.685 156.12 259.3 155.735L256.04 152.475" stroke="#90A3BF" stroke-width="1.5" stroke-miterlimit="10" stroke-linecap="round" stroke-linejoin="round"/>
<g clip-path="url(#clip1_3213_393)">
<path d="M65.732 218.168C65.0787 218.168 64.472 218.047 63.912 217.804C63.352 217.552 62.876 217.211 62.484 216.782C62.092 216.353 61.8027 215.858 61.616 215.298L63.016 214.71C63.268 215.354 63.6367 215.849 64.122 216.194C64.6073 216.539 65.1673 216.712 65.802 216.712C66.1753 216.712 66.502 216.656 66.782 216.544C67.062 216.423 67.2767 216.255 67.426 216.04C67.5847 215.825 67.664 215.578 67.664 215.298C67.664 214.915 67.5567 214.612 67.342 214.388C67.1273 214.164 66.81 213.987 66.39 213.856L64.43 213.24C63.646 212.997 63.0487 212.629 62.638 212.134C62.2273 211.63 62.022 211.042 62.022 210.37C62.022 209.782 62.1667 209.269 62.456 208.83C62.7453 208.382 63.142 208.032 63.646 207.78C64.1593 207.528 64.7427 207.402 65.396 207.402C66.0213 207.402 66.5907 207.514 67.104 207.738C67.6173 207.953 68.056 208.251 68.42 208.634C68.7933 209.017 69.064 209.46 69.232 209.964L67.86 210.566C67.6547 210.015 67.3327 209.591 66.894 209.292C66.4647 208.993 65.9653 208.844 65.396 208.844C65.0507 208.844 64.7473 208.905 64.486 209.026C64.2247 209.138 64.0193 209.306 63.87 209.53C63.73 209.745 63.66 209.997 63.66 210.286C63.66 210.622 63.7673 210.921 63.982 211.182C64.1967 211.443 64.5233 211.639 64.962 211.77L66.782 212.344C67.6127 212.596 68.238 212.96 68.658 213.436C69.078 213.903 69.288 214.486 69.288 215.186C69.288 215.765 69.134 216.278 68.826 216.726C68.5273 217.174 68.112 217.529 67.58 217.79C67.048 218.042 66.432 218.168 65.732 218.168ZM65.088 219.4V206.17H66.208V219.4H65.088ZM70.4845 218V216.81L73.3405 213.758C73.9005 213.161 74.3391 212.68 74.6565 212.316C74.9831 211.943 75.2165 211.616 75.3565 211.336C75.5058 211.056 75.5805 210.762 75.5805 210.454C75.5805 209.95 75.4265 209.563 75.1185 209.292C74.8105 209.012 74.4138 208.872 73.9285 208.872C73.4245 208.872 72.9905 209.017 72.6265 209.306C72.2625 209.586 72.0105 209.997 71.8705 210.538L70.4145 210.118C70.5265 209.567 70.7505 209.091 71.0865 208.69C71.4225 208.279 71.8331 207.962 72.3185 207.738C72.8131 207.514 73.3451 207.402 73.9145 207.402C74.5771 207.402 75.1558 207.528 75.6505 207.78C76.1451 208.023 76.5278 208.363 76.7985 208.802C77.0785 209.241 77.2185 209.749 77.2185 210.328C77.2185 210.711 77.1438 211.084 76.9945 211.448C76.8545 211.803 76.6351 212.181 76.3365 212.582C76.0378 212.974 75.6551 213.417 75.1885 213.912L72.6685 216.6H77.4145V218H70.4845ZM79.2016 220.058V219.288C79.5096 219.213 79.7476 219.069 79.9156 218.854C80.0836 218.649 80.1863 218.364 80.2236 218H79.4816V216.18H81.0916V217.37C81.0916 218.117 80.933 218.719 80.6156 219.176C80.2983 219.633 79.827 219.927 79.2016 220.058ZM87.2114 218.168C86.3807 218.168 85.6527 217.944 85.0274 217.496C84.4021 217.039 83.9121 216.409 83.5574 215.606C83.2121 214.794 83.0394 213.851 83.0394 212.778C83.0394 211.695 83.2121 210.753 83.5574 209.95C83.9121 209.147 84.3974 208.522 85.0134 208.074C85.6387 207.626 86.3667 207.402 87.1974 207.402C88.0281 207.402 88.7514 207.626 89.3674 208.074C89.9927 208.522 90.4781 209.152 90.8234 209.964C91.1781 210.767 91.3554 211.705 91.3554 212.778C91.3554 213.851 91.1827 214.794 90.8374 215.606C90.4921 216.409 90.0067 217.039 89.3814 217.496C88.7654 217.944 88.0421 218.168 87.2114 218.168ZM87.2114 216.656C87.7247 216.656 88.1681 216.497 88.5414 216.18C88.9147 215.863 89.2041 215.415 89.4094 214.836C89.6147 214.257 89.7174 213.571 89.7174 212.778C89.7174 211.985 89.6147 211.299 89.4094 210.72C89.2041 210.141 88.9147 209.693 88.5414 209.376C88.1681 209.059 87.7201 208.9 87.1974 208.9C86.6841 208.9 86.2407 209.059 85.8674 209.376C85.4941 209.693 85.2047 210.141 84.9994 210.72C84.7941 211.299 84.6914 211.985 84.6914 212.778C84.6914 213.562 84.7941 214.248 84.9994 214.836C85.2047 215.415 85.4941 215.863 85.8674 216.18C86.2501 216.497 86.6981 216.656 87.2114 216.656ZM96.9529 218.168C96.1222 218.168 95.3942 217.944 94.7689 217.496C94.1435 217.039 93.6535 216.409 93.2989 215.606C92.9535 214.794 92.7809 213.851 92.7809 212.778C92.7809 211.695 92.9535 210.753 93.2989 209.95C93.6535 209.147 94.1389 208.522 94.7549 208.074C95.3802 207.626 96.1082 207.402 96.9389 207.402C97.7695 207.402 98.4929 207.626 99.1089 208.074C99.7342 208.522 100.22 209.152 100.565 209.964C100.92 210.767 101.097 211.705 101.097 212.778C101.097 213.851 100.924 214.794 100.579 215.606C100.234 216.409 99.7482 217.039 99.1229 217.496C98.5069 217.944 97.7835 218.168 96.9529 218.168ZM96.9529 216.656C97.4662 216.656 97.9095 216.497 98.2829 216.18C98.6562 215.863 98.9455 215.415 99.1509 214.836C99.3562 214.257 99.4589 213.571 99.4589 212.778C99.4589 211.985 99.3562 211.299 99.1509 210.72C98.9455 210.141 98.6562 209.693 98.2829 209.376C97.9095 209.059 97.4615 208.9 96.9389 208.9C96.4255 208.9 95.9822 209.059 95.6089 209.376C95.2355 209.693 94.9462 210.141 94.7409 210.72C94.5355 211.299 94.4329 211.985 94.4329 212.778C94.4329 213.562 94.5355 214.248 94.7409 214.836C94.9462 215.415 95.2355 215.863 95.6089 216.18C95.9915 216.497 96.4395 216.656 96.9529 216.656ZM106.694 218.168C105.864 218.168 105.136 217.944 104.51 217.496C103.885 217.039 103.395 216.409 103.04 215.606C102.695 214.794 102.522 213.851 102.522 212.778C102.522 211.695 102.695 210.753 103.04 209.95C103.395 209.147 103.88 208.522 104.496 208.074C105.122 207.626 105.85 207.402 106.68 207.402C107.511 207.402 108.234 207.626 108.85 208.074C109.476 208.522 109.961 209.152 110.306 209.964C110.661 210.767 110.838 211.705 110.838 212.778C110.838 213.851 110.666 214.794 110.32 215.606C109.975 216.409 109.49 217.039 108.864 217.496C108.248 217.944 107.525 218.168 106.694 218.168ZM106.694 216.656C107.208 216.656 107.651 216.497 108.024 216.18C108.398 215.863 108.687 215.415 108.892 214.836C109.098 214.257 109.2 213.571 109.2 212.778C109.2 211.985 109.098 211.299 108.892 210.72C108.687 210.141 108.398 209.693 108.024 209.376C107.651 209.059 107.203 208.9 106.68 208.9C106.167 208.9 105.724 209.059 105.35 209.376C104.977 209.693 104.688 210.141 104.482 210.72C104.277 211.299 104.174 211.985 104.174 212.778C104.174 213.562 104.277 214.248 104.482 214.836C104.688 215.415 104.977 215.863 105.35 216.18C105.733 216.497 106.181 216.656 106.694 216.656ZM113.034 218V216.18H114.644V218H113.034ZM121.009 218.168C120.179 218.168 119.451 217.944 118.825 217.496C118.2 217.039 117.71 216.409 117.355 215.606C117.01 214.794 116.837 213.851 116.837 212.778C116.837 211.695 117.01 210.753 117.355 209.95C117.71 209.147 118.195 208.522 118.811 208.074C119.437 207.626 120.165 207.402 120.995 207.402C121.826 207.402 122.549 207.626 123.165 208.074C123.791 208.522 124.276 209.152 124.621 209.964C124.976 210.767 125.153 211.705 125.153 212.778C125.153 213.851 124.981 214.794 124.635 215.606C124.29 216.409 123.805 217.039 123.179 217.496C122.563 217.944 121.84 218.168 121.009 218.168ZM121.009 216.656C121.523 216.656 121.966 216.497 122.339 216.18C122.713 215.863 123.002 215.415 123.207 214.836C123.413 214.257 123.515 213.571 123.515 212.778C123.515 211.985 123.413 211.299 123.207 210.72C123.002 210.141 122.713 209.693 122.339 209.376C121.966 209.059 121.518 208.9 120.995 208.9C120.482 208.9 120.039 209.059 119.665 209.376C119.292 209.693 119.003 210.141 118.797 210.72C118.592 211.299 118.489 211.985 118.489 212.778C118.489 213.562 118.592 214.248 118.797 214.836C119.003 215.415 119.292 215.863 119.665 216.18C120.048 216.497 120.496 216.656 121.009 216.656ZM130.751 218.168C129.92 218.168 129.192 217.944 128.567 217.496C127.942 217.039 127.452 216.409 127.097 215.606C126.752 214.794 126.579 213.851 126.579 212.778C126.579 211.695 126.752 210.753 127.097 209.95C127.452 209.147 127.937 208.522 128.553 208.074C129.178 207.626 129.906 207.402 130.737 207.402C131.568 207.402 132.291 207.626 132.907 208.074C133.532 208.522 134.018 209.152 134.363 209.964C134.718 210.767 134.895 211.705 134.895 212.778C134.895 213.851 134.722 214.794 134.377 215.606C134.032 216.409 133.546 217.039 132.921 217.496C132.305 217.944 131.582 218.168 130.751 218.168ZM130.751 216.656C131.264 216.656 131.708 216.497 132.081 216.18C132.454 215.863 132.744 215.415 132.949 214.836C133.154 214.257 133.257 213.571 133.257 212.778C133.257 211.985 133.154 211.299 132.949 210.72C132.744 210.141 132.454 209.693 132.081 209.376C131.708 209.059 131.26 208.9 130.737 208.9C130.224 208.9 129.78 209.059 129.407 209.376C129.034 209.693 128.744 210.141 128.539 210.72C128.334 211.299 128.231 211.985 128.231 212.778C128.231 213.562 128.334 214.248 128.539 214.836C128.744 215.415 129.034 215.863 129.407 216.18C129.79 216.497 130.238 216.656 130.751 216.656Z" fill="#1A202C"/>
<rect x="204" y="209" width="16" height="16" rx="8" fill="#BCE455" fill-opacity="0.3"/>
<circle cx="212" cy="217" r="4" fill="#7FB519"/>
<path d="M233.088 222.144C232.456 222.144 231.868 222.028 231.324 221.796C230.788 221.564 230.32 221.244 229.92 220.836C229.528 220.42 229.22 219.932 228.996 219.372C228.772 218.812 228.66 218.196 228.66 217.524C228.66 216.86 228.768 216.248 228.984 215.688C229.208 215.12 229.52 214.632 229.92 214.224C230.32 213.808 230.788 213.488 231.324 213.264C231.86 213.032 232.448 212.916 233.088 212.916C233.72 212.916 234.284 213.024 234.78 213.24C235.284 213.456 235.708 213.74 236.052 214.092C236.396 214.436 236.644 214.812 236.796 215.22L235.524 215.82C235.332 215.34 235.024 214.952 234.6 214.656C234.184 214.352 233.68 214.2 233.088 214.2C232.496 214.2 231.972 214.34 231.516 214.62C231.06 214.9 230.704 215.288 230.448 215.784C230.2 216.28 230.076 216.86 230.076 217.524C230.076 218.188 230.2 218.772 230.448 219.276C230.704 219.772 231.06 220.16 231.516 220.44C231.972 220.712 232.496 220.848 233.088 220.848C233.68 220.848 234.184 220.7 234.6 220.404C235.024 220.108 235.332 219.72 235.524 219.24L236.796 219.84C236.644 220.24 236.396 220.616 236.052 220.968C235.708 221.32 235.284 221.604 234.78 221.82C234.284 222.036 233.72 222.144 233.088 222.144ZM240.895 222.144C240.271 222.144 239.699 221.996 239.179 221.7C238.667 221.404 238.259 221 237.955 220.488C237.651 219.976 237.499 219.396 237.499 218.748C237.499 218.092 237.651 217.512 237.955 217.008C238.259 216.496 238.667 216.096 239.179 215.808C239.691 215.512 240.263 215.364 240.895 215.364C241.535 215.364 242.107 215.512 242.611 215.808C243.123 216.096 243.527 216.496 243.823 217.008C244.127 217.512 244.279 218.092 244.279 218.748C244.279 219.404 244.127 219.988 243.823 220.5C243.519 221.012 243.111 221.416 242.599 221.712C242.087 222 241.519 222.144 240.895 222.144ZM240.895 220.884C241.279 220.884 241.619 220.792 241.915 220.608C242.211 220.424 242.443 220.172 242.611 219.852C242.787 219.524 242.875 219.156 242.875 218.748C242.875 218.34 242.787 217.976 242.611 217.656C242.443 217.336 242.211 217.084 241.915 216.9C241.619 216.716 241.279 216.624 240.895 216.624C240.519 216.624 240.179 216.716 239.875 216.9C239.579 217.084 239.343 217.336 239.167 217.656C238.999 217.976 238.915 218.34 238.915 218.748C238.915 219.156 238.999 219.524 239.167 219.852C239.343 220.172 239.579 220.424 239.875 220.608C240.179 220.792 240.519 220.884 240.895 220.884ZM245.363 222V215.508H246.659V216.912L246.491 216.696C246.627 216.256 246.875 215.924 247.235 215.7C247.595 215.476 248.007 215.364 248.471 215.364C248.991 215.364 249.451 215.504 249.851 215.784C250.259 216.056 250.531 216.42 250.667 216.876L250.283 216.912C250.475 216.392 250.767 216.004 251.159 215.748C251.559 215.492 252.015 215.364 252.527 215.364C252.975 215.364 253.379 215.468 253.739 215.676C254.107 215.884 254.399 216.172 254.615 216.54C254.831 216.908 254.939 217.328 254.939 217.8V222H253.583V218.172C253.583 217.844 253.523 217.568 253.403 217.344C253.291 217.112 253.131 216.936 252.923 216.816C252.723 216.688 252.487 216.624 252.215 216.624C251.943 216.624 251.703 216.688 251.495 216.816C251.287 216.936 251.123 217.112 251.003 217.344C250.883 217.576 250.823 217.852 250.823 218.172V222H249.479V218.172C249.479 217.844 249.419 217.568 249.299 217.344C249.187 217.112 249.027 216.936 248.819 216.816C248.619 216.688 248.379 216.624 248.099 216.624C247.827 216.624 247.587 216.688 247.379 216.816C247.171 216.936 247.007 217.112 246.887 217.344C246.775 217.576 246.719 217.852 246.719 218.172V222H245.363ZM256.15 224.4V215.508H257.446V216.852L257.29 216.54C257.53 216.172 257.85 215.884 258.25 215.676C258.65 215.468 259.106 215.364 259.618 215.364C260.234 215.364 260.786 215.512 261.274 215.808C261.77 216.104 262.158 216.508 262.438 217.02C262.726 217.532 262.87 218.108 262.87 218.748C262.87 219.388 262.726 219.964 262.438 220.476C262.158 220.988 261.774 221.396 261.286 221.7C260.798 221.996 260.242 222.144 259.618 222.144C259.114 222.144 258.654 222.04 258.238 221.832C257.83 221.624 257.514 221.324 257.29 220.932L257.506 220.68V224.4H256.15ZM259.486 220.884C259.87 220.884 260.21 220.792 260.506 220.608C260.802 220.424 261.034 220.172 261.202 219.852C261.378 219.524 261.466 219.156 261.466 218.748C261.466 218.34 261.378 217.976 261.202 217.656C261.034 217.336 260.802 217.084 260.506 216.9C260.21 216.716 259.87 216.624 259.486 216.624C259.11 216.624 258.77 216.716 258.466 216.9C258.17 217.084 257.934 217.336 257.758 217.656C257.59 217.976 257.506 218.34 257.506 218.748C257.506 219.156 257.59 219.524 257.758 219.852C257.934 220.172 258.17 220.424 258.466 220.608C258.77 220.792 259.11 220.884 259.486 220.884ZM263.949 222V212.916H265.305V222H263.949ZM269.699 222.144C269.051 222.144 268.475 221.996 267.971 221.7C267.475 221.396 267.087 220.988 266.807 220.476C266.527 219.956 266.387 219.376 266.387 218.736C266.387 218.08 266.527 217.5 266.807 216.996C267.095 216.492 267.479 216.096 267.959 215.808C268.439 215.512 268.983 215.364 269.591 215.364C270.079 215.364 270.515 215.448 270.899 215.616C271.283 215.784 271.607 216.016 271.871 216.312C272.135 216.6 272.335 216.932 272.471 217.308C272.615 217.684 272.687 218.084 272.687 218.508C272.687 218.612 272.683 218.72 272.675 218.832C272.667 218.944 272.651 219.048 272.627 219.144H267.455V218.064H271.859L271.211 218.556C271.291 218.164 271.263 217.816 271.127 217.512C270.999 217.2 270.799 216.956 270.527 216.78C270.263 216.596 269.951 216.504 269.591 216.504C269.231 216.504 268.911 216.596 268.631 216.78C268.351 216.956 268.135 217.212 267.983 217.548C267.831 217.876 267.771 218.276 267.803 218.748C267.763 219.188 267.823 219.572 267.983 219.9C268.151 220.228 268.383 220.484 268.679 220.668C268.983 220.852 269.327 220.944 269.711 220.944C270.103 220.944 270.435 220.856 270.707 220.68C270.987 220.504 271.207 220.276 271.367 219.996L272.471 220.536C272.343 220.84 272.143 221.116 271.871 221.364C271.607 221.604 271.287 221.796 270.911 221.94C270.543 222.076 270.139 222.144 269.699 222.144ZM276.578 222.072C275.898 222.072 275.37 221.88 274.994 221.496C274.618 221.112 274.43 220.572 274.43 219.876V216.732H273.29V215.508H273.47C273.774 215.508 274.01 215.42 274.178 215.244C274.346 215.068 274.43 214.828 274.43 214.524V214.02H275.786V215.508H277.262V216.732H275.786V219.816C275.786 220.04 275.822 220.232 275.894 220.392C275.966 220.544 276.082 220.664 276.242 220.752C276.402 220.832 276.61 220.872 276.866 220.872C276.93 220.872 277.002 220.868 277.082 220.86C277.162 220.852 277.238 220.844 277.31 220.836V222C277.198 222.016 277.074 222.032 276.938 222.048C276.802 222.064 276.682 222.072 276.578 222.072ZM281.324 222.144C280.676 222.144 280.1 221.996 279.596 221.7C279.1 221.396 278.712 220.988 278.432 220.476C278.152 219.956 278.012 219.376 278.012 218.736C278.012 218.08 278.152 217.5 278.432 216.996C278.72 216.492 279.104 216.096 279.584 215.808C280.064 215.512 280.608 215.364 281.216 215.364C281.704 215.364 282.14 215.448 282.524 215.616C282.908 215.784 283.232 216.016 283.496 216.312C283.76 216.6 283.96 216.932 284.096 217.308C284.24 217.684 284.312 218.084 284.312 218.508C284.312 218.612 284.308 218.72 284.3 218.832C284.292 218.944 284.276 219.048 284.252 219.144H279.08V218.064H283.484L282.836 218.556C282.916 218.164 282.888 217.816 282.752 217.512C282.624 217.2 282.424 216.956 282.152 216.78C281.888 216.596 281.576 216.504 281.216 216.504C280.856 216.504 280.536 216.596 280.256 216.78C279.976 216.956 279.76 217.212 279.608 217.548C279.456 217.876 279.396 218.276 279.428 218.748C279.388 219.188 279.448 219.572 279.608 219.9C279.776 220.228 280.008 220.484 280.304 220.668C280.608 220.852 280.952 220.944 281.336 220.944C281.728 220.944 282.06 220.856 282.332 220.68C282.612 220.504 282.832 220.276 282.992 219.996L284.096 220.536C283.968 220.84 283.768 221.116 283.496 221.364C283.232 221.604 282.912 221.796 282.536 221.94C282.168 222.076 281.764 222.144 281.324 222.144ZM288.395 222.144C287.771 222.144 287.211 221.996 286.715 221.7C286.227 221.396 285.839 220.988 285.551 220.476C285.271 219.964 285.131 219.388 285.131 218.748C285.131 218.108 285.275 217.532 285.563 217.02C285.851 216.508 286.239 216.104 286.727 215.808C287.215 215.512 287.767 215.364 288.383 215.364C288.903 215.364 289.363 215.468 289.763 215.676C290.163 215.884 290.479 216.172 290.711 216.54L290.507 216.852V212.916H291.851V222H290.567V220.68L290.723 220.932C290.499 221.324 290.179 221.624 289.763 221.832C289.347 222.04 288.891 222.144 288.395 222.144ZM288.527 220.884C288.903 220.884 289.239 220.792 289.535 220.608C289.839 220.424 290.075 220.172 290.243 219.852C290.419 219.524 290.507 219.156 290.507 218.748C290.507 218.34 290.419 217.976 290.243 217.656C290.075 217.336 289.839 217.084 289.535 216.9C289.239 216.716 288.903 216.624 288.527 216.624C288.151 216.624 287.811 216.716 287.507 216.9C287.203 217.084 286.967 217.336 286.799 217.656C286.631 217.976 286.547 218.34 286.547 218.748C286.547 219.156 286.631 219.524 286.799 219.852C286.967 220.172 287.199 220.424 287.495 220.608C287.799 220.792 288.143 220.884 288.527 220.884Z" fill="#1A202C"/>
</g>
<path d="M-364 244H301" stroke="#F3F5F7"/>
<path d="M65.732 282.168C65.0787 282.168 64.472 282.047 63.912 281.804C63.352 281.552 62.876 281.211 62.484 280.782C62.092 280.353 61.8027 279.858 61.616 279.298L63.016 278.71C63.268 279.354 63.6367 279.849 64.122 280.194C64.6073 280.539 65.1673 280.712 65.802 280.712C66.1753 280.712 66.502 280.656 66.782 280.544C67.062 280.423 67.2767 280.255 67.426 280.04C67.5847 279.825 67.664 279.578 67.664 279.298C67.664 278.915 67.5567 278.612 67.342 278.388C67.1273 278.164 66.81 277.987 66.39 277.856L64.43 277.24C63.646 276.997 63.0487 276.629 62.638 276.134C62.2273 275.63 62.022 275.042 62.022 274.37C62.022 273.782 62.1667 273.269 62.456 272.83C62.7453 272.382 63.142 272.032 63.646 271.78C64.1593 271.528 64.7427 271.402 65.396 271.402C66.0213 271.402 66.5907 271.514 67.104 271.738C67.6173 271.953 68.056 272.251 68.42 272.634C68.7933 273.017 69.064 273.46 69.232 273.964L67.86 274.566C67.6547 274.015 67.3327 273.591 66.894 273.292C66.4647 272.993 65.9653 272.844 65.396 272.844C65.0507 272.844 64.7473 272.905 64.486 273.026C64.2247 273.138 64.0193 273.306 63.87 273.53C63.73 273.745 63.66 273.997 63.66 274.286C63.66 274.622 63.7673 274.921 63.982 275.182C64.1967 275.443 64.5233 275.639 64.962 275.77L66.782 276.344C67.6127 276.596 68.238 276.96 68.658 277.436C69.078 277.903 69.288 278.486 69.288 279.186C69.288 279.765 69.134 280.278 68.826 280.726C68.5273 281.174 68.112 281.529 67.58 281.79C67.048 282.042 66.432 282.168 65.732 282.168ZM65.088 283.4V270.17H66.208V283.4H65.088ZM70.4845 282V280.81L73.3405 277.758C73.9005 277.161 74.3391 276.68 74.6565 276.316C74.9831 275.943 75.2165 275.616 75.3565 275.336C75.5058 275.056 75.5805 274.762 75.5805 274.454C75.5805 273.95 75.4265 273.563 75.1185 273.292C74.8105 273.012 74.4138 272.872 73.9285 272.872C73.4245 272.872 72.9905 273.017 72.6265 273.306C72.2625 273.586 72.0105 273.997 71.8705 274.538L70.4145 274.118C70.5265 273.567 70.7505 273.091 71.0865 272.69C71.4225 272.279 71.8331 271.962 72.3185 271.738C72.8131 271.514 73.3451 271.402 73.9145 271.402C74.5771 271.402 75.1558 271.528 75.6505 271.78C76.1451 272.023 76.5278 272.363 76.7985 272.802C77.0785 273.241 77.2185 273.749 77.2185 274.328C77.2185 274.711 77.1438 275.084 76.9945 275.448C76.8545 275.803 76.6351 276.181 76.3365 276.582C76.0378 276.974 75.6551 277.417 75.1885 277.912L72.6685 280.6H77.4145V282H70.4845ZM79.2016 284.058V283.288C79.5096 283.213 79.7476 283.069 79.9156 282.854C80.0836 282.649 80.1863 282.364 80.2236 282H79.4816V280.18H81.0916V281.37C81.0916 282.117 80.933 282.719 80.6156 283.176C80.2983 283.633 79.827 283.927 79.2016 284.058ZM87.2114 282.168C86.3807 282.168 85.6527 281.944 85.0274 281.496C84.4021 281.039 83.9121 280.409 83.5574 279.606C83.2121 278.794 83.0394 277.851 83.0394 276.778C83.0394 275.695 83.2121 274.753 83.5574 273.95C83.9121 273.147 84.3974 272.522 85.0134 272.074C85.6387 271.626 86.3667 271.402 87.1974 271.402C88.0281 271.402 88.7514 271.626 89.3674 272.074C89.9927 272.522 90.4781 273.152 90.8234 273.964C91.1781 274.767 91.3554 275.705 91.3554 276.778C91.3554 277.851 91.1827 278.794 90.8374 279.606C90.4921 280.409 90.0067 281.039 89.3814 281.496C88.7654 281.944 88.0421 282.168 87.2114 282.168ZM87.2114 280.656C87.7247 280.656 88.1681 280.497 88.5414 280.18C88.9147 279.863 89.2041 279.415 89.4094 278.836C89.6147 278.257 89.7174 277.571 89.7174 276.778C89.7174 275.985 89.6147 275.299 89.4094 274.72C89.2041 274.141 88.9147 273.693 88.5414 273.376C88.1681 273.059 87.7201 272.9 87.1974 272.9C86.6841 272.9 86.2407 273.059 85.8674 273.376C85.4941 273.693 85.2047 274.141 84.9994 274.72C84.7941 275.299 84.6914 275.985 84.6914 276.778C84.6914 277.562 84.7941 278.248 84.9994 278.836C85.2047 279.415 85.4941 279.863 85.8674 280.18C86.2501 280.497 86.6981 280.656 87.2114 280.656ZM96.9529 282.168C96.1222 282.168 95.3942 281.944 94.7689 281.496C94.1435 281.039 93.6535 280.409 93.2989 279.606C92.9535 278.794 92.7809 277.851 92.7809 276.778C92.7809 275.695 92.9535 274.753 93.2989 273.95C93.6535 273.147 94.1389 272.522 94.7549 272.074C95.3802 271.626 96.1082 271.402 96.9389 271.402C97.7695 271.402 98.4929 271.626 99.1089 272.074C99.7342 272.522 100.22 273.152 100.565 273.964C100.92 274.767 101.097 275.705 101.097 276.778C101.097 277.851 100.924 278.794 100.579 279.606C100.234 280.409 99.7482 281.039 99.1229 281.496C98.5069 281.944 97.7835 282.168 96.9529 282.168ZM96.9529 280.656C97.4662 280.656 97.9095 280.497 98.2829 280.18C98.6562 279.863 98.9455 279.415 99.1509 278.836C99.3562 278.257 99.4589 277.571 99.4589 276.778C99.4589 275.985 99.3562 275.299 99.1509 274.72C98.9455 274.141 98.6562 273.693 98.2829 273.376C97.9095 273.059 97.4615 272.9 96.9389 272.9C96.4255 272.9 95.9822 273.059 95.6089 273.376C95.2355 273.693 94.9462 274.141 94.7409 274.72C94.5355 275.299 94.4329 275.985 94.4329 276.778C94.4329 277.562 94.5355 278.248 94.7409 278.836C94.9462 279.415 95.2355 279.863 95.6089 280.18C95.9915 280.497 96.4395 280.656 96.9529 280.656ZM106.694 282.168C105.864 282.168 105.136 281.944 104.51 281.496C103.885 281.039 103.395 280.409 103.04 279.606C102.695 278.794 102.522 277.851 102.522 276.778C102.522 275.695 102.695 274.753 103.04 273.95C103.395 273.147 103.88 272.522 104.496 272.074C105.122 271.626 105.85 271.402 106.68 271.402C107.511 271.402 108.234 271.626 108.85 272.074C109.476 272.522 109.961 273.152 110.306 273.964C110.661 274.767 110.838 275.705 110.838 276.778C110.838 277.851 110.666 278.794 110.32 279.606C109.975 280.409 109.49 281.039 108.864 281.496C108.248 281.944 107.525 282.168 106.694 282.168ZM106.694 280.656C107.208 280.656 107.651 280.497 108.024 280.18C108.398 279.863 108.687 279.415 108.892 278.836C109.098 278.257 109.2 277.571 109.2 276.778C109.2 275.985 109.098 275.299 108.892 274.72C108.687 274.141 108.398 273.693 108.024 273.376C107.651 273.059 107.203 272.9 106.68 272.9C106.167 272.9 105.724 273.059 105.35 273.376C104.977 273.693 104.688 274.141 104.482 274.72C104.277 275.299 104.174 275.985 104.174 276.778C104.174 277.562 104.277 278.248 104.482 278.836C104.688 279.415 104.977 279.863 105.35 280.18C105.733 280.497 106.181 280.656 106.694 280.656ZM113.034 282V280.18H114.644V282H113.034ZM121.009 282.168C120.179 282.168 119.451 281.944 118.825 281.496C118.2 281.039 117.71 280.409 117.355 279.606C117.01 278.794 116.837 277.851 116.837 276.778C116.837 275.695 117.01 274.753 117.355 273.95C117.71 273.147 118.195 272.522 118.811 272.074C119.437 271.626 120.165 271.402 120.995 271.402C121.826 271.402 122.549 271.626 123.165 272.074C123.791 272.522 124.276 273.152 124.621 273.964C124.976 274.767 125.153 275.705 125.153 276.778C125.153 277.851 124.981 278.794 124.635 279.606C124.29 280.409 123.805 281.039 123.179 281.496C122.563 281.944 121.84 282.168 121.009 282.168ZM121.009 280.656C121.523 280.656 121.966 280.497 122.339 280.18C122.713 279.863 123.002 279.415 123.207 278.836C123.413 278.257 123.515 277.571 123.515 276.778C123.515 275.985 123.413 275.299 123.207 274.72C123.002 274.141 122.713 273.693 122.339 273.376C121.966 273.059 121.518 272.9 120.995 272.9C120.482 272.9 120.039 273.059 119.665 273.376C119.292 273.693 119.003 274.141 118.797 274.72C118.592 275.299 118.489 275.985 118.489 276.778C118.489 277.562 118.592 278.248 118.797 278.836C119.003 279.415 119.292 279.863 119.665 280.18C120.048 280.497 120.496 280.656 121.009 280.656ZM130.751 282.168C129.92 282.168 129.192 281.944 128.567 281.496C127.942 281.039 127.452 280.409 127.097 279.606C126.752 278.794 126.579 277.851 126.579 276.778C126.579 275.695 126.752 274.753 127.097 273.95C127.452 273.147 127.937 272.522 128.553 272.074C129.178 271.626 129.906 271.402 130.737 271.402C131.568 271.402 132.291 271.626 132.907 272.074C133.532 272.522 134.018 273.152 134.363 273.964C134.718 274.767 134.895 275.705 134.895 276.778C134.895 277.851 134.722 278.794 134.377 279.606C134.032 280.409 133.546 281.039 132.921 281.496C132.305 281.944 131.582 282.168 130.751 282.168ZM130.751 280.656C131.264 280.656 131.708 280.497 132.081 280.18C132.454 279.863 132.744 279.415 132.949 278.836C133.154 278.257 133.257 277.571 133.257 276.778C133.257 275.985 133.154 275.299 132.949 274.72C132.744 274.141 132.454 273.693 132.081 273.376C131.708 273.059 131.26 272.9 130.737 272.9C130.224 272.9 129.78 273.059 129.407 273.376C129.034 273.693 128.744 274.141 128.539 274.72C128.334 275.299 128.231 275.985 128.231 276.778C128.231 277.562 128.334 278.248 128.539 278.836C128.744 279.415 129.034 279.863 129.407 280.18C129.79 280.497 130.238 280.656 130.751 280.656Z" fill="#1A202C"/>
<rect x="204" y="273" width="16" height="16" rx="8" fill="#DBA32A" fill-opacity="0.14"/>
<circle cx="212" cy="281" r="4" fill="#DBA32A"/>
<path d="M228.924 286V277.06H232.176C232.776 277.06 233.304 277.172 233.76 277.396C234.224 277.612 234.584 277.932 234.84 278.356C235.096 278.772 235.224 279.272 235.224 279.856C235.224 280.432 235.092 280.928 234.828 281.344C234.572 281.76 234.216 282.08 233.76 282.304C233.304 282.528 232.776 282.64 232.176 282.64H230.34V286H228.924ZM230.34 281.38H232.212C232.532 281.38 232.812 281.316 233.052 281.188C233.292 281.06 233.48 280.884 233.616 280.66C233.752 280.428 233.82 280.156 233.82 279.844C233.82 279.532 233.752 279.264 233.616 279.04C233.48 278.808 233.292 278.632 233.052 278.512C232.812 278.384 232.532 278.32 232.212 278.32H230.34V281.38ZM239.123 286.144C238.475 286.144 237.899 285.996 237.395 285.7C236.899 285.396 236.511 284.988 236.231 284.476C235.951 283.956 235.811 283.376 235.811 282.736C235.811 282.08 235.951 281.5 236.231 280.996C236.519 280.492 236.903 280.096 237.383 279.808C237.863 279.512 238.407 279.364 239.015 279.364C239.503 279.364 239.939 279.448 240.323 279.616C240.707 279.784 241.031 280.016 241.295 280.312C241.559 280.6 241.759 280.932 241.895 281.308C242.039 281.684 242.111 282.084 242.111 282.508C242.111 282.612 242.107 282.72 242.099 282.832C242.091 282.944 242.075 283.048 242.051 283.144H236.879V282.064H241.283L240.635 282.556C240.715 282.164 240.687 281.816 240.551 281.512C240.423 281.2 240.223 280.956 239.951 280.78C239.687 280.596 239.375 280.504 239.015 280.504C238.655 280.504 238.335 280.596 238.055 280.78C237.775 280.956 237.559 281.212 237.407 281.548C237.255 281.876 237.195 282.276 237.227 282.748C237.187 283.188 237.247 283.572 237.407 283.9C237.575 284.228 237.807 284.484 238.103 284.668C238.407 284.852 238.751 284.944 239.135 284.944C239.527 284.944 239.859 284.856 240.131 284.68C240.411 284.504 240.631 284.276 240.791 283.996L241.895 284.536C241.767 284.84 241.567 285.116 241.295 285.364C241.031 285.604 240.711 285.796 240.335 285.94C239.967 286.076 239.563 286.144 239.123 286.144ZM243.195 286V279.508H244.491V280.78L244.335 280.612C244.495 280.204 244.751 279.896 245.103 279.688C245.455 279.472 245.863 279.364 246.327 279.364C246.807 279.364 247.231 279.468 247.599 279.676C247.967 279.884 248.255 280.172 248.463 280.54C248.671 280.908 248.775 281.332 248.775 281.812V286H247.431V282.172C247.431 281.844 247.371 281.568 247.251 281.344C247.131 281.112 246.959 280.936 246.735 280.816C246.519 280.688 246.271 280.624 245.991 280.624C245.711 280.624 245.459 280.688 245.235 280.816C245.019 280.936 244.851 281.112 244.731 281.344C244.611 281.576 244.551 281.852 244.551 282.172V286H243.195ZM252.986 286.144C252.362 286.144 251.802 285.996 251.306 285.7C250.818 285.396 250.43 284.988 250.142 284.476C249.862 283.964 249.722 283.388 249.722 282.748C249.722 282.108 249.866 281.532 250.154 281.02C250.442 280.508 250.83 280.104 251.318 279.808C251.806 279.512 252.358 279.364 252.974 279.364C253.494 279.364 253.954 279.468 254.354 279.676C254.754 279.884 255.07 280.172 255.302 280.54L255.098 280.852V276.916H256.442V286H255.158V284.68L255.314 284.932C255.09 285.324 254.77 285.624 254.354 285.832C253.938 286.04 253.482 286.144 252.986 286.144ZM253.118 284.884C253.494 284.884 253.83 284.792 254.126 284.608C254.43 284.424 254.666 284.172 254.834 283.852C255.01 283.524 255.098 283.156 255.098 282.748C255.098 282.34 255.01 281.976 254.834 281.656C254.666 281.336 254.43 281.084 254.126 280.9C253.83 280.716 253.494 280.624 253.118 280.624C252.742 280.624 252.402 280.716 252.098 280.9C251.794 281.084 251.558 281.336 251.39 281.656C251.222 281.976 251.138 282.34 251.138 282.748C251.138 283.156 251.222 283.524 251.39 283.852C251.558 284.172 251.79 284.424 252.086 284.608C252.39 284.792 252.734 284.884 253.118 284.884ZM257.785 286V279.508H259.141V286H257.785ZM257.785 278.62V277.06H259.141V278.62H257.785ZM260.487 286V279.508H261.783V280.78L261.627 280.612C261.787 280.204 262.043 279.896 262.395 279.688C262.747 279.472 263.155 279.364 263.619 279.364C264.099 279.364 264.523 279.468 264.891 279.676C265.259 279.884 265.547 280.172 265.755 280.54C265.963 280.908 266.067 281.332 266.067 281.812V286H264.723V282.172C264.723 281.844 264.663 281.568 264.543 281.344C264.423 281.112 264.251 280.936 264.027 280.816C263.811 280.688 263.563 280.624 263.283 280.624C263.003 280.624 262.751 280.688 262.527 280.816C262.311 280.936 262.143 281.112 262.023 281.344C261.903 281.576 261.843 281.852 261.843 282.172V286H260.487ZM270.41 288.64C269.938 288.64 269.502 288.564 269.102 288.412C268.702 288.26 268.358 288.048 268.07 287.776C267.782 287.512 267.566 287.2 267.422 286.84L268.67 286.324C268.782 286.628 268.986 286.88 269.282 287.08C269.586 287.28 269.958 287.38 270.398 287.38C270.742 287.38 271.05 287.312 271.322 287.176C271.594 287.048 271.81 286.856 271.97 286.6C272.13 286.352 272.21 286.052 272.21 285.7V284.236L272.45 284.512C272.226 284.928 271.914 285.244 271.514 285.46C271.122 285.676 270.678 285.784 270.182 285.784C269.582 285.784 269.042 285.644 268.562 285.364C268.082 285.084 267.702 284.7 267.422 284.212C267.15 283.724 267.014 283.176 267.014 282.568C267.014 281.952 267.15 281.404 267.422 280.924C267.702 280.444 268.078 280.064 268.55 279.784C269.022 279.504 269.562 279.364 270.17 279.364C270.666 279.364 271.106 279.472 271.49 279.688C271.882 279.896 272.202 280.2 272.45 280.6L272.27 280.936V279.508H273.554V285.7C273.554 286.26 273.418 286.76 273.146 287.2C272.882 287.648 272.514 288 272.042 288.256C271.57 288.512 271.026 288.64 270.41 288.64ZM270.338 284.524C270.698 284.524 271.018 284.44 271.298 284.272C271.578 284.096 271.798 283.864 271.958 283.576C272.126 283.28 272.21 282.948 272.21 282.58C272.21 282.212 272.126 281.88 271.958 281.584C271.79 281.288 271.566 281.056 271.286 280.888C271.006 280.712 270.69 280.624 270.338 280.624C269.97 280.624 269.642 280.712 269.354 280.888C269.066 281.056 268.838 281.288 268.67 281.584C268.51 281.872 268.43 282.204 268.43 282.58C268.43 282.94 268.51 283.268 268.67 283.564C268.838 283.86 269.066 284.096 269.354 284.272C269.642 284.44 269.97 284.524 270.338 284.524Z" fill="#1A202C"/>
<path d="M-364 308H301" stroke="#F3F5F7"/>
<path d="M65.732 346.168C65.0787 346.168 64.472 346.047 63.912 345.804C63.352 345.552 62.876 345.211 62.484 344.782C62.092 344.353 61.8027 343.858 61.616 343.298L63.016 342.71C63.268 343.354 63.6367 343.849 64.122 344.194C64.6073 344.539 65.1673 344.712 65.802 344.712C66.1753 344.712 66.502 344.656 66.782 344.544C67.062 344.423 67.2767 344.255 67.426 344.04C67.5847 343.825 67.664 343.578 67.664 343.298C67.664 342.915 67.5567 342.612 67.342 342.388C67.1273 342.164 66.81 341.987 66.39 341.856L64.43 341.24C63.646 340.997 63.0487 340.629 62.638 340.134C62.2273 339.63 62.022 339.042 62.022 338.37C62.022 337.782 62.1667 337.269 62.456 336.83C62.7453 336.382 63.142 336.032 63.646 335.78C64.1593 335.528 64.7427 335.402 65.396 335.402C66.0213 335.402 66.5907 335.514 67.104 335.738C67.6173 335.953 68.056 336.251 68.42 336.634C68.7933 337.017 69.064 337.46 69.232 337.964L67.86 338.566C67.6547 338.015 67.3327 337.591 66.894 337.292C66.4647 336.993 65.9653 336.844 65.396 336.844C65.0507 336.844 64.7473 336.905 64.486 337.026C64.2247 337.138 64.0193 337.306 63.87 337.53C63.73 337.745 63.66 337.997 63.66 338.286C63.66 338.622 63.7673 338.921 63.982 339.182C64.1967 339.443 64.5233 339.639 64.962 339.77L66.782 340.344C67.6127 340.596 68.238 340.96 68.658 341.436C69.078 341.903 69.288 342.486 69.288 343.186C69.288 343.765 69.134 344.278 68.826 344.726C68.5273 345.174 68.112 345.529 67.58 345.79C67.048 346.042 66.432 346.168 65.732 346.168ZM65.088 347.4V334.17H66.208V347.4H65.088ZM70.4845 346V344.81L73.3405 341.758C73.9005 341.161 74.3391 340.68 74.6565 340.316C74.9831 339.943 75.2165 339.616 75.3565 339.336C75.5058 339.056 75.5805 338.762 75.5805 338.454C75.5805 337.95 75.4265 337.563 75.1185 337.292C74.8105 337.012 74.4138 336.872 73.9285 336.872C73.4245 336.872 72.9905 337.017 72.6265 337.306C72.2625 337.586 72.0105 337.997 71.8705 338.538L70.4145 338.118C70.5265 337.567 70.7505 337.091 71.0865 336.69C71.4225 336.279 71.8331 335.962 72.3185 335.738C72.8131 335.514 73.3451 335.402 73.9145 335.402C74.5771 335.402 75.1558 335.528 75.6505 335.78C76.1451 336.023 76.5278 336.363 76.7985 336.802C77.0785 337.241 77.2185 337.749 77.2185 338.328C77.2185 338.711 77.1438 339.084 76.9945 339.448C76.8545 339.803 76.6351 340.181 76.3365 340.582C76.0378 340.974 75.6551 341.417 75.1885 341.912L72.6685 344.6H77.4145V346H70.4845ZM79.2016 348.058V347.288C79.5096 347.213 79.7476 347.069 79.9156 346.854C80.0836 346.649 80.1863 346.364 80.2236 346H79.4816V344.18H81.0916V345.37C81.0916 346.117 80.933 346.719 80.6156 347.176C80.2983 347.633 79.827 347.927 79.2016 348.058ZM87.2114 346.168C86.3807 346.168 85.6527 345.944 85.0274 345.496C84.4021 345.039 83.9121 344.409 83.5574 343.606C83.2121 342.794 83.0394 341.851 83.0394 340.778C83.0394 339.695 83.2121 338.753 83.5574 337.95C83.9121 337.147 84.3974 336.522 85.0134 336.074C85.6387 335.626 86.3667 335.402 87.1974 335.402C88.0281 335.402 88.7514 335.626 89.3674 336.074C89.9927 336.522 90.4781 337.152 90.8234 337.964C91.1781 338.767 91.3554 339.705 91.3554 340.778C91.3554 341.851 91.1827 342.794 90.8374 343.606C90.4921 344.409 90.0067 345.039 89.3814 345.496C88.7654 345.944 88.0421 346.168 87.2114 346.168ZM87.2114 344.656C87.7247 344.656 88.1681 344.497 88.5414 344.18C88.9147 343.863 89.2041 343.415 89.4094 342.836C89.6147 342.257 89.7174 341.571 89.7174 340.778C89.7174 339.985 89.6147 339.299 89.4094 338.72C89.2041 338.141 88.9147 337.693 88.5414 337.376C88.1681 337.059 87.7201 336.9 87.1974 336.9C86.6841 336.9 86.2407 337.059 85.8674 337.376C85.4941 337.693 85.2047 338.141 84.9994 338.72C84.7941 339.299 84.6914 339.985 84.6914 340.778C84.6914 341.562 84.7941 342.248 84.9994 342.836C85.2047 343.415 85.4941 343.863 85.8674 344.18C86.2501 344.497 86.6981 344.656 87.2114 344.656ZM96.9529 346.168C96.1222 346.168 95.3942 345.944 94.7689 345.496C94.1435 345.039 93.6535 344.409 93.2989 343.606C92.9535 342.794 92.7809 341.851 92.7809 340.778C92.7809 339.695 92.9535 338.753 93.2989 337.95C93.6535 337.147 94.1389 336.522 94.7549 336.074C95.3802 335.626 96.1082 335.402 96.9389 335.402C97.7695 335.402 98.4929 335.626 99.1089 336.074C99.7342 336.522 100.22 337.152 100.565 337.964C100.92 338.767 101.097 339.705 101.097 340.778C101.097 341.851 100.924 342.794 100.579 343.606C100.234 344.409 99.7482 345.039 99.1229 345.496C98.5069 345.944 97.7835 346.168 96.9529 346.168ZM96.9529 344.656C97.4662 344.656 97.9095 344.497 98.2829 344.18C98.6562 343.863 98.9455 343.415 99.1509 342.836C99.3562 342.257 99.4589 341.571 99.4589 340.778C99.4589 339.985 99.3562 339.299 99.1509 338.72C98.9455 338.141 98.6562 337.693 98.2829 337.376C97.9095 337.059 97.4615 336.9 96.9389 336.9C96.4255 336.9 95.9822 337.059 95.6089 337.376C95.2355 337.693 94.9462 338.141 94.7409 338.72C94.5355 339.299 94.4329 339.985 94.4329 340.778C94.4329 341.562 94.5355 342.248 94.7409 342.836C94.9462 343.415 95.2355 343.863 95.6089 344.18C95.9915 344.497 96.4395 344.656 96.9529 344.656ZM106.694 346.168C105.864 346.168 105.136 345.944 104.51 345.496C103.885 345.039 103.395 344.409 103.04 343.606C102.695 342.794 102.522 341.851 102.522 340.778C102.522 339.695 102.695 338.753 103.04 337.95C103.395 337.147 103.88 336.522 104.496 336.074C105.122 335.626 105.85 335.402 106.68 335.402C107.511 335.402 108.234 335.626 108.85 336.074C109.476 336.522 109.961 337.152 110.306 337.964C110.661 338.767 110.838 339.705 110.838 340.778C110.838 341.851 110.666 342.794 110.32 343.606C109.975 344.409 109.49 345.039 108.864 345.496C108.248 345.944 107.525 346.168 106.694 346.168ZM106.694 344.656C107.208 344.656 107.651 344.497 108.024 344.18C108.398 343.863 108.687 343.415 108.892 342.836C109.098 342.257 109.2 341.571 109.2 340.778C109.2 339.985 109.098 339.299 108.892 338.72C108.687 338.141 108.398 337.693 108.024 337.376C107.651 337.059 107.203 336.9 106.68 336.9C106.167 336.9 105.724 337.059 105.35 337.376C104.977 337.693 104.688 338.141 104.482 338.72C104.277 339.299 104.174 339.985 104.174 340.778C104.174 341.562 104.277 342.248 104.482 342.836C104.688 343.415 104.977 343.863 105.35 344.18C105.733 344.497 106.181 344.656 106.694 344.656ZM113.034 346V344.18H114.644V346H113.034ZM121.009 346.168C120.179 346.168 119.451 345.944 118.825 345.496C118.2 345.039 117.71 344.409 117.355 343.606C117.01 342.794 116.837 341.851 116.837 340.778C116.837 339.695 117.01 338.753 117.355 337.95C117.71 337.147 118.195 336.522 118.811 336.074C119.437 335.626 120.165 335.402 120.995 335.402C121.826 335.402 122.549 335.626 123.165 336.074C123.791 336.522 124.276 337.152 124.621 337.964C124.976 338.767 125.153 339.705 125.153 340.778C125.153 341.851 124.981 342.794 124.635 343.606C124.29 344.409 123.805 345.039 123.179 345.496C122.563 345.944 121.84 346.168 121.009 346.168ZM121.009 344.656C121.523 344.656 121.966 344.497 122.339 344.18C122.713 343.863 123.002 343.415 123.207 342.836C123.413 342.257 123.515 341.571 123.515 340.778C123.515 339.985 123.413 339.299 123.207 338.72C123.002 338.141 122.713 337.693 122.339 337.376C121.966 337.059 121.518 336.9 120.995 336.9C120.482 336.9 120.039 337.059 119.665 337.376C119.292 337.693 119.003 338.141 118.797 338.72C118.592 339.299 118.489 339.985 118.489 340.778C118.489 341.562 118.592 342.248 118.797 342.836C119.003 343.415 119.292 343.863 119.665 344.18C120.048 344.497 120.496 344.656 121.009 344.656ZM130.751 346.168C129.92 346.168 129.192 345.944 128.567 345.496C127.942 345.039 127.452 344.409 127.097 343.606C126.752 342.794 126.579 341.851 126.579 340.778C126.579 339.695 126.752 338.753 127.097 337.95C127.452 337.147 127.937 336.522 128.553 336.074C129.178 335.626 129.906 335.402 130.737 335.402C131.568 335.402 132.291 335.626 132.907 336.074C133.532 336.522 134.018 337.152 134.363 337.964C134.718 338.767 134.895 339.705 134.895 340.778C134.895 341.851 134.722 342.794 134.377 343.606C134.032 344.409 133.546 345.039 132.921 345.496C132.305 345.944 131.582 346.168 130.751 346.168ZM130.751 344.656C131.264 344.656 131.708 344.497 132.081 344.18C132.454 343.863 132.744 343.415 132.949 342.836C133.154 342.257 133.257 341.571 133.257 340.778C133.257 339.985 133.154 339.299 132.949 338.72C132.744 338.141 132.454 337.693 132.081 337.376C131.708 337.059 131.26 336.9 130.737 336.9C130.224 336.9 129.78 337.059 129.407 337.376C129.034 337.693 128.744 338.141 128.539 338.72C128.334 339.299 128.231 339.985 128.231 340.778C128.231 341.562 128.334 342.248 128.539 342.836C128.744 343.415 129.034 343.863 129.407 344.18C129.79 344.497 130.238 344.656 130.751 344.656Z" fill="#1A202C"/>
<rect x="204" y="337" width="16" height="16" rx="8" fill="#DB2719" fill-opacity="0.3"/>
<circle cx="212" cy="345" r="4" fill="#DB2719"/>
<path d="M233.268 350.144C232.62 350.144 232.016 350.028 231.456 349.796C230.904 349.564 230.416 349.24 229.992 348.824C229.576 348.408 229.248 347.92 229.008 347.36C228.776 346.8 228.66 346.188 228.66 345.524C228.66 344.86 228.776 344.248 229.008 343.688C229.248 343.12 229.576 342.632 229.992 342.224C230.408 341.808 230.896 341.488 231.456 341.264C232.016 341.032 232.62 340.916 233.268 340.916C233.924 340.916 234.528 341.032 235.08 341.264C235.64 341.488 236.128 341.808 236.544 342.224C236.968 342.64 237.296 343.128 237.528 343.688C237.76 344.248 237.876 344.86 237.876 345.524C237.876 346.188 237.756 346.8 237.516 347.36C237.284 347.92 236.96 348.408 236.544 348.824C236.128 349.24 235.64 349.564 235.08 349.796C234.52 350.028 233.916 350.144 233.268 350.144ZM233.268 348.848C233.732 348.848 234.156 348.764 234.54 348.596C234.932 348.428 235.272 348.196 235.56 347.9C235.848 347.596 236.072 347.244 236.232 346.844C236.392 346.436 236.472 345.996 236.472 345.524C236.472 345.052 236.392 344.616 236.232 344.216C236.072 343.816 235.848 343.464 235.56 343.16C235.272 342.856 234.932 342.62 234.54 342.452C234.156 342.284 233.732 342.2 233.268 342.2C232.804 342.2 232.376 342.284 231.984 342.452C231.6 342.62 231.264 342.856 230.976 343.16C230.688 343.464 230.464 343.816 230.304 344.216C230.152 344.616 230.076 345.052 230.076 345.524C230.076 345.996 230.152 346.436 230.304 346.844C230.464 347.244 230.688 347.596 230.976 347.9C231.264 348.196 231.604 348.428 231.996 348.596C232.388 348.764 232.812 348.848 233.268 348.848ZM239.087 350V343.508H240.383V344.78L240.227 344.612C240.387 344.204 240.643 343.896 240.995 343.688C241.347 343.472 241.755 343.364 242.219 343.364C242.699 343.364 243.123 343.468 243.491 343.676C243.859 343.884 244.147 344.172 244.355 344.54C244.563 344.908 244.667 345.332 244.667 345.812V350H243.323V346.172C243.323 345.844 243.263 345.568 243.143 345.344C243.023 345.112 242.851 344.936 242.627 344.816C242.411 344.688 242.163 344.624 241.883 344.624C241.603 344.624 241.351 344.688 241.127 344.816C240.911 344.936 240.743 345.112 240.623 345.344C240.503 345.576 240.443 345.852 240.443 346.172V350H239.087ZM247.868 350V341.06H249.284V344.996H253.424V341.06H254.828V350H253.424V346.256H249.284V350H247.868ZM259.441 350.144C258.817 350.144 258.245 349.996 257.725 349.7C257.213 349.404 256.805 349 256.501 348.488C256.197 347.976 256.045 347.396 256.045 346.748C256.045 346.092 256.197 345.512 256.501 345.008C256.805 344.496 257.213 344.096 257.725 343.808C258.237 343.512 258.809 343.364 259.441 343.364C260.081 343.364 260.653 343.512 261.157 343.808C261.669 344.096 262.073 344.496 262.369 345.008C262.673 345.512 262.825 346.092 262.825 346.748C262.825 347.404 262.673 347.988 262.369 348.5C262.065 349.012 261.657 349.416 261.145 349.712C260.633 350 260.065 350.144 259.441 350.144ZM259.441 348.884C259.825 348.884 260.165 348.792 260.461 348.608C260.757 348.424 260.989 348.172 261.157 347.852C261.333 347.524 261.421 347.156 261.421 346.748C261.421 346.34 261.333 345.976 261.157 345.656C260.989 345.336 260.757 345.084 260.461 344.9C260.165 344.716 259.825 344.624 259.441 344.624C259.065 344.624 258.725 344.716 258.421 344.9C258.125 345.084 257.889 345.336 257.713 345.656C257.545 345.976 257.461 346.34 257.461 346.748C257.461 347.156 257.545 347.524 257.713 347.852C257.889 348.172 258.125 348.424 258.421 348.608C258.725 348.792 259.065 348.884 259.441 348.884ZM263.908 350V340.916H265.264V350H263.908ZM269.61 350.144C268.986 350.144 268.426 349.996 267.93 349.7C267.442 349.396 267.054 348.988 266.766 348.476C266.486 347.964 266.346 347.388 266.346 346.748C266.346 346.108 266.49 345.532 266.778 345.02C267.066 344.508 267.454 344.104 267.942 343.808C268.43 343.512 268.982 343.364 269.598 343.364C270.118 343.364 270.578 343.468 270.978 343.676C271.378 343.884 271.694 344.172 271.926 344.54L271.722 344.852V340.916H273.066V350H271.782V348.68L271.938 348.932C271.714 349.324 271.394 349.624 270.978 349.832C270.562 350.04 270.106 350.144 269.61 350.144ZM269.742 348.884C270.118 348.884 270.454 348.792 270.75 348.608C271.054 348.424 271.29 348.172 271.458 347.852C271.634 347.524 271.722 347.156 271.722 346.748C271.722 346.34 271.634 345.976 271.458 345.656C271.29 345.336 271.054 345.084 270.75 344.9C270.454 344.716 270.118 344.624 269.742 344.624C269.366 344.624 269.026 344.716 268.722 344.9C268.418 345.084 268.182 345.336 268.014 345.656C267.846 345.976 267.762 346.34 267.762 346.748C267.762 347.156 267.846 347.524 268.014 347.852C268.182 348.172 268.414 348.424 268.71 348.608C269.014 348.792 269.358 348.884 269.742 348.884Z" fill="#1A202C"/>
<path d="M-364 372H301" stroke="#F3F5F7"/>
<rect x="165.5" y="77.5" width="151" height="33" rx="5.5" stroke="#C3D4E9"/>
<path d="M187 86.5V88.75" stroke="#292D32" stroke-width="1.5" stroke-miterlimit="10" stroke-linecap="round" stroke-linejoin="round"/>
<path d="M193 86.5V88.75" stroke="#292D32" stroke-width="1.5" stroke-miterlimit="10" stroke-linecap="round" stroke-linejoin="round"/>
<path d="M183.625 91.8175H196.375" stroke="#292D32" stroke-width="1.5" stroke-miterlimit="10" stroke-linecap="round" stroke-linejoin="round"/>
<path d="M196.75 91.375V97.75C196.75 100 195.625 101.5 193 101.5H187C184.375 101.5 183.25 100 183.25 97.75V91.375C183.25 89.125 184.375 87.625 187 87.625H193C195.625 87.625 196.75 89.125 196.75 91.375Z" stroke="#292D32" stroke-width="1.5" stroke-miterlimit="10" stroke-linecap="round" stroke-linejoin="round"/>
<path d="M192.771 95.275H192.778" stroke="#292D32" stroke-width="2" stroke-linecap="round" stroke-linejoin="round"/>
<path d="M192.771 97.525H192.778" stroke="#292D32" stroke-width="2" stroke-linecap="round" stroke-linejoin="round"/>
<path d="M189.997 95.275H190.003" stroke="#292D32" stroke-width="2" stroke-linecap="round" stroke-linejoin="round"/>
<path d="M189.997 97.525H190.003" stroke="#292D32" stroke-width="2" stroke-linecap="round" stroke-linejoin="round"/>
<path d="M187.221 95.275H187.227" stroke="#292D32" stroke-width="2" stroke-linecap="round" stroke-linejoin="round"/>
<path d="M187.221 97.525H187.227" stroke="#292D32" stroke-width="2" stroke-linecap="round" stroke-linejoin="round"/>
<path d="M209.112 98.5V90.76H207.396V89.56H210.516V98.5H209.112ZM213.845 98.5V97.18H214.361C214.761 97.18 215.081 97.064 215.321 96.832C215.561 96.592 215.681 96.272 215.681 95.872V89.56H217.085V95.824C217.085 96.368 216.973 96.84 216.749 97.24C216.533 97.64 216.217 97.952 215.801 98.176C215.393 98.392 214.913 98.5 214.361 98.5H213.845ZM220.489 98.644C220.049 98.644 219.661 98.568 219.325 98.416C218.997 98.256 218.741 98.04 218.557 97.768C218.373 97.488 218.281 97.16 218.281 96.784C218.281 96.432 218.357 96.116 218.509 95.836C218.669 95.556 218.913 95.32 219.241 95.128C219.569 94.936 219.981 94.8 220.477 94.72L222.733 94.348V95.416L220.741 95.764C220.381 95.828 220.117 95.944 219.949 96.112C219.781 96.272 219.697 96.48 219.697 96.736C219.697 96.984 219.789 97.188 219.973 97.348C220.165 97.5 220.409 97.576 220.705 97.576C221.073 97.576 221.393 97.496 221.665 97.336C221.945 97.176 222.161 96.964 222.313 96.7C222.465 96.428 222.541 96.128 222.541 95.8V94.132C222.541 93.812 222.421 93.552 222.181 93.352C221.949 93.144 221.637 93.04 221.245 93.04C220.885 93.04 220.569 93.136 220.297 93.328C220.033 93.512 219.837 93.752 219.709 94.048L218.581 93.484C218.701 93.164 218.897 92.884 219.169 92.644C219.441 92.396 219.757 92.204 220.117 92.068C220.485 91.932 220.873 91.864 221.281 91.864C221.793 91.864 222.245 91.96 222.637 92.152C223.037 92.344 223.345 92.612 223.561 92.956C223.785 93.292 223.897 93.684 223.897 94.132V98.5H222.601V97.324L222.877 97.36C222.725 97.624 222.529 97.852 222.289 98.044C222.057 98.236 221.789 98.384 221.485 98.488C221.189 98.592 220.857 98.644 220.489 98.644ZM225.242 98.5V92.008H226.538V93.28L226.382 93.112C226.542 92.704 226.798 92.396 227.15 92.188C227.502 91.972 227.91 91.864 228.374 91.864C228.854 91.864 229.278 91.968 229.646 92.176C230.014 92.384 230.302 92.672 230.51 93.04C230.718 93.408 230.822 93.832 230.822 94.312V98.5H229.478V94.672C229.478 94.344 229.418 94.068 229.298 93.844C229.178 93.612 229.006 93.436 228.782 93.316C228.566 93.188 228.318 93.124 228.038 93.124C227.758 93.124 227.506 93.188 227.282 93.316C227.066 93.436 226.898 93.612 226.778 93.844C226.658 94.076 226.598 94.352 226.598 94.672V98.5H225.242ZM234.095 95.848V94.648H238.895V95.848H234.095ZM243.626 98.5V90.76H241.91V89.56H245.03V98.5H243.626ZM248.754 98.5V89.56H254.574V90.82H250.17V93.508H254.094V94.768H250.17V98.5H248.754ZM258.263 98.644C257.615 98.644 257.039 98.496 256.535 98.2C256.039 97.896 255.651 97.488 255.371 96.976C255.091 96.456 254.951 95.876 254.951 95.236C254.951 94.58 255.091 94 255.371 93.496C255.659 92.992 256.043 92.596 256.523 92.308C257.003 92.012 257.547 91.864 258.155 91.864C258.643 91.864 259.079 91.948 259.463 92.116C259.847 92.284 260.171 92.516 260.435 92.812C260.699 93.1 260.899 93.432 261.035 93.808C261.179 94.184 261.251 94.584 261.251 95.008C261.251 95.112 261.247 95.22 261.239 95.332C261.231 95.444 261.215 95.548 261.191 95.644H256.019V94.564H260.423L259.775 95.056C259.855 94.664 259.827 94.316 259.691 94.012C259.563 93.7 259.363 93.456 259.091 93.28C258.827 93.096 258.515 93.004 258.155 93.004C257.795 93.004 257.475 93.096 257.195 93.28C256.915 93.456 256.699 93.712 256.547 94.048C256.395 94.376 256.335 94.776 256.367 95.248C256.327 95.688 256.387 96.072 256.547 96.4C256.715 96.728 256.947 96.984 257.243 97.168C257.547 97.352 257.891 97.444 258.275 97.444C258.667 97.444 258.999 97.356 259.271 97.18C259.551 97.004 259.771 96.776 259.931 96.496L261.035 97.036C260.907 97.34 260.707 97.616 260.435 97.864C260.171 98.104 259.851 98.296 259.475 98.44C259.107 98.576 258.703 98.644 258.263 98.644ZM265.802 98.644C265.298 98.644 264.838 98.54 264.422 98.332C264.014 98.124 263.698 97.824 263.474 97.432L263.63 97.18V98.5H262.334V89.416H263.69V93.352L263.474 93.04C263.714 92.672 264.034 92.384 264.434 92.176C264.834 91.968 265.29 91.864 265.802 91.864C266.418 91.864 266.97 92.012 267.458 92.308C267.954 92.604 268.342 93.008 268.622 93.52C268.91 94.032 269.054 94.608 269.054 95.248C269.054 95.888 268.91 96.464 268.622 96.976C268.342 97.488 267.958 97.896 267.47 98.2C266.982 98.496 266.426 98.644 265.802 98.644ZM265.67 97.384C266.054 97.384 266.394 97.292 266.69 97.108C266.986 96.924 267.218 96.672 267.386 96.352C267.562 96.024 267.65 95.656 267.65 95.248C267.65 94.84 267.562 94.476 267.386 94.156C267.218 93.836 266.986 93.584 266.69 93.4C266.394 93.216 266.054 93.124 265.67 93.124C265.294 93.124 264.954 93.216 264.65 93.4C264.354 93.584 264.118 93.836 263.942 94.156C263.774 94.476 263.69 94.84 263.69 95.248C263.69 95.656 263.774 96.024 263.942 96.352C264.118 96.672 264.354 96.924 264.65 97.108C264.954 97.292 265.294 97.384 265.67 97.384ZM271.799 98.5V97.48L274.247 94.864C274.727 94.352 275.103 93.94 275.375 93.628C275.655 93.308 275.855 93.028 275.975 92.788C276.103 92.548 276.167 92.296 276.167 92.032C276.167 91.6 276.035 91.268 275.771 91.036C275.507 90.796 275.167 90.676 274.751 90.676C274.319 90.676 273.947 90.8 273.635 91.048C273.323 91.288 273.107 91.64 272.987 92.104L271.739 91.744C271.835 91.272 272.027 90.864 272.315 90.52C272.603 90.168 272.955 89.896 273.371 89.704C273.795 89.512 274.251 89.416 274.739 89.416C275.307 89.416 275.803 89.524 276.227 89.74C276.651 89.948 276.979 90.24 277.211 90.616C277.451 90.992 277.571 91.428 277.571 91.924C277.571 92.252 277.507 92.572 277.379 92.884C277.259 93.188 277.071 93.512 276.815 93.856C276.559 94.192 276.231 94.572 275.831 94.996L273.671 97.3H277.739V98.5H271.799ZM282.438 98.644C281.726 98.644 281.102 98.452 280.566 98.068C280.03 97.676 279.61 97.136 279.306 96.448C279.01 95.752 278.862 94.944 278.862 94.024C278.862 93.096 279.01 92.288 279.306 91.6C279.61 90.912 280.026 90.376 280.554 89.992C281.09 89.608 281.714 89.416 282.426 89.416C283.138 89.416 283.758 89.608 284.286 89.992C284.822 90.376 285.238 90.916 285.534 91.612C285.838 92.3 285.99 93.104 285.99 94.024C285.99 94.944 285.842 95.752 285.546 96.448C285.25 97.136 284.834 97.676 284.298 98.068C283.77 98.452 283.15 98.644 282.438 98.644ZM282.438 97.348C282.878 97.348 283.258 97.212 283.578 96.94C283.898 96.668 284.146 96.284 284.322 95.788C284.498 95.292 284.586 94.704 284.586 94.024C284.586 93.344 284.498 92.756 284.322 92.26C284.146 91.764 283.898 91.38 283.578 91.108C283.258 90.836 282.874 90.7 282.426 90.7C281.986 90.7 281.606 90.836 281.286 91.108C280.966 91.38 280.718 91.764 280.542 92.26C280.366 92.756 280.278 93.344 280.278 94.024C280.278 94.696 280.366 95.284 280.542 95.788C280.718 96.284 280.966 96.668 281.286 96.94C281.614 97.212 281.998 97.348 282.438 97.348ZM287.08 98.5V97.48L289.528 94.864C290.008 94.352 290.384 93.94 290.656 93.628C290.936 93.308 291.136 93.028 291.256 92.788C291.384 92.548 291.448 92.296 291.448 92.032C291.448 91.6 291.316 91.268 291.052 91.036C290.788 90.796 290.448 90.676 290.032 90.676C289.6 90.676 289.228 90.8 288.916 91.048C288.604 91.288 288.388 91.64 288.268 92.104L287.02 91.744C287.116 91.272 287.308 90.864 287.596 90.52C287.884 90.168 288.236 89.896 288.652 89.704C289.076 89.512 289.532 89.416 290.02 89.416C290.588 89.416 291.084 89.524 291.508 89.74C291.932 89.948 292.26 90.24 292.492 90.616C292.732 90.992 292.852 91.428 292.852 91.924C292.852 92.252 292.788 92.572 292.66 92.884C292.54 93.188 292.352 93.512 292.096 93.856C291.84 94.192 291.512 94.572 291.112 94.996L288.952 97.3H293.02V98.5H287.08ZM294.012 98.5V97.48L296.46 94.864C296.94 94.352 297.316 93.94 297.588 93.628C297.868 93.308 298.068 93.028 298.188 92.788C298.316 92.548 298.38 92.296 298.38 92.032C298.38 91.6 298.248 91.268 297.984 91.036C297.72 90.796 297.38 90.676 296.964 90.676C296.532 90.676 296.16 90.8 295.848 91.048C295.536 91.288 295.32 91.64 295.2 92.104L293.952 91.744C294.048 91.272 294.24 90.864 294.528 90.52C294.816 90.168 295.168 89.896 295.584 89.704C296.008 89.512 296.464 89.416 296.952 89.416C297.52 89.416 298.016 89.524 298.44 89.74C298.864 89.948 299.192 90.24 299.424 90.616C299.664 90.992 299.784 91.428 299.784 91.924C299.784 92.252 299.72 92.572 299.592 92.884C299.472 93.188 299.284 93.512 299.028 93.856C298.772 94.192 298.444 94.572 298.044 94.996L295.884 97.3H299.952V98.5H294.012Z" fill="#1A202C"/>
</g>
<defs>
<clipPath id="clip0_3213_393">
<rect width="384" height="384" rx="12" fill="white"/>
</clipPath>
<clipPath id="clip1_3213_393">
<rect width="649" height="36" fill="white" transform="translate(-356 194)"/>
</clipPath>
</defs>
</svg>
