<svg width="231" height="315" viewBox="0 0 231 315" fill="none" xmlns="http://www.w3.org/2000/svg">
<rect x="31" y="31" width="200" height="200" rx="16" fill="#F3F5F7"/>
<path d="M63 75C63 68.3726 68.3726 63 75 63H231V231H63V75Z" fill="white"/>
<path d="M91.236 101.144C90.588 101.144 90.012 101.008 89.508 100.736C89.012 100.464 88.624 100.092 88.344 99.62C88.072 99.14 87.936 98.596 87.936 97.988V92.06H89.124V97.964C89.124 98.372 89.212 98.736 89.388 99.056C89.572 99.368 89.82 99.612 90.132 99.788C90.452 99.964 90.82 100.052 91.236 100.052C91.652 100.052 92.016 99.964 92.328 99.788C92.648 99.612 92.896 99.368 93.072 99.056C93.256 98.736 93.348 98.372 93.348 97.964V92.06H94.536V97.988C94.536 98.596 94.396 99.14 94.116 99.62C93.844 100.092 93.46 100.464 92.964 100.736C92.468 101.008 91.892 101.144 91.236 101.144ZM98.4127 101.144C97.7647 101.144 97.2007 100.984 96.7207 100.664C96.2407 100.344 95.9007 99.912 95.7007 99.368L96.5887 98.936C96.7727 99.32 97.0247 99.624 97.3447 99.848C97.6647 100.072 98.0207 100.184 98.4127 100.184C98.7647 100.184 99.0567 100.1 99.2887 99.932C99.5207 99.764 99.6367 99.544 99.6367 99.272C99.6367 99.08 99.5807 98.928 99.4687 98.816C99.3647 98.696 99.2367 98.604 99.0847 98.54C98.9327 98.468 98.7927 98.416 98.6647 98.384L97.6927 98.108C97.1087 97.94 96.6807 97.7 96.4087 97.388C96.1447 97.076 96.0127 96.712 96.0127 96.296C96.0127 95.912 96.1087 95.58 96.3007 95.3C96.5007 95.012 96.7687 94.788 97.1047 94.628C97.4487 94.468 97.8327 94.388 98.2567 94.388C98.8247 94.388 99.3327 94.532 99.7807 94.82C100.237 95.108 100.561 95.512 100.753 96.032L99.8407 96.452C99.6967 96.116 99.4807 95.852 99.1927 95.66C98.9047 95.46 98.5807 95.36 98.2207 95.36C97.8927 95.36 97.6327 95.444 97.4407 95.612C97.2487 95.772 97.1527 95.976 97.1527 96.224C97.1527 96.408 97.2007 96.56 97.2967 96.68C97.3927 96.792 97.5087 96.88 97.6447 96.944C97.7807 97 97.9127 97.048 98.0407 97.088L99.0967 97.4C99.6247 97.552 100.033 97.788 100.321 98.108C100.617 98.428 100.765 98.812 100.765 99.26C100.765 99.62 100.665 99.944 100.465 100.232C100.265 100.52 99.9887 100.744 99.6367 100.904C99.2847 101.064 98.8767 101.144 98.4127 101.144ZM104.962 101.144C104.338 101.144 103.782 100.996 103.294 100.7C102.806 100.404 102.422 100 102.142 99.488C101.862 98.968 101.722 98.388 101.722 97.748C101.722 97.1 101.858 96.524 102.13 96.02C102.41 95.516 102.786 95.12 103.258 94.832C103.738 94.536 104.274 94.388 104.866 94.388C105.346 94.388 105.77 94.476 106.138 94.652C106.514 94.82 106.83 95.052 107.086 95.348C107.35 95.636 107.55 95.968 107.686 96.344C107.83 96.712 107.902 97.096 107.902 97.496C107.902 97.584 107.894 97.684 107.878 97.796C107.87 97.9 107.858 98 107.842 98.096H102.538V97.136H107.194L106.666 97.568C106.738 97.152 106.698 96.78 106.546 96.452C106.394 96.124 106.17 95.864 105.874 95.672C105.578 95.48 105.242 95.384 104.866 95.384C104.49 95.384 104.146 95.48 103.834 95.672C103.522 95.864 103.278 96.14 103.102 96.5C102.934 96.852 102.866 97.272 102.898 97.76C102.866 98.232 102.938 98.648 103.114 99.008C103.298 99.36 103.554 99.636 103.882 99.836C104.218 100.028 104.582 100.124 104.974 100.124C105.406 100.124 105.77 100.024 106.066 99.824C106.362 99.624 106.602 99.368 106.786 99.056L107.722 99.536C107.594 99.832 107.394 100.104 107.122 100.352C106.858 100.592 106.542 100.784 106.174 100.928C105.814 101.072 105.41 101.144 104.962 101.144ZM109.117 101V94.532H110.209V95.72L110.089 95.552C110.241 95.184 110.473 94.912 110.785 94.736C111.097 94.552 111.477 94.46 111.925 94.46H112.321V95.516H111.757C111.301 95.516 110.933 95.66 110.653 95.948C110.373 96.228 110.233 96.628 110.233 97.148V101H109.117ZM113.072 101V94.532H114.164V95.792L113.984 95.684C114.144 95.276 114.4 94.96 114.752 94.736C115.112 94.504 115.532 94.388 116.012 94.388C116.476 94.388 116.888 94.492 117.248 94.7C117.616 94.908 117.904 95.196 118.112 95.564C118.328 95.932 118.436 96.348 118.436 96.812V101H117.308V97.172C117.308 96.812 117.244 96.508 117.116 96.26C116.988 96.012 116.804 95.82 116.564 95.684C116.332 95.54 116.064 95.468 115.76 95.468C115.456 95.468 115.184 95.54 114.944 95.684C114.712 95.82 114.528 96.016 114.392 96.272C114.256 96.52 114.188 96.82 114.188 97.172V101H113.072ZM121.689 101.144C121.265 101.144 120.889 101.068 120.561 100.916C120.241 100.756 119.989 100.54 119.805 100.268C119.621 99.988 119.529 99.668 119.529 99.308C119.529 98.964 119.601 98.656 119.745 98.384C119.897 98.104 120.129 97.868 120.441 97.676C120.761 97.484 121.161 97.348 121.641 97.268L124.041 96.872V97.808L121.893 98.168C121.477 98.24 121.173 98.372 120.981 98.564C120.797 98.756 120.705 98.992 120.705 99.272C120.705 99.536 120.809 99.756 121.017 99.932C121.233 100.108 121.501 100.196 121.821 100.196C122.229 100.196 122.581 100.112 122.877 99.944C123.181 99.768 123.417 99.532 123.585 99.236C123.761 98.94 123.849 98.612 123.849 98.252V96.608C123.849 96.256 123.717 95.972 123.453 95.756C123.197 95.532 122.857 95.42 122.433 95.42C122.065 95.42 121.737 95.516 121.449 95.708C121.169 95.892 120.961 96.14 120.825 96.452L119.853 95.948C119.973 95.652 120.165 95.388 120.429 95.156C120.693 94.916 121.001 94.728 121.353 94.592C121.705 94.456 122.073 94.388 122.457 94.388C122.953 94.388 123.389 94.484 123.765 94.676C124.141 94.86 124.433 95.12 124.641 95.456C124.857 95.784 124.965 96.168 124.965 96.608V101H123.873V99.776L124.077 99.848C123.941 100.104 123.757 100.328 123.525 100.52C123.293 100.712 123.021 100.864 122.709 100.976C122.397 101.088 122.057 101.144 121.689 101.144ZM126.455 101V94.532H127.547V95.852L127.391 95.648C127.551 95.24 127.807 94.928 128.159 94.712C128.511 94.496 128.907 94.388 129.347 94.388C129.851 94.388 130.303 94.528 130.703 94.808C131.111 95.088 131.391 95.456 131.543 95.912L131.231 95.924C131.399 95.42 131.683 95.04 132.083 94.784C132.483 94.52 132.927 94.388 133.415 94.388C133.863 94.388 134.267 94.492 134.627 94.7C134.995 94.908 135.287 95.196 135.503 95.564C135.719 95.932 135.827 96.348 135.827 96.812V101H134.699V97.172C134.699 96.812 134.635 96.508 134.507 96.26C134.379 96.012 134.203 95.82 133.979 95.684C133.763 95.54 133.507 95.468 133.211 95.468C132.923 95.468 132.663 95.54 132.431 95.684C132.207 95.82 132.027 96.016 131.891 96.272C131.763 96.52 131.699 96.82 131.699 97.172V101H130.571V97.172C130.571 96.812 130.507 96.508 130.379 96.26C130.251 96.012 130.075 95.82 129.851 95.684C129.635 95.54 129.379 95.468 129.083 95.468C128.795 95.468 128.535 95.54 128.303 95.684C128.079 95.82 127.899 96.016 127.763 96.272C127.635 96.52 127.571 96.82 127.571 97.172V101H126.455ZM140.148 101.144C139.524 101.144 138.968 100.996 138.48 100.7C137.992 100.404 137.608 100 137.328 99.488C137.048 98.968 136.908 98.388 136.908 97.748C136.908 97.1 137.044 96.524 137.316 96.02C137.596 95.516 137.972 95.12 138.444 94.832C138.924 94.536 139.46 94.388 140.052 94.388C140.532 94.388 140.956 94.476 141.324 94.652C141.7 94.82 142.016 95.052 142.272 95.348C142.536 95.636 142.736 95.968 142.872 96.344C143.016 96.712 143.088 97.096 143.088 97.496C143.088 97.584 143.08 97.684 143.064 97.796C143.056 97.9 143.044 98 143.028 98.096H137.724V97.136H142.38L141.852 97.568C141.924 97.152 141.884 96.78 141.732 96.452C141.58 96.124 141.356 95.864 141.06 95.672C140.764 95.48 140.428 95.384 140.052 95.384C139.676 95.384 139.332 95.48 139.02 95.672C138.708 95.864 138.464 96.14 138.288 96.5C138.12 96.852 138.052 97.272 138.084 97.76C138.052 98.232 138.124 98.648 138.3 99.008C138.484 99.36 138.74 99.636 139.068 99.836C139.404 100.028 139.768 100.124 140.16 100.124C140.592 100.124 140.956 100.024 141.252 99.824C141.548 99.624 141.788 99.368 141.972 99.056L142.908 99.536C142.78 99.832 142.58 100.104 142.308 100.352C142.044 100.592 141.728 100.784 141.36 100.928C141 101.072 140.596 101.144 140.148 101.144Z" fill="#1A202C"/>
<rect x="87" y="110" width="144" height="30" rx="2" fill="#F3F5F7"/>
<path d="M100.056 133.64C99.928 133.64 99.796 133.628 99.66 133.604C99.532 133.588 99.404 133.556 99.276 133.508V132.668C99.356 132.676 99.456 132.688 99.576 132.704C99.704 132.728 99.832 132.74 99.96 132.74C100.352 132.74 100.652 132.656 100.86 132.488C101.068 132.328 101.272 132.016 101.472 131.552L101.88 130.592L101.856 131.384L99.132 124.568H100.104L102.336 130.196H102.084L104.304 124.568H105.3L102.36 131.816C102.232 132.128 102.068 132.424 101.868 132.704C101.676 132.984 101.432 133.208 101.136 133.376C100.84 133.552 100.48 133.64 100.056 133.64ZM109.132 131.144C108.524 131.144 107.972 131 107.476 130.712C106.98 130.416 106.584 130.016 106.288 129.512C106 129 105.856 128.42 105.856 127.772C105.856 127.132 106 126.56 106.288 126.056C106.576 125.552 106.964 125.156 107.452 124.868C107.948 124.572 108.508 124.424 109.132 124.424C109.756 124.424 110.312 124.568 110.8 124.856C111.296 125.144 111.684 125.54 111.964 126.044C112.252 126.548 112.396 127.124 112.396 127.772C112.396 128.428 112.248 129.012 111.952 129.524C111.656 130.028 111.26 130.424 110.764 130.712C110.276 131 109.732 131.144 109.132 131.144ZM109.132 130.244C109.564 130.244 109.952 130.136 110.296 129.92C110.648 129.704 110.924 129.408 111.124 129.032C111.332 128.656 111.436 128.236 111.436 127.772C111.436 127.308 111.332 126.892 111.124 126.524C110.924 126.156 110.648 125.864 110.296 125.648C109.952 125.432 109.564 125.324 109.132 125.324C108.7 125.324 108.308 125.432 107.956 125.648C107.612 125.864 107.336 126.156 107.128 126.524C106.92 126.892 106.816 127.308 106.816 127.772C106.816 128.236 106.92 128.656 107.128 129.032C107.336 129.408 107.612 129.704 107.956 129.92C108.308 130.136 108.7 130.244 109.132 130.244ZM116.144 131.144C115.696 131.144 115.288 131.04 114.92 130.832C114.552 130.616 114.26 130.32 114.044 129.944C113.836 129.56 113.732 129.12 113.732 128.624V124.568H114.632V128.516C114.632 128.86 114.7 129.164 114.836 129.428C114.98 129.684 115.176 129.884 115.424 130.028C115.68 130.172 115.972 130.244 116.3 130.244C116.628 130.244 116.92 130.172 117.176 130.028C117.432 129.876 117.632 129.664 117.776 129.392C117.92 129.112 117.992 128.78 117.992 128.396V124.568H118.892V131H117.992V129.752L118.196 129.8C118.044 130.216 117.784 130.544 117.416 130.784C117.048 131.024 116.624 131.144 116.144 131.144ZM120.623 131V124.568H121.523V125.624L121.403 125.468C121.555 125.164 121.783 124.924 122.087 124.748C122.399 124.572 122.775 124.484 123.215 124.484H123.623V125.384H123.059C122.595 125.384 122.223 125.528 121.943 125.816C121.663 126.104 121.523 126.512 121.523 127.04V131H120.623ZM124.521 131.84V131H129.921V131.84H124.521ZM133.889 131.144C133.441 131.144 133.033 131.04 132.665 130.832C132.297 130.616 132.005 130.32 131.789 129.944C131.581 129.56 131.477 129.12 131.477 128.624V124.568H132.377V128.516C132.377 128.86 132.445 129.164 132.581 129.428C132.725 129.684 132.921 129.884 133.169 130.028C133.425 130.172 133.717 130.244 134.045 130.244C134.373 130.244 134.665 130.172 134.921 130.028C135.177 129.876 135.377 129.664 135.521 129.392C135.665 129.112 135.737 128.78 135.737 128.396V124.568H136.637V131H135.737V129.752L135.941 129.8C135.789 130.216 135.529 130.544 135.161 130.784C134.793 131.024 134.369 131.144 133.889 131.144ZM140.6 131.144C139.984 131.144 139.444 130.988 138.98 130.676C138.516 130.364 138.18 129.94 137.972 129.404L138.728 129.044C138.912 129.436 139.168 129.748 139.496 129.98C139.832 130.212 140.2 130.328 140.6 130.328C140.984 130.328 141.308 130.236 141.572 130.052C141.836 129.86 141.968 129.612 141.968 129.308C141.968 129.084 141.904 128.908 141.776 128.78C141.648 128.644 141.5 128.54 141.332 128.468C141.164 128.396 141.016 128.344 140.888 128.312L139.964 128.048C139.372 127.88 138.944 127.644 138.68 127.34C138.416 127.036 138.284 126.684 138.284 126.284C138.284 125.908 138.38 125.58 138.572 125.3C138.764 125.02 139.024 124.804 139.352 124.652C139.68 124.5 140.044 124.424 140.444 124.424C140.988 124.424 141.48 124.568 141.92 124.856C142.368 125.136 142.684 125.528 142.868 126.032L142.1 126.392C141.94 126.032 141.708 125.752 141.404 125.552C141.108 125.344 140.776 125.24 140.408 125.24C140.048 125.24 139.76 125.332 139.544 125.516C139.328 125.7 139.22 125.932 139.22 126.212C139.22 126.428 139.276 126.6 139.388 126.728C139.5 126.856 139.628 126.952 139.772 127.016C139.924 127.08 140.056 127.128 140.168 127.16L141.236 127.472C141.756 127.624 142.16 127.86 142.448 128.18C142.744 128.5 142.892 128.876 142.892 129.308C142.892 129.66 142.792 129.976 142.592 130.256C142.4 130.536 142.132 130.756 141.788 130.916C141.444 131.068 141.048 131.144 140.6 131.144ZM147.282 131.144C146.682 131.144 146.138 131 145.65 130.712C145.17 130.416 144.79 130.012 144.51 129.5C144.23 128.988 144.09 128.408 144.09 127.76C144.09 127.112 144.226 126.54 144.498 126.044C144.77 125.54 145.138 125.144 145.602 124.856C146.074 124.568 146.602 124.424 147.186 124.424C147.65 124.424 148.062 124.512 148.422 124.688C148.79 124.856 149.102 125.088 149.358 125.384C149.614 125.672 149.81 126 149.946 126.368C150.082 126.728 150.15 127.1 150.15 127.484C150.15 127.564 150.146 127.656 150.138 127.76C150.13 127.856 150.118 127.956 150.102 128.06H144.666V127.22H149.586L149.154 127.58C149.226 127.14 149.174 126.748 148.998 126.404C148.83 126.052 148.586 125.776 148.266 125.576C147.946 125.368 147.586 125.264 147.186 125.264C146.786 125.264 146.414 125.368 146.07 125.576C145.734 125.784 145.47 126.076 145.278 126.452C145.086 126.82 145.01 127.26 145.05 127.772C145.01 128.284 145.09 128.732 145.29 129.116C145.498 129.492 145.778 129.784 146.13 129.992C146.49 130.2 146.874 130.304 147.282 130.304C147.754 130.304 148.15 130.192 148.47 129.968C148.79 129.744 149.05 129.464 149.25 129.128L150.018 129.536C149.89 129.824 149.694 130.092 149.43 130.34C149.166 130.58 148.85 130.776 148.482 130.928C148.122 131.072 147.722 131.144 147.282 131.144ZM151.616 131V124.568H152.516V125.624L152.396 125.468C152.548 125.164 152.776 124.924 153.08 124.748C153.392 124.572 153.768 124.484 154.208 124.484H154.616V125.384H154.052C153.588 125.384 153.216 125.528 152.936 125.816C152.656 126.104 152.516 126.512 152.516 127.04V131H151.616Z" fill="#1A202C"/>
<path d="M156.32 133.28V120.86H157.28V133.28H156.32Z" fill="#1A202C"/>
<path d="M87.996 166V157.06H91.152C91.744 157.06 92.264 157.172 92.712 157.396C93.16 157.62 93.508 157.94 93.756 158.356C94.012 158.772 94.14 159.26 94.14 159.82C94.14 160.38 94.012 160.868 93.756 161.284C93.508 161.692 93.16 162.012 92.712 162.244C92.272 162.468 91.752 162.58 91.152 162.58H89.172V166H87.996ZM89.172 161.5H91.188C91.548 161.5 91.86 161.432 92.124 161.296C92.388 161.16 92.592 160.964 92.736 160.708C92.88 160.452 92.952 160.156 92.952 159.82C92.952 159.476 92.88 159.18 92.736 158.932C92.592 158.676 92.388 158.48 92.124 158.344C91.86 158.208 91.548 158.14 91.188 158.14H89.172V161.5ZM96.8091 166.144C96.3851 166.144 96.0091 166.068 95.6811 165.916C95.3611 165.756 95.1091 165.54 94.9251 165.268C94.7411 164.988 94.6491 164.668 94.6491 164.308C94.6491 163.964 94.7211 163.656 94.8651 163.384C95.0171 163.104 95.2491 162.868 95.5611 162.676C95.8811 162.484 96.2811 162.348 96.7611 162.268L99.1611 161.872V162.808L97.0131 163.168C96.5971 163.24 96.2931 163.372 96.1011 163.564C95.9171 163.756 95.8251 163.992 95.8251 164.272C95.8251 164.536 95.9291 164.756 96.1371 164.932C96.3531 165.108 96.6211 165.196 96.9411 165.196C97.3491 165.196 97.7011 165.112 97.9971 164.944C98.3011 164.768 98.5371 164.532 98.7051 164.236C98.8811 163.94 98.9691 163.612 98.9691 163.252V161.608C98.9691 161.256 98.8371 160.972 98.5731 160.756C98.3171 160.532 97.9771 160.42 97.5531 160.42C97.1851 160.42 96.8571 160.516 96.5691 160.708C96.2891 160.892 96.0811 161.14 95.9451 161.452L94.9731 160.948C95.0931 160.652 95.2851 160.388 95.5491 160.156C95.8131 159.916 96.1211 159.728 96.4731 159.592C96.8251 159.456 97.1931 159.388 97.5771 159.388C98.0731 159.388 98.5091 159.484 98.8851 159.676C99.2611 159.86 99.5531 160.12 99.7611 160.456C99.9771 160.784 100.085 161.168 100.085 161.608V166H98.9931V164.776L99.1971 164.848C99.0611 165.104 98.8771 165.328 98.6451 165.52C98.4131 165.712 98.1411 165.864 97.8291 165.976C97.5171 166.088 97.1771 166.144 96.8091 166.144ZM103.891 166.144C103.243 166.144 102.679 165.984 102.199 165.664C101.719 165.344 101.379 164.912 101.179 164.368L102.067 163.936C102.251 164.32 102.503 164.624 102.823 164.848C103.143 165.072 103.499 165.184 103.891 165.184C104.243 165.184 104.535 165.1 104.767 164.932C104.999 164.764 105.115 164.544 105.115 164.272C105.115 164.08 105.059 163.928 104.947 163.816C104.843 163.696 104.715 163.604 104.563 163.54C104.411 163.468 104.271 163.416 104.143 163.384L103.171 163.108C102.587 162.94 102.159 162.7 101.887 162.388C101.623 162.076 101.491 161.712 101.491 161.296C101.491 160.912 101.587 160.58 101.779 160.3C101.979 160.012 102.247 159.788 102.583 159.628C102.927 159.468 103.311 159.388 103.735 159.388C104.303 159.388 104.811 159.532 105.259 159.82C105.715 160.108 106.039 160.512 106.231 161.032L105.319 161.452C105.175 161.116 104.959 160.852 104.671 160.66C104.383 160.46 104.059 160.36 103.699 160.36C103.371 160.36 103.111 160.444 102.919 160.612C102.727 160.772 102.631 160.976 102.631 161.224C102.631 161.408 102.679 161.56 102.775 161.68C102.871 161.792 102.987 161.88 103.123 161.944C103.259 162 103.391 162.048 103.519 162.088L104.575 162.4C105.103 162.552 105.511 162.788 105.799 163.108C106.095 163.428 106.243 163.812 106.243 164.26C106.243 164.62 106.143 164.944 105.943 165.232C105.743 165.52 105.467 165.744 105.115 165.904C104.763 166.064 104.355 166.144 103.891 166.144ZM109.78 166.144C109.132 166.144 108.568 165.984 108.088 165.664C107.608 165.344 107.268 164.912 107.068 164.368L107.956 163.936C108.14 164.32 108.392 164.624 108.712 164.848C109.032 165.072 109.388 165.184 109.78 165.184C110.132 165.184 110.424 165.1 110.656 164.932C110.888 164.764 111.004 164.544 111.004 164.272C111.004 164.08 110.948 163.928 110.836 163.816C110.732 163.696 110.604 163.604 110.452 163.54C110.3 163.468 110.16 163.416 110.032 163.384L109.06 163.108C108.476 162.94 108.048 162.7 107.776 162.388C107.512 162.076 107.38 161.712 107.38 161.296C107.38 160.912 107.476 160.58 107.668 160.3C107.868 160.012 108.136 159.788 108.472 159.628C108.816 159.468 109.2 159.388 109.624 159.388C110.192 159.388 110.7 159.532 111.148 159.82C111.604 160.108 111.928 160.512 112.12 161.032L111.208 161.452C111.064 161.116 110.848 160.852 110.56 160.66C110.272 160.46 109.948 160.36 109.588 160.36C109.26 160.36 109 160.444 108.808 160.612C108.616 160.772 108.52 160.976 108.52 161.224C108.52 161.408 108.568 161.56 108.664 161.68C108.76 161.792 108.876 161.88 109.012 161.944C109.148 162 109.28 162.048 109.408 162.088L110.464 162.4C110.992 162.552 111.4 162.788 111.688 163.108C111.984 163.428 112.132 163.812 112.132 164.26C112.132 164.62 112.032 164.944 111.832 165.232C111.632 165.52 111.356 165.744 111.004 165.904C110.652 166.064 110.244 166.144 109.78 166.144ZM114.724 166L112.504 159.532H113.74L115.504 164.944L115.072 164.932L116.8 159.532H117.856L119.584 164.932L119.152 164.944L120.928 159.532H122.152L119.932 166H118.864L117.16 160.6H117.496L115.792 166H114.724ZM125.865 166.144C125.241 166.144 124.677 166 124.173 165.712C123.669 165.416 123.269 165.012 122.973 164.5C122.677 163.988 122.529 163.408 122.529 162.76C122.529 162.112 122.673 161.536 122.961 161.032C123.257 160.528 123.657 160.128 124.161 159.832C124.665 159.536 125.233 159.388 125.865 159.388C126.489 159.388 127.053 159.536 127.557 159.832C128.061 160.12 128.457 160.516 128.745 161.02C129.041 161.524 129.189 162.104 129.189 162.76C129.189 163.416 129.037 164 128.733 164.512C128.429 165.016 128.025 165.416 127.521 165.712C127.025 166 126.473 166.144 125.865 166.144ZM125.865 165.064C126.265 165.064 126.625 164.964 126.945 164.764C127.273 164.564 127.529 164.288 127.713 163.936C127.905 163.584 128.001 163.192 128.001 162.76C128.001 162.32 127.905 161.932 127.713 161.596C127.529 161.252 127.273 160.98 126.945 160.78C126.625 160.572 126.265 160.468 125.865 160.468C125.457 160.468 125.089 160.572 124.761 160.78C124.441 160.98 124.185 161.252 123.993 161.596C123.801 161.932 123.705 162.32 123.705 162.76C123.705 163.192 123.801 163.584 123.993 163.936C124.185 164.288 124.441 164.564 124.761 164.764C125.089 164.964 125.457 165.064 125.865 165.064ZM130.404 166V159.532H131.496V160.72L131.376 160.552C131.528 160.184 131.76 159.912 132.072 159.736C132.384 159.552 132.764 159.46 133.212 159.46H133.608V160.516H133.044C132.588 160.516 132.22 160.66 131.94 160.948C131.66 161.228 131.52 161.628 131.52 162.148V166H130.404ZM137.3 166.144C136.692 166.144 136.144 165.996 135.656 165.7C135.176 165.404 134.796 165 134.516 164.488C134.236 163.976 134.096 163.404 134.096 162.772C134.096 162.124 134.236 161.548 134.516 161.044C134.796 160.532 135.176 160.128 135.656 159.832C136.144 159.536 136.692 159.388 137.3 159.388C137.836 159.388 138.312 159.504 138.728 159.736C139.144 159.96 139.472 160.264 139.712 160.648L139.532 160.924V156.916H140.66V166H139.568V164.62L139.712 164.812C139.488 165.236 139.16 165.564 138.728 165.796C138.304 166.028 137.828 166.144 137.3 166.144ZM137.396 165.064C137.804 165.064 138.168 164.964 138.488 164.764C138.808 164.564 139.06 164.292 139.244 163.948C139.436 163.596 139.532 163.204 139.532 162.772C139.532 162.332 139.436 161.94 139.244 161.596C139.06 161.244 138.808 160.968 138.488 160.768C138.168 160.568 137.804 160.468 137.396 160.468C136.996 160.468 136.632 160.572 136.304 160.78C135.984 160.98 135.732 161.252 135.548 161.596C135.364 161.932 135.272 162.324 135.272 162.772C135.272 163.204 135.364 163.596 135.548 163.948C135.732 164.292 135.984 164.564 136.304 164.764C136.624 164.964 136.988 165.064 137.396 165.064Z" fill="#1A202C"/>
<rect x="87" y="175" width="144" height="30" rx="2" fill="#F3F5F7"/>
<circle cx="101.5" cy="190.5" r="2.5" fill="#1A202C"/>
<circle cx="112.5" cy="190.5" r="2.5" fill="#1A202C"/>
<circle cx="123.5" cy="190.5" r="2.5" fill="#1A202C"/>
<circle cx="134.5" cy="190.5" r="2.5" fill="#1A202C"/>
<circle cx="145.5" cy="190.5" r="2.5" fill="#1A202C"/>
<circle cx="156.5" cy="190.5" r="2.5" fill="#1A202C"/>
<circle cx="167.5" cy="190.5" r="2.5" fill="#1A202C"/>
<circle cx="178.5" cy="190.5" r="2.5" fill="#1A202C"/>
<circle cx="189.5" cy="190.5" r="2.5" fill="#1A202C"/>
<path d="M71.1799 278V263.1H76.4399C77.4266 263.1 78.2933 263.287 79.0399 263.66C79.7866 264.033 80.3666 264.567 80.7799 265.26C81.2066 265.953 81.4199 266.767 81.4199 267.7C81.4199 268.753 81.1533 269.647 80.6199 270.38C80.0866 271.113 79.3666 271.64 78.4599 271.96L81.9199 278H79.6399L75.9999 271.54L77.2999 272.3H73.1399V278H71.1799ZM73.1399 270.5H76.4999C77.0866 270.5 77.5999 270.387 78.0399 270.16C78.4799 269.933 78.8199 269.607 79.0599 269.18C79.3133 268.753 79.4399 268.26 79.4399 267.7C79.4399 267.127 79.3133 266.633 79.0599 266.22C78.8199 265.793 78.4799 265.467 78.0399 265.24C77.5999 265.013 77.0866 264.9 76.4999 264.9H73.1399V270.5ZM87.8832 278.24C86.8432 278.24 85.9165 277.993 85.1032 277.5C84.2899 277.007 83.6499 276.333 83.1832 275.48C82.7165 274.613 82.4832 273.647 82.4832 272.58C82.4832 271.5 82.7099 270.54 83.1632 269.7C83.6299 268.86 84.2565 268.2 85.0432 267.72C85.8432 267.227 86.7365 266.98 87.7232 266.98C88.5232 266.98 89.2299 267.127 89.8432 267.42C90.4699 267.7 90.9965 268.087 91.4232 268.58C91.8632 269.06 92.1965 269.613 92.4232 270.24C92.6632 270.853 92.7832 271.493 92.7832 272.16C92.7832 272.307 92.7699 272.473 92.7432 272.66C92.7299 272.833 92.7099 273 92.6832 273.16H83.8432V271.56H91.6032L90.7232 272.28C90.8432 271.587 90.7765 270.967 90.5232 270.42C90.2699 269.873 89.8965 269.44 89.4032 269.12C88.9099 268.8 88.3499 268.64 87.7232 268.64C87.0965 268.64 86.5232 268.8 86.0032 269.12C85.4832 269.44 85.0765 269.9 84.7832 270.5C84.5032 271.087 84.3899 271.787 84.4432 272.6C84.3899 273.387 84.5099 274.08 84.8032 274.68C85.1099 275.267 85.5365 275.727 86.0832 276.06C86.6432 276.38 87.2499 276.54 87.9032 276.54C88.6232 276.54 89.2299 276.373 89.7232 276.04C90.2165 275.707 90.6165 275.28 90.9232 274.76L92.4832 275.56C92.2699 276.053 91.9365 276.507 91.4832 276.92C91.0432 277.32 90.5165 277.64 89.9032 277.88C89.3032 278.12 88.6299 278.24 87.8832 278.24ZM99.9484 282.4C99.1884 282.4 98.4817 282.28 97.8284 282.04C97.1884 281.8 96.635 281.467 96.1684 281.04C95.715 280.627 95.3684 280.14 95.1284 279.58L96.8684 278.78C97.055 279.287 97.4084 279.713 97.9284 280.06C98.4617 280.42 99.1284 280.6 99.9284 280.6C100.542 280.6 101.095 280.48 101.588 280.24C102.095 280.013 102.495 279.667 102.788 279.2C103.082 278.747 103.228 278.193 103.228 277.54V275.12L103.568 275.48C103.195 276.213 102.655 276.773 101.948 277.16C101.255 277.547 100.488 277.74 99.6484 277.74C98.635 277.74 97.7284 277.507 96.9284 277.04C96.1284 276.56 95.5017 275.913 95.0484 275.1C94.595 274.273 94.3684 273.36 94.3684 272.36C94.3684 271.347 94.595 270.433 95.0484 269.62C95.5017 268.807 96.1217 268.167 96.9084 267.7C97.7084 267.22 98.615 266.98 99.6284 266.98C100.468 266.98 101.228 267.173 101.908 267.56C102.602 267.933 103.155 268.453 103.568 269.12L103.288 269.62V267.22H105.108V277.54C105.108 278.473 104.888 279.307 104.448 280.04C104.008 280.773 103.395 281.347 102.608 281.76C101.835 282.187 100.948 282.4 99.9484 282.4ZM99.8084 275.94C100.448 275.94 101.022 275.78 101.528 275.46C102.048 275.14 102.462 274.713 102.768 274.18C103.075 273.633 103.228 273.027 103.228 272.36C103.228 271.707 103.075 271.107 102.768 270.56C102.462 270.013 102.048 269.58 101.528 269.26C101.022 268.94 100.448 268.78 99.8084 268.78C99.155 268.78 98.5617 268.94 98.0284 269.26C97.495 269.58 97.075 270.013 96.7684 270.56C96.475 271.093 96.3284 271.693 96.3284 272.36C96.3284 273.027 96.475 273.633 96.7684 274.18C97.075 274.713 97.4884 275.14 98.0084 275.46C98.5417 275.78 99.1417 275.94 99.8084 275.94ZM107.592 278V267.22H109.452V278H107.592ZM107.592 265.5V263.1H109.452V265.5H107.592ZM115.798 278.24C114.718 278.24 113.778 277.973 112.978 277.44C112.178 276.907 111.611 276.187 111.278 275.28L112.758 274.56C113.065 275.2 113.485 275.707 114.018 276.08C114.551 276.453 115.145 276.64 115.798 276.64C116.385 276.64 116.871 276.5 117.258 276.22C117.645 275.94 117.838 275.573 117.838 275.12C117.838 274.8 117.745 274.547 117.558 274.36C117.385 274.16 117.171 274.007 116.918 273.9C116.665 273.78 116.431 273.693 116.218 273.64L114.598 273.18C113.625 272.9 112.911 272.5 112.458 271.98C112.018 271.46 111.798 270.853 111.798 270.16C111.798 269.52 111.958 268.967 112.278 268.5C112.611 268.02 113.058 267.647 113.618 267.38C114.191 267.113 114.831 266.98 115.538 266.98C116.485 266.98 117.331 267.22 118.078 267.7C118.838 268.18 119.378 268.853 119.698 269.72L118.178 270.42C117.938 269.86 117.578 269.42 117.098 269.1C116.618 268.767 116.078 268.6 115.478 268.6C114.931 268.6 114.498 268.74 114.178 269.02C113.858 269.287 113.698 269.627 113.698 270.04C113.698 270.347 113.778 270.6 113.938 270.8C114.098 270.987 114.291 271.133 114.518 271.24C114.745 271.333 114.965 271.413 115.178 271.48L116.938 272C117.818 272.253 118.498 272.647 118.978 273.18C119.471 273.713 119.718 274.353 119.718 275.1C119.718 275.7 119.551 276.24 119.218 276.72C118.885 277.2 118.425 277.573 117.838 277.84C117.251 278.107 116.571 278.24 115.798 278.24ZM126.133 278.12C125.08 278.12 124.266 277.82 123.693 277.22C123.133 276.62 122.853 275.773 122.853 274.68V269H120.893V267.22H121.293C121.773 267.22 122.153 267.073 122.433 266.78C122.713 266.487 122.853 266.1 122.853 265.62V264.74H124.713V267.22H127.133V269H124.713V274.62C124.713 274.98 124.766 275.293 124.873 275.56C124.993 275.827 125.186 276.04 125.453 276.2C125.72 276.347 126.073 276.42 126.513 276.42C126.606 276.42 126.72 276.413 126.853 276.4C127 276.387 127.133 276.373 127.253 276.36V278C127.08 278.04 126.886 278.067 126.673 278.08C126.46 278.107 126.28 278.12 126.133 278.12ZM133.95 278.24C132.91 278.24 131.983 277.993 131.17 277.5C130.356 277.007 129.716 276.333 129.25 275.48C128.783 274.613 128.55 273.647 128.55 272.58C128.55 271.5 128.776 270.54 129.23 269.7C129.696 268.86 130.323 268.2 131.11 267.72C131.91 267.227 132.803 266.98 133.79 266.98C134.59 266.98 135.296 267.127 135.91 267.42C136.536 267.7 137.063 268.087 137.49 268.58C137.93 269.06 138.263 269.613 138.49 270.24C138.73 270.853 138.85 271.493 138.85 272.16C138.85 272.307 138.836 272.473 138.81 272.66C138.796 272.833 138.776 273 138.75 273.16H129.91V271.56H137.67L136.79 272.28C136.91 271.587 136.843 270.967 136.59 270.42C136.336 269.873 135.963 269.44 135.47 269.12C134.976 268.8 134.416 268.64 133.79 268.64C133.163 268.64 132.59 268.8 132.07 269.12C131.55 269.44 131.143 269.9 130.85 270.5C130.57 271.087 130.456 271.787 130.51 272.6C130.456 273.387 130.576 274.08 130.87 274.68C131.176 275.267 131.603 275.727 132.15 276.06C132.71 276.38 133.316 276.54 133.97 276.54C134.69 276.54 135.296 276.373 135.79 276.04C136.283 275.707 136.683 275.28 136.99 274.76L138.55 275.56C138.336 276.053 138.003 276.507 137.55 276.92C137.11 277.32 136.583 277.64 135.97 277.88C135.37 278.12 134.696 278.24 133.95 278.24ZM140.875 278V267.22H142.695V269.2L142.495 268.92C142.748 268.307 143.135 267.853 143.655 267.56C144.175 267.253 144.808 267.1 145.555 267.1H146.215V268.86H145.275C144.515 268.86 143.901 269.1 143.435 269.58C142.968 270.047 142.735 270.713 142.735 271.58V278H140.875ZM151.104 282.4C150.864 282.4 150.624 282.38 150.384 282.34C150.144 282.313 149.917 282.253 149.704 282.16V280.5C149.851 280.513 150.031 280.54 150.244 280.58C150.471 280.62 150.691 280.64 150.904 280.64C151.531 280.64 152.004 280.5 152.324 280.22C152.657 279.94 152.971 279.467 153.264 278.8L153.944 277.18L153.904 278.8L149.304 267.22H151.324L154.904 276.42H154.304L157.864 267.22H159.924L155.064 279.28C154.837 279.853 154.544 280.38 154.184 280.86C153.837 281.34 153.411 281.713 152.904 281.98C152.397 282.26 151.797 282.4 151.104 282.4ZM166.103 278.24C165.063 278.24 164.123 278 163.283 277.52C162.443 277.027 161.777 276.353 161.283 275.5C160.79 274.647 160.543 273.68 160.543 272.6C160.543 271.52 160.783 270.56 161.263 269.72C161.757 268.88 162.423 268.213 163.263 267.72C164.103 267.227 165.05 266.98 166.103 266.98C167.143 266.98 168.083 267.227 168.923 267.72C169.763 268.2 170.423 268.86 170.903 269.7C171.397 270.54 171.643 271.507 171.643 272.6C171.643 273.693 171.39 274.667 170.883 275.52C170.377 276.36 169.703 277.027 168.863 277.52C168.037 278 167.117 278.24 166.103 278.24ZM166.103 276.44C166.77 276.44 167.37 276.273 167.903 275.94C168.45 275.607 168.877 275.147 169.183 274.56C169.503 273.973 169.663 273.32 169.663 272.6C169.663 271.867 169.503 271.22 169.183 270.66C168.877 270.087 168.45 269.633 167.903 269.3C167.37 268.953 166.77 268.78 166.103 268.78C165.423 268.78 164.81 268.953 164.263 269.3C163.73 269.633 163.303 270.087 162.983 270.66C162.663 271.22 162.503 271.867 162.503 272.6C162.503 273.32 162.663 273.973 162.983 274.56C163.303 275.147 163.73 275.607 164.263 275.94C164.81 276.273 165.423 276.44 166.103 276.44ZM177.489 278.24C176.716 278.24 176.016 278.06 175.389 277.7C174.776 277.34 174.296 276.84 173.949 276.2C173.616 275.547 173.449 274.8 173.449 273.96V267.22H175.309V273.76C175.309 274.293 175.416 274.76 175.629 275.16C175.856 275.56 176.163 275.873 176.549 276.1C176.949 276.327 177.403 276.44 177.909 276.44C178.416 276.44 178.863 276.327 179.249 276.1C179.649 275.873 179.956 275.547 180.169 275.12C180.396 274.693 180.509 274.187 180.509 273.6V267.22H182.389V278H180.569V275.9L180.869 276.08C180.616 276.76 180.183 277.293 179.569 277.68C178.969 278.053 178.276 278.24 177.489 278.24ZM184.871 278V267.22H186.691V269.2L186.491 268.92C186.744 268.307 187.131 267.853 187.651 267.56C188.171 267.253 188.804 267.1 189.551 267.1H190.211V268.86H189.271C188.511 268.86 187.898 269.1 187.431 269.58C186.964 270.047 186.731 270.713 186.731 271.58V278H184.871ZM53.2671 308.24C52.3204 308.24 51.4538 308.067 50.6671 307.72C49.8804 307.36 49.2138 306.873 48.6671 306.26C48.1204 305.647 47.7271 304.96 47.4871 304.2L49.1871 303.5C49.5471 304.46 50.0804 305.2 50.7871 305.72C51.5071 306.227 52.3471 306.48 53.3071 306.48C53.8938 306.48 54.4071 306.387 54.8471 306.2C55.2871 306.013 55.6271 305.753 55.8671 305.42C56.1204 305.073 56.2471 304.673 56.2471 304.22C56.2471 303.593 56.0671 303.1 55.7071 302.74C55.3604 302.367 54.8471 302.087 54.1671 301.9L51.4271 301.06C50.3471 300.727 49.5204 300.2 48.9471 299.48C48.3738 298.76 48.0871 297.933 48.0871 297C48.0871 296.187 48.2804 295.473 48.6671 294.86C49.0671 294.233 49.6138 293.747 50.3071 293.4C51.0138 293.04 51.8138 292.86 52.7071 292.86C53.6004 292.86 54.4071 293.02 55.1271 293.34C55.8604 293.66 56.4804 294.093 56.9871 294.64C57.4938 295.173 57.8671 295.787 58.1071 296.48L56.4271 297.18C56.1071 296.34 55.6271 295.707 54.9871 295.28C54.3471 294.84 53.5938 294.62 52.7271 294.62C52.1938 294.62 51.7204 294.713 51.3071 294.9C50.9071 295.073 50.5938 295.333 50.3671 295.68C50.1538 296.013 50.0471 296.413 50.0471 296.88C50.0471 297.427 50.2204 297.913 50.5671 298.34C50.9138 298.767 51.4404 299.093 52.1471 299.32L54.6471 300.06C55.8204 300.42 56.7071 300.933 57.3071 301.6C57.9071 302.267 58.2071 303.093 58.2071 304.08C58.2071 304.893 57.9938 305.613 57.5671 306.24C57.1538 306.867 56.5738 307.36 55.8271 307.72C55.0938 308.067 54.2404 308.24 53.2671 308.24ZM60.4568 312V297.22H62.2768V299.54L62.0368 299.08C62.4368 298.44 62.9835 297.933 63.6768 297.56C64.3701 297.173 65.1635 296.98 66.0568 296.98C67.0701 296.98 67.9768 297.227 68.7768 297.72C69.5901 298.213 70.2301 298.887 70.6968 299.74C71.1635 300.58 71.3968 301.54 71.3968 302.62C71.3968 303.673 71.1635 304.627 70.6968 305.48C70.2301 306.333 69.5901 307.007 68.7768 307.5C67.9768 307.993 67.0635 308.24 66.0368 308.24C65.1701 308.24 64.3768 308.047 63.6568 307.66C62.9501 307.273 62.4035 306.727 62.0168 306.02L62.3168 305.7V312H60.4568ZM65.8968 306.44C66.5768 306.44 67.1835 306.273 67.7168 305.94C68.2501 305.607 68.6635 305.153 68.9568 304.58C69.2635 303.993 69.4168 303.34 69.4168 302.62C69.4168 301.873 69.2635 301.22 68.9568 300.66C68.6635 300.087 68.2501 299.633 67.7168 299.3C67.1835 298.953 66.5768 298.78 65.8968 298.78C65.2168 298.78 64.6035 298.947 64.0568 299.28C63.5235 299.613 63.0968 300.073 62.7768 300.66C62.4701 301.233 62.3168 301.887 62.3168 302.62C62.3168 303.34 62.4701 303.993 62.7768 304.58C63.0968 305.153 63.5235 305.607 64.0568 305.94C64.6035 306.273 65.2168 306.44 65.8968 306.44ZM78.3957 308.24C77.3557 308.24 76.429 307.993 75.6157 307.5C74.8024 307.007 74.1624 306.333 73.6957 305.48C73.229 304.613 72.9957 303.647 72.9957 302.58C72.9957 301.5 73.2224 300.54 73.6757 299.7C74.1424 298.86 74.769 298.2 75.5557 297.72C76.3557 297.227 77.249 296.98 78.2357 296.98C79.0357 296.98 79.7424 297.127 80.3557 297.42C80.9824 297.7 81.509 298.087 81.9357 298.58C82.3757 299.06 82.709 299.613 82.9357 300.24C83.1757 300.853 83.2957 301.493 83.2957 302.16C83.2957 302.307 83.2824 302.473 83.2557 302.66C83.2424 302.833 83.2224 303 83.1957 303.16H74.3557V301.56H82.1157L81.2357 302.28C81.3557 301.587 81.289 300.967 81.0357 300.42C80.7824 299.873 80.409 299.44 79.9157 299.12C79.4224 298.8 78.8624 298.64 78.2357 298.64C77.609 298.64 77.0357 298.8 76.5157 299.12C75.9957 299.44 75.589 299.9 75.2957 300.5C75.0157 301.087 74.9024 301.787 74.9557 302.6C74.9024 303.387 75.0224 304.08 75.3157 304.68C75.6224 305.267 76.049 305.727 76.5957 306.06C77.1557 306.38 77.7624 306.54 78.4157 306.54C79.1357 306.54 79.7424 306.373 80.2357 306.04C80.729 305.707 81.129 305.28 81.4357 304.76L82.9957 305.56C82.7824 306.053 82.449 306.507 81.9957 306.92C81.5557 307.32 81.029 307.64 80.4157 307.88C79.8157 308.12 79.1424 308.24 78.3957 308.24ZM85.3209 308V297.22H87.1409V299.32L86.8409 299.14C87.1075 298.46 87.5342 297.933 88.1209 297.56C88.7209 297.173 89.4209 296.98 90.2209 296.98C90.9942 296.98 91.6809 297.153 92.2809 297.5C92.8942 297.847 93.3742 298.327 93.7209 298.94C94.0809 299.553 94.2609 300.247 94.2609 301.02V308H92.3809V301.62C92.3809 301.02 92.2742 300.513 92.0609 300.1C91.8475 299.687 91.5409 299.367 91.1409 299.14C90.7542 298.9 90.3075 298.78 89.8009 298.78C89.2942 298.78 88.8409 298.9 88.4409 299.14C88.0542 299.367 87.7475 299.693 87.5209 300.12C87.2942 300.533 87.1809 301.033 87.1809 301.62V308H85.3209ZM101.422 308.24C100.409 308.24 99.4958 307.993 98.6824 307.5C97.8824 307.007 97.2491 306.333 96.7824 305.48C96.3158 304.627 96.0824 303.673 96.0824 302.62C96.0824 301.54 96.3158 300.58 96.7824 299.74C97.2491 298.887 97.8824 298.213 98.6824 297.72C99.4958 297.227 100.409 296.98 101.422 296.98C102.316 296.98 103.109 297.173 103.802 297.56C104.496 297.933 105.042 298.44 105.442 299.08L105.142 299.54V292.86H107.022V308H105.202V305.7L105.442 306.02C105.069 306.727 104.522 307.273 103.802 307.66C103.096 308.047 102.302 308.24 101.422 308.24ZM101.582 306.44C102.262 306.44 102.869 306.273 103.402 305.94C103.936 305.607 104.356 305.153 104.662 304.58C104.982 303.993 105.142 303.34 105.142 302.62C105.142 301.887 104.982 301.233 104.662 300.66C104.356 300.073 103.936 299.613 103.402 299.28C102.869 298.947 102.262 298.78 101.582 298.78C100.916 298.78 100.309 298.953 99.7624 299.3C99.2291 299.633 98.8091 300.087 98.5024 300.66C98.1958 301.22 98.0424 301.873 98.0424 302.62C98.0424 303.34 98.1958 303.993 98.5024 304.58C98.8091 305.153 99.2291 305.607 99.7624 305.94C100.296 306.273 100.902 306.44 101.582 306.44ZM110.261 308V305.6H112.201V308H110.261ZM115.669 308V293.1H117.629V308H115.669ZM120.322 308V297.22H122.142V299.32L121.842 299.14C122.109 298.46 122.536 297.933 123.122 297.56C123.722 297.173 124.422 296.98 125.222 296.98C125.996 296.98 126.682 297.153 127.282 297.5C127.896 297.847 128.376 298.327 128.722 298.94C129.082 299.553 129.262 300.247 129.262 301.02V308H127.382V301.62C127.382 301.02 127.276 300.513 127.062 300.1C126.849 299.687 126.542 299.367 126.142 299.14C125.756 298.9 125.309 298.78 124.802 298.78C124.296 298.78 123.842 298.9 123.442 299.14C123.056 299.367 122.749 299.693 122.522 300.12C122.296 300.533 122.182 301.033 122.182 301.62V308H120.322ZM137.741 308.24C137.034 308.24 136.408 308.113 135.861 307.86C135.328 307.593 134.908 307.233 134.601 306.78C134.294 306.313 134.141 305.78 134.141 305.18C134.141 304.607 134.261 304.093 134.501 303.64C134.754 303.173 135.141 302.78 135.661 302.46C136.194 302.14 136.861 301.913 137.661 301.78L141.661 301.12V302.68L138.081 303.28C137.388 303.4 136.881 303.62 136.561 303.94C136.254 304.26 136.101 304.653 136.101 305.12C136.101 305.56 136.274 305.927 136.621 306.22C136.981 306.513 137.428 306.66 137.961 306.66C138.641 306.66 139.228 306.52 139.721 306.24C140.228 305.947 140.621 305.553 140.901 305.06C141.194 304.567 141.341 304.02 141.341 303.42V300.68C141.341 300.093 141.121 299.62 140.681 299.26C140.254 298.887 139.688 298.7 138.981 298.7C138.368 298.7 137.821 298.86 137.341 299.18C136.874 299.487 136.528 299.9 136.301 300.42L134.681 299.58C134.881 299.087 135.201 298.647 135.641 298.26C136.081 297.86 136.594 297.547 137.181 297.32C137.768 297.093 138.381 296.98 139.021 296.98C139.848 296.98 140.574 297.14 141.201 297.46C141.828 297.767 142.314 298.2 142.661 298.76C143.021 299.307 143.201 299.947 143.201 300.68V308H141.381V305.96L141.721 306.08C141.494 306.507 141.188 306.88 140.801 307.2C140.414 307.52 139.961 307.773 139.441 307.96C138.921 308.147 138.354 308.24 137.741 308.24ZM150.685 308.24C149.632 308.24 148.692 307.993 147.865 307.5C147.052 307.007 146.412 306.333 145.945 305.48C145.478 304.627 145.245 303.667 145.245 302.6C145.245 301.52 145.478 300.56 145.945 299.72C146.412 298.88 147.052 298.213 147.865 297.72C148.692 297.227 149.632 296.98 150.685 296.98C151.392 296.98 152.052 297.107 152.665 297.36C153.278 297.613 153.818 297.953 154.285 298.38C154.752 298.807 155.092 299.307 155.305 299.88L153.645 300.68C153.392 300.12 153.005 299.667 152.485 299.32C151.965 298.96 151.365 298.78 150.685 298.78C150.032 298.78 149.438 298.947 148.905 299.28C148.385 299.613 147.972 300.067 147.665 300.64C147.358 301.213 147.205 301.873 147.205 302.62C147.205 303.34 147.358 303.993 147.665 304.58C147.972 305.153 148.385 305.607 148.905 305.94C149.438 306.273 150.032 306.44 150.685 306.44C151.365 306.44 151.965 306.267 152.485 305.92C153.005 305.56 153.392 305.087 153.645 304.5L155.305 305.34C155.092 305.9 154.752 306.4 154.285 306.84C153.818 307.267 153.278 307.607 152.665 307.86C152.052 308.113 151.392 308.24 150.685 308.24ZM162.336 308.24C161.282 308.24 160.342 307.993 159.516 307.5C158.702 307.007 158.062 306.333 157.596 305.48C157.129 304.627 156.896 303.667 156.896 302.6C156.896 301.52 157.129 300.56 157.596 299.72C158.062 298.88 158.702 298.213 159.516 297.72C160.342 297.227 161.282 296.98 162.336 296.98C163.042 296.98 163.702 297.107 164.316 297.36C164.929 297.613 165.469 297.953 165.936 298.38C166.402 298.807 166.742 299.307 166.956 299.88L165.296 300.68C165.042 300.12 164.656 299.667 164.136 299.32C163.616 298.96 163.016 298.78 162.336 298.78C161.682 298.78 161.089 298.947 160.556 299.28C160.036 299.613 159.622 300.067 159.316 300.64C159.009 301.213 158.856 301.873 158.856 302.62C158.856 303.34 159.009 303.993 159.316 304.58C159.622 305.153 160.036 305.607 160.556 305.94C161.089 306.273 161.682 306.44 162.336 306.44C163.016 306.44 163.616 306.267 164.136 305.92C164.656 305.56 165.042 305.087 165.296 304.5L166.956 305.34C166.742 305.9 166.402 306.4 165.936 306.84C165.469 307.267 164.929 307.607 164.316 307.86C163.702 308.113 163.042 308.24 162.336 308.24ZM174.106 308.24C173.066 308.24 172.126 308 171.286 307.52C170.446 307.027 169.78 306.353 169.286 305.5C168.793 304.647 168.546 303.68 168.546 302.6C168.546 301.52 168.786 300.56 169.266 299.72C169.76 298.88 170.426 298.213 171.266 297.72C172.106 297.227 173.053 296.98 174.106 296.98C175.146 296.98 176.086 297.227 176.926 297.72C177.766 298.2 178.426 298.86 178.906 299.7C179.4 300.54 179.646 301.507 179.646 302.6C179.646 303.693 179.393 304.667 178.886 305.52C178.38 306.36 177.706 307.027 176.866 307.52C176.04 308 175.12 308.24 174.106 308.24ZM174.106 306.44C174.773 306.44 175.373 306.273 175.906 305.94C176.453 305.607 176.88 305.147 177.186 304.56C177.506 303.973 177.666 303.32 177.666 302.6C177.666 301.867 177.506 301.22 177.186 300.66C176.88 300.087 176.453 299.633 175.906 299.3C175.373 298.953 174.773 298.78 174.106 298.78C173.426 298.78 172.813 298.953 172.266 299.3C171.733 299.633 171.306 300.087 170.986 300.66C170.666 301.22 170.506 301.867 170.506 302.6C170.506 303.32 170.666 303.973 170.986 304.56C171.306 305.147 171.733 305.607 172.266 305.94C172.813 306.273 173.426 306.44 174.106 306.44ZM185.492 308.24C184.719 308.24 184.019 308.06 183.392 307.7C182.779 307.34 182.299 306.84 181.952 306.2C181.619 305.547 181.452 304.8 181.452 303.96V297.22H183.312V303.76C183.312 304.293 183.419 304.76 183.632 305.16C183.859 305.56 184.166 305.873 184.552 306.1C184.952 306.327 185.406 306.44 185.912 306.44C186.419 306.44 186.866 306.327 187.252 306.1C187.652 305.873 187.959 305.547 188.172 305.12C188.399 304.693 188.512 304.187 188.512 303.6V297.22H190.392V308H188.572V305.9L188.872 306.08C188.619 306.76 188.186 307.293 187.572 307.68C186.972 308.053 186.279 308.24 185.492 308.24ZM192.874 308V297.22H194.694V299.32L194.394 299.14C194.661 298.46 195.087 297.933 195.674 297.56C196.274 297.173 196.974 296.98 197.774 296.98C198.547 296.98 199.234 297.153 199.834 297.5C200.447 297.847 200.927 298.327 201.274 298.94C201.634 299.553 201.814 300.247 201.814 301.02V308H199.934V301.62C199.934 301.02 199.827 300.513 199.614 300.1C199.401 299.687 199.094 299.367 198.694 299.14C198.307 298.9 197.861 298.78 197.354 298.78C196.847 298.78 196.394 298.9 195.994 299.14C195.607 299.367 195.301 299.693 195.074 300.12C194.847 300.533 194.734 301.033 194.734 301.62V308H192.874ZM208.456 308.12C207.402 308.12 206.589 307.82 206.016 307.22C205.456 306.62 205.176 305.773 205.176 304.68V299H203.216V297.22H203.616C204.096 297.22 204.476 297.073 204.756 296.78C205.036 296.487 205.176 296.1 205.176 295.62V294.74H207.036V297.22H209.456V299H207.036V304.62C207.036 304.98 207.089 305.293 207.196 305.56C207.316 305.827 207.509 306.04 207.776 306.2C208.042 306.347 208.396 306.42 208.836 306.42C208.929 306.42 209.042 306.413 209.176 306.4C209.322 306.387 209.456 306.373 209.576 306.36V308C209.402 308.04 209.209 308.067 208.996 308.08C208.782 308.107 208.602 308.12 208.456 308.12ZM212.365 308V305.6H214.305V308H212.365Z" fill="white"/>
<circle cx="31" cy="31" r="28" fill="#7C5CFC" stroke="#0D121F" stroke-width="6"/>
<path d="M30.5248 41V25.52H27.0928V23.12H33.3328V41H30.5248Z" fill="white"/>
</svg>
