<svg width="231" height="315" viewBox="0 0 231 315" fill="none" xmlns="http://www.w3.org/2000/svg">
<rect x="31" y="31" width="200" height="200" rx="16" fill="#F3F5F7"/>
<path d="M63 75C63 68.3726 68.3726 63 75 63H187C193.627 63 199 68.3726 199 75V231H63V75Z" fill="white"/>
<path d="M179.171 117.144C178.611 117.144 178.091 117.04 177.611 116.832C177.131 116.616 176.723 116.324 176.387 115.956C176.051 115.588 175.803 115.164 175.643 114.684L176.843 114.18C177.059 114.732 177.375 115.156 177.791 115.452C178.207 115.748 178.687 115.896 179.231 115.896C179.551 115.896 179.831 115.848 180.071 115.752C180.311 115.648 180.495 115.504 180.623 115.32C180.759 115.136 180.827 114.924 180.827 114.684C180.827 114.356 180.735 114.096 180.551 113.904C180.367 113.712 180.095 113.56 179.735 113.448L178.055 112.92C177.383 112.712 176.871 112.396 176.519 111.972C176.167 111.54 175.991 111.036 175.991 110.46C175.991 109.956 176.115 109.516 176.363 109.14C176.611 108.756 176.951 108.456 177.383 108.24C177.823 108.024 178.323 107.916 178.883 107.916C179.419 107.916 179.907 108.012 180.347 108.204C180.787 108.388 181.163 108.644 181.475 108.972C181.795 109.3 182.027 109.68 182.171 110.112L180.995 110.628C180.819 110.156 180.543 109.792 180.167 109.536C179.799 109.28 179.371 109.152 178.883 109.152C178.587 109.152 178.327 109.204 178.103 109.308C177.879 109.404 177.703 109.548 177.575 109.74C177.455 109.924 177.395 110.14 177.395 110.388C177.395 110.676 177.487 110.932 177.671 111.156C177.855 111.38 178.135 111.548 178.511 111.66L180.071 112.152C180.783 112.368 181.319 112.68 181.679 113.088C182.039 113.488 182.219 113.988 182.219 114.588C182.219 115.084 182.087 115.524 181.823 115.908C181.567 116.292 181.211 116.596 180.755 116.82C180.299 117.036 179.771 117.144 179.171 117.144ZM178.619 118.2V106.86H179.579V118.2H178.619Z" fill="#C3D4E9"/>
<path d="M179.171 140.144C178.611 140.144 178.091 140.04 177.611 139.832C177.131 139.616 176.723 139.324 176.387 138.956C176.051 138.588 175.803 138.164 175.643 137.684L176.843 137.18C177.059 137.732 177.375 138.156 177.791 138.452C178.207 138.748 178.687 138.896 179.231 138.896C179.551 138.896 179.831 138.848 180.071 138.752C180.311 138.648 180.495 138.504 180.623 138.32C180.759 138.136 180.827 137.924 180.827 137.684C180.827 137.356 180.735 137.096 180.551 136.904C180.367 136.712 180.095 136.56 179.735 136.448L178.055 135.92C177.383 135.712 176.871 135.396 176.519 134.972C176.167 134.54 175.991 134.036 175.991 133.46C175.991 132.956 176.115 132.516 176.363 132.14C176.611 131.756 176.951 131.456 177.383 131.24C177.823 131.024 178.323 130.916 178.883 130.916C179.419 130.916 179.907 131.012 180.347 131.204C180.787 131.388 181.163 131.644 181.475 131.972C181.795 132.3 182.027 132.68 182.171 133.112L180.995 133.628C180.819 133.156 180.543 132.792 180.167 132.536C179.799 132.28 179.371 132.152 178.883 132.152C178.587 132.152 178.327 132.204 178.103 132.308C177.879 132.404 177.703 132.548 177.575 132.74C177.455 132.924 177.395 133.14 177.395 133.388C177.395 133.676 177.487 133.932 177.671 134.156C177.855 134.38 178.135 134.548 178.511 134.66L180.071 135.152C180.783 135.368 181.319 135.68 181.679 136.088C182.039 136.488 182.219 136.988 182.219 137.588C182.219 138.084 182.087 138.524 181.823 138.908C181.567 139.292 181.211 139.596 180.755 139.82C180.299 140.036 179.771 140.144 179.171 140.144ZM178.619 141.2V129.86H179.579V141.2H178.619Z" fill="#C3D4E9"/>
<path d="M179.171 163.144C178.611 163.144 178.091 163.04 177.611 162.832C177.131 162.616 176.723 162.324 176.387 161.956C176.051 161.588 175.803 161.164 175.643 160.684L176.843 160.18C177.059 160.732 177.375 161.156 177.791 161.452C178.207 161.748 178.687 161.896 179.231 161.896C179.551 161.896 179.831 161.848 180.071 161.752C180.311 161.648 180.495 161.504 180.623 161.32C180.759 161.136 180.827 160.924 180.827 160.684C180.827 160.356 180.735 160.096 180.551 159.904C180.367 159.712 180.095 159.56 179.735 159.448L178.055 158.92C177.383 158.712 176.871 158.396 176.519 157.972C176.167 157.54 175.991 157.036 175.991 156.46C175.991 155.956 176.115 155.516 176.363 155.14C176.611 154.756 176.951 154.456 177.383 154.24C177.823 154.024 178.323 153.916 178.883 153.916C179.419 153.916 179.907 154.012 180.347 154.204C180.787 154.388 181.163 154.644 181.475 154.972C181.795 155.3 182.027 155.68 182.171 156.112L180.995 156.628C180.819 156.156 180.543 155.792 180.167 155.536C179.799 155.28 179.371 155.152 178.883 155.152C178.587 155.152 178.327 155.204 178.103 155.308C177.879 155.404 177.703 155.548 177.575 155.74C177.455 155.924 177.395 156.14 177.395 156.388C177.395 156.676 177.487 156.932 177.671 157.156C177.855 157.38 178.135 157.548 178.511 157.66L180.071 158.152C180.783 158.368 181.319 158.68 181.679 159.088C182.039 159.488 182.219 159.988 182.219 160.588C182.219 161.084 182.087 161.524 181.823 161.908C181.567 162.292 181.211 162.596 180.755 162.82C180.299 163.036 179.771 163.144 179.171 163.144ZM178.619 164.2V152.86H179.579V164.2H178.619Z" fill="#C3D4E9"/>
<path d="M179.171 186.144C178.611 186.144 178.091 186.04 177.611 185.832C177.131 185.616 176.723 185.324 176.387 184.956C176.051 184.588 175.803 184.164 175.643 183.684L176.843 183.18C177.059 183.732 177.375 184.156 177.791 184.452C178.207 184.748 178.687 184.896 179.231 184.896C179.551 184.896 179.831 184.848 180.071 184.752C180.311 184.648 180.495 184.504 180.623 184.32C180.759 184.136 180.827 183.924 180.827 183.684C180.827 183.356 180.735 183.096 180.551 182.904C180.367 182.712 180.095 182.56 179.735 182.448L178.055 181.92C177.383 181.712 176.871 181.396 176.519 180.972C176.167 180.54 175.991 180.036 175.991 179.46C175.991 178.956 176.115 178.516 176.363 178.14C176.611 177.756 176.951 177.456 177.383 177.24C177.823 177.024 178.323 176.916 178.883 176.916C179.419 176.916 179.907 177.012 180.347 177.204C180.787 177.388 181.163 177.644 181.475 177.972C181.795 178.3 182.027 178.68 182.171 179.112L180.995 179.628C180.819 179.156 180.543 178.792 180.167 178.536C179.799 178.28 179.371 178.152 178.883 178.152C178.587 178.152 178.327 178.204 178.103 178.308C177.879 178.404 177.703 178.548 177.575 178.74C177.455 178.924 177.395 179.14 177.395 179.388C177.395 179.676 177.487 179.932 177.671 180.156C177.855 180.38 178.135 180.548 178.511 180.66L180.071 181.152C180.783 181.368 181.319 181.68 181.679 182.088C182.039 182.488 182.219 182.988 182.219 183.588C182.219 184.084 182.087 184.524 181.823 184.908C181.567 185.292 181.211 185.596 180.755 185.82C180.299 186.036 179.771 186.144 179.171 186.144ZM178.619 187.2V175.86H179.579V187.2H178.619Z" fill="#C3D4E9"/>
<path d="M179.171 209.144C178.611 209.144 178.091 209.04 177.611 208.832C177.131 208.616 176.723 208.324 176.387 207.956C176.051 207.588 175.803 207.164 175.643 206.684L176.843 206.18C177.059 206.732 177.375 207.156 177.791 207.452C178.207 207.748 178.687 207.896 179.231 207.896C179.551 207.896 179.831 207.848 180.071 207.752C180.311 207.648 180.495 207.504 180.623 207.32C180.759 207.136 180.827 206.924 180.827 206.684C180.827 206.356 180.735 206.096 180.551 205.904C180.367 205.712 180.095 205.56 179.735 205.448L178.055 204.92C177.383 204.712 176.871 204.396 176.519 203.972C176.167 203.54 175.991 203.036 175.991 202.46C175.991 201.956 176.115 201.516 176.363 201.14C176.611 200.756 176.951 200.456 177.383 200.24C177.823 200.024 178.323 199.916 178.883 199.916C179.419 199.916 179.907 200.012 180.347 200.204C180.787 200.388 181.163 200.644 181.475 200.972C181.795 201.3 182.027 201.68 182.171 202.112L180.995 202.628C180.819 202.156 180.543 201.792 180.167 201.536C179.799 201.28 179.371 201.152 178.883 201.152C178.587 201.152 178.327 201.204 178.103 201.308C177.879 201.404 177.703 201.548 177.575 201.74C177.455 201.924 177.395 202.14 177.395 202.388C177.395 202.676 177.487 202.932 177.671 203.156C177.855 203.38 178.135 203.548 178.511 203.66L180.071 204.152C180.783 204.368 181.319 204.68 181.679 205.088C182.039 205.488 182.219 205.988 182.219 206.588C182.219 207.084 182.087 207.524 181.823 207.908C181.567 208.292 181.211 208.596 180.755 208.82C180.299 209.036 179.771 209.144 179.171 209.144ZM178.619 210.2V198.86H179.579V210.2H178.619Z" fill="#C3D4E9"/>
<path d="M105.414 91V82.06H111.306V83.32H106.83V85.888H111.066V87.148H106.83V89.74H111.306V91H105.414ZM111.601 91L113.869 87.748L111.601 84.508H113.197L115.057 87.22H114.289L116.149 84.508H117.745L115.465 87.748L117.733 91H116.137L114.301 88.276H115.045L113.197 91H111.601ZM118.431 93.4V84.508H119.727V85.852L119.571 85.54C119.811 85.172 120.131 84.884 120.531 84.676C120.931 84.468 121.387 84.364 121.899 84.364C122.515 84.364 123.067 84.512 123.555 84.808C124.051 85.104 124.439 85.508 124.719 86.02C125.007 86.532 125.151 87.108 125.151 87.748C125.151 88.388 125.007 88.964 124.719 89.476C124.439 89.988 124.055 90.396 123.567 90.7C123.079 90.996 122.523 91.144 121.899 91.144C121.395 91.144 120.935 91.04 120.519 90.832C120.111 90.624 119.795 90.324 119.571 89.932L119.787 89.68V93.4H118.431ZM121.767 89.884C122.151 89.884 122.491 89.792 122.787 89.608C123.083 89.424 123.315 89.172 123.483 88.852C123.659 88.524 123.747 88.156 123.747 87.748C123.747 87.34 123.659 86.976 123.483 86.656C123.315 86.336 123.083 86.084 122.787 85.9C122.491 85.716 122.151 85.624 121.767 85.624C121.391 85.624 121.051 85.716 120.747 85.9C120.451 86.084 120.215 86.336 120.039 86.656C119.871 86.976 119.787 87.34 119.787 87.748C119.787 88.156 119.871 88.524 120.039 88.852C120.215 89.172 120.451 89.424 120.747 89.608C121.051 89.792 121.391 89.884 121.767 89.884ZM129.278 91.144C128.63 91.144 128.054 90.996 127.55 90.7C127.054 90.396 126.666 89.988 126.386 89.476C126.106 88.956 125.966 88.376 125.966 87.736C125.966 87.08 126.106 86.5 126.386 85.996C126.674 85.492 127.058 85.096 127.538 84.808C128.018 84.512 128.562 84.364 129.17 84.364C129.658 84.364 130.094 84.448 130.478 84.616C130.862 84.784 131.186 85.016 131.45 85.312C131.714 85.6 131.914 85.932 132.05 86.308C132.194 86.684 132.266 87.084 132.266 87.508C132.266 87.612 132.262 87.72 132.254 87.832C132.246 87.944 132.23 88.048 132.206 88.144H127.034V87.064H131.438L130.79 87.556C130.87 87.164 130.842 86.816 130.706 86.512C130.578 86.2 130.378 85.956 130.106 85.78C129.842 85.596 129.53 85.504 129.17 85.504C128.81 85.504 128.49 85.596 128.21 85.78C127.93 85.956 127.714 86.212 127.562 86.548C127.41 86.876 127.35 87.276 127.382 87.748C127.342 88.188 127.402 88.572 127.562 88.9C127.73 89.228 127.962 89.484 128.258 89.668C128.562 89.852 128.906 89.944 129.29 89.944C129.682 89.944 130.014 89.856 130.286 89.68C130.566 89.504 130.786 89.276 130.946 88.996L132.05 89.536C131.922 89.84 131.722 90.116 131.45 90.364C131.186 90.604 130.866 90.796 130.49 90.94C130.122 91.076 129.718 91.144 129.278 91.144ZM133.35 91V84.508H134.646V85.78L134.49 85.612C134.65 85.204 134.906 84.896 135.258 84.688C135.61 84.472 136.018 84.364 136.482 84.364C136.962 84.364 137.386 84.468 137.754 84.676C138.122 84.884 138.41 85.172 138.618 85.54C138.826 85.908 138.93 86.332 138.93 86.812V91H137.586V87.172C137.586 86.844 137.526 86.568 137.406 86.344C137.286 86.112 137.114 85.936 136.89 85.816C136.674 85.688 136.426 85.624 136.146 85.624C135.866 85.624 135.614 85.688 135.39 85.816C135.174 85.936 135.006 86.112 134.886 86.344C134.766 86.576 134.706 86.852 134.706 87.172V91H133.35ZM142.541 91.144C141.877 91.144 141.293 90.98 140.789 90.652C140.293 90.324 139.945 89.884 139.745 89.332L140.789 88.84C140.965 89.208 141.205 89.5 141.509 89.716C141.821 89.932 142.165 90.04 142.541 90.04C142.861 90.04 143.121 89.968 143.321 89.824C143.521 89.68 143.621 89.484 143.621 89.236C143.621 89.076 143.577 88.948 143.489 88.852C143.401 88.748 143.289 88.664 143.153 88.6C143.025 88.536 142.893 88.488 142.757 88.456L141.737 88.168C141.177 88.008 140.757 87.768 140.477 87.448C140.205 87.12 140.069 86.74 140.069 86.308C140.069 85.916 140.169 85.576 140.369 85.288C140.569 84.992 140.845 84.764 141.197 84.604C141.549 84.444 141.945 84.364 142.385 84.364C142.977 84.364 143.505 84.512 143.969 84.808C144.433 85.096 144.761 85.5 144.953 86.02L143.909 86.512C143.781 86.2 143.577 85.952 143.297 85.768C143.025 85.584 142.717 85.492 142.373 85.492C142.077 85.492 141.841 85.564 141.665 85.708C141.489 85.844 141.401 86.024 141.401 86.248C141.401 86.4 141.441 86.528 141.521 86.632C141.601 86.728 141.705 86.808 141.833 86.872C141.961 86.928 142.093 86.976 142.229 87.016L143.285 87.328C143.821 87.48 144.233 87.72 144.521 88.048C144.809 88.368 144.953 88.752 144.953 89.2C144.953 89.584 144.849 89.924 144.641 90.22C144.441 90.508 144.161 90.736 143.801 90.904C143.441 91.064 143.021 91.144 142.541 91.144ZM149.09 91.144C148.442 91.144 147.866 90.996 147.362 90.7C146.866 90.396 146.478 89.988 146.198 89.476C145.918 88.956 145.778 88.376 145.778 87.736C145.778 87.08 145.918 86.5 146.198 85.996C146.486 85.492 146.87 85.096 147.35 84.808C147.83 84.512 148.374 84.364 148.982 84.364C149.47 84.364 149.906 84.448 150.29 84.616C150.674 84.784 150.998 85.016 151.262 85.312C151.526 85.6 151.726 85.932 151.862 86.308C152.006 86.684 152.078 87.084 152.078 87.508C152.078 87.612 152.074 87.72 152.066 87.832C152.058 87.944 152.042 88.048 152.018 88.144H146.846V87.064H151.25L150.602 87.556C150.682 87.164 150.654 86.816 150.518 86.512C150.39 86.2 150.19 85.956 149.918 85.78C149.654 85.596 149.342 85.504 148.982 85.504C148.622 85.504 148.302 85.596 148.022 85.78C147.742 85.956 147.526 86.212 147.374 86.548C147.222 86.876 147.162 87.276 147.194 87.748C147.154 88.188 147.214 88.572 147.374 88.9C147.542 89.228 147.774 89.484 148.07 89.668C148.374 89.852 148.718 89.944 149.102 89.944C149.494 89.944 149.826 89.856 150.098 89.68C150.378 89.504 150.598 89.276 150.758 88.996L151.862 89.536C151.734 89.84 151.534 90.116 151.262 90.364C150.998 90.604 150.678 90.796 150.302 90.94C149.934 91.076 149.53 91.144 149.09 91.144ZM155.561 91.144C154.897 91.144 154.313 90.98 153.809 90.652C153.313 90.324 152.965 89.884 152.765 89.332L153.809 88.84C153.985 89.208 154.225 89.5 154.529 89.716C154.841 89.932 155.185 90.04 155.561 90.04C155.881 90.04 156.141 89.968 156.341 89.824C156.541 89.68 156.641 89.484 156.641 89.236C156.641 89.076 156.597 88.948 156.509 88.852C156.421 88.748 156.309 88.664 156.173 88.6C156.045 88.536 155.913 88.488 155.777 88.456L154.757 88.168C154.197 88.008 153.777 87.768 153.497 87.448C153.225 87.12 153.089 86.74 153.089 86.308C153.089 85.916 153.189 85.576 153.389 85.288C153.589 84.992 153.865 84.764 154.217 84.604C154.569 84.444 154.965 84.364 155.405 84.364C155.997 84.364 156.525 84.512 156.989 84.808C157.453 85.096 157.781 85.5 157.973 86.02L156.929 86.512C156.801 86.2 156.597 85.952 156.317 85.768C156.045 85.584 155.737 85.492 155.393 85.492C155.097 85.492 154.861 85.564 154.685 85.708C154.509 85.844 154.421 86.024 154.421 86.248C154.421 86.4 154.461 86.528 154.541 86.632C154.621 86.728 154.725 86.808 154.853 86.872C154.981 86.928 155.113 86.976 155.249 87.016L156.305 87.328C156.841 87.48 157.253 87.72 157.541 88.048C157.829 88.368 157.973 88.752 157.973 89.2C157.973 89.584 157.869 89.924 157.661 90.22C157.461 90.508 157.181 90.736 156.821 90.904C156.461 91.064 156.041 91.144 155.561 91.144Z" fill="#1A202C"/>
<rect x="79" y="110" width="41" height="5" rx="2.5" fill="#C3D4E9"/>
<rect x="79" y="133" width="79" height="5" rx="2.5" fill="#C3D4E9"/>
<rect x="79" y="156" width="60" height="5" rx="2.5" fill="#C3D4E9"/>
<rect x="79" y="179" width="31" height="5" rx="2.5" fill="#C3D4E9"/>
<rect x="114" y="179" width="31" height="5" rx="2.5" fill="#C3D4E9"/>
<rect x="79" y="202" width="75" height="5" rx="2.5" fill="#C3D4E9"/>
<path d="M44.6182 278V263.1H54.0582V264.9H46.5782V269.72H53.3582V271.52H46.5782V278H44.6182ZM55.6584 278V267.22H57.5184V278H55.6584ZM55.6584 265.5V263.1H57.5184V265.5H55.6584ZM60.0045 278V262.86H61.8645V278H60.0045ZM64.3505 278V262.86H66.2105V278H64.3505ZM71.7537 278V267.22H73.6137V278H71.7537ZM71.7537 265.5V263.1H73.6137V265.5H71.7537ZM76.0998 278V267.22H77.9198V269.32L77.6198 269.14C77.8864 268.46 78.3131 267.933 78.8998 267.56C79.4998 267.173 80.1998 266.98 80.9998 266.98C81.7731 266.98 82.4598 267.153 83.0598 267.5C83.6731 267.847 84.1531 268.327 84.4998 268.94C84.8598 269.553 85.0398 270.247 85.0398 271.02V278H83.1598V271.62C83.1598 271.02 83.0531 270.513 82.8398 270.1C82.6264 269.687 82.3198 269.367 81.9198 269.14C81.5331 268.9 81.0864 268.78 80.5798 268.78C80.0731 268.78 79.6198 268.9 79.2198 269.14C78.8331 269.367 78.5264 269.693 78.2998 270.12C78.0731 270.533 77.9598 271.033 77.9598 271.62V278H76.0998ZM94.7384 278.12C93.685 278.12 92.8717 277.82 92.2984 277.22C91.7384 276.62 91.4584 275.773 91.4584 274.68V269H89.4984V267.22H89.8984C90.3784 267.22 90.7584 267.073 91.0384 266.78C91.3184 266.487 91.4584 266.1 91.4584 265.62V264.74H93.3184V267.22H95.7384V269H93.3184V274.62C93.3184 274.98 93.3717 275.293 93.4784 275.56C93.5984 275.827 93.7917 276.04 94.0584 276.2C94.325 276.347 94.6784 276.42 95.1184 276.42C95.2117 276.42 95.325 276.413 95.4584 276.4C95.605 276.387 95.7384 276.373 95.8584 276.36V278C95.685 278.04 95.4917 278.067 95.2784 278.08C95.065 278.107 94.885 278.12 94.7384 278.12ZM97.8881 278V262.86H99.7481V269.32L99.4081 269.14C99.6747 268.46 100.101 267.933 100.688 267.56C101.288 267.173 101.988 266.98 102.788 266.98C103.561 266.98 104.248 267.153 104.848 267.5C105.461 267.847 105.941 268.327 106.288 268.94C106.648 269.553 106.828 270.247 106.828 271.02V278H104.948V271.62C104.948 271.02 104.835 270.513 104.608 270.1C104.395 269.687 104.095 269.367 103.708 269.14C103.321 268.9 102.875 268.78 102.368 268.78C101.875 268.78 101.428 268.9 101.028 269.14C100.628 269.367 100.315 269.693 100.088 270.12C99.8614 270.533 99.7481 271.033 99.7481 271.62V278H97.8881ZM114.05 278.24C113.01 278.24 112.083 277.993 111.27 277.5C110.456 277.007 109.816 276.333 109.35 275.48C108.883 274.613 108.65 273.647 108.65 272.58C108.65 271.5 108.876 270.54 109.33 269.7C109.796 268.86 110.423 268.2 111.21 267.72C112.01 267.227 112.903 266.98 113.89 266.98C114.69 266.98 115.396 267.127 116.01 267.42C116.636 267.7 117.163 268.087 117.59 268.58C118.03 269.06 118.363 269.613 118.59 270.24C118.83 270.853 118.95 271.493 118.95 272.16C118.95 272.307 118.936 272.473 118.91 272.66C118.896 272.833 118.876 273 118.85 273.16H110.01V271.56H117.77L116.89 272.28C117.01 271.587 116.943 270.967 116.69 270.42C116.436 269.873 116.063 269.44 115.57 269.12C115.076 268.8 114.516 268.64 113.89 268.64C113.263 268.64 112.69 268.8 112.17 269.12C111.65 269.44 111.243 269.9 110.95 270.5C110.67 271.087 110.556 271.787 110.61 272.6C110.556 273.387 110.676 274.08 110.97 274.68C111.276 275.267 111.703 275.727 112.25 276.06C112.81 276.38 113.416 276.54 114.07 276.54C114.79 276.54 115.396 276.373 115.89 276.04C116.383 275.707 116.783 275.28 117.09 274.76L118.65 275.56C118.436 276.053 118.103 276.507 117.65 276.92C117.21 277.32 116.683 277.64 116.07 277.88C115.47 278.12 114.796 278.24 114.05 278.24ZM124.032 278V262.86H125.892V278H124.032ZM128.378 278V267.22H130.238V278H128.378ZM128.378 265.5V263.1H130.238V265.5H128.378ZM136.584 278.24C135.504 278.24 134.564 277.973 133.764 277.44C132.964 276.907 132.397 276.187 132.064 275.28L133.544 274.56C133.851 275.2 134.271 275.707 134.804 276.08C135.337 276.453 135.931 276.64 136.584 276.64C137.171 276.64 137.657 276.5 138.044 276.22C138.431 275.94 138.624 275.573 138.624 275.12C138.624 274.8 138.531 274.547 138.344 274.36C138.171 274.16 137.957 274.007 137.704 273.9C137.451 273.78 137.217 273.693 137.004 273.64L135.384 273.18C134.411 272.9 133.697 272.5 133.244 271.98C132.804 271.46 132.584 270.853 132.584 270.16C132.584 269.52 132.744 268.967 133.064 268.5C133.397 268.02 133.844 267.647 134.404 267.38C134.977 267.113 135.617 266.98 136.324 266.98C137.271 266.98 138.117 267.22 138.864 267.7C139.624 268.18 140.164 268.853 140.484 269.72L138.964 270.42C138.724 269.86 138.364 269.42 137.884 269.1C137.404 268.767 136.864 268.6 136.264 268.6C135.717 268.6 135.284 268.74 134.964 269.02C134.644 269.287 134.484 269.627 134.484 270.04C134.484 270.347 134.564 270.6 134.724 270.8C134.884 270.987 135.077 271.133 135.304 271.24C135.531 271.333 135.751 271.413 135.964 271.48L137.724 272C138.604 272.253 139.284 272.647 139.764 273.18C140.257 273.713 140.504 274.353 140.504 275.1C140.504 275.7 140.337 276.24 140.004 276.72C139.671 277.2 139.211 277.573 138.624 277.84C138.037 278.107 137.357 278.24 136.584 278.24ZM146.919 278.12C145.865 278.12 145.052 277.82 144.479 277.22C143.919 276.62 143.639 275.773 143.639 274.68V269H141.679V267.22H142.079C142.559 267.22 142.939 267.073 143.219 266.78C143.499 266.487 143.639 266.1 143.639 265.62V264.74H145.499V267.22H147.919V269H145.499V274.62C145.499 274.98 145.552 275.293 145.659 275.56C145.779 275.827 145.972 276.04 146.239 276.2C146.505 276.347 146.859 276.42 147.299 276.42C147.392 276.42 147.505 276.413 147.639 276.4C147.785 276.387 147.919 276.373 148.039 276.36V278C147.865 278.04 147.672 278.067 147.459 278.08C147.245 278.107 147.065 278.12 146.919 278.12ZM158.246 278.24C157.206 278.24 156.266 278 155.426 277.52C154.586 277.027 153.919 276.353 153.426 275.5C152.932 274.647 152.686 273.68 152.686 272.6C152.686 271.52 152.926 270.56 153.406 269.72C153.899 268.88 154.566 268.213 155.406 267.72C156.246 267.227 157.192 266.98 158.246 266.98C159.286 266.98 160.226 267.227 161.066 267.72C161.906 268.2 162.566 268.86 163.046 269.7C163.539 270.54 163.786 271.507 163.786 272.6C163.786 273.693 163.532 274.667 163.026 275.52C162.519 276.36 161.846 277.027 161.006 277.52C160.179 278 159.259 278.24 158.246 278.24ZM158.246 276.44C158.912 276.44 159.512 276.273 160.046 275.94C160.592 275.607 161.019 275.147 161.326 274.56C161.646 273.973 161.806 273.32 161.806 272.6C161.806 271.867 161.646 271.22 161.326 270.66C161.019 270.087 160.592 269.633 160.046 269.3C159.512 268.953 158.912 268.78 158.246 268.78C157.566 268.78 156.952 268.953 156.406 269.3C155.872 269.633 155.446 270.087 155.126 270.66C154.806 271.22 154.646 271.867 154.646 272.6C154.646 273.32 154.806 273.973 155.126 274.56C155.446 275.147 155.872 275.607 156.406 275.94C156.952 276.273 157.566 276.44 158.246 276.44ZM166.619 278V269H164.559V267.22H166.619V266.46C166.619 265.687 166.786 265.033 167.119 264.5C167.466 263.967 167.919 263.56 168.479 263.28C169.053 263 169.686 262.86 170.379 262.86C170.526 262.86 170.686 262.873 170.859 262.9C171.046 262.913 171.199 262.933 171.319 262.96V264.62C171.213 264.593 171.086 264.58 170.939 264.58C170.793 264.567 170.679 264.56 170.599 264.56C169.986 264.56 169.479 264.707 169.079 265C168.693 265.293 168.499 265.78 168.499 266.46V267.22H171.059V269H168.499V278H166.619ZM176.666 282.4C176.426 282.4 176.186 282.38 175.946 282.34C175.706 282.313 175.479 282.253 175.266 282.16V280.5C175.412 280.513 175.592 280.54 175.806 280.58C176.032 280.62 176.252 280.64 176.466 280.64C177.092 280.64 177.566 280.5 177.886 280.22C178.219 279.94 178.532 279.467 178.826 278.8L179.506 277.18L179.466 278.8L174.866 267.22H176.886L180.466 276.42H179.866L183.426 267.22H185.486L180.626 279.28C180.399 279.853 180.106 280.38 179.746 280.86C179.399 281.34 178.972 281.713 178.466 281.98C177.959 282.26 177.359 282.4 176.666 282.4ZM191.665 278.24C190.625 278.24 189.685 278 188.845 277.52C188.005 277.027 187.338 276.353 186.845 275.5C186.352 274.647 186.105 273.68 186.105 272.6C186.105 271.52 186.345 270.56 186.825 269.72C187.318 268.88 187.985 268.213 188.825 267.72C189.665 267.227 190.612 266.98 191.665 266.98C192.705 266.98 193.645 267.227 194.485 267.72C195.325 268.2 195.985 268.86 196.465 269.7C196.958 270.54 197.205 271.507 197.205 272.6C197.205 273.693 196.952 274.667 196.445 275.52C195.938 276.36 195.265 277.027 194.425 277.52C193.598 278 192.678 278.24 191.665 278.24ZM191.665 276.44C192.332 276.44 192.932 276.273 193.465 275.94C194.012 275.607 194.438 275.147 194.745 274.56C195.065 273.973 195.225 273.32 195.225 272.6C195.225 271.867 195.065 271.22 194.745 270.66C194.438 270.087 194.012 269.633 193.465 269.3C192.932 268.953 192.332 268.78 191.665 268.78C190.985 268.78 190.372 268.953 189.825 269.3C189.292 269.633 188.865 270.087 188.545 270.66C188.225 271.22 188.065 271.867 188.065 272.6C188.065 273.32 188.225 273.973 188.545 274.56C188.865 275.147 189.292 275.607 189.825 275.94C190.372 276.273 190.985 276.44 191.665 276.44ZM203.051 278.24C202.278 278.24 201.578 278.06 200.951 277.7C200.338 277.34 199.858 276.84 199.511 276.2C199.178 275.547 199.011 274.8 199.011 273.96V267.22H200.871V273.76C200.871 274.293 200.978 274.76 201.191 275.16C201.418 275.56 201.724 275.873 202.111 276.1C202.511 276.327 202.964 276.44 203.471 276.44C203.978 276.44 204.424 276.327 204.811 276.1C205.211 275.873 205.518 275.547 205.731 275.12C205.958 274.693 206.071 274.187 206.071 273.6V267.22H207.951V278H206.131V275.9L206.431 276.08C206.178 276.76 205.744 277.293 205.131 277.68C204.531 278.053 203.838 278.24 203.051 278.24ZM210.433 278V267.22H212.253V269.2L212.053 268.92C212.306 268.307 212.693 267.853 213.213 267.56C213.733 267.253 214.366 267.1 215.113 267.1H215.773V268.86H214.833C214.073 268.86 213.459 269.1 212.993 269.58C212.526 270.047 212.293 270.713 212.293 271.58V278H210.433ZM48.2462 308.24C47.3795 308.24 46.5862 308.047 45.8662 307.66C45.1595 307.273 44.6128 306.727 44.2262 306.02L44.4862 305.7V308H42.6662V292.86H44.5262V299.54L44.2462 299.08C44.6462 298.44 45.1928 297.933 45.8862 297.56C46.5795 297.173 47.3728 296.98 48.2662 296.98C49.2795 296.98 50.1862 297.227 50.9862 297.72C51.7995 298.213 52.4395 298.887 52.9062 299.74C53.3728 300.58 53.6062 301.54 53.6062 302.62C53.6062 303.673 53.3728 304.627 52.9062 305.48C52.4395 306.333 51.7995 307.007 50.9862 307.5C50.1862 307.993 49.2728 308.24 48.2462 308.24ZM48.1062 306.44C48.7862 306.44 49.3928 306.273 49.9262 305.94C50.4595 305.607 50.8728 305.153 51.1662 304.58C51.4728 303.993 51.6262 303.34 51.6262 302.62C51.6262 301.873 51.4728 301.22 51.1662 300.66C50.8728 300.087 50.4595 299.633 49.9262 299.3C49.3928 298.953 48.7862 298.78 48.1062 298.78C47.4262 298.78 46.8128 298.947 46.2662 299.28C45.7328 299.613 45.3062 300.073 44.9862 300.66C44.6795 301.233 44.5262 301.887 44.5262 302.62C44.5262 303.34 44.6795 303.993 44.9862 304.58C45.3062 305.153 45.7328 305.607 46.2662 305.94C46.8128 306.273 47.4262 306.44 48.1062 306.44ZM59.4651 308.24C58.6917 308.24 57.9917 308.06 57.3651 307.7C56.7517 307.34 56.2717 306.84 55.9251 306.2C55.5917 305.547 55.4251 304.8 55.4251 303.96V297.22H57.2851V303.76C57.2851 304.293 57.3917 304.76 57.6051 305.16C57.8317 305.56 58.1384 305.873 58.5251 306.1C58.9251 306.327 59.3784 306.44 59.8851 306.44C60.3917 306.44 60.8384 306.327 61.2251 306.1C61.6251 305.873 61.9317 305.547 62.1451 305.12C62.3717 304.693 62.4851 304.187 62.4851 303.6V297.22H64.3651V308H62.5451V305.9L62.8451 306.08C62.5917 306.76 62.1584 307.293 61.5451 307.68C60.9451 308.053 60.2517 308.24 59.4651 308.24ZM70.7066 308.24C69.6266 308.24 68.6866 307.973 67.8866 307.44C67.0866 306.907 66.52 306.187 66.1866 305.28L67.6666 304.56C67.9733 305.2 68.3933 305.707 68.9266 306.08C69.46 306.453 70.0533 306.64 70.7066 306.64C71.2933 306.64 71.78 306.5 72.1666 306.22C72.5533 305.94 72.7466 305.573 72.7466 305.12C72.7466 304.8 72.6533 304.547 72.4666 304.36C72.2933 304.16 72.08 304.007 71.8266 303.9C71.5733 303.78 71.34 303.693 71.1266 303.64L69.5066 303.18C68.5333 302.9 67.82 302.5 67.3666 301.98C66.9266 301.46 66.7066 300.853 66.7066 300.16C66.7066 299.52 66.8666 298.967 67.1866 298.5C67.52 298.02 67.9666 297.647 68.5266 297.38C69.1 297.113 69.74 296.98 70.4466 296.98C71.3933 296.98 72.24 297.22 72.9866 297.7C73.7466 298.18 74.2866 298.853 74.6066 299.72L73.0866 300.42C72.8466 299.86 72.4866 299.42 72.0066 299.1C71.5266 298.767 70.9866 298.6 70.3866 298.6C69.84 298.6 69.4066 298.74 69.0866 299.02C68.7666 299.287 68.6066 299.627 68.6066 300.04C68.6066 300.347 68.6866 300.6 68.8466 300.8C69.0066 300.987 69.2 301.133 69.4266 301.24C69.6533 301.333 69.8733 301.413 70.0866 301.48L71.8466 302C72.7266 302.253 73.4066 302.647 73.8866 303.18C74.38 303.713 74.6266 304.353 74.6266 305.1C74.6266 305.7 74.46 306.24 74.1266 306.72C73.7933 307.2 73.3333 307.573 72.7466 307.84C72.16 308.107 71.48 308.24 70.7066 308.24ZM76.6615 308V297.22H78.5215V308H76.6615ZM76.6615 295.5V293.1H78.5215V295.5H76.6615ZM81.0076 308V297.22H82.8276V299.32L82.5276 299.14C82.7942 298.46 83.2209 297.933 83.8076 297.56C84.4076 297.173 85.1076 296.98 85.9076 296.98C86.6809 296.98 87.3676 297.153 87.9676 297.5C88.5809 297.847 89.0609 298.327 89.4076 298.94C89.7676 299.553 89.9476 300.247 89.9476 301.02V308H88.0676V301.62C88.0676 301.02 87.9609 300.513 87.7476 300.1C87.5342 299.687 87.2276 299.367 86.8276 299.14C86.4409 298.9 85.9942 298.78 85.4876 298.78C84.9809 298.78 84.5276 298.9 84.1276 299.14C83.7409 299.367 83.4342 299.693 83.2076 300.12C82.9809 300.533 82.8676 301.033 82.8676 301.62V308H81.0076ZM97.1691 308.24C96.1291 308.24 95.2025 307.993 94.3891 307.5C93.5758 307.007 92.9358 306.333 92.4691 305.48C92.0025 304.613 91.7691 303.647 91.7691 302.58C91.7691 301.5 91.9958 300.54 92.4491 299.7C92.9158 298.86 93.5425 298.2 94.3291 297.72C95.1291 297.227 96.0225 296.98 97.0091 296.98C97.8091 296.98 98.5158 297.127 99.1291 297.42C99.7558 297.7 100.282 298.087 100.709 298.58C101.149 299.06 101.482 299.613 101.709 300.24C101.949 300.853 102.069 301.493 102.069 302.16C102.069 302.307 102.056 302.473 102.029 302.66C102.016 302.833 101.996 303 101.969 303.16H93.1291V301.56H100.889L100.009 302.28C100.129 301.587 100.062 300.967 99.8091 300.42C99.5558 299.873 99.1825 299.44 98.6891 299.12C98.1958 298.8 97.6358 298.64 97.0091 298.64C96.3825 298.64 95.8091 298.8 95.2891 299.12C94.7691 299.44 94.3625 299.9 94.0691 300.5C93.7891 301.087 93.6758 301.787 93.7291 302.6C93.6758 303.387 93.7958 304.08 94.0891 304.68C94.3958 305.267 94.8225 305.727 95.3691 306.06C95.9291 306.38 96.5358 306.54 97.1891 306.54C97.9091 306.54 98.5158 306.373 99.0091 306.04C99.5025 305.707 99.9025 305.28 100.209 304.76L101.769 305.56C101.556 306.053 101.222 306.507 100.769 306.92C100.329 307.32 99.8025 307.64 99.1891 307.88C98.5891 308.12 97.9158 308.24 97.1691 308.24ZM107.954 308.24C106.874 308.24 105.934 307.973 105.134 307.44C104.334 306.907 103.768 306.187 103.434 305.28L104.914 304.56C105.221 305.2 105.641 305.707 106.174 306.08C106.708 306.453 107.301 306.64 107.954 306.64C108.541 306.64 109.028 306.5 109.414 306.22C109.801 305.94 109.994 305.573 109.994 305.12C109.994 304.8 109.901 304.547 109.714 304.36C109.541 304.16 109.328 304.007 109.074 303.9C108.821 303.78 108.588 303.693 108.374 303.64L106.754 303.18C105.781 302.9 105.068 302.5 104.614 301.98C104.174 301.46 103.954 300.853 103.954 300.16C103.954 299.52 104.114 298.967 104.434 298.5C104.768 298.02 105.214 297.647 105.774 297.38C106.348 297.113 106.988 296.98 107.694 296.98C108.641 296.98 109.488 297.22 110.234 297.7C110.994 298.18 111.534 298.853 111.854 299.72L110.334 300.42C110.094 299.86 109.734 299.42 109.254 299.1C108.774 298.767 108.234 298.6 107.634 298.6C107.088 298.6 106.654 298.74 106.334 299.02C106.014 299.287 105.854 299.627 105.854 300.04C105.854 300.347 105.934 300.6 106.094 300.8C106.254 300.987 106.448 301.133 106.674 301.24C106.901 301.333 107.121 301.413 107.334 301.48L109.094 302C109.974 302.253 110.654 302.647 111.134 303.18C111.628 303.713 111.874 304.353 111.874 305.1C111.874 305.7 111.708 306.24 111.374 306.72C111.041 307.2 110.581 307.573 109.994 307.84C109.408 308.107 108.728 308.24 107.954 308.24ZM117.769 308.24C116.689 308.24 115.749 307.973 114.949 307.44C114.149 306.907 113.582 306.187 113.249 305.28L114.729 304.56C115.036 305.2 115.456 305.707 115.989 306.08C116.522 306.453 117.116 306.64 117.769 306.64C118.356 306.64 118.842 306.5 119.229 306.22C119.616 305.94 119.809 305.573 119.809 305.12C119.809 304.8 119.716 304.547 119.529 304.36C119.356 304.16 119.142 304.007 118.889 303.9C118.636 303.78 118.402 303.693 118.189 303.64L116.569 303.18C115.596 302.9 114.882 302.5 114.429 301.98C113.989 301.46 113.769 300.853 113.769 300.16C113.769 299.52 113.929 298.967 114.249 298.5C114.582 298.02 115.029 297.647 115.589 297.38C116.162 297.113 116.802 296.98 117.509 296.98C118.456 296.98 119.302 297.22 120.049 297.7C120.809 298.18 121.349 298.853 121.669 299.72L120.149 300.42C119.909 299.86 119.549 299.42 119.069 299.1C118.589 298.767 118.049 298.6 117.449 298.6C116.902 298.6 116.469 298.74 116.149 299.02C115.829 299.287 115.669 299.627 115.669 300.04C115.669 300.347 115.749 300.6 115.909 300.8C116.069 300.987 116.262 301.133 116.489 301.24C116.716 301.333 116.936 301.413 117.149 301.48L118.909 302C119.789 302.253 120.469 302.647 120.949 303.18C121.442 303.713 121.689 304.353 121.689 305.1C121.689 305.7 121.522 306.24 121.189 306.72C120.856 307.2 120.396 307.573 119.809 307.84C119.222 308.107 118.542 308.24 117.769 308.24ZM131.741 308.24C130.701 308.24 129.774 307.993 128.961 307.5C128.148 307.007 127.508 306.333 127.041 305.48C126.574 304.613 126.341 303.647 126.341 302.58C126.341 301.5 126.568 300.54 127.021 299.7C127.488 298.86 128.114 298.2 128.901 297.72C129.701 297.227 130.594 296.98 131.581 296.98C132.381 296.98 133.088 297.127 133.701 297.42C134.328 297.7 134.854 298.087 135.281 298.58C135.721 299.06 136.054 299.613 136.281 300.24C136.521 300.853 136.641 301.493 136.641 302.16C136.641 302.307 136.628 302.473 136.601 302.66C136.588 302.833 136.568 303 136.541 303.16H127.701V301.56H135.461L134.581 302.28C134.701 301.587 134.634 300.967 134.381 300.42C134.128 299.873 133.754 299.44 133.261 299.12C132.768 298.8 132.208 298.64 131.581 298.64C130.954 298.64 130.381 298.8 129.861 299.12C129.341 299.44 128.934 299.9 128.641 300.5C128.361 301.087 128.248 301.787 128.301 302.6C128.248 303.387 128.368 304.08 128.661 304.68C128.968 305.267 129.394 305.727 129.941 306.06C130.501 306.38 131.108 306.54 131.761 306.54C132.481 306.54 133.088 306.373 133.581 306.04C134.074 305.707 134.474 305.28 134.781 304.76L136.341 305.56C136.128 306.053 135.794 306.507 135.341 306.92C134.901 307.32 134.374 307.64 133.761 307.88C133.161 308.12 132.488 308.24 131.741 308.24ZM137.251 308L141.031 302.6L137.271 297.22H139.511L142.731 301.9H141.591L144.771 297.22H147.031L143.271 302.6L147.011 308H144.771L141.591 303.32H142.711L139.531 308H137.251ZM148.286 312V297.22H150.106V299.54L149.866 299.08C150.266 298.44 150.812 297.933 151.506 297.56C152.199 297.173 152.992 296.98 153.886 296.98C154.899 296.98 155.806 297.227 156.606 297.72C157.419 298.213 158.059 298.887 158.526 299.74C158.992 300.58 159.226 301.54 159.226 302.62C159.226 303.673 158.992 304.627 158.526 305.48C158.059 306.333 157.419 307.007 156.606 307.5C155.806 307.993 154.892 308.24 153.866 308.24C152.999 308.24 152.206 308.047 151.486 307.66C150.779 307.273 150.232 306.727 149.846 306.02L150.146 305.7V312H148.286ZM153.726 306.44C154.406 306.44 155.012 306.273 155.546 305.94C156.079 305.607 156.492 305.153 156.786 304.58C157.092 303.993 157.246 303.34 157.246 302.62C157.246 301.873 157.092 301.22 156.786 300.66C156.492 300.087 156.079 299.633 155.546 299.3C155.012 298.953 154.406 298.78 153.726 298.78C153.046 298.78 152.432 298.947 151.886 299.28C151.352 299.613 150.926 300.073 150.606 300.66C150.299 301.233 150.146 301.887 150.146 302.62C150.146 303.34 150.299 303.993 150.606 304.58C150.926 305.153 151.352 305.607 151.886 305.94C152.432 306.273 153.046 306.44 153.726 306.44ZM166.225 308.24C165.185 308.24 164.258 307.993 163.445 307.5C162.631 307.007 161.991 306.333 161.525 305.48C161.058 304.613 160.825 303.647 160.825 302.58C160.825 301.5 161.051 300.54 161.505 299.7C161.971 298.86 162.598 298.2 163.385 297.72C164.185 297.227 165.078 296.98 166.065 296.98C166.865 296.98 167.571 297.127 168.185 297.42C168.811 297.7 169.338 298.087 169.765 298.58C170.205 299.06 170.538 299.613 170.765 300.24C171.005 300.853 171.125 301.493 171.125 302.16C171.125 302.307 171.111 302.473 171.085 302.66C171.071 302.833 171.051 303 171.025 303.16H162.185V301.56H169.945L169.065 302.28C169.185 301.587 169.118 300.967 168.865 300.42C168.611 299.873 168.238 299.44 167.745 299.12C167.251 298.8 166.691 298.64 166.065 298.64C165.438 298.64 164.865 298.8 164.345 299.12C163.825 299.44 163.418 299.9 163.125 300.5C162.845 301.087 162.731 301.787 162.785 302.6C162.731 303.387 162.851 304.08 163.145 304.68C163.451 305.267 163.878 305.727 164.425 306.06C164.985 306.38 165.591 306.54 166.245 306.54C166.965 306.54 167.571 306.373 168.065 306.04C168.558 305.707 168.958 305.28 169.265 304.76L170.825 305.56C170.611 306.053 170.278 306.507 169.825 306.92C169.385 307.32 168.858 307.64 168.245 307.88C167.645 308.12 166.971 308.24 166.225 308.24ZM173.15 308V297.22H174.97V299.32L174.67 299.14C174.936 298.46 175.363 297.933 175.95 297.56C176.55 297.173 177.25 296.98 178.05 296.98C178.823 296.98 179.51 297.153 180.11 297.5C180.723 297.847 181.203 298.327 181.55 298.94C181.91 299.553 182.09 300.247 182.09 301.02V308H180.21V301.62C180.21 301.02 180.103 300.513 179.89 300.1C179.676 299.687 179.37 299.367 178.97 299.14C178.583 298.9 178.136 298.78 177.63 298.78C177.123 298.78 176.67 298.9 176.27 299.14C175.883 299.367 175.576 299.693 175.35 300.12C175.123 300.533 175.01 301.033 175.01 301.62V308H173.15ZM188.211 308.24C187.131 308.24 186.191 307.973 185.391 307.44C184.591 306.907 184.025 306.187 183.691 305.28L185.171 304.56C185.478 305.2 185.898 305.707 186.431 306.08C186.965 306.453 187.558 306.64 188.211 306.64C188.798 306.64 189.285 306.5 189.671 306.22C190.058 305.94 190.251 305.573 190.251 305.12C190.251 304.8 190.158 304.547 189.971 304.36C189.798 304.16 189.585 304.007 189.331 303.9C189.078 303.78 188.845 303.693 188.631 303.64L187.011 303.18C186.038 302.9 185.325 302.5 184.871 301.98C184.431 301.46 184.211 300.853 184.211 300.16C184.211 299.52 184.371 298.967 184.691 298.5C185.025 298.02 185.471 297.647 186.031 297.38C186.605 297.113 187.245 296.98 187.951 296.98C188.898 296.98 189.745 297.22 190.491 297.7C191.251 298.18 191.791 298.853 192.111 299.72L190.591 300.42C190.351 299.86 189.991 299.42 189.511 299.1C189.031 298.767 188.491 298.6 187.891 298.6C187.345 298.6 186.911 298.74 186.591 299.02C186.271 299.287 186.111 299.627 186.111 300.04C186.111 300.347 186.191 300.6 186.351 300.8C186.511 300.987 186.705 301.133 186.931 301.24C187.158 301.333 187.378 301.413 187.591 301.48L189.351 302C190.231 302.253 190.911 302.647 191.391 303.18C191.885 303.713 192.131 304.353 192.131 305.1C192.131 305.7 191.965 306.24 191.631 306.72C191.298 307.2 190.838 307.573 190.251 307.84C189.665 308.107 188.985 308.24 188.211 308.24ZM199.126 308.24C198.086 308.24 197.159 307.993 196.346 307.5C195.533 307.007 194.893 306.333 194.426 305.48C193.959 304.613 193.726 303.647 193.726 302.58C193.726 301.5 193.953 300.54 194.406 299.7C194.873 298.86 195.499 298.2 196.286 297.72C197.086 297.227 197.979 296.98 198.966 296.98C199.766 296.98 200.473 297.127 201.086 297.42C201.713 297.7 202.239 298.087 202.666 298.58C203.106 299.06 203.439 299.613 203.666 300.24C203.906 300.853 204.026 301.493 204.026 302.16C204.026 302.307 204.013 302.473 203.986 302.66C203.973 302.833 203.953 303 203.926 303.16H195.086V301.56H202.846L201.966 302.28C202.086 301.587 202.019 300.967 201.766 300.42C201.513 299.873 201.139 299.44 200.646 299.12C200.153 298.8 199.593 298.64 198.966 298.64C198.339 298.64 197.766 298.8 197.246 299.12C196.726 299.44 196.319 299.9 196.026 300.5C195.746 301.087 195.633 301.787 195.686 302.6C195.633 303.387 195.753 304.08 196.046 304.68C196.353 305.267 196.779 305.727 197.326 306.06C197.886 306.38 198.493 306.54 199.146 306.54C199.866 306.54 200.473 306.373 200.966 306.04C201.459 305.707 201.859 305.28 202.166 304.76L203.726 305.56C203.513 306.053 203.179 306.507 202.726 306.92C202.286 307.32 201.759 307.64 201.146 307.88C200.546 308.12 199.873 308.24 199.126 308.24ZM209.911 308.24C208.831 308.24 207.891 307.973 207.091 307.44C206.291 306.907 205.725 306.187 205.391 305.28L206.871 304.56C207.178 305.2 207.598 305.707 208.131 306.08C208.665 306.453 209.258 306.64 209.911 306.64C210.498 306.64 210.985 306.5 211.371 306.22C211.758 305.94 211.951 305.573 211.951 305.12C211.951 304.8 211.858 304.547 211.671 304.36C211.498 304.16 211.285 304.007 211.031 303.9C210.778 303.78 210.545 303.693 210.331 303.64L208.711 303.18C207.738 302.9 207.025 302.5 206.571 301.98C206.131 301.46 205.911 300.853 205.911 300.16C205.911 299.52 206.071 298.967 206.391 298.5C206.725 298.02 207.171 297.647 207.731 297.38C208.305 297.113 208.945 296.98 209.651 296.98C210.598 296.98 211.445 297.22 212.191 297.7C212.951 298.18 213.491 298.853 213.811 299.72L212.291 300.42C212.051 299.86 211.691 299.42 211.211 299.1C210.731 298.767 210.191 298.6 209.591 298.6C209.045 298.6 208.611 298.74 208.291 299.02C207.971 299.287 207.811 299.627 207.811 300.04C207.811 300.347 207.891 300.6 208.051 300.8C208.211 300.987 208.405 301.133 208.631 301.24C208.858 301.333 209.078 301.413 209.291 301.48L211.051 302C211.931 302.253 212.611 302.647 213.091 303.18C213.585 303.713 213.831 304.353 213.831 305.1C213.831 305.7 213.665 306.24 213.331 306.72C212.998 307.2 212.538 307.573 211.951 307.84C211.365 308.107 210.685 308.24 209.911 308.24ZM216.626 308V305.6H218.566V308H216.626Z" fill="white"/>
<circle cx="31" cy="31" r="28" fill="#7C5CFC" stroke="#0D121F" stroke-width="6"/>
<path d="M25.5281 41V38.96L30.4241 33.728C31.3841 32.704 32.1361 31.88 32.6801 31.256C33.2401 30.616 33.6401 30.056 33.8801 29.576C34.1361 29.096 34.2641 28.592 34.2641 28.064C34.2641 27.2 34.0001 26.536 33.4721 26.072C32.9441 25.592 32.2641 25.352 31.4321 25.352C30.5681 25.352 29.8241 25.6 29.2001 26.096C28.5761 26.576 28.1441 27.28 27.9041 28.208L25.4081 27.488C25.6001 26.544 25.9841 25.728 26.5601 25.04C27.1361 24.336 27.8401 23.792 28.6721 23.408C29.5201 23.024 30.4321 22.832 31.4081 22.832C32.5441 22.832 33.5361 23.048 34.3841 23.48C35.2321 23.896 35.8881 24.48 36.3521 25.232C36.8321 25.984 37.0721 26.856 37.0721 27.848C37.0721 28.504 36.9441 29.144 36.6881 29.768C36.4481 30.376 36.0721 31.024 35.5601 31.712C35.0481 32.384 34.3921 33.144 33.5921 33.992L29.2721 38.6H37.4081V41H25.5281Z" fill="white"/>
</svg>
