<svg width="384" height="384" viewBox="0 0 384 384" fill="none" xmlns="http://www.w3.org/2000/svg">
<g clip-path="url(#clip0_3213_600)">
<rect width="384" height="384" rx="12" fill="#F3F5F7"/>
<rect x="17" y="152" width="335" height="185" rx="20" fill="url(#paint0_linear_3213_600)"/>
<g filter="url(#filter0_b_3213_600)">
<rect x="17" y="152" width="335" height="185" rx="20" fill="white" fill-opacity="0.03"/>
</g>
<path fill-rule="evenodd" clip-rule="evenodd" d="M37 152C25.9543 152 17 160.954 17 172V317C17 328.046 25.9543 337 37 337H138.618C136.889 334.011 133.657 332 129.956 332H77.5665C74.8051 332 72.5665 329.761 72.5665 327C72.5665 324.239 74.8051 322 77.5665 322H105.128C110.651 322 115.128 317.523 115.128 312C115.128 306.477 110.651 302 105.128 302H77.5665C74.8051 302 72.5665 299.761 72.5665 297C72.5665 294.239 74.8051 292 77.5665 292H209.167C214.69 292 219.167 287.523 219.167 282C219.167 276.477 214.69 272 209.167 272H77.5665C74.8051 272 72.5665 269.761 72.5665 267C72.5665 264.239 74.8051 262 77.5665 262H247C252.523 262 257 257.523 257 252C257 246.477 252.523 242 247 242H77.5665C74.8051 242 72.5665 239.761 72.5665 237C72.5665 234.239 74.8051 232 77.5665 232H146.507C152.03 232 156.507 227.523 156.507 222C156.507 216.477 152.03 212 146.507 212H77.5665C74.8051 212 72.5665 209.761 72.5665 207C72.5665 204.239 74.8051 202 77.5665 202H185.522C191.045 202 195.522 197.523 195.522 192C195.522 186.477 191.045 182 185.522 182H77.5665C74.8051 182 72.5665 179.761 72.5665 177C72.5665 174.239 74.8051 172 77.5665 172H109.857C115.38 172 119.857 167.523 119.857 162C119.857 156.477 115.38 152 109.857 152H37Z" fill="white" fill-opacity="0.04"/>
<path d="M49.592 307H42.136V305.624L45.864 302.264C46.408 301.773 46.856 301.272 47.208 300.76C47.56 300.237 47.736 299.688 47.736 299.112V298.92C47.736 298.248 47.56 297.731 47.208 297.368C46.856 296.995 46.3333 296.808 45.64 296.808C44.9573 296.808 44.4293 296.984 44.056 297.336C43.6933 297.677 43.4213 298.136 43.24 298.712L42.04 298.264C42.1467 297.933 42.2907 297.613 42.472 297.304C42.664 296.984 42.904 296.701 43.192 296.456C43.48 296.211 43.8267 296.013 44.232 295.864C44.648 295.715 45.128 295.64 45.672 295.64C46.2267 295.64 46.7173 295.72 47.144 295.88C47.5813 296.04 47.944 296.264 48.232 296.552C48.5307 296.84 48.7547 297.181 48.904 297.576C49.064 297.971 49.144 298.403 49.144 298.872C49.144 299.299 49.08 299.699 48.952 300.072C48.8347 300.445 48.664 300.803 48.44 301.144C48.2267 301.485 47.9653 301.821 47.656 302.152C47.3573 302.472 47.0213 302.792 46.648 303.112L43.528 305.832H49.592V307ZM59.1858 307H51.7298V305.624L55.4578 302.264C56.0018 301.773 56.4498 301.272 56.8018 300.76C57.1538 300.237 57.3298 299.688 57.3298 299.112V298.92C57.3298 298.248 57.1538 297.731 56.8018 297.368C56.4498 296.995 55.9271 296.808 55.2338 296.808C54.5511 296.808 54.0231 296.984 53.6498 297.336C53.2871 297.677 53.0151 298.136 52.8338 298.712L51.6338 298.264C51.7404 297.933 51.8844 297.613 52.0658 297.304C52.2578 296.984 52.4978 296.701 52.7858 296.456C53.0738 296.211 53.4204 296.013 53.8258 295.864C54.2418 295.715 54.7218 295.64 55.2658 295.64C55.8204 295.64 56.3111 295.72 56.7378 295.88C57.1751 296.04 57.5378 296.264 57.8258 296.552C58.1244 296.84 58.3484 297.181 58.4978 297.576C58.6578 297.971 58.7378 298.403 58.7378 298.872C58.7378 299.299 58.6738 299.699 58.5458 300.072C58.4284 300.445 58.2578 300.803 58.0338 301.144C57.8204 301.485 57.5591 301.821 57.2498 302.152C56.9511 302.472 56.6151 302.792 56.2418 303.112L53.1218 305.832H59.1858V307ZM68.7795 307H61.3235V305.624L65.0515 302.264C65.5955 301.773 66.0435 301.272 66.3955 300.76C66.7475 300.237 66.9235 299.688 66.9235 299.112V298.92C66.9235 298.248 66.7475 297.731 66.3955 297.368C66.0435 296.995 65.5208 296.808 64.8275 296.808C64.1448 296.808 63.6168 296.984 63.2435 297.336C62.8808 297.677 62.6088 298.136 62.4275 298.712L61.2275 298.264C61.3342 297.933 61.4782 297.613 61.6595 297.304C61.8515 296.984 62.0915 296.701 62.3795 296.456C62.6675 296.211 63.0142 296.013 63.4195 295.864C63.8355 295.715 64.3155 295.64 64.8595 295.64C65.4142 295.64 65.9048 295.72 66.3315 295.88C66.7688 296.04 67.1315 296.264 67.4195 296.552C67.7182 296.84 67.9422 297.181 68.0915 297.576C68.2515 297.971 68.3315 298.403 68.3315 298.872C68.3315 299.299 68.2675 299.699 68.1395 300.072C68.0222 300.445 67.8515 300.803 67.6275 301.144C67.4142 301.485 67.1528 301.821 66.8435 302.152C66.5448 302.472 66.2088 302.792 65.8355 303.112L62.7155 305.832H68.7795V307ZM71.1413 307V305.832H74.3413V296.824H74.2293L71.4133 299.448L70.6293 298.6L73.5893 295.832H75.6853V305.832H78.6293V307H71.1413ZM91.4488 302.808V301.464H96.0888V302.808H91.4488ZM112.956 307.192C112.274 307.192 111.687 307.064 111.196 306.808C110.706 306.541 110.3 306.163 109.98 305.672C109.66 305.181 109.426 304.579 109.276 303.864C109.127 303.149 109.052 302.333 109.052 301.416C109.052 300.509 109.127 299.699 109.276 298.984C109.426 298.259 109.66 297.651 109.98 297.16C110.3 296.669 110.706 296.296 111.196 296.04C111.687 295.773 112.274 295.64 112.956 295.64C113.639 295.64 114.226 295.773 114.716 296.04C115.207 296.296 115.612 296.669 115.932 297.16C116.252 297.651 116.487 298.259 116.636 298.984C116.786 299.699 116.86 300.509 116.86 301.416C116.86 302.333 116.786 303.149 116.636 303.864C116.487 304.579 116.252 305.181 115.932 305.672C115.612 306.163 115.207 306.541 114.716 306.808C114.226 307.064 113.639 307.192 112.956 307.192ZM112.956 306.024C113.404 306.024 113.788 305.939 114.108 305.768C114.428 305.587 114.684 305.336 114.876 305.016C115.079 304.696 115.228 304.312 115.324 303.864C115.42 303.405 115.468 302.893 115.468 302.328V300.504C115.468 299.949 115.42 299.443 115.324 298.984C115.228 298.525 115.079 298.136 114.876 297.816C114.684 297.496 114.428 297.251 114.108 297.08C113.788 296.899 113.404 296.808 112.956 296.808C112.508 296.808 112.124 296.899 111.804 297.08C111.484 297.251 111.223 297.496 111.02 297.816C110.828 298.136 110.684 298.525 110.588 298.984C110.492 299.443 110.444 299.949 110.444 300.504V302.328C110.444 302.893 110.492 303.405 110.588 303.864C110.684 304.312 110.828 304.696 111.02 305.016C111.223 305.336 111.484 305.587 111.804 305.768C112.124 305.939 112.508 306.024 112.956 306.024ZM112.956 302.36C112.583 302.36 112.322 302.285 112.172 302.136C112.034 301.987 111.964 301.805 111.964 301.592V301.24C111.964 301.027 112.034 300.845 112.172 300.696C112.322 300.547 112.583 300.472 112.956 300.472C113.33 300.472 113.586 300.547 113.724 300.696C113.874 300.845 113.948 301.027 113.948 301.24V301.592C113.948 301.805 113.874 301.987 113.724 302.136C113.586 302.285 113.33 302.36 112.956 302.36ZM122.55 307.192C121.867 307.192 121.281 307.064 120.79 306.808C120.299 306.541 119.894 306.163 119.574 305.672C119.254 305.181 119.019 304.579 118.87 303.864C118.721 303.149 118.646 302.333 118.646 301.416C118.646 300.509 118.721 299.699 118.87 298.984C119.019 298.259 119.254 297.651 119.574 297.16C119.894 296.669 120.299 296.296 120.79 296.04C121.281 295.773 121.867 295.64 122.55 295.64C123.233 295.64 123.819 295.773 124.31 296.04C124.801 296.296 125.206 296.669 125.526 297.16C125.846 297.651 126.081 298.259 126.23 298.984C126.379 299.699 126.454 300.509 126.454 301.416C126.454 302.333 126.379 303.149 126.23 303.864C126.081 304.579 125.846 305.181 125.526 305.672C125.206 306.163 124.801 306.541 124.31 306.808C123.819 307.064 123.233 307.192 122.55 307.192ZM122.55 306.024C122.998 306.024 123.382 305.939 123.702 305.768C124.022 305.587 124.278 305.336 124.47 305.016C124.673 304.696 124.822 304.312 124.918 303.864C125.014 303.405 125.062 302.893 125.062 302.328V300.504C125.062 299.949 125.014 299.443 124.918 298.984C124.822 298.525 124.673 298.136 124.47 297.816C124.278 297.496 124.022 297.251 123.702 297.08C123.382 296.899 122.998 296.808 122.55 296.808C122.102 296.808 121.718 296.899 121.398 297.08C121.078 297.251 120.817 297.496 120.614 297.816C120.422 298.136 120.278 298.525 120.182 298.984C120.086 299.443 120.038 299.949 120.038 300.504V302.328C120.038 302.893 120.086 303.405 120.182 303.864C120.278 304.312 120.422 304.696 120.614 305.016C120.817 305.336 121.078 305.587 121.398 305.768C121.718 305.939 122.102 306.024 122.55 306.024ZM122.55 302.36C122.177 302.36 121.915 302.285 121.766 302.136C121.627 301.987 121.558 301.805 121.558 301.592V301.24C121.558 301.027 121.627 300.845 121.766 300.696C121.915 300.547 122.177 300.472 122.55 300.472C122.923 300.472 123.179 300.547 123.318 300.696C123.467 300.845 123.542 301.027 123.542 301.24V301.592C123.542 301.805 123.467 301.987 123.318 302.136C123.179 302.285 122.923 302.36 122.55 302.36ZM135.36 297H130.368L130.048 301.272H130.16C130.437 300.899 130.746 300.605 131.088 300.392C131.429 300.168 131.898 300.056 132.496 300.056C132.986 300.056 133.434 300.136 133.84 300.296C134.256 300.445 134.613 300.669 134.912 300.968C135.21 301.267 135.445 301.629 135.616 302.056C135.786 302.472 135.872 302.952 135.872 303.496C135.872 304.04 135.786 304.541 135.616 305C135.445 305.448 135.194 305.837 134.864 306.168C134.533 306.488 134.133 306.739 133.664 306.92C133.194 307.101 132.661 307.192 132.064 307.192C131.594 307.192 131.173 307.139 130.8 307.032C130.437 306.925 130.112 306.781 129.824 306.6C129.546 306.419 129.301 306.216 129.088 305.992C128.874 305.768 128.682 305.533 128.512 305.288L129.52 304.52C129.669 304.744 129.818 304.947 129.968 305.128C130.128 305.309 130.309 305.469 130.512 305.608C130.714 305.736 130.944 305.837 131.2 305.912C131.456 305.987 131.754 306.024 132.096 306.024C132.864 306.024 133.45 305.816 133.856 305.4C134.272 304.984 134.48 304.408 134.48 303.672V303.544C134.48 302.808 134.272 302.232 133.856 301.816C133.44 301.4 132.842 301.192 132.064 301.192C131.53 301.192 131.114 301.283 130.816 301.464C130.528 301.645 130.261 301.869 130.016 302.136L128.88 301.976L129.28 295.832H135.36V297ZM139.706 307L144.074 296.984H139.178V299.064H137.978V295.832H145.434V297.016L141.146 307H139.706ZM158.605 302.808V301.464H163.245V302.808H158.605ZM181.361 307V304.808H175.857V303.624L180.689 295.832H182.641V303.704H184.305V304.808H182.641V307H181.361ZM177.057 303.704H181.361V296.872H181.297L177.057 303.704ZM189.722 307.192C189.136 307.192 188.608 307.096 188.138 306.904C187.669 306.701 187.269 306.419 186.938 306.056C186.618 305.683 186.368 305.229 186.186 304.696C186.016 304.163 185.93 303.565 185.93 302.904C185.93 302.072 186.053 301.293 186.298 300.568C186.554 299.832 186.874 299.165 187.258 298.568C187.653 297.96 188.09 297.427 188.57 296.968C189.05 296.499 189.52 296.12 189.978 295.832H191.706C191.098 296.269 190.554 296.696 190.074 297.112C189.605 297.528 189.189 297.965 188.826 298.424C188.464 298.872 188.16 299.357 187.914 299.88C187.669 300.392 187.466 300.973 187.306 301.624L187.386 301.656C187.653 301.197 188.005 300.819 188.442 300.52C188.88 300.211 189.445 300.056 190.138 300.056C190.629 300.056 191.077 300.136 191.482 300.296C191.888 300.456 192.24 300.685 192.538 300.984C192.837 301.283 193.066 301.645 193.226 302.072C193.397 302.499 193.482 302.973 193.482 303.496C193.482 304.04 193.392 304.541 193.21 305C193.029 305.448 192.773 305.837 192.442 306.168C192.122 306.488 191.728 306.739 191.258 306.92C190.8 307.101 190.288 307.192 189.722 307.192ZM189.706 306.056C190.474 306.056 191.066 305.848 191.482 305.432C191.909 305.016 192.122 304.429 192.122 303.672V303.544C192.122 302.787 191.909 302.2 191.482 301.784C191.066 301.368 190.474 301.16 189.706 301.16C188.938 301.16 188.341 301.368 187.914 301.784C187.498 302.2 187.29 302.787 187.29 303.544V303.672C187.29 304.429 187.498 305.016 187.914 305.432C188.341 305.848 188.938 306.056 189.706 306.056ZM199.3 307.192C198.649 307.192 198.079 307.112 197.588 306.952C197.097 306.781 196.687 306.552 196.356 306.264C196.036 305.976 195.791 305.635 195.62 305.24C195.46 304.845 195.38 304.419 195.38 303.96C195.38 303.192 195.588 302.584 196.004 302.136C196.42 301.688 196.969 301.373 197.652 301.192V301.064C197.055 300.861 196.58 300.536 196.228 300.088C195.887 299.629 195.716 299.08 195.716 298.44C195.716 297.587 196.031 296.909 196.66 296.408C197.289 295.896 198.169 295.64 199.3 295.64C200.431 295.64 201.311 295.896 201.94 296.408C202.569 296.909 202.884 297.587 202.884 298.44C202.884 299.08 202.708 299.629 202.356 300.088C202.015 300.536 201.545 300.861 200.948 301.064V301.192C201.631 301.373 202.18 301.688 202.596 302.136C203.012 302.584 203.22 303.192 203.22 303.96C203.22 304.419 203.135 304.845 202.964 305.24C202.804 305.635 202.559 305.976 202.228 306.264C201.897 306.552 201.487 306.781 200.996 306.952C200.516 307.112 199.951 307.192 199.3 307.192ZM199.3 306.056C200.089 306.056 200.708 305.88 201.156 305.528C201.604 305.176 201.828 304.68 201.828 304.04V303.688C201.828 303.048 201.604 302.552 201.156 302.2C200.719 301.848 200.1 301.672 199.3 301.672C198.5 301.672 197.876 301.848 197.428 302.2C196.991 302.552 196.772 303.048 196.772 303.688V304.04C196.772 304.68 196.996 305.176 197.444 305.528C197.892 305.88 198.511 306.056 199.3 306.056ZM199.3 300.584C200.025 300.584 200.575 300.429 200.948 300.12C201.332 299.811 201.524 299.368 201.524 298.792V298.568C201.524 297.992 201.327 297.549 200.932 297.24C200.548 296.931 200.004 296.776 199.3 296.776C198.596 296.776 198.047 296.931 197.652 297.24C197.268 297.549 197.076 297.992 197.076 298.568V298.792C197.076 299.368 197.263 299.811 197.636 300.12C198.02 300.429 198.575 300.584 199.3 300.584ZM208.894 307.192C208.211 307.192 207.624 307.064 207.134 306.808C206.643 306.541 206.238 306.163 205.918 305.672C205.598 305.181 205.363 304.579 205.214 303.864C205.064 303.149 204.99 302.333 204.99 301.416C204.99 300.509 205.064 299.699 205.214 298.984C205.363 298.259 205.598 297.651 205.918 297.16C206.238 296.669 206.643 296.296 207.134 296.04C207.624 295.773 208.211 295.64 208.894 295.64C209.576 295.64 210.163 295.773 210.654 296.04C211.144 296.296 211.55 296.669 211.87 297.16C212.19 297.651 212.424 298.259 212.574 298.984C212.723 299.699 212.798 300.509 212.798 301.416C212.798 302.333 212.723 303.149 212.574 303.864C212.424 304.579 212.19 305.181 211.87 305.672C211.55 306.163 211.144 306.541 210.654 306.808C210.163 307.064 209.576 307.192 208.894 307.192ZM208.894 306.024C209.342 306.024 209.726 305.939 210.046 305.768C210.366 305.587 210.622 305.336 210.814 305.016C211.016 304.696 211.166 304.312 211.262 303.864C211.358 303.405 211.406 302.893 211.406 302.328V300.504C211.406 299.949 211.358 299.443 211.262 298.984C211.166 298.525 211.016 298.136 210.814 297.816C210.622 297.496 210.366 297.251 210.046 297.08C209.726 296.899 209.342 296.808 208.894 296.808C208.446 296.808 208.062 296.899 207.742 297.08C207.422 297.251 207.16 297.496 206.958 297.816C206.766 298.136 206.622 298.525 206.526 298.984C206.43 299.443 206.382 299.949 206.382 300.504V302.328C206.382 302.893 206.43 303.405 206.526 303.864C206.622 304.312 206.766 304.696 206.958 305.016C207.16 305.336 207.422 305.587 207.742 305.768C208.062 305.939 208.446 306.024 208.894 306.024ZM208.894 302.36C208.52 302.36 208.259 302.285 208.11 302.136C207.971 301.987 207.902 301.805 207.902 301.592V301.24C207.902 301.027 207.971 300.845 208.11 300.696C208.259 300.547 208.52 300.472 208.894 300.472C209.267 300.472 209.523 300.547 209.662 300.696C209.811 300.845 209.886 301.027 209.886 301.24V301.592C209.886 301.805 209.811 301.987 209.662 302.136C209.523 302.285 209.267 302.36 208.894 302.36ZM225.761 302.808V301.464H230.401V302.808H225.761ZM251.061 307H243.605V305.624L247.333 302.264C247.877 301.773 248.325 301.272 248.677 300.76C249.029 300.237 249.205 299.688 249.205 299.112V298.92C249.205 298.248 249.029 297.731 248.677 297.368C248.325 296.995 247.802 296.808 247.109 296.808C246.426 296.808 245.898 296.984 245.525 297.336C245.162 297.677 244.89 298.136 244.709 298.712L243.509 298.264C243.615 297.933 243.759 297.613 243.941 297.304C244.133 296.984 244.373 296.701 244.661 296.456C244.949 296.211 245.295 296.013 245.701 295.864C246.117 295.715 246.597 295.64 247.141 295.64C247.695 295.64 248.186 295.72 248.613 295.88C249.05 296.04 249.413 296.264 249.701 296.552C249.999 296.84 250.223 297.181 250.373 297.576C250.533 297.971 250.613 298.403 250.613 298.872C250.613 299.299 250.549 299.699 250.421 300.072C250.303 300.445 250.133 300.803 249.909 301.144C249.695 301.485 249.434 301.821 249.125 302.152C248.826 302.472 248.49 302.792 248.117 303.112L244.997 305.832H251.061V307ZM256.863 307.192C256.18 307.192 255.593 307.064 255.103 306.808C254.612 306.541 254.207 306.163 253.887 305.672C253.567 305.181 253.332 304.579 253.183 303.864C253.033 303.149 252.959 302.333 252.959 301.416C252.959 300.509 253.033 299.699 253.183 298.984C253.332 298.259 253.567 297.651 253.887 297.16C254.207 296.669 254.612 296.296 255.103 296.04C255.593 295.773 256.18 295.64 256.863 295.64C257.545 295.64 258.132 295.773 258.623 296.04C259.113 296.296 259.519 296.669 259.839 297.16C260.159 297.651 260.393 298.259 260.543 298.984C260.692 299.699 260.767 300.509 260.767 301.416C260.767 302.333 260.692 303.149 260.543 303.864C260.393 304.579 260.159 305.181 259.839 305.672C259.519 306.163 259.113 306.541 258.623 306.808C258.132 307.064 257.545 307.192 256.863 307.192ZM256.863 306.024C257.311 306.024 257.695 305.939 258.015 305.768C258.335 305.587 258.591 305.336 258.783 305.016C258.985 304.696 259.135 304.312 259.231 303.864C259.327 303.405 259.375 302.893 259.375 302.328V300.504C259.375 299.949 259.327 299.443 259.231 298.984C259.135 298.525 258.985 298.136 258.783 297.816C258.591 297.496 258.335 297.251 258.015 297.08C257.695 296.899 257.311 296.808 256.863 296.808C256.415 296.808 256.031 296.899 255.711 297.08C255.391 297.251 255.129 297.496 254.927 297.816C254.735 298.136 254.591 298.525 254.495 298.984C254.399 299.443 254.351 299.949 254.351 300.504V302.328C254.351 302.893 254.399 303.405 254.495 303.864C254.591 304.312 254.735 304.696 254.927 305.016C255.129 305.336 255.391 305.587 255.711 305.768C256.031 305.939 256.415 306.024 256.863 306.024ZM256.863 302.36C256.489 302.36 256.228 302.285 256.079 302.136C255.94 301.987 255.871 301.805 255.871 301.592V301.24C255.871 301.027 255.94 300.845 256.079 300.696C256.228 300.547 256.489 300.472 256.863 300.472C257.236 300.472 257.492 300.547 257.631 300.696C257.78 300.845 257.855 301.027 257.855 301.24V301.592C257.855 301.805 257.78 301.987 257.631 302.136C257.492 302.285 257.236 302.36 256.863 302.36ZM266.456 307.192C265.806 307.192 265.235 307.112 264.744 306.952C264.254 306.781 263.843 306.552 263.512 306.264C263.192 305.976 262.947 305.635 262.776 305.24C262.616 304.845 262.536 304.419 262.536 303.96C262.536 303.192 262.744 302.584 263.16 302.136C263.576 301.688 264.126 301.373 264.808 301.192V301.064C264.211 300.861 263.736 300.536 263.384 300.088C263.043 299.629 262.872 299.08 262.872 298.44C262.872 297.587 263.187 296.909 263.816 296.408C264.446 295.896 265.326 295.64 266.456 295.64C267.587 295.64 268.467 295.896 269.096 296.408C269.726 296.909 270.04 297.587 270.04 298.44C270.04 299.08 269.864 299.629 269.512 300.088C269.171 300.536 268.702 300.861 268.104 301.064V301.192C268.787 301.373 269.336 301.688 269.752 302.136C270.168 302.584 270.376 303.192 270.376 303.96C270.376 304.419 270.291 304.845 270.12 305.24C269.96 305.635 269.715 305.976 269.384 306.264C269.054 306.552 268.643 306.781 268.152 306.952C267.672 307.112 267.107 307.192 266.456 307.192ZM266.456 306.056C267.246 306.056 267.864 305.88 268.312 305.528C268.76 305.176 268.984 304.68 268.984 304.04V303.688C268.984 303.048 268.76 302.552 268.312 302.2C267.875 301.848 267.256 301.672 266.456 301.672C265.656 301.672 265.032 301.848 264.584 302.2C264.147 302.552 263.928 303.048 263.928 303.688V304.04C263.928 304.68 264.152 305.176 264.6 305.528C265.048 305.88 265.667 306.056 266.456 306.056ZM266.456 300.584C267.182 300.584 267.731 300.429 268.104 300.12C268.488 299.811 268.68 299.368 268.68 298.792V298.568C268.68 297.992 268.483 297.549 268.088 297.24C267.704 296.931 267.16 296.776 266.456 296.776C265.752 296.776 265.203 296.931 264.808 297.24C264.424 297.549 264.232 297.992 264.232 298.568V298.792C264.232 299.368 264.419 299.811 264.792 300.12C265.176 300.429 265.731 300.584 266.456 300.584ZM279.826 299.928C279.826 300.76 279.698 301.544 279.442 302.28C279.197 303.005 278.877 303.672 278.482 304.28C278.087 304.877 277.65 305.411 277.17 305.88C276.701 306.339 276.237 306.712 275.778 307H274.05C274.658 306.563 275.197 306.136 275.666 305.72C276.146 305.304 276.567 304.872 276.93 304.424C277.293 303.965 277.597 303.48 277.842 302.968C278.087 302.445 278.29 301.859 278.45 301.208L278.37 301.176C278.093 301.635 277.735 302.019 277.298 302.328C276.871 302.627 276.311 302.776 275.618 302.776C275.127 302.776 274.674 302.696 274.258 302.536C273.853 302.376 273.501 302.147 273.202 301.848C272.914 301.549 272.685 301.192 272.514 300.776C272.354 300.349 272.274 299.869 272.274 299.336C272.274 298.792 272.359 298.296 272.53 297.848C272.711 297.389 272.967 297 273.298 296.68C273.629 296.349 274.023 296.093 274.482 295.912C274.951 295.731 275.469 295.64 276.034 295.64C276.621 295.64 277.149 295.741 277.618 295.944C278.087 296.136 278.482 296.419 278.802 296.792C279.133 297.155 279.383 297.603 279.554 298.136C279.735 298.669 279.826 299.267 279.826 299.928ZM276.05 301.672C276.818 301.672 277.41 301.464 277.826 301.048C278.253 300.632 278.466 300.045 278.466 299.288V299.16C278.466 298.403 278.253 297.816 277.826 297.4C277.41 296.984 276.818 296.776 276.05 296.776C275.282 296.776 274.685 296.984 274.258 297.4C273.842 297.816 273.634 298.403 273.634 299.16V299.288C273.634 300.045 273.842 300.632 274.258 301.048C274.685 301.464 275.282 301.672 276.05 301.672Z" fill="white"/>
<path d="M42.44 283V271.832H49.32V273H43.784V276.76H49.128V277.928H43.784V281.832H49.32V283H42.44ZM51.4578 283V274.744H52.6418V275.704H52.7057C52.8338 275.384 53.0151 275.112 53.2498 274.888C53.4844 274.664 53.8311 274.552 54.2898 274.552C54.7698 274.552 55.1271 274.675 55.3618 274.92C55.5964 275.155 55.7404 275.464 55.7938 275.848H55.8418C55.9911 275.475 56.2044 275.165 56.4818 274.92C56.7591 274.675 57.1431 274.552 57.6338 274.552C58.3058 274.552 58.7538 274.787 58.9778 275.256C59.2124 275.725 59.3298 276.397 59.3298 277.272V283H58.1458V277.48C58.1458 276.776 58.0711 276.291 57.9218 276.024C57.7831 275.747 57.5218 275.608 57.1378 275.608C56.7964 275.608 56.5191 275.72 56.3058 275.944C56.0924 276.157 55.9858 276.488 55.9858 276.936V283H54.8018V277.48C54.8018 276.776 54.7271 276.291 54.5778 276.024C54.4391 275.747 54.1831 275.608 53.8098 275.608C53.4684 275.608 53.1858 275.72 52.9618 275.944C52.7484 276.157 52.6418 276.488 52.6418 276.936V283H51.4578ZM65.4995 272.92C65.1262 272.92 64.8648 272.845 64.7155 272.696C64.5662 272.536 64.4915 272.339 64.4915 272.104V271.848C64.4915 271.613 64.5662 271.421 64.7155 271.272C64.8648 271.112 65.1262 271.032 65.4995 271.032C65.8728 271.032 66.1342 271.112 66.2835 271.272C66.4328 271.421 66.5075 271.613 66.5075 271.848V272.104C66.5075 272.339 66.4328 272.536 66.2835 272.696C66.1342 272.845 65.8728 272.92 65.4995 272.92ZM61.8835 281.912H64.8595V275.832H61.8835V274.744H66.1395V281.912H68.9235V283H61.8835V281.912ZM70.2613 274.744H71.3973L72.3413 281.88H72.4853L73.8932 274.744H75.3013L76.7093 281.88H76.8533L77.7973 274.744H78.9013L77.6373 283H75.9733L74.6613 276.088H74.5333L73.1893 283H71.5253L70.2613 274.744ZM87.295 283C86.7937 283 86.4363 282.872 86.223 282.616C86.0097 282.36 85.8763 282.04 85.823 281.656H85.743C85.5617 282.136 85.2683 282.515 84.863 282.792C84.4683 283.059 83.935 283.192 83.263 283.192C82.399 283.192 81.711 282.968 81.199 282.52C80.687 282.072 80.431 281.459 80.431 280.68C80.431 279.912 80.7083 279.32 81.263 278.904C81.8283 278.488 82.735 278.28 83.983 278.28H85.743V277.464C85.743 276.856 85.5723 276.403 85.231 276.104C84.8897 275.795 84.4043 275.64 83.775 275.64C83.2203 275.64 82.767 275.752 82.415 275.976C82.063 276.189 81.7803 276.483 81.567 276.856L80.703 276.216C80.8097 276.003 80.9537 275.795 81.135 275.592C81.3163 275.389 81.5403 275.213 81.807 275.064C82.0737 274.904 82.3777 274.781 82.719 274.696C83.0603 274.6 83.439 274.552 83.855 274.552C84.8257 274.552 85.5937 274.797 86.159 275.288C86.735 275.779 87.023 276.461 87.023 277.336V281.88H88.175V283H87.295ZM83.487 282.12C83.8177 282.12 84.1163 282.083 84.383 282.008C84.6603 281.923 84.9003 281.816 85.103 281.688C85.3057 281.549 85.4603 281.389 85.567 281.208C85.6843 281.016 85.743 280.813 85.743 280.6V279.24H83.983C83.215 279.24 82.655 279.347 82.303 279.56C81.951 279.773 81.775 280.083 81.775 280.488V280.824C81.775 281.251 81.9243 281.576 82.223 281.8C82.5323 282.013 82.9537 282.12 83.487 282.12ZM96.4408 274.744H97.7208L93.6248 284.808C93.5288 285.043 93.4221 285.245 93.3048 285.416C93.1874 285.597 93.0488 285.741 92.8888 285.848C92.7288 285.965 92.5368 286.051 92.3128 286.104C92.0888 286.168 91.8221 286.2 91.5128 286.2H90.2968V285.112H92.2168L93.1448 282.84L89.8168 274.744H91.1288L92.5208 278.2L93.7528 281.336H93.8168L95.0488 278.2L96.4408 274.744ZM109.564 271.832H113.356C114.316 271.832 115.068 272.093 115.612 272.616C116.156 273.139 116.428 273.837 116.428 274.712C116.428 275.384 116.263 275.912 115.932 276.296C115.612 276.68 115.196 276.952 114.684 277.112V277.16C115.314 277.309 115.831 277.592 116.236 278.008C116.642 278.413 116.844 279.005 116.844 279.784C116.844 280.232 116.77 280.653 116.62 281.048C116.471 281.443 116.258 281.784 115.98 282.072C115.714 282.36 115.394 282.589 115.02 282.76C114.658 282.92 114.263 283 113.836 283H109.564V271.832ZM113.436 281.832C114.055 281.832 114.54 281.693 114.892 281.416C115.244 281.139 115.42 280.712 115.42 280.136V279.48C115.42 278.915 115.244 278.493 114.892 278.216C114.54 277.928 114.055 277.784 113.436 277.784H110.908V281.832H113.436ZM113.212 276.68C113.778 276.68 114.22 276.557 114.54 276.312C114.86 276.056 115.02 275.672 115.02 275.16V274.536C115.02 274.024 114.86 273.64 114.54 273.384C114.22 273.128 113.778 273 113.212 273H110.908V276.68H113.212ZM125.67 283C125.169 283 124.811 282.872 124.598 282.616C124.385 282.36 124.251 282.04 124.198 281.656H124.118C123.937 282.136 123.643 282.515 123.238 282.792C122.843 283.059 122.31 283.192 121.638 283.192C120.774 283.192 120.086 282.968 119.574 282.52C119.062 282.072 118.806 281.459 118.806 280.68C118.806 279.912 119.083 279.32 119.638 278.904C120.203 278.488 121.11 278.28 122.358 278.28H124.118V277.464C124.118 276.856 123.947 276.403 123.606 276.104C123.265 275.795 122.779 275.64 122.15 275.64C121.595 275.64 121.142 275.752 120.79 275.976C120.438 276.189 120.155 276.483 119.942 276.856L119.078 276.216C119.185 276.003 119.329 275.795 119.51 275.592C119.691 275.389 119.915 275.213 120.182 275.064C120.449 274.904 120.753 274.781 121.094 274.696C121.435 274.6 121.814 274.552 122.23 274.552C123.201 274.552 123.969 274.797 124.534 275.288C125.11 275.779 125.398 276.461 125.398 277.336V281.88H126.55V283H125.67ZM121.862 282.12C122.193 282.12 122.491 282.083 122.758 282.008C123.035 281.923 123.275 281.816 123.478 281.688C123.681 281.549 123.835 281.389 123.942 281.208C124.059 281.016 124.118 280.813 124.118 280.6V279.24H122.358C121.59 279.24 121.03 279.347 120.678 279.56C120.326 279.773 120.15 280.083 120.15 280.488V280.824C120.15 281.251 120.299 281.576 120.598 281.8C120.907 282.013 121.329 282.12 121.862 282.12ZM128.912 283V274.744H130.192V276.088H130.256C130.341 275.885 130.448 275.693 130.576 275.512C130.704 275.32 130.858 275.155 131.04 275.016C131.232 274.877 131.456 274.765 131.712 274.68C131.968 274.595 132.266 274.552 132.608 274.552C133.472 274.552 134.165 274.829 134.688 275.384C135.21 275.928 135.472 276.701 135.472 277.704V283H134.192V277.928C134.192 277.171 134.026 276.611 133.696 276.248C133.365 275.875 132.88 275.688 132.24 275.688C131.984 275.688 131.733 275.72 131.488 275.784C131.242 275.848 131.024 275.944 130.832 276.072C130.64 276.2 130.485 276.365 130.368 276.568C130.25 276.771 130.192 277.005 130.192 277.272V283H128.912ZM142.138 283C141.508 283 141.044 282.824 140.746 282.472C140.458 282.12 140.314 281.667 140.314 281.112V275.832H137.562V274.744H139.61C139.887 274.744 140.079 274.691 140.186 274.584C140.303 274.467 140.362 274.269 140.362 273.992V271.832H141.594V274.744H145.354V275.832H141.594V281.912H145.354V283H142.138ZM154.451 283C153.95 283 153.593 282.872 153.379 282.616C153.166 282.36 153.033 282.04 152.979 281.656H152.899C152.718 282.136 152.425 282.515 152.019 282.792C151.625 283.059 151.091 283.192 150.419 283.192C149.555 283.192 148.867 282.968 148.355 282.52C147.843 282.072 147.587 281.459 147.587 280.68C147.587 279.912 147.865 279.32 148.419 278.904C148.985 278.488 149.891 278.28 151.139 278.28H152.899V277.464C152.899 276.856 152.729 276.403 152.387 276.104C152.046 275.795 151.561 275.64 150.931 275.64C150.377 275.64 149.923 275.752 149.571 275.976C149.219 276.189 148.937 276.483 148.723 276.856L147.859 276.216C147.966 276.003 148.11 275.795 148.291 275.592C148.473 275.389 148.697 275.213 148.963 275.064C149.23 274.904 149.534 274.781 149.875 274.696C150.217 274.6 150.595 274.552 151.011 274.552C151.982 274.552 152.75 274.797 153.315 275.288C153.891 275.779 154.179 276.461 154.179 277.336V281.88H155.331V283H154.451ZM150.643 282.12C150.974 282.12 151.273 282.083 151.539 282.008C151.817 281.923 152.057 281.816 152.259 281.688C152.462 281.549 152.617 281.389 152.723 281.208C152.841 281.016 152.899 280.813 152.899 280.6V279.24H151.139C150.371 279.24 149.811 279.347 149.459 279.56C149.107 279.773 148.931 280.083 148.931 280.488V280.824C148.931 281.251 149.081 281.576 149.379 281.8C149.689 282.013 150.11 282.12 150.643 282.12ZM161.437 272.92C161.064 272.92 160.802 272.845 160.653 272.696C160.504 272.536 160.429 272.339 160.429 272.104V271.848C160.429 271.613 160.504 271.421 160.653 271.272C160.802 271.112 161.064 271.032 161.437 271.032C161.81 271.032 162.072 271.112 162.221 271.272C162.37 271.421 162.445 271.613 162.445 271.848V272.104C162.445 272.339 162.37 272.536 162.221 272.696C162.072 272.845 161.81 272.92 161.437 272.92ZM157.821 281.912H160.797V275.832H157.821V274.744H162.077V281.912H164.861V283H157.821V281.912Z" fill="white"/>
<path opacity="0.9" d="M47.144 198.24C46.3653 198.24 45.656 198.112 45.016 197.856C44.376 197.6 43.8267 197.227 43.368 196.736C42.9093 196.245 42.552 195.643 42.296 194.928C42.0507 194.203 41.928 193.376 41.928 192.448C41.928 191.52 42.0667 190.699 42.344 189.984C42.632 189.259 43.016 188.651 43.496 188.16C43.976 187.669 44.536 187.296 45.176 187.04C45.816 186.784 46.4987 186.656 47.224 186.656C47.6827 186.656 48.0933 186.688 48.456 186.752C48.8293 186.816 49.1493 186.891 49.416 186.976C49.6933 187.061 49.9173 187.147 50.088 187.232C50.2587 187.317 50.376 187.381 50.44 187.424L49.992 188.704C49.896 188.64 49.7573 188.571 49.576 188.496C49.3947 188.421 49.1867 188.347 48.952 188.272C48.728 188.197 48.4773 188.139 48.2 188.096C47.9333 188.043 47.6613 188.016 47.384 188.016C46.7973 188.016 46.2693 188.117 45.8 188.32C45.3307 188.523 44.9307 188.816 44.6 189.2C44.2693 189.584 44.0133 190.053 43.832 190.608C43.6613 191.152 43.576 191.765 43.576 192.448C43.576 193.109 43.6507 193.712 43.8 194.256C43.96 194.8 44.1947 195.269 44.504 195.664C44.8133 196.048 45.1973 196.347 45.656 196.56C46.1253 196.773 46.6693 196.88 47.288 196.88C48.0027 196.88 48.5947 196.805 49.064 196.656C49.5333 196.507 49.8853 196.373 50.12 196.256L50.52 197.536C50.4453 197.589 50.312 197.659 50.12 197.744C49.928 197.819 49.688 197.893 49.4 197.968C49.112 198.043 48.776 198.107 48.392 198.16C48.008 198.213 47.592 198.24 47.144 198.24ZM55.2739 189.504C55.4019 189.504 55.5459 189.515 55.7059 189.536C55.8765 189.547 56.0419 189.568 56.2019 189.6C56.3619 189.621 56.5059 189.648 56.6339 189.68C56.7725 189.701 56.8739 189.723 56.9379 189.744L56.6819 191.04C56.5645 190.997 56.3672 190.949 56.0899 190.896C55.8232 190.832 55.4765 190.8 55.0499 190.8C54.7725 190.8 54.4952 190.832 54.2179 190.896C53.9512 190.949 53.7752 190.987 53.6899 191.008V198H52.2019V190.032C52.5539 189.904 52.9912 189.787 53.5139 189.68C54.0365 189.563 54.6232 189.504 55.2739 189.504ZM57.9098 193.856C57.9098 193.12 58.0164 192.48 58.2298 191.936C58.4431 191.381 58.7258 190.923 59.0778 190.56C59.4298 190.197 59.8351 189.925 60.2938 189.744C60.7524 189.563 61.2218 189.472 61.7018 189.472C62.8218 189.472 63.6804 189.824 64.2778 190.528C64.8751 191.221 65.1737 192.283 65.1737 193.712C65.1737 193.776 65.1737 193.861 65.1737 193.968C65.1737 194.064 65.1684 194.155 65.1578 194.24H59.4618C59.5258 195.104 59.7764 195.76 60.2138 196.208C60.6511 196.656 61.3338 196.88 62.2618 196.88C62.7844 196.88 63.2218 196.837 63.5738 196.752C63.9364 196.656 64.2084 196.565 64.3898 196.48L64.5978 197.728C64.4164 197.824 64.0964 197.925 63.6378 198.032C63.1898 198.139 62.6778 198.192 62.1018 198.192C61.3764 198.192 60.7471 198.085 60.2138 197.872C59.6911 197.648 59.2591 197.344 58.9178 196.96C58.5764 196.576 58.3204 196.123 58.1497 195.6C57.9898 195.067 57.9098 194.485 57.9098 193.856ZM63.6218 193.04C63.6324 192.368 63.4618 191.819 63.1098 191.392C62.7684 190.955 62.2938 190.736 61.6858 190.736C61.3444 190.736 61.0404 190.805 60.7738 190.944C60.5178 191.072 60.2991 191.243 60.1178 191.456C59.9364 191.669 59.7924 191.915 59.6858 192.192C59.5898 192.469 59.5258 192.752 59.4938 193.04H63.6218ZM72.6873 191.44C72.5059 191.291 72.2446 191.147 71.9033 191.008C71.5619 190.869 71.1886 190.8 70.7833 190.8C70.3566 190.8 69.9886 190.88 69.6793 191.04C69.3806 191.189 69.1353 191.403 68.9433 191.68C68.7513 191.947 68.6126 192.267 68.5273 192.64C68.4419 193.013 68.3993 193.413 68.3993 193.84C68.3993 194.811 68.6393 195.563 69.1193 196.096C69.5993 196.619 70.2393 196.88 71.0393 196.88C71.4446 196.88 71.7806 196.864 72.0473 196.832C72.3246 196.789 72.5379 196.747 72.6873 196.704V191.44ZM72.6873 185.84L74.1753 185.584V197.76C73.8339 197.856 73.3966 197.952 72.8633 198.048C72.3299 198.144 71.7166 198.192 71.0233 198.192C70.3833 198.192 69.8073 198.091 69.2953 197.888C68.7833 197.685 68.3459 197.397 67.9833 197.024C67.6206 196.651 67.3379 196.197 67.1353 195.664C66.9433 195.12 66.8473 194.512 66.8473 193.84C66.8473 193.2 66.9273 192.613 67.0872 192.08C67.2579 191.547 67.5033 191.088 67.8233 190.704C68.1433 190.32 68.5326 190.021 68.9913 189.808C69.4606 189.595 69.9939 189.488 70.5913 189.488C71.0713 189.488 71.4926 189.552 71.8553 189.68C72.2286 189.808 72.5059 189.931 72.6873 190.048V185.84ZM78.2211 198H76.7331V189.68H78.2211V198ZM77.4691 188.176C77.2025 188.176 76.9731 188.091 76.7811 187.92C76.5998 187.739 76.5091 187.499 76.5091 187.2C76.5091 186.901 76.5998 186.667 76.7811 186.496C76.9731 186.315 77.2025 186.224 77.4691 186.224C77.7358 186.224 77.9598 186.315 78.1411 186.496C78.3331 186.667 78.4291 186.901 78.4291 187.2C78.4291 187.499 78.3331 187.739 78.1411 187.92C77.9598 188.091 77.7358 188.176 77.4691 188.176ZM82.172 189.68H85.324V190.928H82.172V194.768C82.172 195.184 82.204 195.531 82.268 195.808C82.332 196.075 82.428 196.288 82.556 196.448C82.684 196.597 82.844 196.704 83.036 196.768C83.228 196.832 83.452 196.864 83.708 196.864C84.156 196.864 84.5133 196.816 84.78 196.72C85.0573 196.613 85.2493 196.539 85.356 196.496L85.644 197.728C85.4947 197.803 85.2333 197.893 84.86 198C84.4867 198.117 84.06 198.176 83.58 198.176C83.0147 198.176 82.5453 198.107 82.172 197.968C81.8093 197.819 81.516 197.6 81.292 197.312C81.068 197.024 80.908 196.672 80.812 196.256C80.7267 195.829 80.684 195.339 80.684 194.784V187.36L82.172 187.104V189.68Z" fill="white"/>
<circle cx="295" cy="199.941" r="15" fill="#EB001B"/>
<circle cx="313" cy="199.941" r="15" fill="#F79E1B"/>
<path fill-rule="evenodd" clip-rule="evenodd" d="M304 211.941C308.141 209.546 310.927 205.069 310.927 199.941C310.927 194.813 308.141 190.336 304 187.941C299.859 190.336 297.073 194.813 297.073 199.941C297.073 205.069 299.859 209.546 304 211.941Z" fill="#FF5F00"/>
<rect x="-28" y="107" width="335" height="185" rx="20" fill="url(#paint1_linear_3213_600)"/>
<g filter="url(#filter1_b_3213_600)">
<rect x="-28" y="107" width="335" height="185" rx="20" fill="white" fill-opacity="0.03"/>
</g>
<path fill-rule="evenodd" clip-rule="evenodd" d="M208.139 107H190.081L81.3672 292H287C298.046 292 307 283.046 307 272V188.159L208.139 107Z" fill="white" fill-opacity="0.08"/>
<path fill-rule="evenodd" clip-rule="evenodd" d="M293.476 290.928C291.445 291.623 289.267 292 287 292H-7.99996C-13.8641 292 -19.1388 289.476 -22.7971 285.455L77.9575 114L293.476 290.928Z" fill="white" fill-opacity="0.08"/>
<path fill-rule="evenodd" clip-rule="evenodd" d="M131.041 292H-8C-19.0457 292 -28 283.046 -28 272V225.96L-9.04251 177L131.041 292Z" fill="white" fill-opacity="0.08"/>
<path d="M0.816 262.192C0.229334 262.192 -0.298667 262.096 -0.768 261.904C-1.23733 261.701 -1.63733 261.419 -1.968 261.056C-2.288 260.683 -2.53867 260.229 -2.72 259.696C-2.89067 259.163 -2.976 258.565 -2.976 257.904C-2.976 257.072 -2.85333 256.293 -2.608 255.568C-2.352 254.832 -2.032 254.165 -1.648 253.568C-1.25333 252.96 -0.816 252.427 -0.336 251.968C0.144 251.499 0.613334 251.12 1.072 250.832H2.8C2.192 251.269 1.648 251.696 1.168 252.112C0.698667 252.528 0.282667 252.965 -0.0799999 253.424C-0.442667 253.872 -0.746667 254.357 -0.992 254.88C-1.23733 255.392 -1.44 255.973 -1.6 256.624L-1.52 256.656C-1.25333 256.197 -0.901333 255.819 -0.464 255.52C-0.0266663 255.211 0.538667 255.056 1.232 255.056C1.72267 255.056 2.17067 255.136 2.576 255.296C2.98133 255.456 3.33333 255.685 3.632 255.984C3.93067 256.283 4.16 256.645 4.32 257.072C4.49067 257.499 4.576 257.973 4.576 258.496C4.576 259.04 4.48533 259.541 4.304 260C4.12267 260.448 3.86667 260.837 3.536 261.168C3.216 261.488 2.82133 261.739 2.352 261.92C1.89333 262.101 1.38133 262.192 0.816 262.192ZM0.8 261.056C1.568 261.056 2.16 260.848 2.576 260.432C3.00267 260.016 3.216 259.429 3.216 258.672V258.544C3.216 257.787 3.00267 257.2 2.576 256.784C2.16 256.368 1.568 256.16 0.8 256.16C0.0320002 256.16 -0.565333 256.368 -0.992 256.784C-1.408 257.2 -1.616 257.787 -1.616 258.544V258.672C-1.616 259.429 -1.408 260.016 -0.992 260.432C-0.565333 260.848 0.0320002 261.056 0.8 261.056ZM10.3938 262.192C9.71108 262.192 9.12442 262.064 8.63375 261.808C8.14308 261.541 7.73775 261.163 7.41775 260.672C7.09775 260.181 6.86308 259.579 6.71375 258.864C6.56442 258.149 6.48975 257.333 6.48975 256.416C6.48975 255.509 6.56442 254.699 6.71375 253.984C6.86308 253.259 7.09775 252.651 7.41775 252.16C7.73775 251.669 8.14308 251.296 8.63375 251.04C9.12442 250.773 9.71108 250.64 10.3938 250.64C11.0764 250.64 11.6631 250.773 12.1538 251.04C12.6444 251.296 13.0498 251.669 13.3698 252.16C13.6898 252.651 13.9244 253.259 14.0738 253.984C14.2231 254.699 14.2978 255.509 14.2978 256.416C14.2978 257.333 14.2231 258.149 14.0738 258.864C13.9244 259.579 13.6898 260.181 13.3698 260.672C13.0498 261.163 12.6444 261.541 12.1538 261.808C11.6631 262.064 11.0764 262.192 10.3938 262.192ZM10.3938 261.024C10.8418 261.024 11.2258 260.939 11.5458 260.768C11.8658 260.587 12.1218 260.336 12.3138 260.016C12.5164 259.696 12.6658 259.312 12.7618 258.864C12.8578 258.405 12.9058 257.893 12.9058 257.328V255.504C12.9058 254.949 12.8578 254.443 12.7618 253.984C12.6658 253.525 12.5164 253.136 12.3138 252.816C12.1218 252.496 11.8658 252.251 11.5458 252.08C11.2258 251.899 10.8418 251.808 10.3938 251.808C9.94575 251.808 9.56175 251.899 9.24175 252.08C8.92175 252.251 8.66042 252.496 8.45775 252.816C8.26575 253.136 8.12175 253.525 8.02575 253.984C7.92975 254.443 7.88175 254.949 7.88175 255.504V257.328C7.88175 257.893 7.92975 258.405 8.02575 258.864C8.12175 259.312 8.26575 259.696 8.45775 260.016C8.66042 260.336 8.92175 260.587 9.24175 260.768C9.56175 260.939 9.94575 261.024 10.3938 261.024ZM10.3938 257.36C10.0204 257.36 9.75908 257.285 9.60975 257.136C9.47108 256.987 9.40175 256.805 9.40175 256.592V256.24C9.40175 256.027 9.47108 255.845 9.60975 255.696C9.75908 255.547 10.0204 255.472 10.3938 255.472C10.7671 255.472 11.0231 255.547 11.1618 255.696C11.3111 255.845 11.3858 256.027 11.3858 256.24V256.592C11.3858 256.805 11.3111 256.987 11.1618 257.136C11.0231 257.285 10.7671 257.36 10.3938 257.36ZM16.5475 262V260.832H19.7475V251.824H19.6355L16.8195 254.448L16.0355 253.6L18.9955 250.832H21.0915V260.832H24.0355V262H16.5475ZM26.1413 262V260.832H29.3413V251.824H29.2293L26.4133 254.448L25.6293 253.6L28.5893 250.832H30.6853V260.832H33.6293V262H26.1413ZM46.4488 257.808V256.464H51.0888V257.808H46.4488ZM64.5163 262V260.832H67.7163V251.824H67.6043L64.7883 254.448L64.0043 253.6L66.9643 250.832H69.0603V260.832H72.0043V262H64.5163ZM74.11 262V260.832H77.31V251.824H77.198L74.382 254.448L73.598 253.6L76.558 250.832H78.654V260.832H81.598V262H74.11ZM83.7038 262V260.832H86.9038V251.824H86.7918L83.9758 254.448L83.1918 253.6L86.1518 250.832H88.2478V260.832H91.1918V262H83.7038ZM93.2975 262V260.832H96.4975V251.824H96.3855L93.5695 254.448L92.7855 253.6L95.7455 250.832H97.8415V260.832H100.786V262H93.2975ZM113.605 257.808V256.464H118.245V257.808H113.605ZM131.673 262V260.832H134.873V251.824H134.761L131.945 254.448L131.161 253.6L134.121 250.832H136.217V260.832H139.161V262H131.673ZM141.266 262V260.832H144.466V251.824H144.354L141.538 254.448L140.754 253.6L143.714 250.832H145.81V260.832H148.754V262H141.266ZM150.86 262V260.832H154.06V251.824H153.948L151.132 254.448L150.348 253.6L153.308 250.832H155.404V260.832H158.348V262H150.86ZM160.454 262V260.832H163.654V251.824H163.542L160.726 254.448L159.942 253.6L162.902 250.832H164.998V260.832H167.942V262H160.454ZM180.761 257.808V256.464H185.401V257.808H180.761ZM198.829 262V260.832H202.029V251.824H201.917L199.101 254.448L198.317 253.6L201.277 250.832H203.373V260.832H206.317V262H198.829ZM208.423 262V260.832H211.623V251.824H211.511L208.695 254.448L207.911 253.6L210.871 250.832H212.967V260.832H215.911V262H208.423ZM218.016 262V260.832H221.216V251.824H221.104L218.288 254.448L217.504 253.6L220.464 250.832H222.56V260.832H225.504V262H218.016ZM229.018 262L233.386 251.984H228.49V254.064H227.29V250.832H234.746V252.016L230.458 262H229.018Z" fill="white"/>
<path d="M3.68 226.832V235.104C3.68 235.573 3.6 236 3.44 236.384C3.28 236.768 3.05067 237.093 2.752 237.36C2.464 237.627 2.11733 237.835 1.712 237.984C1.30667 238.123 0.864 238.192 0.384 238.192C-0.469333 238.192 -1.17333 237.973 -1.728 237.536C-2.28267 237.088 -2.64533 236.464 -2.816 235.664L-1.536 235.392C-1.48267 235.616 -1.41333 235.829 -1.328 236.032C-1.232 236.224 -1.10933 236.395 -0.96 236.544C-0.8 236.683 -0.608 236.795 -0.384 236.88C-0.16 236.965 0.106667 237.008 0.416 237.008C1.024 237.008 1.49333 236.837 1.824 236.496C2.16533 236.144 2.336 235.6 2.336 234.864V228H-1.696V226.832H3.68ZM16.5955 226.832H20.3875C21.3475 226.832 22.0995 227.093 22.6435 227.616C23.1875 228.139 23.4595 228.837 23.4595 229.712C23.4595 230.384 23.2942 230.912 22.9635 231.296C22.6435 231.68 22.2275 231.952 21.7155 232.112V232.16C22.3448 232.309 22.8622 232.592 23.2675 233.008C23.6728 233.413 23.8755 234.005 23.8755 234.784C23.8755 235.232 23.8008 235.653 23.6515 236.048C23.5022 236.443 23.2888 236.784 23.0115 237.072C22.7448 237.36 22.4248 237.589 22.0515 237.76C21.6888 237.92 21.2942 238 20.8675 238H16.5955V226.832ZM20.4675 236.832C21.0862 236.832 21.5715 236.693 21.9235 236.416C22.2755 236.139 22.4515 235.712 22.4515 235.136V234.48C22.4515 233.915 22.2755 233.493 21.9235 233.216C21.5715 232.928 21.0862 232.784 20.4675 232.784H17.9395V236.832H20.4675ZM20.2435 231.68C20.8088 231.68 21.2515 231.557 21.5715 231.312C21.8915 231.056 22.0515 230.672 22.0515 230.16V229.536C22.0515 229.024 21.8915 228.64 21.5715 228.384C21.2515 228.128 20.8088 228 20.2435 228H17.9395V231.68H20.2435ZM32.7013 238C32.1999 238 31.8426 237.872 31.6293 237.616C31.4159 237.36 31.2826 237.04 31.2293 236.656H31.1493C30.9679 237.136 30.6746 237.515 30.2693 237.792C29.8746 238.059 29.3413 238.192 28.6693 238.192C27.8053 238.192 27.1173 237.968 26.6053 237.52C26.0933 237.072 25.8372 236.459 25.8372 235.68C25.8372 234.912 26.1146 234.32 26.6693 233.904C27.2346 233.488 28.1413 233.28 29.3893 233.28H31.1493V232.464C31.1493 231.856 30.9786 231.403 30.6373 231.104C30.2959 230.795 29.8106 230.64 29.1813 230.64C28.6266 230.64 28.1733 230.752 27.8213 230.976C27.4693 231.189 27.1866 231.483 26.9733 231.856L26.1093 231.216C26.2159 231.003 26.3599 230.795 26.5413 230.592C26.7226 230.389 26.9466 230.213 27.2133 230.064C27.4799 229.904 27.7839 229.781 28.1253 229.696C28.4666 229.6 28.8453 229.552 29.2613 229.552C30.2319 229.552 30.9999 229.797 31.5653 230.288C32.1413 230.779 32.4293 231.461 32.4293 232.336V236.88H33.5813V238H32.7013ZM28.8932 237.12C29.2239 237.12 29.5226 237.083 29.7893 237.008C30.0666 236.923 30.3066 236.816 30.5093 236.688C30.7119 236.549 30.8666 236.389 30.9733 236.208C31.0906 236.016 31.1493 235.813 31.1493 235.6V234.24H29.3893C28.6213 234.24 28.0613 234.347 27.7093 234.56C27.3573 234.773 27.1813 235.083 27.1813 235.488V235.824C27.1813 236.251 27.3306 236.576 27.6293 236.8C27.9386 237.013 28.3599 237.12 28.8932 237.12ZM35.655 236.912H38.535V227.248H35.655V226.16H39.815V236.912H42.695V238H35.655V236.912ZM47.9528 238L44.9928 229.744H46.2888L47.4728 233.2L48.7528 236.928H48.8168L50.0968 233.2L51.2808 229.744H52.5448L49.5848 238H47.9528ZM58.8745 227.92C58.5012 227.92 58.2398 227.845 58.0905 227.696C57.9412 227.536 57.8665 227.339 57.8665 227.104V226.848C57.8665 226.613 57.9412 226.421 58.0905 226.272C58.2398 226.112 58.5012 226.032 58.8745 226.032C59.2478 226.032 59.5092 226.112 59.6585 226.272C59.8078 226.421 59.8825 226.613 59.8825 226.848V227.104C59.8825 227.339 59.8078 227.536 59.6585 227.696C59.5092 227.845 59.2478 227.92 58.8745 227.92ZM55.2585 236.912H58.2345V230.832H55.2585V229.744H59.5145V236.912H62.2985V238H55.2585V236.912ZM64.7243 238V229.744H66.0043V231.088H66.0683C66.1536 230.885 66.2603 230.693 66.3883 230.512C66.5163 230.32 66.6709 230.155 66.8523 230.016C67.0443 229.877 67.2683 229.765 67.5243 229.68C67.7803 229.595 68.0789 229.552 68.4203 229.552C69.2843 229.552 69.9776 229.829 70.5003 230.384C71.0229 230.928 71.2843 231.701 71.2843 232.704V238H70.0043V232.928C70.0043 232.171 69.8389 231.611 69.5083 231.248C69.1776 230.875 68.6923 230.688 68.0523 230.688C67.7963 230.688 67.5456 230.72 67.3003 230.784C67.0549 230.848 66.8363 230.944 66.6443 231.072C66.4523 231.2 66.2976 231.365 66.1803 231.568C66.0629 231.771 66.0043 232.005 66.0043 232.272V238H64.7243Z" fill="white"/>
<path opacity="0.9" d="M2.144 153.24C1.36533 153.24 0.656 153.112 0.0160003 152.856C-0.624 152.6 -1.17333 152.227 -1.632 151.736C-2.09067 151.245 -2.448 150.643 -2.704 149.928C-2.94933 149.203 -3.072 148.376 -3.072 147.448C-3.072 146.52 -2.93333 145.699 -2.656 144.984C-2.368 144.259 -1.984 143.651 -1.504 143.16C-1.024 142.669 -0.464 142.296 0.176 142.04C0.816 141.784 1.49867 141.656 2.224 141.656C2.68267 141.656 3.09333 141.688 3.456 141.752C3.82933 141.816 4.14933 141.891 4.416 141.976C4.69333 142.061 4.91733 142.147 5.088 142.232C5.25867 142.317 5.376 142.381 5.44 142.424L4.992 143.704C4.896 143.64 4.75733 143.571 4.576 143.496C4.39467 143.421 4.18667 143.347 3.952 143.272C3.728 143.197 3.47733 143.139 3.2 143.096C2.93333 143.043 2.66133 143.016 2.384 143.016C1.79733 143.016 1.26933 143.117 0.8 143.32C0.330667 143.523 -0.0693332 143.816 -0.4 144.2C-0.730667 144.584 -0.986667 145.053 -1.168 145.608C-1.33867 146.152 -1.424 146.765 -1.424 147.448C-1.424 148.109 -1.34933 148.712 -1.2 149.256C-1.04 149.8 -0.805333 150.269 -0.496 150.664C-0.186666 151.048 0.197333 151.347 0.656 151.56C1.12533 151.773 1.66933 151.88 2.288 151.88C3.00267 151.88 3.59467 151.805 4.064 151.656C4.53333 151.507 4.88533 151.373 5.12 151.256L5.52 152.536C5.44533 152.589 5.312 152.659 5.12 152.744C4.928 152.819 4.688 152.893 4.4 152.968C4.112 153.043 3.776 153.107 3.392 153.16C3.008 153.213 2.592 153.24 2.144 153.24ZM10.2739 144.504C10.4019 144.504 10.5459 144.515 10.7059 144.536C10.8765 144.547 11.0419 144.568 11.2019 144.6C11.3619 144.621 11.5059 144.648 11.6339 144.68C11.7725 144.701 11.8739 144.723 11.9379 144.744L11.6819 146.04C11.5645 145.997 11.3672 145.949 11.0899 145.896C10.8232 145.832 10.4765 145.8 10.0499 145.8C9.77254 145.8 9.49521 145.832 9.21788 145.896C8.95121 145.949 8.77521 145.987 8.68988 146.008V153H7.20188V145.032C7.55388 144.904 7.99121 144.787 8.51388 144.68C9.03654 144.563 9.62321 144.504 10.2739 144.504ZM12.9098 148.856C12.9098 148.12 13.0164 147.48 13.2298 146.936C13.4431 146.381 13.7258 145.923 14.0778 145.56C14.4298 145.197 14.8351 144.925 15.2938 144.744C15.7524 144.563 16.2218 144.472 16.7018 144.472C17.8218 144.472 18.6804 144.824 19.2778 145.528C19.8751 146.221 20.1737 147.283 20.1737 148.712C20.1737 148.776 20.1737 148.861 20.1737 148.968C20.1737 149.064 20.1684 149.155 20.1578 149.24H14.4618C14.5258 150.104 14.7764 150.76 15.2138 151.208C15.6511 151.656 16.3338 151.88 17.2618 151.88C17.7844 151.88 18.2218 151.837 18.5738 151.752C18.9364 151.656 19.2084 151.565 19.3898 151.48L19.5978 152.728C19.4164 152.824 19.0964 152.925 18.6378 153.032C18.1898 153.139 17.6778 153.192 17.1018 153.192C16.3764 153.192 15.7471 153.085 15.2138 152.872C14.6911 152.648 14.2591 152.344 13.9178 151.96C13.5764 151.576 13.3204 151.123 13.1497 150.6C12.9898 150.067 12.9098 149.485 12.9098 148.856ZM18.6218 148.04C18.6324 147.368 18.4618 146.819 18.1098 146.392C17.7684 145.955 17.2938 145.736 16.6858 145.736C16.3444 145.736 16.0404 145.805 15.7738 145.944C15.5178 146.072 15.2991 146.243 15.1178 146.456C14.9364 146.669 14.7924 146.915 14.6858 147.192C14.5898 147.469 14.5258 147.752 14.4938 148.04H18.6218ZM27.6873 146.44C27.5059 146.291 27.2446 146.147 26.9033 146.008C26.5619 145.869 26.1886 145.8 25.7833 145.8C25.3566 145.8 24.9886 145.88 24.6793 146.04C24.3806 146.189 24.1353 146.403 23.9433 146.68C23.7513 146.947 23.6126 147.267 23.5273 147.64C23.4419 148.013 23.3993 148.413 23.3993 148.84C23.3993 149.811 23.6393 150.563 24.1193 151.096C24.5993 151.619 25.2393 151.88 26.0393 151.88C26.4446 151.88 26.7806 151.864 27.0473 151.832C27.3246 151.789 27.5379 151.747 27.6873 151.704V146.44ZM27.6873 140.84L29.1753 140.584V152.76C28.8339 152.856 28.3966 152.952 27.8633 153.048C27.3299 153.144 26.7166 153.192 26.0233 153.192C25.3833 153.192 24.8073 153.091 24.2953 152.888C23.7833 152.685 23.3459 152.397 22.9833 152.024C22.6206 151.651 22.3379 151.197 22.1353 150.664C21.9433 150.12 21.8473 149.512 21.8473 148.84C21.8473 148.2 21.9273 147.613 22.0872 147.08C22.2579 146.547 22.5033 146.088 22.8233 145.704C23.1433 145.32 23.5326 145.021 23.9913 144.808C24.4606 144.595 24.9939 144.488 25.5913 144.488C26.0713 144.488 26.4926 144.552 26.8553 144.68C27.2286 144.808 27.5059 144.931 27.6873 145.048V140.84ZM33.2211 153H31.7331V144.68H33.2211V153ZM32.4691 143.176C32.2025 143.176 31.9731 143.091 31.7811 142.92C31.5998 142.739 31.5091 142.499 31.5091 142.2C31.5091 141.901 31.5998 141.667 31.7811 141.496C31.9731 141.315 32.2025 141.224 32.4691 141.224C32.7358 141.224 32.9598 141.315 33.1411 141.496C33.3331 141.667 33.4291 141.901 33.4291 142.2C33.4291 142.499 33.3331 142.739 33.1411 142.92C32.9598 143.091 32.7358 143.176 32.4691 143.176ZM37.172 144.68H40.324V145.928H37.172V149.768C37.172 150.184 37.204 150.531 37.268 150.808C37.332 151.075 37.428 151.288 37.556 151.448C37.684 151.597 37.844 151.704 38.036 151.768C38.228 151.832 38.452 151.864 38.708 151.864C39.156 151.864 39.5133 151.816 39.78 151.72C40.0573 151.613 40.2493 151.539 40.356 151.496L40.644 152.728C40.4947 152.803 40.2333 152.893 39.86 153C39.4867 153.117 39.06 153.176 38.58 153.176C38.0147 153.176 37.5453 153.107 37.172 152.968C36.8093 152.819 36.516 152.6 36.292 152.312C36.068 152.024 35.908 151.672 35.812 151.256C35.7267 150.829 35.684 150.339 35.684 149.784V142.36L37.172 142.104V144.68Z" fill="white"/>
<g clip-path="url(#clip1_3213_600)">
<path d="M258.273 145.5C258.273 146.55 257.961 147.577 257.378 148.45C256.795 149.323 255.966 150.004 254.996 150.406C254.026 150.808 252.958 150.913 251.928 150.709C250.898 150.504 249.952 149.999 249.209 149.257C248.466 148.515 247.96 147.569 247.754 146.539C247.549 145.509 247.653 144.442 248.055 143.471C248.456 142.501 249.135 141.671 250.008 141.087C250.881 140.503 251.907 140.191 252.957 140.19H252.962C255.897 140.19 258.273 142.568 258.273 145.5ZM244.623 140.247C241.672 140.247 239.307 142.568 239.307 145.471C239.307 148.406 241.612 150.679 244.575 150.679C245.413 150.679 246.132 150.514 247.017 150.099V147.807C246.24 148.587 245.549 148.899 244.667 148.899C242.706 148.899 241.315 147.477 241.315 145.455C241.315 143.539 242.751 142.027 244.578 142.027C245.507 142.027 246.211 142.358 247.019 143.151V140.859C246.284 140.457 245.46 140.247 244.623 140.247ZM235.824 144.303C234.655 143.87 234.312 143.586 234.312 143.046C234.312 142.418 234.923 141.938 235.763 141.938C236.346 141.938 236.826 142.177 237.333 142.746L238.351 141.413C237.545 140.694 236.5 140.299 235.419 140.305C233.653 140.305 232.306 141.531 232.306 143.164C232.306 144.539 232.933 145.243 234.763 145.902C235.527 146.172 235.913 146.35 236.11 146.471C236.288 146.578 236.436 146.73 236.538 146.911C236.641 147.092 236.694 147.297 236.692 147.505C236.692 148.314 236.049 148.912 235.18 148.912C234.251 148.912 233.503 148.448 233.057 147.582L231.799 148.792C232.697 150.109 233.773 150.692 235.257 150.692C237.28 150.692 238.698 149.346 238.698 147.414C238.693 145.831 238.036 145.114 235.824 144.303ZM283 141.037C283.001 141.239 282.922 141.432 282.78 141.576C282.638 141.719 282.446 141.8 282.244 141.801C282.144 141.802 282.044 141.782 281.951 141.744C281.858 141.706 281.774 141.649 281.703 141.578C281.632 141.507 281.576 141.423 281.538 141.33C281.499 141.237 281.48 141.138 281.48 141.037V141.03C281.475 140.926 281.49 140.822 281.526 140.725C281.562 140.628 281.618 140.539 281.689 140.464C281.761 140.389 281.847 140.329 281.942 140.288C282.038 140.248 282.141 140.227 282.244 140.228C282.348 140.228 282.451 140.25 282.546 140.292C282.641 140.333 282.726 140.394 282.797 140.47C282.868 140.545 282.922 140.635 282.957 140.733C282.992 140.83 283.007 140.934 283 141.037ZM282.845 141.04C282.847 140.959 282.832 140.879 282.802 140.803C282.773 140.728 282.728 140.659 282.672 140.601C282.616 140.543 282.548 140.496 282.474 140.464C282.4 140.431 282.32 140.414 282.239 140.413C282.157 140.413 282.077 140.43 282.002 140.462C281.928 140.494 281.86 140.541 281.803 140.599C281.747 140.657 281.702 140.726 281.672 140.802C281.643 140.878 281.628 140.959 281.63 141.04C281.63 141.387 281.903 141.667 282.239 141.667C282.32 141.666 282.4 141.649 282.474 141.616C282.548 141.584 282.616 141.538 282.672 141.479C282.728 141.421 282.773 141.352 282.802 141.277C282.832 141.202 282.847 141.121 282.845 141.04ZM229.114 150.453H231.062V140.47H229.114V150.453ZM262.457 147.177L259.795 140.473H257.669L261.906 150.711H262.953L267.266 140.473H265.155L262.457 147.177ZM268.143 150.453H273.666V148.763H270.09V146.067H273.534V144.376H270.09V142.161H273.666V140.47H268.143V150.453ZM282.341 141.116L282.63 141.478H282.375L282.129 141.137V141.478H281.919V140.602H282.199C282.412 140.602 282.53 140.696 282.53 140.872C282.533 140.993 282.465 141.082 282.341 141.116ZM282.325 140.875C282.325 140.799 282.27 140.762 282.168 140.762H282.131V140.99H282.168C282.27 140.99 282.325 140.953 282.325 140.875ZM279.102 146.248L282.244 150.453H279.85L277.154 146.442H276.9V150.453H274.954V140.47H277.842C280.086 140.47 281.375 141.549 281.375 143.418C281.375 144.949 280.567 145.951 279.102 146.248ZM279.372 143.523C279.372 142.552 278.713 142.045 277.501 142.045H276.902V145.069H277.472C278.713 145.067 279.372 144.526 279.372 143.523ZM228.219 145.471C228.215 146.203 228.051 146.926 227.738 147.588C227.425 148.25 226.971 148.836 226.408 149.304C225.45 150.099 224.358 150.456 222.846 150.456H220.003V140.473H222.861C226.017 140.473 228.219 142.523 228.219 145.471ZM226.213 145.455C226.213 144.5 225.809 143.571 225.135 142.969C224.491 142.387 223.728 142.161 222.47 142.161H221.948V148.763H222.47C223.728 148.763 224.523 148.521 225.135 147.97C225.807 147.372 226.213 146.413 226.213 145.455Z" fill="white"/>
</g>
<rect x="-73" y="62" width="335" height="185" rx="20" fill="url(#paint2_linear_3213_600)"/>
<g filter="url(#filter2_b_3213_600)">
<rect x="-73" y="62" width="335" height="185" rx="20" fill="white" fill-opacity="0.03"/>
</g>
<path fill-rule="evenodd" clip-rule="evenodd" d="M60.8616 119.844C74.7756 152.292 88.1437 183.467 149.558 181.792C205.911 180.255 241.654 185.935 262 195.758V227C262 238.046 253.046 247 242 247H-53C-64.0457 247 -73 238.046 -73 227V82C-73 70.9543 -64.0457 62 -53 62H16.7935C41.7769 75.3373 51.4443 97.8821 60.8616 119.844Z" fill="white" fill-opacity="0.08"/>
<path fill-rule="evenodd" clip-rule="evenodd" d="M-55.8137 62.1963C-65.5271 63.564 -73 71.9093 -73 82V227C-73 238.046 -64.0457 247 -53 247H242C249.656 247 256.308 242.698 259.669 236.379C267.614 208.551 237.583 185.134 132.5 188C73.8568 189.599 61.0918 159.831 47.8057 128.847C33.4373 95.3395 18.4595 60.4104 -55.8137 62.1963Z" fill="white" fill-opacity="0.08"/>
<path d="M-42.952 217V214.808H-48.456V213.624L-43.624 205.832H-41.672V213.704H-40.008V214.808H-41.672V217H-42.952ZM-47.256 213.704H-42.952V206.872H-43.016L-47.256 213.704ZM-38.0462 217V215.832H-34.8462V206.824H-34.9582L-37.7742 209.448L-38.5582 208.6L-35.5982 205.832H-33.5022V215.832H-30.5582V217H-38.0462ZM-28.4525 217V215.832H-25.2525V206.824H-25.3645L-28.1805 209.448L-28.9645 208.6L-26.0045 205.832H-23.9085V215.832H-20.9645V217H-28.4525ZM-18.8587 217V215.832H-15.6587V206.824H-15.7707L-18.5867 209.448L-19.3707 208.6L-16.4107 205.832H-14.3147V215.832H-11.3707V217H-18.8587ZM1.44875 212.808V211.464H6.08875V212.808H1.44875ZM19.5163 217V215.832H22.7163V206.824H22.6043L19.7883 209.448L19.0043 208.6L21.9643 205.832H24.0603V215.832H27.0043V217H19.5163ZM29.11 217V215.832H32.31V206.824H32.198L29.382 209.448L28.598 208.6L31.558 205.832H33.654V215.832H36.598V217H29.11ZM38.7038 217V215.832H41.9038V206.824H41.7918L38.9758 209.448L38.1918 208.6L41.1518 205.832H43.2478V215.832H46.1918V217H38.7038ZM48.2975 217V215.832H51.4975V206.824H51.3855L48.5695 209.448L47.7855 208.6L50.7455 205.832H52.8415V215.832H55.7855V217H48.2975ZM68.605 212.808V211.464H73.245V212.808H68.605ZM86.6725 217V215.832H89.8725V206.824H89.7605L86.9445 209.448L86.1605 208.6L89.1205 205.832H91.2165V215.832H94.1605V217H86.6725ZM96.2663 217V215.832H99.4663V206.824H99.3543L96.5383 209.448L95.7543 208.6L98.7143 205.832H100.81V215.832H103.754V217H96.2663ZM105.86 217V215.832H109.06V206.824H108.948L106.132 209.448L105.348 208.6L108.308 205.832H110.404V215.832H113.348V217H105.86ZM115.454 217V215.832H118.654V206.824H118.542L115.726 209.448L114.942 208.6L117.902 205.832H119.998V215.832H122.942V217H115.454ZM135.761 212.808V211.464H140.401V212.808H135.761ZM153.829 217V215.832H157.029V206.824H156.917L154.101 209.448L153.317 208.6L156.277 205.832H158.373V215.832H161.317V217H153.829ZM163.423 217V215.832H166.623V206.824H166.511L163.695 209.448L162.911 208.6L165.871 205.832H167.967V215.832H170.911V217H163.423ZM173.016 217V215.832H176.216V206.824H176.104L173.288 209.448L172.504 208.6L175.464 205.832H177.56V215.832H180.504V217H173.016ZM182.61 217V215.832H185.81V206.824H185.698L182.882 209.448L182.098 208.6L185.058 205.832H187.154V215.832H190.098V217H182.61Z" fill="white"/>
<path d="M-47.56 193V181.832H-40.68V183H-46.216V186.76H-40.872V187.928H-46.216V191.832H-40.68V193H-47.56ZM-32.6062 191.656H-32.6702C-33.2036 192.68 -34.0516 193.192 -35.2142 193.192C-36.2276 193.192 -37.0222 192.813 -37.5982 192.056C-38.1636 191.299 -38.4462 190.237 -38.4462 188.872C-38.4462 187.507 -38.1636 186.445 -37.5982 185.688C-37.0222 184.931 -36.2276 184.552 -35.2142 184.552C-34.0516 184.552 -33.2036 185.064 -32.6702 186.088H-32.6062V181.16H-31.3263V193H-32.6062V191.656ZM-34.7182 192.056C-34.4302 192.056 -34.1582 192.019 -33.9022 191.944C-33.6462 191.869 -33.4222 191.763 -33.2302 191.624C-33.0382 191.475 -32.8889 191.299 -32.7822 191.096C-32.6649 190.883 -32.6062 190.637 -32.6062 190.36V187.384C-32.6062 187.107 -32.6649 186.867 -32.7822 186.664C-32.8889 186.451 -33.0382 186.275 -33.2302 186.136C-33.4222 185.987 -33.6462 185.875 -33.9022 185.8C-34.1582 185.725 -34.4302 185.688 -34.7182 185.688C-35.4649 185.688 -36.0462 185.917 -36.4622 186.376C-36.8676 186.824 -37.0702 187.421 -37.0702 188.168V189.576C-37.0702 190.323 -36.8676 190.925 -36.4622 191.384C-36.0462 191.832 -35.4649 192.056 -34.7182 192.056ZM-15.4507 193.192C-16.4534 193.192 -17.2747 193.011 -17.9147 192.648C-18.5547 192.275 -19.0827 191.8 -19.4987 191.224L-18.5227 190.424C-18.0854 190.968 -17.6267 191.373 -17.1467 191.64C-16.6561 191.907 -16.0747 192.04 -15.4027 192.04C-14.5921 192.04 -13.9734 191.853 -13.5467 191.48C-13.1201 191.107 -12.9067 190.584 -12.9067 189.912C-12.9067 189.368 -13.0614 188.947 -13.3707 188.648C-13.6801 188.339 -14.2187 188.12 -14.9867 187.992L-16.2347 187.784C-16.7787 187.688 -17.2374 187.544 -17.6107 187.352C-17.9734 187.16 -18.2667 186.931 -18.4907 186.664C-18.7147 186.387 -18.8747 186.088 -18.9707 185.768C-19.0667 185.437 -19.1147 185.096 -19.1147 184.744C-19.1147 183.72 -18.7787 182.947 -18.1068 182.424C-17.4347 181.901 -16.5281 181.64 -15.3867 181.64C-14.4907 181.64 -13.7387 181.789 -13.1307 182.088C-12.5121 182.387 -12.0161 182.808 -11.6427 183.352L-12.5867 184.168C-12.8961 183.763 -13.2694 183.432 -13.7067 183.176C-14.1441 182.92 -14.7094 182.792 -15.4027 182.792C-16.1601 182.792 -16.7414 182.952 -17.1467 183.272C-17.5521 183.592 -17.7547 184.072 -17.7547 184.712C-17.7547 185.213 -17.6054 185.624 -17.3067 185.944C-16.9974 186.253 -16.4481 186.477 -15.6587 186.616L-14.4587 186.824C-13.9147 186.92 -13.4561 187.064 -13.0827 187.256C-12.7094 187.448 -12.4107 187.677 -12.1867 187.944C-11.9521 188.211 -11.7867 188.509 -11.6907 188.84C-11.5947 189.171 -11.5467 189.517 -11.5467 189.88C-11.5467 190.915 -11.8881 191.725 -12.5707 192.312C-13.2427 192.899 -14.2027 193.192 -15.4507 193.192ZM-9.057 181.16H-7.777V186.088H-7.713C-7.62767 185.885 -7.521 185.693 -7.393 185.512C-7.265 185.32 -7.11033 185.155 -6.929 185.016C-6.737 184.877 -6.513 184.765 -6.257 184.68C-6.001 184.595 -5.70233 184.552 -5.361 184.552C-4.497 184.552 -3.80367 184.829 -3.281 185.384C-2.75833 185.928 -2.497 186.701 -2.497 187.704V193H-3.777V187.928C-3.777 187.171 -3.94233 186.611 -4.273 186.248C-4.60367 185.875 -5.089 185.688 -5.729 185.688C-5.985 185.688 -6.23567 185.72 -6.481 185.784C-6.72633 185.848 -6.945 185.944 -7.137 186.072C-7.329 186.2 -7.48367 186.365 -7.601 186.568C-7.71833 186.771 -7.777 187.005 -7.777 187.272V193H-9.057V181.16ZM3.91275 193.192C3.31542 193.192 2.77675 193.091 2.29675 192.888C1.82742 192.685 1.42208 192.397 1.08075 192.024C0.750083 191.64 0.494083 191.187 0.31275 190.664C0.131417 190.131 0.04075 189.539 0.04075 188.888C0.04075 188.227 0.131417 187.629 0.31275 187.096C0.50475 186.563 0.766083 186.109 1.09675 185.736C1.42742 185.352 1.82208 185.059 2.28075 184.856C2.75008 184.653 3.26742 184.552 3.83275 184.552C4.38742 184.552 4.88875 184.653 5.33675 184.856C5.79542 185.059 6.18475 185.341 6.50475 185.704C6.82475 186.056 7.07008 186.477 7.24075 186.968C7.41142 187.459 7.49675 187.997 7.49675 188.584V189.192H1.38475V189.576C1.38475 189.939 1.44342 190.275 1.56075 190.584C1.67808 190.893 1.84342 191.16 2.05675 191.384C2.28075 191.608 2.54742 191.784 2.85675 191.912C3.17675 192.029 3.52875 192.088 3.91275 192.088C4.46742 192.088 4.94742 191.96 5.35275 191.704C5.75808 191.448 6.06742 191.096 6.28075 190.648L7.22475 191.288C6.97942 191.843 6.56875 192.301 5.99275 192.664C5.42742 193.016 4.73408 193.192 3.91275 193.192ZM3.83275 185.608C3.48075 185.608 3.15542 185.672 2.85675 185.8C2.55808 185.928 2.29675 186.104 2.07275 186.328C1.85942 186.552 1.68875 186.819 1.56075 187.128C1.44342 187.427 1.38475 187.757 1.38475 188.12V188.232H6.12075V188.056C6.12075 187.693 6.06208 187.363 5.94475 187.064C5.83808 186.765 5.68342 186.509 5.48075 186.296C5.28875 186.072 5.04875 185.901 4.76075 185.784C4.48342 185.667 4.17408 185.608 3.83275 185.608ZM13.5065 193.192C12.9092 193.192 12.3705 193.091 11.8905 192.888C11.4212 192.685 11.0158 192.397 10.6745 192.024C10.3438 191.64 10.0878 191.187 9.9065 190.664C9.72517 190.131 9.6345 189.539 9.6345 188.888C9.6345 188.227 9.72517 187.629 9.9065 187.096C10.0985 186.563 10.3598 186.109 10.6905 185.736C11.0212 185.352 11.4158 185.059 11.8745 184.856C12.3438 184.653 12.8612 184.552 13.4265 184.552C13.9812 184.552 14.4825 184.653 14.9305 184.856C15.3892 185.059 15.7785 185.341 16.0985 185.704C16.4185 186.056 16.6638 186.477 16.8345 186.968C17.0052 187.459 17.0905 187.997 17.0905 188.584V189.192H10.9785V189.576C10.9785 189.939 11.0372 190.275 11.1545 190.584C11.2718 190.893 11.4372 191.16 11.6505 191.384C11.8745 191.608 12.1412 191.784 12.4505 191.912C12.7705 192.029 13.1225 192.088 13.5065 192.088C14.0612 192.088 14.5412 191.96 14.9465 191.704C15.3518 191.448 15.6612 191.096 15.8745 190.648L16.8185 191.288C16.5732 191.843 16.1625 192.301 15.5865 192.664C15.0212 193.016 14.3278 193.192 13.5065 193.192ZM13.4265 185.608C13.0745 185.608 12.7492 185.672 12.4505 185.8C12.1518 185.928 11.8905 186.104 11.6665 186.328C11.4532 186.552 11.2825 186.819 11.1545 187.128C11.0372 187.427 10.9785 187.757 10.9785 188.12V188.232H15.7145V188.056C15.7145 187.693 15.6558 187.363 15.5385 187.064C15.4318 186.765 15.2772 186.509 15.0745 186.296C14.8825 186.072 14.6425 185.901 14.3545 185.784C14.0772 185.667 13.7678 185.608 13.4265 185.608ZM19.3883 191.912H21.8043V185.832H19.3883V184.744H23.0843V186.824H23.1643C23.3349 186.173 23.6549 185.667 24.1243 185.304C24.6043 184.931 25.2123 184.744 25.9483 184.744H27.1003V186.024H25.5483C24.8123 186.024 24.2149 186.237 23.7563 186.664C23.3083 187.091 23.0843 187.651 23.0843 188.344V191.912H26.2843V193H19.3883V191.912ZM35.67 193C35.1687 193 34.8113 192.872 34.598 192.616C34.3847 192.36 34.2513 192.04 34.198 191.656H34.118C33.9367 192.136 33.6433 192.515 33.238 192.792C32.8433 193.059 32.31 193.192 31.638 193.192C30.774 193.192 30.086 192.968 29.574 192.52C29.062 192.072 28.806 191.459 28.806 190.68C28.806 189.912 29.0833 189.32 29.638 188.904C30.2033 188.488 31.11 188.28 32.358 188.28H34.118V187.464C34.118 186.856 33.9473 186.403 33.606 186.104C33.2647 185.795 32.7793 185.64 32.15 185.64C31.5953 185.64 31.142 185.752 30.79 185.976C30.438 186.189 30.1553 186.483 29.942 186.856L29.078 186.216C29.1847 186.003 29.3287 185.795 29.51 185.592C29.6913 185.389 29.9153 185.213 30.182 185.064C30.4487 184.904 30.7527 184.781 31.094 184.696C31.4353 184.6 31.814 184.552 32.23 184.552C33.2007 184.552 33.9687 184.797 34.534 185.288C35.11 185.779 35.398 186.461 35.398 187.336V191.88H36.55V193H35.67ZM31.862 192.12C32.1927 192.12 32.4913 192.083 32.758 192.008C33.0353 191.923 33.2753 191.816 33.478 191.688C33.6807 191.549 33.8353 191.389 33.942 191.208C34.0593 191.016 34.118 190.813 34.118 190.6V189.24H32.358C31.59 189.24 31.03 189.347 30.678 189.56C30.326 189.773 30.15 190.083 30.15 190.488V190.824C30.15 191.251 30.2993 191.576 30.598 191.8C30.9073 192.013 31.3287 192.12 31.862 192.12ZM38.9118 193V184.744H40.1918V186.088H40.2558C40.3411 185.885 40.4478 185.693 40.5758 185.512C40.7038 185.32 40.8584 185.155 41.0398 185.016C41.2318 184.877 41.4558 184.765 41.7118 184.68C41.9678 184.595 42.2664 184.552 42.6078 184.552C43.4718 184.552 44.1651 184.829 44.6878 185.384C45.2104 185.928 45.4718 186.701 45.4718 187.704V193H44.1918V187.928C44.1918 187.171 44.0264 186.611 43.6958 186.248C43.3651 185.875 42.8798 185.688 42.2398 185.688C41.9838 185.688 41.7331 185.72 41.4878 185.784C41.2424 185.848 41.0238 185.944 40.8318 186.072C40.6398 186.2 40.4851 186.365 40.3678 186.568C40.2504 186.771 40.1918 187.005 40.1918 187.272V193H38.9118Z" fill="white"/>
<path d="M208.224 90.524L201.94 105.516H197.84L194.748 93.55C194.56 92.814 194.398 92.544 193.826 92.234C192.894 91.728 191.354 91.254 190 90.958L190.092 90.524H196.692C197.123 90.5236 197.541 90.6774 197.868 90.9576C198.196 91.2378 198.413 91.626 198.48 92.052L200.114 100.728L204.15 90.524H208.224ZM224.29 100.622C224.306 96.664 218.818 96.446 218.856 94.678C218.868 94.14 219.38 93.568 220.5 93.422C221.813 93.2974 223.134 93.5296 224.326 94.094L225.006 90.914C223.846 90.4779 222.617 90.2524 221.378 90.248C217.544 90.248 214.846 92.288 214.822 95.206C214.798 97.364 216.748 98.566 218.218 99.286C219.73 100.02 220.238 100.492 220.23 101.148C220.22 102.156 219.026 102.598 217.91 102.616C215.96 102.646 214.83 102.09 213.926 101.67L213.224 104.954C214.13 105.37 215.802 105.734 217.536 105.75C221.61 105.75 224.276 103.738 224.29 100.622ZM234.412 105.516H238L234.87 90.524H231.558C231.204 90.5208 230.857 90.6239 230.563 90.82C230.268 91.0162 230.039 91.2963 229.906 91.624L224.088 105.516H228.16L228.97 103.276H233.946L234.412 105.516ZM230.086 100.204L232.126 94.574L233.302 100.204H230.086ZM213.766 90.524L210.56 105.516H206.68L209.89 90.524H213.766Z" fill="white"/>
</g>
<defs>
<filter id="filter0_b_3213_600" x="-63" y="72" width="495" height="345" filterUnits="userSpaceOnUse" color-interpolation-filters="sRGB">
<feFlood flood-opacity="0" result="BackgroundImageFix"/>
<feGaussianBlur in="BackgroundImageFix" stdDeviation="40"/>
<feComposite in2="SourceAlpha" operator="in" result="effect1_backgroundBlur_3213_600"/>
<feBlend mode="normal" in="SourceGraphic" in2="effect1_backgroundBlur_3213_600" result="shape"/>
</filter>
<filter id="filter1_b_3213_600" x="-108" y="27" width="495" height="345" filterUnits="userSpaceOnUse" color-interpolation-filters="sRGB">
<feFlood flood-opacity="0" result="BackgroundImageFix"/>
<feGaussianBlur in="BackgroundImageFix" stdDeviation="40"/>
<feComposite in2="SourceAlpha" operator="in" result="effect1_backgroundBlur_3213_600"/>
<feBlend mode="normal" in="SourceGraphic" in2="effect1_backgroundBlur_3213_600" result="shape"/>
</filter>
<filter id="filter2_b_3213_600" x="-153" y="-18" width="495" height="345" filterUnits="userSpaceOnUse" color-interpolation-filters="sRGB">
<feFlood flood-opacity="0" result="BackgroundImageFix"/>
<feGaussianBlur in="BackgroundImageFix" stdDeviation="40"/>
<feComposite in2="SourceAlpha" operator="in" result="effect1_backgroundBlur_3213_600"/>
<feBlend mode="normal" in="SourceGraphic" in2="effect1_backgroundBlur_3213_600" result="shape"/>
</filter>
<linearGradient id="paint0_linear_3213_600" x1="-31" y1="132" x2="399" y2="357.5" gradientUnits="userSpaceOnUse">
<stop offset="0.122247" stop-color="#064A7D"/>
<stop offset="0.878935" stop-color="#642401"/>
</linearGradient>
<linearGradient id="paint1_linear_3213_600" x1="-114.5" y1="70" x2="552.5" y2="421.5" gradientUnits="userSpaceOnUse">
<stop stop-color="#A5DB92"/>
<stop offset="1" stop-color="#007C05"/>
</linearGradient>
<linearGradient id="paint2_linear_3213_600" x1="-121" y1="42" x2="309" y2="267.5" gradientUnits="userSpaceOnUse">
<stop offset="0.122247" stop-color="#52B6FE"/>
<stop offset="0.878935" stop-color="#6154FE"/>
</linearGradient>
<clipPath id="clip0_3213_600">
<rect width="384" height="384" rx="12" fill="white"/>
</clipPath>
<clipPath id="clip1_3213_600">
<rect width="63" height="63" fill="white" transform="translate(220 114)"/>
</clipPath>
</defs>
</svg>
