<svg width="119" height="119" viewBox="0 0 119 119" fill="none" xmlns="http://www.w3.org/2000/svg">
<path d="M41.923 43C46.9841 43 51.127 46.9319 51.4634 51.9078L51.4855 52.5625V101.438C51.4855 106.499 47.5535 110.641 42.5777 110.978L41.923 111H18.5626C13.5015 111 9.35863 107.068 9.02218 102.092L9.00012 101.438V52.5625C9.00012 47.5013 12.9321 43.3585 17.9079 43.0221L18.5626 43H41.923ZM33.4376 91.875H27.0577L26.6251 91.9041C25.0693 92.1152 23.8702 93.4488 23.8702 95.0625C23.8702 96.6762 25.0693 98.0098 26.6251 98.2209L27.0577 98.25H33.4376L33.8701 98.2209C35.4259 98.0098 36.6251 96.6762 36.6251 95.0625C36.6251 93.4488 35.4259 92.1152 33.8701 91.9041L33.4376 91.875ZM101.449 9C106.51 9 110.653 12.9319 110.989 17.9078L111.011 18.5625V66.375C111.011 71.4362 107.079 75.579 102.103 75.9154L101.449 75.9375H81.2416V87.625H86.5626C88.323 87.625 89.7501 89.0521 89.7501 90.8125C89.7501 92.4262 88.551 93.7598 86.9951 93.9709L86.5626 94H55.7501V87.625H74.8666V75.9375H55.7501V49.375C55.7501 43.7417 51.3661 39.1323 45.8237 38.7726L45.1251 38.75H21.7501V18.5625C21.7501 13.5013 25.6821 9.35851 30.6579 9.02206L31.3126 9H101.449Z" fill="#466146"/>
</svg>
