<svg width="32" height="32" viewBox="0 0 32 32" fill="none" xmlns="http://www.w3.org/2000/svg">
<circle cx="16" cy="16" r="16" fill="#F5C324"/>
<path d="M23.6934 21.7559L22.9082 16.9121C22.8965 16.8359 22.8301 16.7812 22.7539 16.7812H17.6445C17.5684 16.7812 17.502 16.8359 17.4902 16.9121L16.7051 21.7559C16.7031 21.7637 16.7031 21.7734 16.7031 21.7812C16.7031 21.8672 16.7734 21.9375 16.8594 21.9375H23.5391C23.5469 21.9375 23.5566 21.9375 23.5645 21.9355C23.6484 21.9219 23.707 21.8418 23.6934 21.7559ZM14.5098 16.9121C14.498 16.8359 14.4316 16.7812 14.3555 16.7812H9.24609C9.16992 16.7812 9.10352 16.8359 9.0918 16.9121L8.30664 21.7559C8.30469 21.7637 8.30469 21.7734 8.30469 21.7812C8.30469 21.8672 8.375 21.9375 8.46094 21.9375H15.1406C15.1484 21.9375 15.1582 21.9375 15.166 21.9355C15.252 21.9219 15.3086 21.8418 15.2949 21.7559L14.5098 16.9121ZM12.6797 15.2188H19.3594C19.3672 15.2188 19.377 15.2188 19.3848 15.2168C19.4707 15.2031 19.5273 15.123 19.5137 15.0371L18.7285 10.1934C18.7168 10.1172 18.6504 10.0625 18.5742 10.0625H13.4648C13.3887 10.0625 13.3223 10.1172 13.3105 10.1934L12.5254 15.0371C12.5234 15.0449 12.5234 15.0547 12.5234 15.0625C12.5234 15.1484 12.5938 15.2188 12.6797 15.2188Z" fill="white"/>
</svg>
