<svg width="144" height="150" viewBox="0 0 144 150" fill="none" xmlns="http://www.w3.org/2000/svg">
<path d="M75.1144 17.7695C72.8184 17.1295 70.5184 16.4975 68.1984 15.9455C60.8624 14.1975 53.2584 13.7895 45.7184 14.1815C29.7744 15.0135 22.8184 23.3415 28.3264 31.1095C33.8344 38.8775 40.7904 46.9295 33.2544 54.4255C25.7184 61.9215 -2.68958 68.5775 0.206424 81.8975C3.10242 95.2175 28.6064 97.1615 26.6064 105.765C24.6064 114.369 11.5504 116.869 17.9104 128.525C24.2704 140.181 47.7664 129.913 55.3024 136.018C62.8384 142.122 66.9024 147.117 79.3624 149.061C91.8224 151.005 100.814 135.741 114.162 129.913C127.51 124.085 141.122 122.142 143.73 108.541C146.338 94.9415 121.41 86.0615 122.57 72.1855C123.15 65.2495 127.894 59.8375 131.594 54.2935C137.842 44.9215 142.994 28.0375 129.194 22.5135C123.194 20.1135 116.306 20.7615 109.994 20.9135C103.426 21.0535 96.6144 21.7895 90.0664 21.0695C84.9464 20.4935 80.0304 19.1295 75.1144 17.7695Z" fill="#D9DBE9"/>
<path opacity="0.7" d="M75.1144 17.7695C72.8184 17.1295 70.5184 16.4975 68.1984 15.9455C60.8624 14.1975 53.2584 13.7895 45.7184 14.1815C29.7744 15.0135 22.8184 23.3415 28.3264 31.1095C33.8344 38.8775 40.7904 46.9295 33.2544 54.4255C25.7184 61.9215 -2.68958 68.5775 0.206424 81.8975C3.10242 95.2175 28.6064 97.1615 26.6064 105.765C24.6064 114.369 11.5504 116.869 17.9104 128.525C24.2704 140.181 47.7664 129.913 55.3024 136.018C62.8384 142.122 66.9024 147.117 79.3624 149.061C91.8224 151.005 100.814 135.741 114.162 129.913C127.51 124.085 141.122 122.142 143.73 108.541C146.338 94.9415 121.41 86.0615 122.57 72.1855C123.15 65.2495 127.894 59.8375 131.594 54.2935C137.842 44.9215 142.994 28.0375 129.194 22.5135C123.194 20.1135 116.306 20.7615 109.994 20.9135C103.426 21.0535 96.6144 21.7895 90.0664 21.0695C84.9464 20.4935 80.0304 19.1295 75.1144 17.7695Z" fill="white"/>
<path d="M131.994 101.153C130.198 101.159 128.476 101.875 127.206 103.145C125.936 104.415 125.22 106.137 125.214 107.933C125.214 111.677 131.994 118.733 131.994 118.733C131.994 118.733 138.774 111.661 138.774 107.933C138.769 106.137 138.053 104.415 136.783 103.145C135.512 101.875 133.791 101.159 131.994 101.153ZM131.994 110.353C131.429 110.354 130.876 110.187 130.405 109.874C129.934 109.56 129.567 109.114 129.35 108.592C129.132 108.069 129.075 107.494 129.185 106.939C129.294 106.385 129.566 105.875 129.965 105.474C130.365 105.073 130.874 104.8 131.428 104.689C131.983 104.578 132.558 104.634 133.081 104.85C133.604 105.065 134.051 105.431 134.366 105.901C134.681 106.371 134.85 106.924 134.85 107.489C134.851 107.865 134.777 108.237 134.634 108.584C134.491 108.931 134.281 109.247 134.016 109.513C133.75 109.779 133.435 109.99 133.089 110.134C132.742 110.278 132.37 110.353 131.994 110.353Z" fill="#14142B"/>
<path d="M131.994 118.949C131.967 118.95 131.941 118.945 131.916 118.935C131.891 118.924 131.869 118.909 131.85 118.889C131.57 118.597 125.014 111.713 125.014 107.933C125.014 106.082 125.75 104.307 127.059 102.998C128.368 101.689 130.143 100.953 131.994 100.953C133.845 100.953 135.621 101.689 136.93 102.998C138.239 104.307 138.974 106.082 138.974 107.933C138.974 111.713 132.418 118.597 132.138 118.889C132.12 118.909 132.097 118.924 132.073 118.934C132.048 118.945 132.021 118.95 131.994 118.949ZM131.994 101.349C130.25 101.352 128.577 102.046 127.344 103.279C126.11 104.513 125.416 106.185 125.414 107.929C125.414 111.249 131.014 117.405 131.994 118.453C132.97 117.405 138.574 111.253 138.574 107.929C138.572 106.185 137.878 104.513 136.644 103.28C135.411 102.048 133.738 101.355 131.994 101.353V101.349ZM131.994 110.549C131.389 110.55 130.797 110.372 130.294 110.036C129.79 109.7 129.397 109.223 129.165 108.664C128.932 108.105 128.871 107.49 128.988 106.896C129.106 106.303 129.396 105.757 129.824 105.329C130.251 104.9 130.796 104.608 131.389 104.489C131.983 104.37 132.598 104.43 133.158 104.661C133.717 104.892 134.195 105.283 134.532 105.786C134.869 106.289 135.049 106.88 135.05 107.485C135.051 107.888 134.973 108.286 134.82 108.658C134.667 109.03 134.442 109.368 134.158 109.653C133.874 109.938 133.537 110.164 133.166 110.319C132.795 110.473 132.396 110.553 131.994 110.553V110.549ZM131.994 104.833C131.468 104.833 130.954 104.988 130.516 105.28C130.078 105.571 129.736 105.986 129.534 106.472C129.332 106.958 129.279 107.492 129.381 108.009C129.482 108.525 129.735 108.999 130.107 109.372C130.478 109.744 130.952 109.998 131.467 110.102C131.983 110.205 132.518 110.153 133.005 109.953C133.491 109.752 133.907 109.412 134.2 108.975C134.493 108.538 134.649 108.024 134.65 107.497C134.647 106.795 134.366 106.122 133.868 105.626C133.371 105.13 132.697 104.851 131.994 104.849V104.833Z" fill="#14142B"/>
<path d="M48.0664 10.2335C44.9424 8.5855 40.7984 8.2695 36.9904 9.3935C33.1824 10.5175 29.7903 13.0735 28.0863 16.1935C27.9862 16.3727 27.942 16.5779 27.9594 16.7825C27.9769 16.9871 28.0552 17.1818 28.1843 17.3414C28.3134 17.5011 28.4874 17.6185 28.6838 17.6784C28.8803 17.7382 29.0901 17.738 29.2863 17.6775C29.4154 17.6401 29.5356 17.5774 29.64 17.4929C29.7444 17.4084 29.8309 17.3039 29.8944 17.1855C31.3584 14.5295 34.2304 12.3535 37.5784 11.3695C40.9264 10.3855 44.4504 10.6495 47.1144 12.0535C47.3557 12.1808 47.6377 12.207 47.8984 12.1264C48.1591 12.0457 48.3771 11.8648 48.5044 11.6235C48.6317 11.3822 48.6579 11.1001 48.5772 10.8394C48.4966 10.5788 48.3157 10.3608 48.0744 10.2335H48.0664Z" fill="#14142B"/>
<path d="M46.2103 13.8855C43.6526 12.8368 40.8132 12.6942 38.1633 13.4815C35.5135 14.2687 33.2125 15.9384 31.6423 18.2135C31.5258 18.3896 31.4663 18.5974 31.4721 18.8085C31.4778 19.0195 31.5484 19.2238 31.6742 19.3933C31.8001 19.5629 31.9751 19.6896 32.1755 19.7562C32.3759 19.8228 32.5919 19.826 32.7943 19.7655C33.0255 19.7047 33.2271 19.5627 33.3623 19.3655C34.6668 17.4966 36.5669 16.1256 38.7518 15.4767C40.9367 14.8278 43.2771 14.9395 45.3903 15.7935C45.5142 15.8473 45.6476 15.8762 45.7827 15.8785C45.9179 15.8808 46.0521 15.8565 46.1779 15.8069C46.3036 15.7573 46.4183 15.6835 46.5155 15.5895C46.6127 15.4956 46.6904 15.3835 46.7443 15.2595C46.7981 15.1355 46.827 15.0022 46.8293 14.867C46.8316 14.7319 46.8073 14.5976 46.7577 14.4719C46.7081 14.3462 46.6342 14.2314 46.5403 14.1343C46.4464 14.0371 46.3342 13.9593 46.2103 13.9055V13.8855Z" fill="#14142B"/>
<path d="M44.3263 17.5095C42.7029 16.8284 40.8916 16.7401 39.2096 17.26C37.5276 17.78 36.0821 18.875 35.1263 20.3535C34.9753 20.5807 34.9203 20.8585 34.9736 21.1261C35.0268 21.3937 35.1838 21.6294 35.4103 21.7815C35.6365 21.931 35.9121 21.9867 36.1786 21.9367C36.4451 21.8866 36.6817 21.7349 36.8383 21.5135C37.5287 20.427 38.5817 19.6202 39.8105 19.2365C41.0393 18.8528 42.3643 18.9169 43.5503 19.4175C43.8033 19.5199 44.0866 19.5175 44.3379 19.411C44.5892 19.3045 44.7879 19.1025 44.8903 18.8495C44.9927 18.5965 44.9904 18.3132 44.8838 18.0619C44.7773 17.8106 44.5753 17.6119 44.3223 17.5095H44.3263Z" fill="#14142B"/>
<path d="M40.3264 20.7135C39.857 20.8497 39.4385 21.1221 39.1238 21.4961C38.8092 21.8701 38.6125 22.3291 38.5585 22.8149C38.5046 23.3007 38.5959 23.7915 38.8209 24.2254C39.0459 24.6593 39.3945 25.0168 39.8226 25.2527C40.2507 25.4885 40.7392 25.5922 41.2262 25.5505C41.7132 25.5088 42.1769 25.3237 42.5587 25.0186C42.9405 24.7135 43.2233 24.302 43.3714 23.8362C43.5194 23.3703 43.526 22.8711 43.3904 22.4015C43.3002 22.0894 43.1494 21.7981 42.9466 21.5443C42.7437 21.2904 42.4928 21.0791 42.2083 20.9223C41.9237 20.7656 41.611 20.6664 41.2881 20.6306C40.9652 20.5948 40.6384 20.6229 40.3264 20.7135Z" fill="#14142B"/>
<path d="M131.826 32.5975H113.95C113.248 32.5975 112.575 32.8765 112.078 33.3731C111.581 33.8697 111.302 34.5432 111.302 35.2455V44.8015C111.302 45.5038 111.581 46.1773 112.078 46.6739C112.575 47.1705 113.248 47.4495 113.95 47.4495H114.506C113.95 48.6815 112.882 50.5575 111.166 51.6735C111.166 51.6735 114.79 51.4215 118.566 47.4495H131.818C132.521 47.4495 133.194 47.1705 133.691 46.6739C134.187 46.1773 134.466 45.5038 134.466 44.8015V35.2455C134.466 34.5446 134.188 33.8723 133.694 33.3759C133.199 32.8795 132.527 32.5996 131.826 32.5975Z" fill="#14142B"/>
<path d="M111.174 51.8735C111.132 51.874 111.091 51.8611 111.056 51.8367C111.022 51.8123 110.996 51.7775 110.982 51.7375C110.969 51.6954 110.969 51.65 110.984 51.6081C110.998 51.5663 111.026 51.5302 111.062 51.5055C112.59 50.5135 113.598 48.9135 114.198 47.6495H113.95C113.197 47.6463 112.475 47.345 111.943 46.8113C111.411 46.2777 111.111 45.5551 111.11 44.8015V35.2455C111.111 34.4922 111.411 33.7701 111.943 33.2371C112.475 32.704 113.197 32.4036 113.95 32.4015H131.818C132.192 32.4015 132.563 32.4752 132.908 32.6183C133.254 32.7614 133.568 32.9712 133.832 33.2357C134.097 33.5001 134.306 33.8141 134.45 34.1596C134.593 34.5051 134.666 34.8755 134.666 35.2495V44.8015C134.666 45.5568 134.366 46.2812 133.832 46.8153C133.298 47.3494 132.574 47.6495 131.818 47.6495H118.662C114.894 51.5735 111.338 51.8615 111.186 51.8735H111.174ZM113.95 32.8015C113.301 32.8015 112.678 33.0594 112.219 33.5185C111.76 33.9776 111.502 34.6002 111.502 35.2495V44.8015C111.502 45.4507 111.76 46.0734 112.219 46.5325C112.678 46.9916 113.301 47.2495 113.95 47.2495H114.506C114.54 47.2486 114.574 47.2566 114.604 47.2725C114.633 47.2885 114.659 47.3119 114.677 47.3405C114.695 47.3691 114.705 47.4019 114.707 47.4357C114.709 47.4696 114.702 47.5032 114.686 47.5335C114.069 48.9788 113.144 50.2717 111.974 51.3215C113.242 51.0055 115.806 50.0655 118.422 47.3215C118.44 47.3012 118.463 47.2851 118.487 47.274C118.512 47.263 118.539 47.2574 118.566 47.2575H131.818C132.468 47.2575 133.09 46.9996 133.549 46.5405C134.008 46.0814 134.266 45.4587 134.266 44.8095V35.2455C134.266 34.5962 134.008 33.9736 133.549 33.5145C133.09 33.0554 132.468 32.7975 131.818 32.7975L113.95 32.8015Z" fill="#14142B"/>
<path d="M119.818 39.6815C119.818 39.4117 119.738 39.148 119.588 38.9237C119.439 38.6994 119.226 38.5246 118.976 38.4213C118.727 38.3181 118.453 38.2911 118.188 38.3437C117.924 38.3963 117.681 38.5263 117.49 38.717C117.299 38.9078 117.169 39.1508 117.117 39.4154C117.064 39.68 117.091 39.9542 117.194 40.2035C117.297 40.4527 117.472 40.6657 117.697 40.8156C117.921 40.9655 118.185 41.0455 118.454 41.0455C118.633 41.0455 118.81 41.0103 118.975 40.942C119.14 40.8736 119.29 40.7735 119.416 40.6472C119.542 40.5209 119.642 40.371 119.711 40.206C119.779 40.0409 119.814 39.8641 119.814 39.6855L119.818 39.6815Z" fill="white"/>
<path d="M123.09 41.0455C123.844 41.0455 124.454 40.4348 124.454 39.6815C124.454 38.9282 123.844 38.3175 123.09 38.3175C122.337 38.3175 121.726 38.9282 121.726 39.6815C121.726 40.4348 122.337 41.0455 123.09 41.0455Z" fill="white"/>
<path d="M129.086 39.6815C129.086 39.4117 129.006 39.148 128.856 38.9237C128.707 38.6994 128.494 38.5246 128.244 38.4213C127.995 38.3181 127.721 38.2911 127.456 38.3437C127.192 38.3963 126.949 38.5263 126.758 38.717C126.567 38.9078 126.437 39.1508 126.384 39.4154C126.332 39.68 126.359 39.9542 126.462 40.2035C126.565 40.4527 126.74 40.6657 126.964 40.8156C127.189 40.9655 127.453 41.0455 127.722 41.0455C128.084 41.0455 128.431 40.9018 128.687 40.646C128.943 40.3902 129.086 40.0433 129.086 39.6815Z" fill="white"/>
<path d="M8.85013 91.6198C12.7349 91.2375 15.5743 87.7783 15.192 83.8936C14.8097 80.0088 11.3506 77.1694 7.46579 77.5517C3.581 77.934 0.741658 81.3931 1.12393 85.2779C1.50621 89.1627 4.96534 92.002 8.85013 91.6198Z" fill="#14142B"/>
<path d="M8.16632 91.8495C6.72884 91.8495 5.32365 91.4232 4.12843 90.6246C2.93322 89.826 2.00166 88.6909 1.45156 87.3628C0.901463 86.0348 0.757534 84.5734 1.03797 83.1636C1.31841 81.7537 2.01062 80.4587 3.02707 79.4422C4.04352 78.4258 5.33855 77.7336 6.7484 77.4531C8.15826 77.1727 9.61961 77.3166 10.9477 77.8667C12.2757 78.4168 13.4108 79.3484 14.2094 80.5436C15.0081 81.7388 15.4343 83.144 15.4343 84.5815C15.4348 85.5361 15.2472 86.4814 14.8821 87.3635C14.5171 88.2455 13.9817 89.0469 13.3067 89.7219C12.6317 90.3969 11.8303 90.9323 10.9483 91.2973C10.0663 91.6624 9.12091 91.85 8.16632 91.8495ZM8.16632 77.7135C6.80796 77.7135 5.4801 78.1163 4.35066 78.871C3.22123 79.6256 2.34094 80.6983 1.82111 81.9532C1.30129 83.2082 1.16528 84.5891 1.43028 85.9214C1.69529 87.2536 2.3494 88.4774 3.30991 89.4379C4.27042 90.3984 5.49418 91.0525 6.82644 91.3175C8.1587 91.5825 9.53963 91.4465 10.7946 90.9267C12.0496 90.4069 13.1222 89.5266 13.8769 88.3972C14.6315 87.2677 15.0343 85.9399 15.0343 84.5815C15.0343 82.76 14.3107 81.0131 13.0227 79.7251C11.7347 78.4371 9.98783 77.7135 8.16632 77.7135Z" fill="#14142B"/>
<path d="M4.97827 80.1775L12.6023 84.5815L4.97827 88.9855V80.1775Z" fill="white"/>
<path d="M4.97835 89.2015C4.94293 89.2027 4.908 89.1929 4.87835 89.1735C4.84756 89.1567 4.82196 89.1318 4.80433 89.1015C4.7867 89.0711 4.77772 89.0366 4.77835 89.0015V80.2015C4.77772 80.1664 4.7867 80.1319 4.80433 80.1015C4.82196 80.0712 4.84756 80.0463 4.87835 80.0295C4.90876 80.012 4.94324 80.0027 4.97835 80.0027C5.01346 80.0027 5.04795 80.012 5.07835 80.0295L12.7023 84.4295C12.7478 84.4541 12.7817 84.4956 12.7967 84.5451C12.8116 84.5945 12.8065 84.6478 12.7824 84.6935C12.7643 84.7276 12.7364 84.7555 12.7023 84.7735L5.07835 89.1735C5.04849 89.1925 5.01371 89.2022 4.97835 89.2015ZM5.17835 80.5415V88.6535L12.2023 84.5975L5.17835 80.5415Z" fill="#14142B"/>
<path d="M25.0144 138.133C23.7742 138.157 22.5525 137.83 21.4904 137.189C16.4344 134.157 13.4544 129.653 12.1944 123.957C11.8821 122.791 11.8465 121.568 12.0904 120.385C12.2898 119.41 12.7635 118.512 13.4558 117.796C14.148 117.08 15.0301 116.577 15.9984 116.345C16.3556 116.22 16.7476 116.239 17.091 116.399C17.4345 116.558 17.7026 116.844 17.8384 117.197C18.3096 118.508 18.7102 119.844 19.0384 121.197C19.0946 121.494 19.0455 121.801 18.8994 122.066C18.7534 122.33 18.5195 122.535 18.2384 122.645C17.6469 122.946 17.0393 123.213 16.4184 123.445C16.3394 123.463 16.2646 123.495 16.1983 123.541C16.132 123.587 16.0754 123.646 16.0319 123.714C15.9884 123.782 15.9588 123.858 15.9448 123.938C15.9308 124.017 15.9327 124.099 15.9504 124.177C15.9628 124.241 15.9858 124.302 16.0184 124.357C17.1641 127.571 19.0415 130.474 21.5024 132.837C21.8704 133.193 22.1344 133.133 22.4704 132.765C22.8946 132.281 23.3648 131.839 23.8744 131.445C24.1314 131.225 24.458 131.102 24.7967 131.098C25.1354 131.095 25.4646 131.21 25.7264 131.425C26.6892 132.138 27.6107 132.904 28.4864 133.721C29.4984 134.713 29.4304 135.665 28.4144 136.653C27.5138 137.566 26.296 138.096 25.0144 138.133Z" fill="#14142B"/>
<path d="M25.0143 138.333C23.7473 138.35 22.5008 138.013 21.4143 137.361C16.4943 134.413 13.3343 129.917 12.0223 124.001C11.7001 122.805 11.6645 121.55 11.9183 120.337C12.1234 119.329 12.6116 118.4 13.3257 117.659C14.0398 116.918 14.9502 116.396 15.9503 116.153C16.3564 116.013 16.8011 116.037 17.1902 116.219C17.5792 116.401 17.882 116.728 18.0343 117.129C18.5098 118.451 18.9104 119.799 19.2343 121.165C19.3042 121.506 19.2514 121.86 19.0852 122.165C18.9191 122.471 18.6502 122.707 18.3263 122.833C17.7423 123.129 17.1263 123.405 16.4943 123.653C16.1423 123.789 16.0703 123.949 16.2023 124.309C17.3427 127.491 19.2032 130.366 21.6383 132.709C21.7206 132.805 21.8339 132.869 21.9583 132.889C22.0543 132.889 22.1703 132.809 22.3183 132.645C22.7509 132.152 23.2305 131.702 23.7503 131.301C24.0417 131.053 24.4114 130.914 24.7946 130.911C25.1779 130.907 25.5502 131.038 25.8463 131.281L26.2063 131.565C27.0467 132.192 27.8482 132.869 28.6063 133.593C28.8394 133.786 29.0306 134.024 29.1682 134.293C29.3058 134.562 29.3868 134.856 29.4063 135.157C29.3824 135.475 29.2942 135.785 29.1471 136.067C28.9999 136.35 28.7969 136.6 28.5503 136.801C27.6098 137.739 26.346 138.282 25.0183 138.317L25.0143 138.333ZM16.4903 116.477C16.3416 116.477 16.1936 116.498 16.0503 116.537C15.117 116.762 14.2669 117.247 13.5996 117.937C12.9323 118.627 12.4753 119.493 12.2823 120.433C12.0472 121.586 12.0828 122.777 12.3863 123.913C13.6743 129.717 16.7863 134.129 21.5863 137.017C22.6149 137.641 23.7998 137.959 25.0023 137.933C26.229 137.902 27.3963 137.399 28.2623 136.529C28.4693 136.362 28.6406 136.154 28.7663 135.919C28.892 135.684 28.9695 135.427 28.9943 135.161C28.9762 134.914 28.908 134.673 28.7938 134.453C28.6797 134.233 28.522 134.039 28.3303 133.881C27.5768 133.169 26.7821 132.501 25.9503 131.881L25.5903 131.597C25.3634 131.413 25.0785 131.314 24.7859 131.318C24.4933 131.322 24.2115 131.43 23.9903 131.621C23.4901 132.007 23.0292 132.441 22.6143 132.917C22.5394 133.021 22.4437 133.107 22.3335 133.171C22.2233 133.235 22.101 133.275 21.9743 133.289C21.8564 133.289 21.7401 133.263 21.6336 133.212C21.5271 133.162 21.4331 133.089 21.3583 132.997C18.8793 130.61 16.986 127.682 15.8263 124.441C15.7754 124.349 15.7433 124.248 15.7317 124.143C15.72 124.039 15.7291 123.933 15.7585 123.832C15.7879 123.731 15.8369 123.637 15.9027 123.554C15.9686 123.472 16.05 123.404 16.1423 123.353C16.2069 123.32 16.2754 123.294 16.3463 123.277C16.9663 123.033 17.5743 122.765 18.1463 122.477C18.3885 122.39 18.5918 122.219 18.7199 121.996C18.8481 121.772 18.8929 121.511 18.8463 121.257C18.5187 119.903 18.1181 118.568 17.6463 117.257C17.5589 117.023 17.4005 116.822 17.1932 116.682C16.986 116.542 16.7402 116.471 16.4903 116.477Z" fill="#14142B"/>
<path d="M32.1103 126.429C32.0263 127.065 31.9783 127.709 31.8503 128.341C31.8379 128.464 31.8013 128.583 31.7429 128.691C31.6844 128.799 31.6052 128.895 31.5097 128.973C31.4142 129.05 31.3044 129.108 31.1864 129.144C31.0685 129.179 30.9448 129.19 30.8223 129.177C30.7643 129.169 30.7068 129.157 30.6503 129.141C30.1263 129.017 29.8503 128.525 29.9703 127.877C30.3418 125.889 29.9424 123.833 28.8533 122.128C27.7642 120.423 26.067 119.197 24.1063 118.697C23.926 118.661 23.7493 118.609 23.5783 118.541C23.3688 118.461 23.1958 118.307 23.0919 118.108C22.9881 117.909 22.9605 117.679 23.0143 117.461C23.0263 117.348 23.0604 117.239 23.1148 117.139C23.1691 117.039 23.2426 116.951 23.331 116.88C23.4195 116.809 23.5211 116.755 23.6301 116.723C23.7391 116.691 23.8534 116.681 23.9663 116.693H24.0623C24.9425 116.885 25.7994 117.17 26.6183 117.545C28.2636 118.376 29.6472 119.646 30.6163 121.213C31.5855 122.781 32.1025 124.586 32.1103 126.429Z" fill="#14142B"/>
<path d="M30.9264 129.385C30.8133 129.384 30.7006 129.371 30.5904 129.345C29.9624 129.193 29.6263 128.593 29.7624 127.849C30.1252 125.91 29.7363 123.906 28.6746 122.243C27.6129 120.58 25.9581 119.384 24.0464 118.897L23.9063 118.865C23.7585 118.838 23.6147 118.793 23.4784 118.729C23.2285 118.63 23.023 118.444 22.8995 118.205C22.7761 117.966 22.743 117.691 22.8063 117.429C22.8323 117.269 22.8907 117.115 22.978 116.977C23.0654 116.84 23.1798 116.721 23.3144 116.629C23.4317 116.554 23.5636 116.505 23.7015 116.484C23.8394 116.463 23.9801 116.472 24.1144 116.509C25.0078 116.705 25.878 116.994 26.7103 117.373C28.388 118.215 29.7996 119.504 30.7882 121.1C31.7768 122.695 32.3037 124.533 32.3103 126.409V126.437C32.2863 126.633 32.2623 126.837 32.2423 127.021C32.1943 127.461 32.1424 127.917 32.0504 128.365C32.0273 128.531 31.9712 128.691 31.8853 128.834C31.7994 128.978 31.6855 129.103 31.5504 129.201C31.3661 129.325 31.1483 129.389 30.9264 129.385ZM23.8423 116.893C23.732 116.892 23.6236 116.922 23.5303 116.981C23.4425 117.043 23.3678 117.121 23.3108 117.212C23.2537 117.303 23.2155 117.404 23.1983 117.509C23.1537 117.684 23.1756 117.87 23.2599 118.029C23.3442 118.189 23.4847 118.312 23.6543 118.373C23.7631 118.421 23.8773 118.454 23.9943 118.473L24.1464 118.509C26.1534 119.025 27.8896 120.284 29.0036 122.032C30.1175 123.779 30.526 125.884 30.1464 127.921C30.0464 128.457 30.2504 128.853 30.6704 128.953C30.7744 128.985 30.8838 128.995 30.9918 128.982C31.0997 128.97 31.2041 128.936 31.2983 128.881C31.3913 128.812 31.4696 128.726 31.5287 128.626C31.5877 128.527 31.6264 128.416 31.6423 128.301C31.7303 127.873 31.7783 127.425 31.8303 126.989C31.8503 126.801 31.8703 126.589 31.8983 126.417C31.8882 124.615 31.3786 122.851 30.426 121.32C29.4734 119.79 28.1152 118.554 26.5024 117.749C25.6974 117.382 24.8552 117.101 23.9904 116.913C23.9412 116.908 23.8915 116.908 23.8423 116.913V116.893Z" fill="#14142B"/>
<path d="M28.7943 126.925C28.7623 127.165 28.7303 127.629 28.6383 128.077C28.623 128.203 28.5829 128.325 28.5205 128.435C28.458 128.545 28.3743 128.642 28.2743 128.719C28.1743 128.797 28.0599 128.854 27.9377 128.888C27.8155 128.921 27.6879 128.93 27.5623 128.913H27.5263C27.3945 128.888 27.269 128.837 27.1572 128.763C27.0454 128.688 26.9495 128.593 26.875 128.481C26.8006 128.369 26.7491 128.244 26.7235 128.112C26.698 127.98 26.6989 127.845 26.7263 127.713C26.8061 127.132 26.8182 126.542 26.7623 125.957C26.3863 123.745 25.0783 122.333 22.9143 121.717C22.2103 121.517 21.8503 121.073 21.9783 120.517C22.1063 119.961 22.6423 119.657 23.3743 119.813C26.4583 120.493 28.8023 123.465 28.7943 126.925Z" fill="#14142B"/>
<path d="M27.6983 129.121H27.4943C27.3388 129.095 27.1899 129.039 27.0563 128.955C26.9226 128.871 26.8068 128.762 26.7154 128.633C26.624 128.505 26.5589 128.36 26.5237 128.206C26.4885 128.052 26.4839 127.893 26.5103 127.737C26.5103 127.613 26.5303 127.485 26.5423 127.357C26.5983 126.917 26.5983 126.47 26.5423 126.029C26.1823 123.917 24.9423 122.541 22.8383 121.945C22.0383 121.717 21.6103 121.165 21.7623 120.509C21.9143 119.853 22.5623 119.469 23.3903 119.657C26.6383 120.365 28.9903 123.433 28.9903 126.961V126.985C28.9932 127.062 28.9838 127.139 28.9623 127.213C28.9383 127.465 28.8983 127.809 28.8303 128.149C28.7846 128.418 28.6464 128.662 28.4397 128.84C28.233 129.017 27.9707 129.117 27.6983 129.121ZM22.9623 119.973C22.7794 119.956 22.5964 120.007 22.4487 120.116C22.301 120.225 22.199 120.385 22.1623 120.565C22.0183 121.193 22.6703 121.449 22.9623 121.529C25.2223 122.169 26.5623 123.649 26.9623 125.929C27.0223 126.405 27.0223 126.886 26.9623 127.361C26.9623 127.485 26.9383 127.609 26.9303 127.733C26.9045 127.839 26.9005 127.949 26.9184 128.056C26.9363 128.163 26.9759 128.265 27.0346 128.356C27.0934 128.448 27.1701 128.526 27.2601 128.587C27.3502 128.647 27.4516 128.689 27.5583 128.709C27.6581 128.725 27.76 128.72 27.8581 128.696C27.9561 128.672 28.0485 128.629 28.1299 128.569C28.2112 128.509 28.28 128.434 28.3322 128.348C28.3845 128.261 28.4192 128.165 28.4343 128.065C28.4343 128.065 28.4343 128.045 28.4343 128.033C28.4983 127.713 28.5343 127.377 28.5623 127.133C28.5572 127.058 28.5654 126.982 28.5863 126.909C28.5863 123.577 26.3703 120.677 23.3103 120.009C23.1959 119.985 23.0792 119.973 22.9623 119.973Z" fill="#14142B"/>
<path d="M23.5063 127.258C23.5743 126.711 23.438 126.158 23.1236 125.705C22.8091 125.253 22.3386 124.932 21.8023 124.805C21.1223 124.597 20.8063 124.117 20.9663 123.541C21.1263 122.965 21.6543 122.741 22.3543 122.921C23.3602 123.191 24.2305 123.824 24.7971 124.698C25.3637 125.572 25.5864 126.625 25.4223 127.654C25.2983 128.358 24.9303 128.682 24.3263 128.618C23.7223 128.554 23.4463 128.142 23.4903 127.418C23.4943 127.366 23.5023 127.31 23.5063 127.258Z" fill="#14142B"/>
<path d="M24.4663 128.825H24.3063C23.6063 128.753 23.2383 128.241 23.2943 127.417V127.249C23.3578 126.748 23.233 126.241 22.9441 125.827C22.6551 125.412 22.2226 125.119 21.7303 125.005C20.9303 124.761 20.5703 124.181 20.7583 123.493C20.9463 122.805 21.5863 122.529 22.3903 122.733C23.4435 123.019 24.3543 123.683 24.9485 124.598C25.5426 125.513 25.7783 126.615 25.6103 127.693C25.4903 128.425 25.0823 128.825 24.4663 128.825ZM21.9143 123.061C21.7433 123.045 21.5721 123.09 21.4319 123.189C21.2916 123.289 21.1917 123.435 21.1503 123.601C21.0183 124.073 21.2743 124.445 21.8543 124.625C22.4325 124.766 22.9393 125.113 23.279 125.602C23.6187 126.09 23.7679 126.686 23.6983 127.277V127.437C23.6383 128.349 24.1783 128.405 24.3543 128.425C24.6663 128.457 25.0983 128.425 25.2343 127.625C25.3925 126.646 25.1808 125.642 24.6404 124.81C24.1 123.978 23.2695 123.376 22.3103 123.121C22.1812 123.085 22.0482 123.065 21.9143 123.061Z" fill="#14142B"/>
<path d="M17.8983 122.853C17.8572 122.853 17.8171 122.841 17.7835 122.817C17.7498 122.794 17.7243 122.76 17.7103 122.721L17.4783 122.069C17.4567 122.021 17.455 121.966 17.4738 121.917C17.4925 121.867 17.5301 121.827 17.5783 121.805C17.6021 121.794 17.628 121.788 17.6543 121.787C17.6807 121.786 17.7069 121.79 17.7316 121.799C17.7562 121.809 17.7787 121.823 17.7978 121.841C17.8168 121.859 17.8319 121.881 17.8423 121.905V121.937L18.0743 122.585C18.091 122.636 18.0874 122.691 18.0643 122.739C18.0411 122.786 18.0002 122.823 17.9503 122.841C17.9337 122.848 17.9161 122.852 17.8983 122.853Z" fill="white"/>
<path d="M17.4144 121.485C17.373 121.487 17.3323 121.474 17.2984 121.451C17.2646 121.427 17.2393 121.393 17.2264 121.353L15.6264 116.841C15.6177 116.815 15.6143 116.788 15.6165 116.76C15.6186 116.732 15.6263 116.706 15.6389 116.681C15.6516 116.656 15.669 116.635 15.6902 116.617C15.7114 116.599 15.7359 116.586 15.7624 116.577C15.7883 116.568 15.8159 116.564 15.8435 116.566C15.871 116.567 15.8979 116.575 15.9226 116.587C15.9473 116.599 15.9692 116.617 15.987 116.638C16.0049 116.659 16.0182 116.683 16.0264 116.709L17.6264 121.221C17.6444 121.271 17.6418 121.326 17.6193 121.374C17.5968 121.422 17.5562 121.459 17.5064 121.477C17.4765 121.486 17.4453 121.489 17.4144 121.485Z" fill="white"/>
<path d="M28.7184 136.429C28.67 136.43 28.6231 136.413 28.5864 136.381L24.7024 132.989C24.6824 132.972 24.6661 132.951 24.6543 132.927C24.6424 132.904 24.6354 132.878 24.6336 132.852C24.6317 132.825 24.6351 132.799 24.6434 132.774C24.6518 132.749 24.665 132.725 24.6824 132.705C24.6997 132.686 24.7208 132.669 24.7445 132.657C24.7681 132.646 24.7939 132.639 24.8202 132.637C24.8466 132.635 24.8731 132.638 24.8982 132.647C24.9232 132.655 24.9464 132.668 24.9664 132.685L28.8504 136.081C28.8856 136.118 28.9052 136.167 28.9052 136.217C28.9052 136.268 28.8856 136.317 28.8504 136.353C28.8349 136.375 28.8151 136.392 28.7924 136.405C28.7697 136.419 28.7445 136.427 28.7184 136.429Z" fill="white"/>
<path d="M24.4143 132.669C24.3659 132.67 24.319 132.653 24.2823 132.621L23.6423 132.065C23.6235 132.047 23.6087 132.025 23.5985 132C23.5884 131.976 23.5831 131.95 23.5831 131.923C23.5831 131.897 23.5884 131.871 23.5985 131.847C23.6087 131.822 23.6235 131.8 23.6423 131.782C23.6757 131.742 23.7236 131.717 23.7753 131.712C23.8271 131.708 23.8785 131.724 23.9183 131.758L24.5583 132.313C24.5952 132.352 24.6158 132.402 24.6158 132.455C24.6158 132.509 24.5952 132.559 24.5583 132.597C24.5409 132.619 24.5191 132.637 24.4942 132.649C24.4693 132.662 24.4421 132.669 24.4143 132.669Z" fill="white"/>
<path d="M54.2263 146.678H54.7983H55.0263C55.0794 146.678 55.1303 146.656 55.1678 146.619C55.2053 146.581 55.2263 146.531 55.2263 146.477C55.2263 146.424 55.2053 146.374 55.1678 146.336C55.1303 146.299 55.0794 146.277 55.0263 146.277H54.2263C54.1733 146.277 54.1224 146.299 54.0849 146.336C54.0474 146.374 54.0263 146.424 54.0263 146.477C54.0263 146.531 54.0474 146.581 54.0849 146.619C54.1224 146.656 54.1733 146.678 54.2263 146.678Z" fill="#14142B"/>
<path d="M56.0849 146.619C56.1224 146.656 56.1733 146.678 56.2263 146.678H56.2423H57.0423C57.0681 146.676 57.0934 146.67 57.1168 146.66C57.1402 146.649 57.1612 146.633 57.1786 146.614C57.1961 146.596 57.2097 146.573 57.2185 146.549C57.2274 146.525 57.2314 146.499 57.2303 146.473C57.2273 146.421 57.2046 146.372 57.1668 146.335C57.129 146.299 57.0788 146.278 57.0263 146.277H56.2263C56.1733 146.277 56.1224 146.299 56.0849 146.336C56.0474 146.374 56.0263 146.424 56.0263 146.477C56.0263 146.531 56.0474 146.581 56.0849 146.619Z" fill="#14142B"/>
<path d="M52.2263 146.658L53.0263 146.678V146.654C53.0742 146.653 53.1203 146.635 53.1562 146.604C53.1922 146.572 53.2156 146.529 53.2223 146.482C53.2229 146.455 53.2182 146.429 53.2087 146.405C53.1991 146.38 53.1848 146.358 53.1666 146.339C53.1484 146.32 53.1267 146.305 53.1026 146.294C53.0785 146.284 53.0526 146.278 53.0263 146.277L52.2263 146.257C52.1733 146.257 52.1224 146.279 52.0849 146.316C52.0474 146.354 52.0263 146.404 52.0263 146.458C52.0263 146.511 52.0474 146.561 52.0849 146.599C52.1224 146.636 52.1733 146.658 52.2263 146.658Z" fill="#14142B"/>
<path d="M58.0874 146.583C58.1246 146.62 58.1743 146.641 58.2263 146.642H58.2343L59.0343 146.609C59.0606 146.608 59.0864 146.602 59.1103 146.591C59.1342 146.58 59.1556 146.565 59.1735 146.545C59.1913 146.526 59.2052 146.503 59.2142 146.479C59.2233 146.454 59.2274 146.428 59.2263 146.401C59.2223 146.349 59.1986 146.3 59.16 146.265C59.1215 146.229 59.0708 146.209 59.0183 146.209L58.2183 146.241C58.166 146.244 58.1166 146.266 58.0807 146.304C58.0448 146.342 58.0253 146.393 58.0263 146.445C58.0284 146.498 58.0502 146.547 58.0874 146.583Z" fill="#14142B"/>
<path d="M50.2263 146.57L51.0263 146.614L51.0303 146.59C51.0808 146.592 51.1304 146.575 51.169 146.542C51.2075 146.51 51.2323 146.464 51.2383 146.413C51.2394 146.388 51.2354 146.362 51.2265 146.338C51.2177 146.314 51.2041 146.291 51.1866 146.273C51.1692 146.254 51.1482 146.238 51.1248 146.227C51.1014 146.217 51.0761 146.211 51.0503 146.209L50.2503 146.169C50.1973 146.166 50.1452 146.184 50.1054 146.22C50.0657 146.255 50.0415 146.304 50.0383 146.358C50.0352 146.411 50.0532 146.463 50.0884 146.502C50.1237 146.542 50.1733 146.566 50.2263 146.57Z" fill="#14142B"/>
<path d="M60.0849 146.491C60.1224 146.528 60.1733 146.549 60.2263 146.549H60.2583C60.5263 146.537 60.7943 146.521 61.0583 146.501C61.0841 146.499 61.1092 146.492 61.1322 146.481C61.1553 146.469 61.1757 146.453 61.1925 146.433C61.2092 146.413 61.2219 146.39 61.2297 146.366C61.2376 146.341 61.2405 146.315 61.2383 146.289C61.2342 146.237 61.2097 146.188 61.17 146.154C61.1304 146.12 61.0788 146.102 61.0263 146.105L60.2263 146.149C60.1733 146.149 60.1224 146.171 60.0849 146.208C60.0474 146.246 60.0263 146.296 60.0263 146.349C60.0263 146.403 60.0474 146.453 60.0849 146.491Z" fill="#14142B"/>
<path d="M48.2263 146.433L49.0263 146.494L49.0343 146.473C49.0832 146.477 49.1317 146.462 49.1702 146.432C49.2087 146.402 49.2345 146.358 49.2423 146.309C49.2445 146.283 49.2415 146.257 49.2334 146.232C49.2253 146.207 49.2124 146.183 49.1953 146.163C49.1782 146.143 49.1573 146.127 49.1338 146.115C49.1103 146.103 49.0846 146.096 49.0583 146.093L48.2583 146.033C48.2053 146.029 48.1527 146.046 48.1122 146.081C48.0717 146.115 48.0466 146.164 48.0423 146.217C48.0381 146.271 48.0551 146.323 48.0896 146.364C48.1241 146.404 48.1733 146.429 48.2263 146.433Z" fill="#14142B"/>
<path d="M62.0849 146.363C62.1224 146.4 62.1733 146.421 62.2263 146.421H62.2663L63.0663 146.361C63.0921 146.359 63.1172 146.351 63.14 146.339C63.1629 146.327 63.183 146.31 63.1994 146.29C63.2158 146.27 63.228 146.247 63.2354 146.222C63.2427 146.197 63.2451 146.171 63.2423 146.145C63.2403 146.119 63.2331 146.094 63.2212 146.07C63.2092 146.047 63.1927 146.026 63.1726 146.009C63.1525 145.991 63.1293 145.978 63.1042 145.97C63.0791 145.962 63.0526 145.959 63.0263 145.961L62.2263 146.021C62.1733 146.021 62.1224 146.043 62.0849 146.08C62.0474 146.118 62.0263 146.168 62.0263 146.221C62.0263 146.275 62.0474 146.325 62.0849 146.363Z" fill="#14142B"/>
<path d="M46.2503 146.237C46.5143 146.269 46.7823 146.297 47.0503 146.321H47.0743C47.1006 146.323 47.1268 146.318 47.1515 146.309C47.1762 146.3 47.1988 146.286 47.2182 146.269C47.2375 146.251 47.2531 146.229 47.2641 146.205C47.2751 146.182 47.2813 146.156 47.2823 146.129C47.284 146.103 47.2804 146.077 47.2717 146.053C47.2631 146.028 47.2496 146.005 47.2321 145.986C47.2146 145.967 47.1934 145.951 47.1697 145.94C47.1461 145.929 47.1204 145.922 47.0943 145.921L46.2943 145.837C46.2681 145.835 46.2415 145.837 46.2161 145.844C46.1908 145.852 46.1671 145.864 46.1465 145.881C46.1259 145.897 46.1087 145.917 46.096 145.941C46.0833 145.964 46.0752 145.989 46.0723 146.015C46.0695 146.042 46.0718 146.068 46.0791 146.094C46.0865 146.119 46.0988 146.143 46.1154 146.163C46.1319 146.184 46.1523 146.201 46.1755 146.214C46.1986 146.227 46.2241 146.235 46.2503 146.237Z" fill="#14142B"/>
<path d="M64.0786 146.207C64.1158 146.241 64.1643 146.259 64.2143 146.257H64.2383L65.0383 146.181C65.0641 146.179 65.0892 146.171 65.112 146.159C65.1349 146.147 65.155 146.13 65.1714 146.11C65.1878 146.09 65.2 146.067 65.2074 146.042C65.2147 146.017 65.2171 145.991 65.2143 145.965C65.2118 145.939 65.2042 145.914 65.1917 145.89C65.1793 145.867 65.1623 145.846 65.1419 145.83C65.1214 145.813 65.0979 145.8 65.0725 145.793C65.0472 145.785 65.0206 145.783 64.9943 145.785L64.1943 145.857C64.168 145.86 64.1425 145.868 64.1191 145.88C64.0958 145.893 64.0752 145.909 64.0585 145.93C64.0417 145.95 64.0292 145.974 64.0216 145.999C64.0141 146.025 64.0116 146.051 64.0143 146.077C64.0184 146.127 64.0414 146.174 64.0786 146.207Z" fill="#14142B"/>
<path d="M45.0383 146.093H45.0623L45.0543 146.073C45.1042 146.079 45.1541 146.064 45.1931 146.033C45.2321 146.001 45.257 145.955 45.2623 145.905C45.2676 145.856 45.2529 145.806 45.2214 145.767C45.1899 145.728 45.1442 145.703 45.0943 145.697L44.2943 145.589C44.242 145.583 44.189 145.596 44.1464 145.627C44.1039 145.659 44.0752 145.705 44.0663 145.757C44.0614 145.81 44.0764 145.863 44.1082 145.905C44.14 145.947 44.1864 145.976 44.2383 145.985L45.0383 146.093Z" fill="#14142B"/>
<path d="M66.0651 146.01C66.1014 146.043 66.149 146.062 66.1983 146.061H66.2263L67.0263 145.973C67.0526 145.97 67.078 145.962 67.1011 145.949C67.1241 145.936 67.1444 145.919 67.1607 145.898C67.1771 145.877 67.1892 145.853 67.1963 145.828C67.2034 145.802 67.2055 145.776 67.2023 145.749C67.1992 145.723 67.1909 145.698 67.1779 145.675C67.165 145.652 67.1476 145.631 67.1268 145.615C67.106 145.599 67.0822 145.587 67.0567 145.58C67.0312 145.572 67.0046 145.57 66.9783 145.573L66.1783 145.661C66.1259 145.668 66.078 145.694 66.045 145.735C66.0121 145.776 65.9967 145.829 66.0023 145.881C66.0064 145.931 66.0288 145.976 66.0651 146.01Z" fill="#14142B"/>
<path d="M118.93 4.58148L94.0264 7.40948L100.318 12.0975L118.93 4.58148Z" fill="white"/>
<path d="M100.318 12.2975C100.276 12.2978 100.234 12.2853 100.198 12.2615L93.9103 7.56949C93.8778 7.54587 93.8532 7.51302 93.8396 7.4752C93.8261 7.43739 93.8242 7.39637 93.8343 7.35749C93.8442 7.31848 93.8662 7.2836 93.8971 7.25776C93.9279 7.23192 93.9662 7.21643 94.0063 7.21349L118.906 4.41349C118.955 4.40825 119.003 4.42079 119.043 4.44876C119.083 4.47674 119.111 4.51823 119.122 4.56549C119.135 4.61166 119.131 4.6611 119.109 4.70404C119.088 4.74699 119.051 4.78033 119.006 4.79749L100.394 12.3175C100.368 12.3149 100.342 12.3081 100.318 12.2975ZM94.5543 7.55349L100.35 11.8735L117.498 4.94549L94.5543 7.55349Z" fill="#14142B"/>
<path d="M100.318 12.0975L100.27 17.1815L118.93 4.58148L100.318 12.0975Z" fill="white"/>
<path d="M100.27 17.3815C100.238 17.3817 100.206 17.3734 100.178 17.3575C100.146 17.3404 100.119 17.3151 100.1 17.2842C100.081 17.2532 100.071 17.2178 100.07 17.1815L100.118 12.0975C100.119 12.058 100.13 12.0195 100.152 11.9867C100.175 11.954 100.206 11.9285 100.242 11.9135L118.854 4.4015C118.9 4.38192 118.952 4.38054 118.999 4.39763C119.045 4.41472 119.084 4.449 119.106 4.4935C119.13 4.53708 119.136 4.58777 119.124 4.63579C119.112 4.6838 119.083 4.72574 119.042 4.75349L100.382 17.3495C100.349 17.372 100.31 17.3832 100.27 17.3815ZM100.518 12.2335L100.474 16.8015L117.246 5.4775L100.518 12.2335Z" fill="#14142B"/>
<path d="M100.27 17.1815L103.19 13.0615L118.93 4.58148L100.27 17.1815Z" fill="white"/>
<path d="M100.27 17.3815C100.244 17.3818 100.218 17.3766 100.194 17.3663C100.17 17.356 100.148 17.3407 100.13 17.3215C100.098 17.288 100.078 17.2439 100.074 17.1971C100.07 17.1503 100.083 17.1037 100.11 17.0655L103.026 12.9455C103.044 12.9205 103.067 12.9 103.094 12.8855L118.834 4.40149C118.88 4.37747 118.933 4.37155 118.982 4.3849C119.032 4.39825 119.075 4.4299 119.102 4.47349C119.128 4.51822 119.136 4.57078 119.125 4.62102C119.114 4.67125 119.084 4.7156 119.042 4.74549L100.382 17.3415C100.35 17.3663 100.311 17.3803 100.27 17.3815ZM103.326 13.2015L101.07 16.4015L115.498 6.65749L103.326 13.2015Z" fill="#14142B"/>
<path d="M103.19 13.0615L111.39 19.1895L118.93 4.58148L103.19 13.0615Z" fill="white"/>
<path d="M111.39 19.3895C111.347 19.3904 111.305 19.3763 111.27 19.3495L103.07 13.2215C103.043 13.2018 103.021 13.1752 103.007 13.1443C102.993 13.1134 102.987 13.0793 102.99 13.0455C102.993 13.0122 103.003 12.98 103.022 12.952C103.04 12.924 103.065 12.9011 103.094 12.8855L118.834 4.40149C118.872 4.38202 118.915 4.37464 118.957 4.38037C119 4.38609 119.039 4.40463 119.07 4.43349C119.101 4.46373 119.121 4.50302 119.127 4.54553C119.134 4.58804 119.127 4.63151 119.106 4.66949L111.57 19.2815C111.557 19.3078 111.538 19.3308 111.514 19.3488C111.491 19.3668 111.463 19.3793 111.434 19.3855L111.39 19.3895ZM103.55 13.0895L111.314 18.8895L118.446 5.06549L103.55 13.0895Z" fill="#14142B"/>
<path d="M68.8143 63.4695C68.6385 63.4694 68.4676 63.4113 68.328 63.3043C68.1885 63.1973 68.088 63.0473 68.0423 62.8775C67.9503 62.5335 58.7463 28.3655 57.1223 17.5455C56.0623 10.4735 58.1663 6.2895 60.1183 4.0255C61.2278 2.73859 62.6065 1.71115 64.1569 1.0158C65.7072 0.320459 67.3914 -0.0258046 69.0903 0.00149776C76.1983 0.00149776 79.8343 6.4495 80.7623 9.8575C81.5623 12.8255 82.9303 17.9895 82.9463 18.0415C82.9904 18.2437 82.9545 18.455 82.8461 18.6313C82.7377 18.8075 82.5652 18.9349 82.3649 18.9866C82.1645 19.0384 81.9519 19.0105 81.7717 18.9089C81.5915 18.8072 81.4577 18.6397 81.3983 18.4415C81.3983 18.3895 80.0263 13.2415 79.2183 10.2695C78.4103 7.2975 75.2303 1.6015 69.0903 1.6015C67.6221 1.57765 66.1664 1.87579 64.8257 2.47495C63.4851 3.0741 62.292 3.95971 61.3303 5.0695C59.5983 7.0695 57.7303 10.8375 58.7063 17.3095C60.3063 28.0415 69.5063 62.1095 69.5903 62.4615C69.6454 62.6662 69.6169 62.8845 69.5111 63.0682C69.4054 63.252 69.231 63.3862 69.0263 63.4415C68.9574 63.4609 68.886 63.4703 68.8143 63.4695Z" fill="#14142B"/>
<path d="M23.7304 101.821C20.3864 101.821 17.6664 100.665 16.2944 97.3135C13.5384 90.5975 22.1144 86.1975 32.0424 81.0975C35.2424 79.4575 38.5464 77.7575 41.6984 75.8975C53.6544 68.7735 52.7904 64.0255 52.7784 63.9775C52.7342 63.7753 52.7702 63.564 52.8786 63.3877C52.987 63.2115 53.1595 63.0841 53.3598 63.0324C53.5602 62.9806 53.7727 63.0085 53.953 63.1101C54.1332 63.2118 54.267 63.3793 54.3264 63.5775C54.4824 64.1695 55.4704 69.5775 42.5184 77.2775C39.3184 79.1815 35.9904 80.8775 32.7744 82.5455C23.5464 87.2815 15.5744 91.3735 17.7744 96.7295C20.2224 102.701 28.5944 99.8655 36.6944 97.1295C41.7104 95.4335 46.4464 93.8295 49.4024 94.6335C52.0344 95.3535 52.5744 97.1775 52.8624 98.1575C52.9023 98.3133 52.9545 98.4658 53.0184 98.6135C53.1562 98.7708 53.227 98.9759 53.2155 99.1847C53.2039 99.3936 53.1111 99.5896 52.9568 99.7308C52.8025 99.8721 52.599 99.9472 52.39 99.9403C52.1809 99.9333 51.9829 99.8447 51.8384 99.6935C51.584 99.3785 51.4097 99.0065 51.3304 98.6095C51.0744 97.7415 50.7544 96.6615 48.9824 96.1775C46.4984 95.4975 41.9864 97.0295 37.2064 98.6455C32.6384 100.161 27.7344 101.821 23.7304 101.821Z" fill="#14142B"/>
<path d="M107.79 86.0895C107.651 86.0917 107.513 86.0572 107.39 85.9895C107.298 85.9386 107.217 85.87 107.152 85.7878C107.086 85.7055 107.038 85.6112 107.009 85.5101C106.98 85.4091 106.971 85.3033 106.983 85.1989C106.995 85.0945 107.027 84.9934 107.078 84.9015C111.254 77.3895 118.782 75.1695 125.43 73.2135C127.749 72.5774 130.032 71.8135 132.266 70.9255C134.814 69.8495 136.266 67.2095 135.574 64.9255C134.394 61.0215 127.37 57.9415 111.198 61.0055C103.95 62.3775 98.3983 61.8055 94.6903 59.2495C91.4903 57.0615 90.9343 54.2175 90.9103 54.0975C90.8761 53.8911 90.924 53.6796 91.0439 53.5082C91.1637 53.3367 91.3459 53.219 91.5515 53.1803C91.7571 53.1416 91.9696 53.185 92.1436 53.3011C92.3176 53.4172 92.4392 53.5968 92.4823 53.8015C92.5583 54.1775 94.4263 62.5535 110.882 59.4335C132.546 55.3295 136.422 62.2335 137.09 64.4615C138.03 67.5735 136.218 70.9895 132.874 72.4015C130.585 73.3178 128.245 74.1018 125.866 74.7495C119.202 76.7135 112.318 78.7495 108.462 85.6815C108.395 85.8016 108.298 85.9022 108.18 85.9737C108.062 86.0452 107.928 86.0851 107.79 86.0895Z" fill="#14142B"/>
<path d="M82.9864 23.1135C82.6364 23.1129 82.2963 22.9975 82.0181 22.7851C81.74 22.5727 81.5391 22.275 81.4464 21.9375L79.8104 15.9375C79.755 15.7347 79.7401 15.523 79.7665 15.3145C79.7928 15.106 79.8601 14.9047 79.9642 14.7221C80.0684 14.5396 80.2075 14.3793 80.3737 14.2505C80.5398 14.1217 80.7296 14.0269 80.9324 13.9715C81.1352 13.9161 81.3469 13.9011 81.5554 13.9275C81.7639 13.9539 81.9652 14.0211 82.1478 14.1253C82.3303 14.2295 82.4906 14.3686 82.6194 14.5348C82.7482 14.7009 82.843 14.8907 82.8984 15.0935L84.5344 21.0935C84.5896 21.2963 84.6043 21.5079 84.5776 21.7163C84.551 21.9248 84.4836 22.1259 84.3792 22.3083C84.2748 22.4907 84.1355 22.6507 83.9693 22.7793C83.8031 22.9078 83.6132 23.0024 83.4104 23.0575C83.2724 23.096 83.1297 23.1149 82.9864 23.1135Z" fill="#14142B"/>
<path d="M105.634 85.0175C105.634 85.0175 107.542 81.7455 109.45 83.1095C111.358 84.4735 107.27 87.1975 108.906 87.7415C110.542 88.2855 113.81 86.9415 114.906 90.4695C116.002 93.9975 112.722 95.6455 109.454 94.8295C106.186 94.0135 103.454 90.7415 105.634 85.0175Z" fill="white"/>
<path d="M111.086 95.2335C110.518 95.233 109.953 95.1618 109.402 95.0215C108.548 94.8276 107.746 94.4521 107.049 93.9207C106.353 93.3893 105.779 92.7143 105.366 91.9415C104.386 90.0695 104.418 87.6495 105.446 84.9455V84.9175C105.494 84.8335 106.618 82.9175 108.062 82.6175C108.319 82.5622 108.585 82.5629 108.842 82.6195C109.099 82.676 109.34 82.7872 109.55 82.9455C110.75 83.7975 109.898 85.1095 109.286 86.0695C108.958 86.5855 108.618 87.1175 108.706 87.3695C108.706 87.3975 108.746 87.4855 108.95 87.5535C109.474 87.6785 110.013 87.7283 110.55 87.7015C112.19 87.7015 114.23 87.7015 115.058 90.4095C115.618 92.2295 115.03 93.3575 114.434 93.9855C113.988 94.4059 113.461 94.7329 112.886 94.9472C112.311 95.1615 111.699 95.2589 111.086 95.2335ZM105.814 85.1055C104.83 87.6935 104.798 89.9935 105.718 91.7575C106.107 92.479 106.645 93.1091 107.297 93.6051C107.949 94.1012 108.7 94.4519 109.498 94.6335C111.366 95.1015 113.202 94.7375 114.178 93.7095C114.922 92.9095 115.106 91.8215 114.71 90.5095C113.966 88.1095 112.17 88.1095 110.582 88.0855C109.997 88.1138 109.411 88.0572 108.842 87.9175C108.732 87.8895 108.629 87.8358 108.543 87.7607C108.457 87.6857 108.389 87.5914 108.346 87.4855C108.19 87.0495 108.55 86.4895 108.966 85.8375C109.694 84.6935 110.166 83.8375 109.334 83.2575C109.17 83.1303 108.98 83.0407 108.778 82.995C108.575 82.9494 108.365 82.9489 108.162 82.9935C106.962 83.2695 105.914 84.9375 105.814 85.1055Z" fill="#14142B"/>
<path d="M113.514 94.6455C113.475 94.6453 113.436 94.6342 113.402 94.6135C113.359 94.5842 113.328 94.5387 113.318 94.487C113.307 94.4353 113.317 94.3816 113.346 94.3375C115.638 90.8415 111.938 88.2375 111.778 88.1295C111.735 88.0988 111.705 88.0524 111.695 88.0001C111.686 87.9478 111.697 87.8937 111.726 87.8495C111.741 87.8277 111.76 87.809 111.781 87.7945C111.803 87.7801 111.828 87.7701 111.853 87.7653C111.879 87.7604 111.906 87.7608 111.931 87.7663C111.957 87.7718 111.981 87.7824 112.002 87.7975C112.042 87.8255 116.186 90.7335 113.674 94.5535C113.657 94.5808 113.634 94.6035 113.606 94.6195C113.578 94.6356 113.547 94.6445 113.514 94.6455Z" fill="#14142B"/>
<path d="M107.07 129.029L67.2184 135.249C64.5624 135.649 61.8544 133.441 61.1744 130.281L40.4784 34.2575C39.2784 29.7295 43.3544 27.3175 46.0104 26.9015L83.9064 21.5655C86.5624 21.1655 89.2664 23.3735 89.9504 26.5335L113.306 122.401C113.986 125.565 112.35 128.241 107.07 129.029Z" fill="white"/>
<path d="M66.5784 135.502C64.0544 135.502 61.6264 133.318 60.9784 130.326L40.2824 34.2975C40.0566 33.5479 39.9969 32.758 40.1074 31.9829C40.218 31.2078 40.4961 30.4662 40.9224 29.8095C42.1704 27.9055 44.4264 26.9455 45.9824 26.7055L83.8784 21.3655C86.6304 20.9375 89.4424 23.2375 90.1424 26.4935L113.498 122.358C113.678 123.032 113.714 123.737 113.602 124.427C113.49 125.116 113.234 125.774 112.85 126.358C111.826 127.838 109.894 128.798 107.098 129.218L67.2504 135.438C67.0285 135.477 66.8038 135.498 66.5784 135.502ZM84.5464 21.7135C84.3415 21.7136 84.1368 21.7296 83.9344 21.7615L46.0384 27.1015C44.5704 27.3295 42.4384 28.2335 41.2584 30.0295C40.8619 30.6406 40.6038 31.331 40.5022 32.0524C40.4006 32.7738 40.458 33.5087 40.6704 34.2055L61.3704 130.238C62.0304 133.294 64.6384 135.438 67.1864 135.038L107.038 128.802C109.722 128.402 111.566 127.494 112.518 126.11C112.872 125.57 113.108 124.962 113.21 124.325C113.312 123.688 113.278 123.036 113.11 122.414L89.7544 26.5815C89.1504 23.7695 86.8904 21.7135 84.5464 21.7135Z" fill="#14142B"/>
<path d="M109.794 127.942L69.9503 134.162C67.2943 134.562 64.5903 132.35 63.9103 129.19L43.2023 33.1655C42.5223 30.0055 44.1223 27.1095 46.7783 26.6935L86.6303 20.4735C89.2863 20.0735 91.9943 22.2855 92.6743 25.4455L113.37 121.47C114.054 124.63 112.45 127.526 109.794 127.942Z" fill="#14142B"/>
<path d="M69.3063 134.402C66.7783 134.402 64.3503 132.218 63.7063 129.226L43.0063 33.2015C42.8124 32.3874 42.7851 31.5426 42.9261 30.7177C43.067 29.8929 43.3732 29.105 43.8263 28.4015C44.1574 27.9036 44.5875 27.4793 45.0899 27.1551C45.5924 26.8309 46.1562 26.6139 46.7463 26.5175L86.5983 20.2975C89.3543 19.8655 92.1663 22.1655 92.8703 25.4215L113.55 121.422C113.751 122.239 113.783 123.088 113.645 123.918C113.508 124.747 113.203 125.541 112.75 126.25C112.418 126.747 111.987 127.171 111.484 127.495C110.981 127.82 110.417 128.037 109.826 128.134L69.9743 134.354C69.7533 134.388 69.5299 134.404 69.3063 134.402ZM87.2743 20.6175C87.0694 20.6176 86.8648 20.6336 86.6623 20.6655L46.8103 26.8855C46.2733 26.9733 45.7603 27.171 45.3032 27.4663C44.8462 27.7616 44.4551 28.148 44.1543 28.6015C43.7302 29.2643 43.4445 30.0061 43.3146 30.7822C43.1847 31.5583 43.2132 32.3527 43.3983 33.1175L64.0943 129.142C64.7543 132.194 67.3623 134.342 69.9143 133.942L109.766 127.718C110.303 127.63 110.815 127.432 111.272 127.137C111.728 126.841 112.118 126.455 112.418 126.002C112.844 125.339 113.131 124.598 113.262 123.822C113.393 123.045 113.364 122.25 113.178 121.486L92.4783 25.4855C91.8743 22.6855 89.6143 20.6255 87.2783 20.6255L87.2743 20.6175Z" fill="#14142B"/>
<path d="M109.99 116.533L65.0024 123.553L46.1664 36.1575L91.1504 29.1335L109.99 116.533Z" fill="#D9DBE9"/>
<path d="M65.0024 123.753C64.9574 123.754 64.9137 123.738 64.8787 123.71C64.8437 123.681 64.8196 123.642 64.8104 123.597L45.9704 36.1975C45.9596 36.1438 45.9696 36.0881 45.9984 36.0415C46.0143 36.0191 46.0345 36.0001 46.0578 35.9856C46.0812 35.9712 46.1073 35.9616 46.1344 35.9575L91.1184 28.9375C91.1691 28.9302 91.2206 28.9421 91.2628 28.971C91.3051 28.9999 91.3349 29.0436 91.3464 29.0935L110.186 116.489C110.192 116.516 110.192 116.544 110.187 116.571C110.181 116.598 110.17 116.623 110.154 116.645C110.123 116.69 110.076 116.72 110.022 116.729L65.0344 123.753H65.0024ZM46.4064 36.3215L65.1504 123.329L109.742 116.369L90.9944 29.3615L46.4064 36.3215Z" fill="#14142B"/>
<path d="M71.7384 56.2255C72.1984 58.4295 71.9144 60.3375 71.1144 60.4855C70.3144 60.6335 69.2944 58.9655 68.8384 56.7615C68.3824 54.5575 68.6624 52.6495 69.4624 52.5015C70.2624 52.3535 71.2824 54.0015 71.7384 56.2255Z" fill="#14142B"/>
<path d="M81.6184 54.3775C82.0744 56.5815 81.7944 58.4895 80.9904 58.6415C80.1864 58.7935 79.1704 57.1215 78.7144 54.9175C78.2584 52.7135 78.5384 50.8055 79.3384 50.6575C80.1384 50.5095 81.1504 52.1735 81.6184 54.3775Z" fill="#14142B"/>
<path d="M76.5664 73.9255C71.8384 73.9255 67.1784 71.0255 64.2784 66.1175C64.1968 65.937 64.1851 65.7327 64.2455 65.5441C64.3059 65.3555 64.4341 65.196 64.6053 65.0964C64.7765 64.9969 64.9786 64.9644 65.1724 65.0052C65.3661 65.0461 65.5379 65.1573 65.6544 65.3175C68.6384 70.3655 73.6184 73.0575 78.3584 72.1775C82.9704 71.3255 86.4904 67.1775 87.3184 61.6175C87.3339 61.5124 87.3699 61.4115 87.4244 61.3203C87.479 61.2292 87.5509 61.1497 87.6361 61.0864C87.7214 61.023 87.8183 60.9771 87.9213 60.9512C88.0242 60.9254 88.1313 60.92 88.2364 60.9355C88.3414 60.951 88.4424 60.987 88.5335 61.0416C88.6247 61.0961 88.7042 61.168 88.7675 61.2533C88.8308 61.3385 88.8768 61.4354 88.9026 61.5384C88.9285 61.6414 88.9339 61.7484 88.9184 61.8535C87.9864 68.1015 83.9624 72.7695 78.6664 73.7535C77.9731 73.8748 77.2702 73.9324 76.5664 73.9255Z" fill="#14142B"/>
<path d="M57.208 68.5061L55.1591 72.6959L55.5184 72.8716L57.5673 68.6818L57.208 68.5061Z" fill="white"/>
<path d="M74.3907 33.3954L59.0535 64.7581L59.4128 64.9338L74.7501 33.5712L74.3907 33.3954Z" fill="white"/>
<path d="M69.5998 33.6794L63.1813 45.9727L63.5359 46.1578L69.9544 33.8646L69.5998 33.6794Z" fill="white"/>
<path d="M99.7148 103.28L92.5951 117.362L92.9521 117.543L100.072 103.46L99.7148 103.28Z" fill="white"/>
<path d="M103.015 96.7723L100.803 101.149L101.16 101.329L103.372 96.9528L103.015 96.7723Z" fill="white"/>
<path d="M74.0104 27.6775L61.5824 29.6015C61.3181 29.6161 61.0579 29.5308 60.8534 29.3627C60.6489 29.1945 60.5151 28.9557 60.4784 28.6935C60.4386 28.5787 60.4219 28.4572 60.4291 28.336C60.4364 28.2147 60.4674 28.0961 60.5206 27.9869C60.5737 27.8777 60.6478 27.78 60.7388 27.6994C60.8297 27.6189 60.9356 27.5571 61.0504 27.5175L61.1304 27.4935L73.5504 25.6015C73.8147 25.5869 74.0749 25.6721 74.2794 25.8403C74.4838 26.0085 74.6177 26.2473 74.6544 26.5095C74.727 26.7434 74.7037 26.9966 74.5897 27.2133C74.4757 27.4301 74.2803 27.5927 74.0464 27.6655L74.0104 27.6775Z" fill="white"/>
<path d="M61.4663 29.8255C61.2372 29.7994 61.0184 29.7158 60.8302 29.5825C60.642 29.4492 60.4906 29.2704 60.39 29.0629C60.2894 28.8553 60.2429 28.6257 60.2549 28.3954C60.2668 28.1651 60.3368 27.9415 60.4583 27.7455C60.5314 27.6381 60.626 27.547 60.7362 27.4781C60.8464 27.4093 60.9697 27.3641 61.0983 27.3455L73.5503 25.3895C73.8644 25.3697 74.1746 25.4678 74.4202 25.6646C74.6658 25.8613 74.8292 26.1427 74.8783 26.4535C74.9193 26.6244 74.9252 26.8019 74.8956 26.9751C74.8661 27.1484 74.8017 27.3138 74.7063 27.4615C74.6325 27.5691 74.5371 27.6601 74.4263 27.729C74.3154 27.7978 74.1915 27.843 74.0623 27.8615L61.6303 29.8015C61.5764 29.8137 61.5215 29.8217 61.4663 29.8255ZM73.6823 25.7815H73.5943L61.1503 27.7255C60.9977 27.754 60.8625 27.8417 60.7743 27.9695C60.709 28.0724 60.6654 28.1876 60.6462 28.308C60.6269 28.4283 60.6324 28.5513 60.6623 28.6695C60.6907 28.8805 60.7957 29.0736 60.9572 29.2123C61.1187 29.3509 61.3255 29.4254 61.5383 29.4215L73.9703 27.4815C74.046 27.4679 74.1182 27.4389 74.1822 27.3962C74.2462 27.3536 74.3007 27.2982 74.3423 27.2335C74.4744 27.0134 74.5136 26.7498 74.4514 26.5007C74.3891 26.2517 74.2305 26.0376 74.0103 25.9055C73.9053 25.8442 73.7902 25.8022 73.6703 25.7815H73.6823Z" fill="#14142B"/>
<path d="M89.9504 123.718C89.7224 122.666 88.8224 121.922 87.9504 122.062C87.0784 122.202 86.5344 123.166 86.7504 124.218C86.9664 125.27 87.8784 126.013 88.7504 125.874C89.6224 125.734 90.1744 124.77 89.9504 123.718Z" fill="white"/>
<path d="M88.5424 126.089C87.6384 126.089 86.7704 125.317 86.5424 124.261C86.4734 123.971 86.4641 123.669 86.5149 123.375C86.5658 123.081 86.6759 122.8 86.8384 122.55C86.9584 122.368 87.115 122.213 87.2982 122.095C87.4814 121.977 87.6872 121.899 87.9024 121.866C88.8904 121.71 89.9024 122.522 90.1424 123.678C90.2121 123.967 90.2222 124.268 90.172 124.562C90.1218 124.855 90.0124 125.135 89.8504 125.385C89.7288 125.567 89.5713 125.722 89.3876 125.84C89.2039 125.958 88.998 126.038 88.7824 126.073C88.7029 126.085 88.6227 126.09 88.5424 126.089ZM88.1424 122.246H87.9504C87.7889 122.272 87.6346 122.332 87.4971 122.421C87.3595 122.51 87.2415 122.625 87.1504 122.762C87.0196 122.968 86.9317 123.199 86.8918 123.44C86.852 123.681 86.861 123.928 86.9184 124.166C87.1224 125.113 87.9264 125.789 88.7064 125.665C88.8684 125.64 89.0232 125.581 89.161 125.492C89.2987 125.403 89.4164 125.287 89.5064 125.149C89.639 124.945 89.7281 124.714 89.768 124.474C89.8079 124.233 89.7978 123.986 89.7384 123.749C89.675 123.357 89.4837 122.997 89.1943 122.725C88.9049 122.453 88.5337 122.285 88.1384 122.246H88.1424Z" fill="#14142B"/>
<path d="M84.5983 91.8935L66.2304 95.0575C65.0304 95.2655 64.2304 96.2575 64.4224 97.2655L66.7904 108.67L66.8544 108.966L68.0904 114.925L71.5504 110.054L87.7983 107.254C88.9983 107.046 89.7983 106.053 89.6023 105.049L87.1503 93.3455C86.9543 92.3375 85.8063 91.6855 84.5983 91.8935Z" fill="white"/>
<path d="M67.9864 115.418L64.2264 97.3055C64.1768 97.0609 64.1778 96.8087 64.2294 96.5645C64.281 96.3202 64.3821 96.0892 64.5264 95.8855C64.7222 95.6124 64.9707 95.3811 65.2571 95.2052C65.5435 95.0294 65.8622 94.9125 66.1944 94.8615L84.5664 91.6975C85.8744 91.4735 87.1304 92.1935 87.3664 93.2975L89.7944 105.002C89.8435 105.245 89.8426 105.496 89.7917 105.74C89.7409 105.983 89.6411 106.214 89.4984 106.418C89.3018 106.691 89.0528 106.923 88.7657 107.1C88.4787 107.276 88.1594 107.394 87.8264 107.445L71.6624 110.226L67.9864 115.418ZM85.0504 92.0575C84.9163 92.0574 84.7824 92.0694 84.6504 92.0935L66.2784 95.2575C65.9985 95.2992 65.7298 95.3964 65.488 95.5434C65.2462 95.6904 65.0362 95.8842 64.8704 96.1135C64.7578 96.2724 64.6787 96.4527 64.6382 96.6432C64.5976 96.8337 64.5963 97.0305 64.6344 97.2215L68.2104 114.421L71.4424 109.858L87.7704 107.058C88.3255 106.966 88.8216 106.658 89.1504 106.202C89.2634 106.042 89.3429 105.861 89.3842 105.67C89.4254 105.479 89.4275 105.281 89.3904 105.09L86.9584 93.3895C86.8064 92.6015 85.9864 92.0575 85.0504 92.0575Z" fill="#14142B"/>
<path d="M83.2823 98.7455C83.2944 98.5873 83.2823 98.4281 83.2463 98.2735V98.1855C82.9343 96.6735 81.2143 95.7055 79.4103 96.0135C77.9903 96.2575 76.9423 97.2135 76.7103 98.3615C76.3134 97.8438 75.7787 97.4485 75.1675 97.2207C74.5563 96.9929 73.8932 96.9419 73.2543 97.0735C71.4503 97.3855 70.2423 98.8615 70.5543 100.37C70.5543 100.37 70.5063 101.662 73.5703 103.538C76.0863 105.082 78.2103 106.337 78.2503 106.285C78.3023 106.313 79.8303 104.446 81.6263 102.154C82.3271 101.332 82.8586 100.381 83.1903 99.3535C83.2334 99.2154 83.2629 99.0734 83.2783 98.9295C83.2755 98.8682 83.2768 98.8067 83.2823 98.7455Z" fill="#D9DBE9"/>
<path d="M78.2184 106.481C78.1915 106.48 78.1654 106.471 78.1424 106.457C77.7704 106.333 76.7384 105.737 73.4464 103.717C70.5344 101.929 70.3464 100.617 70.3344 100.401C70.2675 100.051 70.2716 99.6916 70.3465 99.3432C70.4214 98.9949 70.5656 98.6651 70.7704 98.3735C71.0577 97.9774 71.4204 97.642 71.8378 97.3867C72.2552 97.1313 72.7189 96.961 73.2024 96.8855C73.8128 96.7691 74.4426 96.8045 75.0362 96.9886C75.6297 97.1728 76.169 97.5 76.6064 97.9415C76.8421 97.3811 77.2192 96.8915 77.7009 96.5206C78.1826 96.1497 78.7524 95.9102 79.3544 95.8255C81.2624 95.4975 83.0864 96.5415 83.4224 98.1535V98.2175C83.463 98.3971 83.4778 98.5817 83.4664 98.7655C83.469 98.8288 83.4623 98.8922 83.4464 98.9535C83.4296 99.1093 83.3988 99.2632 83.3544 99.4135C83.0122 100.463 82.4687 101.436 81.7544 102.277C79.4224 105.261 78.6624 106.169 78.3624 106.409C78.3491 106.429 78.331 106.444 78.3099 106.454C78.2888 106.463 78.2655 106.468 78.2424 106.465L78.2184 106.481ZM73.9144 97.2015C73.7011 97.2001 73.4881 97.2188 73.2784 97.2575C72.847 97.3209 72.4327 97.4705 72.0603 97.6972C71.6878 97.924 71.3648 98.2234 71.1104 98.5775C70.9348 98.827 70.8114 99.1093 70.7474 99.4076C70.6835 99.7059 70.6804 100.014 70.7384 100.313V100.361C70.7384 100.361 70.7744 101.581 73.6584 103.353C75.9704 104.769 77.7624 105.821 78.1944 106.041C78.5224 105.689 79.8144 104.105 81.4504 102.013C82.1334 101.211 82.6537 100.283 82.9824 99.2815C83.0209 99.1508 83.0477 99.0169 83.0624 98.8815V98.7175C83.073 98.5835 83.0635 98.4487 83.0344 98.3175C83.0304 98.2963 83.0304 98.2746 83.0344 98.2535C82.7384 96.8175 81.1224 95.9135 79.4344 96.2095C78.1384 96.4295 77.1184 97.3095 76.8984 98.3975C76.8932 98.4231 76.8829 98.4475 76.8681 98.4691C76.8534 98.4907 76.8344 98.5091 76.8124 98.5233C76.7904 98.5374 76.7658 98.547 76.74 98.5515C76.7143 98.5561 76.6879 98.5553 76.6624 98.5495C76.6374 98.5452 76.6135 98.5359 76.5922 98.5222C76.5709 98.5084 76.5526 98.4905 76.5384 98.4695C76.2344 98.0635 75.8374 97.7365 75.3808 97.5158C74.9242 97.2952 74.4213 97.1874 73.9144 97.2015Z" fill="#14142B"/>
<path d="M54.9464 99.4895C54.9464 99.4895 53.7944 95.8895 51.6384 96.7975C49.4824 97.7055 52.8744 101.262 51.1624 101.438C49.4504 101.614 46.5504 99.5735 44.7144 102.794C42.8784 106.014 45.7184 108.322 49.0864 108.238C52.4544 108.154 55.8304 105.55 54.9464 99.4895Z" fill="white"/>
<path d="M48.9063 108.438C46.9063 108.438 45.1503 107.638 44.3743 106.322C43.9303 105.582 43.5983 104.35 44.5423 102.698C45.9343 100.25 47.9303 100.698 49.5303 101.034C50.0515 101.177 50.5899 101.247 51.1303 101.242C51.3423 101.218 51.3903 101.138 51.4063 101.114C51.5503 100.886 51.3343 100.314 51.1263 99.7175C50.7263 98.6495 50.2023 97.1855 51.5463 96.6135C51.7857 96.5049 52.0455 96.4487 52.3083 96.4487C52.5712 96.4487 52.831 96.5049 53.0703 96.6135C54.4103 97.2295 55.0943 99.3375 55.1263 99.4135V99.4455C55.5463 102.31 55.0463 104.678 53.6863 106.294C53.1147 106.958 52.4072 107.491 51.6115 107.859C50.8158 108.226 49.9506 108.418 49.0743 108.422L48.9063 108.438ZM47.6423 101.162C46.6423 101.162 45.6663 101.53 44.8903 102.894C44.2183 104.07 44.1583 105.186 44.7143 106.118C45.4423 107.318 47.1543 108.086 49.0823 108.038C49.9025 108.033 50.712 107.852 51.4561 107.507C52.2001 107.162 52.8611 106.661 53.3943 106.038C54.6783 104.518 55.1463 102.266 54.7503 99.5255C54.6863 99.3375 54.0423 97.4855 52.9143 96.9695C52.7263 96.8824 52.5215 96.8373 52.3143 96.8373C52.1071 96.8373 51.9024 96.8824 51.7143 96.9695C50.7903 97.3695 51.0503 98.2935 51.5143 99.5695C51.7783 100.294 52.0063 100.922 51.7583 101.314C51.6931 101.407 51.6071 101.483 51.5072 101.538C51.4072 101.592 51.296 101.622 51.1823 101.626C50.5963 101.641 50.0113 101.57 49.4463 101.414C48.8556 101.266 48.2509 101.181 47.6423 101.162Z" fill="#14142B"/>
<path d="M47.3984 102.901C47.2824 103.333 46.9984 103.629 46.7424 103.561C46.4864 103.493 46.3864 103.093 46.5064 102.661C46.6264 102.23 46.9064 101.93 47.1624 101.998C47.4184 102.066 47.5144 102.47 47.3984 102.901Z" fill="#14142B"/>
<path d="M45.7943 103.602C45.6783 104.034 45.3943 104.33 45.1383 104.266C44.8823 104.202 44.7823 103.794 44.8983 103.362C45.0143 102.929 45.2983 102.633 45.5583 102.701C45.8183 102.769 45.9103 103.158 45.7943 103.602Z" fill="#14142B"/>
<path d="M46.7984 105.358C46.6824 105.79 46.3984 106.09 46.1424 106.022C45.8864 105.954 45.7904 105.55 45.9064 105.118C46.0224 104.686 46.3064 104.39 46.5624 104.458C46.8184 104.526 46.9144 104.926 46.7984 105.358Z" fill="#14142B"/>
<path d="M46.9663 107.822C46.9267 107.822 46.888 107.81 46.8551 107.788C46.8223 107.766 46.7969 107.734 46.7823 107.698C46.7719 107.674 46.7663 107.649 46.7659 107.623C46.7655 107.597 46.7703 107.571 46.78 107.547C46.7897 107.524 46.8041 107.502 46.8224 107.484C46.8407 107.465 46.8624 107.451 46.8863 107.442C47.2202 107.302 47.5274 107.106 47.7943 106.862C47.8341 106.83 47.8846 106.814 47.9354 106.818C47.9862 106.822 48.0336 106.845 48.0678 106.883C48.1021 106.921 48.1206 106.97 48.1195 107.021C48.1185 107.072 48.0981 107.121 48.0623 107.158C47.762 107.434 47.4154 107.656 47.0383 107.814C47.0149 107.82 46.9906 107.822 46.9663 107.822Z" fill="#14142B"/>
<path d="M48.4263 106.661C48.3829 106.662 48.3405 106.648 48.3063 106.621C48.2853 106.606 48.2676 106.586 48.2542 106.563C48.2408 106.541 48.232 106.516 48.2283 106.49C48.2246 106.464 48.2261 106.437 48.2326 106.412C48.2391 106.386 48.2506 106.363 48.2663 106.341C48.5723 105.935 48.8039 105.477 48.9503 104.989C49.1222 104.49 49.1896 103.961 49.1483 103.435C49.107 102.908 48.9579 102.396 48.7103 101.929C48.6839 101.883 48.6766 101.828 48.6901 101.777C48.7035 101.725 48.7366 101.681 48.7823 101.653C48.829 101.629 48.8832 101.623 48.9342 101.636C48.9853 101.649 49.0295 101.681 49.0583 101.725C49.3315 102.241 49.4969 102.806 49.5443 103.387C49.5918 103.968 49.5203 104.553 49.3343 105.105C49.1747 105.638 48.9214 106.138 48.5863 106.582C48.5673 106.606 48.543 106.626 48.5154 106.64C48.4877 106.653 48.4573 106.661 48.4263 106.661Z" fill="#14142B"/>
</svg>
