<svg width="32" height="32" viewBox="0 0 32 32" fill="none" xmlns="http://www.w3.org/2000/svg">
<circle cx="16" cy="16" r="16" fill="#FF8A65"/>
<g clip-path="url(#clip0_55_140)">
<path d="M24.8578 15.4831C24.6987 15.4831 24.5588 15.5562 24.4637 15.6691C24.4859 15.6112 24.4997 15.5491 24.4997 15.4831C24.4997 15.1975 24.2681 14.9656 23.9825 14.9656C23.9263 14.9656 23.8731 14.9769 23.8225 14.9934C23.6457 13.6044 23.1004 12.2881 22.2431 11.1809C22.2906 11.1572 22.3363 11.1272 22.3759 11.0875C22.4684 10.9895 22.5191 10.8594 22.5171 10.7247C22.5151 10.59 22.4607 10.4614 22.3654 10.3661C22.2701 10.2709 22.1415 10.2166 22.0068 10.2148C21.8721 10.2129 21.7419 10.2637 21.6441 10.3562C21.6221 10.3787 21.6022 10.403 21.5847 10.4291L21.5712 10.4156C21.5969 10.3981 21.6216 10.3787 21.6441 10.3562C21.7366 10.2584 21.7874 10.1283 21.7855 9.99355C21.7837 9.85885 21.7294 9.73018 21.6342 9.63488C21.5389 9.53958 21.4103 9.48517 21.2756 9.48321C21.1409 9.48124 21.0108 9.53188 20.9128 9.62437C20.8746 9.66332 20.843 9.70816 20.8191 9.75718C19.7119 8.9001 18.3955 8.35489 17.0066 8.17812C17.0243 8.12649 17.0336 8.07238 17.0344 8.0178C17.0344 7.73218 16.8028 7.50093 16.5172 7.50093C16.4516 7.50093 16.3891 7.51437 16.3309 7.53687C16.4437 7.44187 16.5172 7.30155 16.5172 7.14249C16.5196 7.07306 16.508 7.00385 16.4831 6.939C16.4582 6.87414 16.4205 6.81497 16.3722 6.765C16.324 6.71502 16.2661 6.67528 16.2022 6.64814C16.1382 6.621 16.0695 6.60701 16 6.60701C15.9305 6.60701 15.8618 6.621 15.7978 6.64814C15.7339 6.67528 15.676 6.71502 15.6278 6.765C15.5795 6.81497 15.5418 6.87414 15.5169 6.939C15.492 7.00385 15.4804 7.07306 15.4828 7.14249C15.4828 7.30155 15.5562 7.44187 15.6691 7.53687C15.6098 7.51339 15.5466 7.5012 15.4828 7.50093C15.1975 7.50093 14.9659 7.73218 14.9659 8.0178C14.9659 8.07405 14.9772 8.12718 14.9938 8.17812C13.6046 8.35488 12.2882 8.90021 11.1809 9.75749C11.1571 9.70843 11.1255 9.6635 11.0875 9.62437C10.9898 9.53043 10.8592 9.47856 10.7237 9.4799C10.5882 9.48124 10.4586 9.53568 10.3628 9.63153C10.267 9.72737 10.2126 9.85697 10.2113 9.99248C10.21 10.128 10.262 10.2586 10.3559 10.3562C10.3788 10.3787 10.4034 10.3984 10.4291 10.4159L10.4156 10.4294C10.398 10.4032 10.3781 10.3787 10.3559 10.3562C10.2579 10.2648 10.1281 10.2149 9.99402 10.2173C9.85993 10.2196 9.73197 10.2739 9.63712 10.3687C9.54227 10.4635 9.48793 10.5914 9.48555 10.7255C9.48318 10.8596 9.53295 10.9894 9.62437 11.0875C9.66437 11.1272 9.70969 11.1569 9.75719 11.1809C8.90001 12.2881 8.35469 13.6044 8.17781 14.9934C8.1263 14.9757 8.07229 14.9663 8.01781 14.9656C7.73219 14.9656 7.50063 15.1975 7.50063 15.4831C7.50063 15.5487 7.51406 15.6109 7.53625 15.6687C7.48815 15.6109 7.42798 15.5644 7.35995 15.5323C7.29193 15.5002 7.2177 15.4834 7.1425 15.4831C6.85687 15.4831 6.62531 15.715 6.625 16.0003C6.625 16.2856 6.85688 16.5175 7.14219 16.5175C7.30125 16.5175 7.44156 16.4444 7.53656 16.3319C7.51323 16.3909 7.50105 16.4537 7.50063 16.5172C7.50063 16.8028 7.73219 17.0344 8.01781 17.0344C8.07406 17.0344 8.12719 17.0231 8.17781 17.0066C8.3546 18.3956 8.90005 19.712 9.7575 20.8191C9.7084 20.8431 9.66346 20.8749 9.62437 20.9131C9.57601 20.9611 9.53759 21.0181 9.51133 21.081C9.48506 21.1438 9.47147 21.2112 9.47134 21.2793C9.4712 21.3474 9.48452 21.4149 9.51052 21.4779C9.53653 21.5408 9.57472 21.598 9.62289 21.6462C9.67107 21.6943 9.72828 21.7325 9.79124 21.7585C9.8542 21.7844 9.92168 21.7977 9.98979 21.7976C10.0579 21.7974 10.1253 21.7838 10.1881 21.7575C10.251 21.7312 10.308 21.6928 10.3559 21.6444C10.3788 21.6219 10.3984 21.5969 10.4156 21.5712L10.4291 21.5847C10.403 21.6024 10.3786 21.6224 10.3559 21.6444C10.259 21.7415 10.2045 21.8731 10.2045 22.0103C10.2045 22.1475 10.259 22.2792 10.3559 22.3762C10.4531 22.473 10.5846 22.5274 10.7217 22.5274C10.8588 22.5274 10.9904 22.473 11.0875 22.3762C11.1257 22.3372 11.1573 22.2922 11.1813 22.2431C12.2884 23.1003 13.6048 23.6457 14.9938 23.8228C14.976 23.8743 14.9666 23.9283 14.9659 23.9828C14.9659 24.2684 15.1975 24.4997 15.4828 24.4997C15.5484 24.4997 15.6106 24.4862 15.6684 24.4644C15.5559 24.5591 15.4828 24.6994 15.4828 24.8581C15.4828 24.9953 15.5373 25.1268 15.6343 25.2238C15.7313 25.3208 15.8628 25.3753 16 25.3753C16.1372 25.3753 16.2687 25.3208 16.3657 25.2238C16.4627 25.1268 16.5172 24.9953 16.5172 24.8581C16.5172 24.6994 16.4444 24.5591 16.3319 24.4644C16.3897 24.4862 16.4519 24.4997 16.5172 24.4997C16.8028 24.4997 17.0344 24.2684 17.0344 23.9828C17.0344 23.9266 17.0231 23.8734 17.0066 23.8228C18.3957 23.6458 19.7121 23.1004 20.8194 22.2431C20.8434 22.2906 20.8731 22.3359 20.9128 22.3762C20.9635 22.428 21.0244 22.4685 21.0917 22.4952C21.159 22.5219 21.2312 22.5342 21.3035 22.5312C21.3759 22.5283 21.4468 22.5102 21.5117 22.4782C21.5766 22.4461 21.6341 22.4008 21.6804 22.3451C21.7267 22.2894 21.7608 22.2247 21.7805 22.155C21.8002 22.0853 21.8051 22.0123 21.7948 21.9406C21.7845 21.869 21.7593 21.8003 21.7208 21.7389C21.6823 21.6776 21.6313 21.6251 21.5712 21.5847C21.5756 21.5803 21.58 21.5762 21.5844 21.5712C21.6022 21.5969 21.6216 21.6219 21.6441 21.6444C21.6921 21.6924 21.7491 21.7305 21.8118 21.7566C21.8746 21.7826 21.9418 21.796 22.0098 21.796C22.0777 21.7961 22.145 21.7827 22.2078 21.7567C22.2705 21.7308 22.3276 21.6927 22.3756 21.6447C22.4237 21.5967 22.4618 21.5397 22.4878 21.4769C22.5139 21.4142 22.5273 21.3469 22.5273 21.279C22.5273 21.211 22.514 21.1438 22.488 21.081C22.462 21.0182 22.424 20.9612 22.3759 20.9131C22.3369 20.875 22.2919 20.8434 22.2428 20.8197C23.1 19.7122 23.6454 18.3957 23.8225 17.0066C23.8728 17.0231 23.9259 17.0344 23.9822 17.0344C24.2678 17.0344 24.4994 16.8028 24.4994 16.5175C24.4994 16.4519 24.4859 16.3897 24.4637 16.3319C24.5119 16.3897 24.5721 16.4363 24.6402 16.4683C24.7083 16.5004 24.7826 16.5172 24.8578 16.5175C24.9919 16.5128 25.1189 16.4563 25.2121 16.3598C25.3052 16.2633 25.3573 16.1344 25.3573 16.0003C25.3573 15.8662 25.3052 15.7373 25.2121 15.6408C25.1189 15.5443 24.9919 15.4878 24.8578 15.4831ZM16.7334 9.65374C17.9166 9.78893 19.0379 10.254 19.9694 10.9959C19.9269 11.1878 18.1081 13.2178 17.9372 13.3128C17.5202 13.0117 17.0385 12.8124 16.5306 12.7309C16.4769 12.5428 16.6278 9.81843 16.7334 9.65374ZM15.2672 9.65374C15.3725 9.81812 15.5231 12.5425 15.4691 12.7309C14.9615 12.8126 14.48 13.0119 14.0631 13.3128C13.8922 13.2178 12.0737 11.1878 12.0312 10.9959C12.9629 10.2543 14.0841 9.78927 15.2672 9.65374ZM10.9959 12.0316C11.1881 12.0737 13.2181 13.8919 13.3131 14.0631C13.012 14.4801 12.8127 14.9618 12.7313 15.4697C12.5428 15.5234 9.81875 15.3725 9.65406 15.2678C9.78943 14.0847 10.2544 12.9633 10.9959 12.0316ZM10.9963 19.9687C10.2546 19.0372 9.78958 17.9161 9.65406 16.7331C9.81875 16.6278 12.5428 16.4772 12.7313 16.5309C12.813 17.0385 13.0123 17.52 13.3131 17.9369C13.2181 18.1081 11.1887 19.9259 10.9963 19.9687ZM15.2678 22.3459C14.0845 22.2111 12.963 21.746 12.0316 21.0037C12.0744 20.8116 13.8925 18.7825 14.0638 18.6875C14.4805 18.9884 14.9619 19.1875 15.4694 19.2691C15.5234 19.4572 15.3734 22.1809 15.2678 22.3459ZM16 17.5625C15.7911 17.5684 15.5832 17.5323 15.3885 17.4564C15.1938 17.3805 15.0164 17.2663 14.8666 17.1207C14.7168 16.975 14.5977 16.8008 14.5164 16.6083C14.4351 16.4158 14.3933 16.2089 14.3933 16C14.3933 15.791 14.4353 15.5842 14.5167 15.3918C14.598 15.1993 14.7172 15.0251 14.867 14.8795C15.0169 14.7339 15.1944 14.6198 15.3891 14.544C15.5838 14.4682 15.7918 14.4322 16.0006 14.4381C16.4073 14.4497 16.7934 14.6194 17.0769 14.9112C17.3604 15.2029 17.519 15.5938 17.5189 16.0006C17.5189 16.4074 17.3601 16.7982 17.0765 17.0899C16.7929 17.3815 16.4067 17.5511 16 17.5625ZM16.7328 22.3459C16.6272 22.1806 16.4772 19.4575 16.5309 19.2691C17.0386 19.1874 17.52 18.9882 17.9369 18.6872C18.1081 18.7822 19.9263 20.8122 19.9688 21.0044C19.037 21.7458 17.9158 22.2106 16.7328 22.3459ZM21.0044 19.9687C20.8122 19.9262 18.7825 18.1081 18.6875 17.9366C18.9885 17.5197 19.1878 17.0382 19.2694 16.5306C19.4578 16.4769 22.1816 16.6278 22.3466 16.7328C22.211 17.9158 21.7459 19.037 21.0044 19.9687ZM19.2694 15.4697C19.1879 14.9618 18.9886 14.4801 18.6875 14.0631C18.7825 13.8919 20.8125 12.0737 21.0044 12.0309C21.7461 12.9628 22.2112 14.0842 22.3466 15.2675C22.1819 15.3725 19.4575 15.5234 19.2694 15.4697Z" fill="white"/>
</g>
<defs>
<clipPath id="clip0_55_140">
<rect width="20" height="20" fill="white" transform="translate(6 6)"/>
</clipPath>
</defs>
</svg>
