<svg width="544" height="104" viewBox="0 0 544 104" fill="none" xmlns="http://www.w3.org/2000/svg">
<g clip-path="url(#clip0_55_390)">
<g opacity="0.2" clip-path="url(#clip1_55_390)">
<path d="M528.464 24.5361C536.232 24.5361 536.232 11.4189 544 11.4189V104H0.24176V95.2748C8.65704 95.2748 8.00977 100.1 15.7777 100.1C23.5457 100.1 23.5457 86.3973 31.3137 86.3973C39.0816 86.3973 37.787 90.6135 46.8496 90.6135C55.9122 90.6135 53.3229 98.5072 62.3856 98.5072C71.4482 98.5072 69.5062 95.509 77.9215 95.509C86.3368 95.509 84.7185 81.2207 93.4575 81.2207C102.196 81.2207 99.9308 85.882 108.993 85.882C118.056 85.882 116.438 92.3 124.529 92.3C132.621 92.3 131.326 70.9847 140.065 70.9847C148.804 70.9847 147.833 78.3631 155.601 78.3631C163.369 78.3631 162.075 68.0334 171.137 68.0334C180.2 68.0334 178.258 74.6388 186.673 74.6388C195.088 74.6388 193.794 47.6316 202.209 47.6316C210.624 47.6316 209.006 55.1505 217.745 55.1505C226.484 55.1505 224.218 60.1162 233.281 60.1162C242.344 60.1162 240.078 47.2334 248.817 47.2334C257.556 47.2334 255.29 53.5577 264.353 53.5577C273.416 53.5577 271.797 43.1343 279.889 43.1343C287.98 43.1343 287.009 25.7072 295.425 25.7072C303.84 25.7072 302.545 54.8694 310.961 54.8694C319.376 54.8694 318.405 34.4442 326.497 34.4442C334.588 34.4442 332.97 43.3919 342.033 43.3919C351.095 43.3919 349.153 51.4262 357.569 51.4262C365.984 51.4262 365.013 38.1216 373.105 38.1216C381.196 38.1216 380.549 50.7703 388.641 50.7703C396.732 50.7703 395.761 45.1487 404.176 45.1487C412.592 45.1487 411.297 33.5541 419.712 33.5541C428.128 33.5541 426.833 38.1919 435.248 38.1919C443.664 38.1919 443.016 21.2568 450.784 21.2568C458.552 21.2568 457.258 44.4694 466.32 44.4694C475.383 44.4694 473.117 28.7054 481.856 28.7054C490.595 28.7054 489.301 35.1937 497.392 35.1937C505.484 35.1937 504.836 19.0316 512.928 19.0316C521.02 19.0316 520.696 24.5361 528.464 24.5361Z" fill="#FF8A65"/>
</g>
<g clip-path="url(#clip2_55_390)">
<path d="M544 11.4176C536.232 11.4176 536.232 24.5347 528.464 24.5347C520.696 24.5347 521.02 19.0302 512.928 19.0302C504.836 19.0302 505.484 35.1924 497.392 35.1924C489.301 35.1924 490.595 28.7041 481.856 28.7041C473.117 28.7041 475.383 44.468 466.32 44.468C457.258 44.468 458.552 21.2554 450.784 21.2554C443.016 21.2554 443.664 38.1905 435.248 38.1905C426.833 38.1905 428.128 33.5527 419.712 33.5527C411.297 33.5527 412.592 45.1473 404.176 45.1473C395.761 45.1473 396.732 50.7689 388.641 50.7689C380.549 50.7689 381.196 38.1203 373.105 38.1203C365.013 38.1203 365.984 51.4248 357.569 51.4248C349.153 51.4248 351.095 43.3905 342.033 43.3905C332.97 43.3905 334.588 34.4428 326.497 34.4428C318.405 34.4428 319.376 54.868 310.961 54.868C302.545 54.868 303.84 25.7059 295.425 25.7059C287.009 25.7059 287.98 43.1329 279.889 43.1329C271.797 43.1329 273.416 53.5563 264.353 53.5563C255.29 53.5563 257.556 47.232 248.817 47.232C240.078 47.232 242.344 60.1149 233.281 60.1149C224.218 60.1149 226.484 55.1491 217.745 55.1491C209.006 55.1491 210.624 47.6302 202.209 47.6302C193.794 47.6302 195.088 74.6374 186.673 74.6374C178.258 74.6374 180.2 68.032 171.137 68.032C162.075 68.032 163.369 78.3617 155.601 78.3617C147.833 78.3617 148.804 70.9833 140.065 70.9833C131.326 70.9833 132.621 92.2987 124.529 92.2987C116.438 92.2987 118.056 85.8806 108.993 85.8806C99.9308 85.8806 102.196 81.2194 93.4575 81.2194C84.7185 81.2194 86.3368 95.5077 77.9215 95.5077C69.5062 95.5077 71.4482 98.5059 62.3856 98.5059C53.3229 98.5059 55.9122 90.6122 46.8496 90.6122C37.787 90.6122 39.0816 86.396 31.3137 86.396C23.5457 86.396 23.5457 100.099 15.7777 100.099C8.00974 100.099 8.65707 95.2734 0.24176 95.2734" stroke="#FF8A65" stroke-width="0.647331"/>
</g>
<rect x="0.323666" y="-0.323666" width="5.50889" height="5.50889" rx="2.75444" transform="matrix(-1 0 0 1 531.69 21.7749)" fill="#FF8A65" stroke="#FF8A65" stroke-width="0.647331"/>
<rect x="0.323666" y="-0.323666" width="5.50889" height="5.50889" rx="2.75444" transform="matrix(-1 0 0 1 516.154 16.25)" fill="#FF8A65" stroke="#FF8A65" stroke-width="0.647331"/>
<rect x="0.323666" y="-0.323666" width="5.50889" height="5.50889" rx="2.75444" transform="matrix(-1 0 0 1 500.618 32.4999)" fill="#FF8A65" stroke="#FF8A65" stroke-width="0.647331"/>
<rect x="0.323666" y="-0.323666" width="5.50889" height="5.50889" rx="2.75444" transform="matrix(-1 0 0 1 485.082 25.9999)" fill="#FF8A65" stroke="#FF8A65" stroke-width="0.647331"/>
<rect x="0.323666" y="-0.323666" width="5.50889" height="5.50889" rx="2.75444" transform="matrix(-1 0 0 1 547.226 8.44995)" fill="#FF8A65" stroke="#FF8A65" stroke-width="0.647331"/>
<rect x="0.323666" y="-0.323666" width="5.50889" height="5.50889" rx="2.75444" transform="matrix(-1 0 0 1 454.01 18.5249)" fill="#FF8A65" stroke="#FF8A65" stroke-width="0.647331"/>
<rect x="0.323666" y="-0.323666" width="5.50889" height="5.50889" rx="2.75444" transform="matrix(-1 0 0 1 438.474 35.7499)" fill="#FF8A65" stroke="#FF8A65" stroke-width="0.647331"/>
<rect x="0.323666" y="-0.323666" width="5.50889" height="5.50889" rx="2.75444" transform="matrix(-1 0 0 1 422.938 31.1999)" fill="#FF8A65" stroke="#FF8A65" stroke-width="0.647331"/>
<rect x="0.323666" y="-0.323666" width="5.50889" height="5.50889" rx="2.75444" transform="matrix(-1 0 0 1 407.402 42.5749)" fill="#FF8A65" stroke="#FF8A65" stroke-width="0.647331"/>
<rect x="0.323666" y="-0.323666" width="5.50889" height="5.50889" rx="2.75444" transform="matrix(-1 0 0 1 469.546 41.9249)" fill="#FF8A65" stroke="#FF8A65" stroke-width="0.647331"/>
<rect x="0.323666" y="-0.323666" width="5.50889" height="5.50889" rx="2.75444" transform="matrix(-1 0 0 1 376.331 35.4249)" fill="#FF8A65" stroke="#FF8A65" stroke-width="0.647331"/>
<rect x="0.323666" y="-0.323666" width="5.50889" height="5.50889" rx="2.75444" transform="matrix(-1 0 0 1 360.795 48.7499)" fill="#FF8A65" stroke="#FF8A65" stroke-width="0.647331"/>
<rect x="0.323666" y="-0.323666" width="5.50889" height="5.50889" rx="2.75444" transform="matrix(-1 0 0 1 345.259 40.95)" fill="#FF8A65" stroke="#FF8A65" stroke-width="0.647331"/>
<rect x="0.323666" y="-0.323666" width="5.50889" height="5.50889" rx="2.75444" transform="matrix(-1 0 0 1 329.723 31.8499)" fill="#FF8A65" stroke="#FF8A65" stroke-width="0.647331"/>
<rect x="0.323666" y="-0.323666" width="5.50889" height="5.50889" rx="2.75444" transform="matrix(-1 0 0 1 314.187 52.3249)" fill="#FF8A65" stroke="#FF8A65" stroke-width="0.647331"/>
<rect x="0.323666" y="-0.323666" width="5.50889" height="5.50889" rx="2.75444" transform="matrix(-1 0 0 1 391.867 48.4249)" fill="#FF8A65" stroke="#FF8A65" stroke-width="0.647331"/>
<rect x="0.323666" y="-0.323666" width="5.50889" height="5.50889" rx="2.75444" transform="matrix(-1 0 0 1 283.115 40.6249)" fill="#FF8A65" stroke="#FF8A65" stroke-width="0.647331"/>
<rect x="0.323666" y="-0.323666" width="5.50889" height="5.50889" rx="2.75444" transform="matrix(-1 0 0 1 267.579 51.0249)" fill="#FF8A65" stroke="#FF8A65" stroke-width="0.647331"/>
<rect x="0.323666" y="-0.323666" width="5.50889" height="5.50889" rx="2.75444" transform="matrix(-1 0 0 1 252.043 44.5249)" fill="#FF8A65" stroke="#FF8A65" stroke-width="0.647331"/>
<rect x="0.323666" y="-0.323666" width="5.50889" height="5.50889" rx="2.75444" transform="matrix(-1 0 0 1 236.507 57.5249)" fill="#FF8A65" stroke="#FF8A65" stroke-width="0.647331"/>
<rect x="0.323666" y="-0.323666" width="5.50889" height="5.50889" rx="2.75444" transform="matrix(-1 0 0 1 298.651 23.0749)" fill="#FF8A65" stroke="#FF8A65" stroke-width="0.647331"/>
<rect x="0.323666" y="-0.323666" width="5.50889" height="5.50889" rx="2.75444" transform="matrix(-1 0 0 1 205.435 44.8499)" fill="#FF8A65" stroke="#FF8A65" stroke-width="0.647331"/>
<rect x="0.323666" y="-0.323666" width="5.50889" height="5.50889" rx="2.75444" transform="matrix(-1 0 0 1 189.899 72.1499)" fill="#FF8A65" stroke="#FF8A65" stroke-width="0.647331"/>
<rect x="0.323666" y="-0.323666" width="5.50889" height="5.50889" rx="2.75444" transform="matrix(-1 0 0 1 174.363 65.3249)" fill="#FF8A65" stroke="#FF8A65" stroke-width="0.647331"/>
<rect x="0.323666" y="-0.323666" width="5.50889" height="5.50889" rx="2.75444" transform="matrix(-1 0 0 1 158.828 75.7249)" fill="#FF8A65" stroke="#FF8A65" stroke-width="0.647331"/>
<rect x="0.323666" y="-0.323666" width="5.50889" height="5.50889" rx="2.75444" transform="matrix(-1 0 0 1 220.971 52.65)" fill="#FF8A65" stroke="#FF8A65" stroke-width="0.647331"/>
<rect x="0.323666" y="-0.323666" width="5.50889" height="5.50889" rx="2.75444" transform="matrix(-1 0 0 1 127.755 89.7)" fill="#FF8A65" stroke="#FF8A65" stroke-width="0.647331"/>
<rect x="0.323666" y="-0.323666" width="5.50889" height="5.50889" rx="2.75444" transform="matrix(-1 0 0 1 112.22 83.2)" fill="#FF8A65" stroke="#FF8A65" stroke-width="0.647331"/>
<rect x="0.323666" y="-0.323666" width="5.50889" height="5.50889" rx="2.75444" transform="matrix(-1 0 0 1 96.6837 78.6499)" fill="#FF8A65" stroke="#FF8A65" stroke-width="0.647331"/>
<rect x="0.323666" y="-0.323666" width="5.50889" height="5.50889" rx="2.75444" transform="matrix(-1 0 0 1 81.1478 92.95)" fill="#FF8A65" stroke="#FF8A65" stroke-width="0.647331"/>
<rect x="0.323666" y="-0.323666" width="5.50889" height="5.50889" rx="2.75444" transform="matrix(-1 0 0 1 65.6116 95.8749)" fill="#FF8A65" stroke="#FF8A65" stroke-width="0.647331"/>
<rect x="0.323666" y="-0.323666" width="5.50889" height="5.50889" rx="2.75444" transform="matrix(-1 0 0 1 50.0758 88.0749)" fill="#FF8A65" stroke="#FF8A65" stroke-width="0.647331"/>
<rect x="0.323666" y="-0.323666" width="5.50889" height="5.50889" rx="2.75444" transform="matrix(-1 0 0 1 34.5399 83.8499)" fill="#FF8A65" stroke="#FF8A65" stroke-width="0.647331"/>
<rect x="0.323666" y="-0.323666" width="5.50889" height="5.50889" rx="2.75444" transform="matrix(-1 0 0 1 19.0039 97.4999)" fill="#FF8A65" stroke="#FF8A65" stroke-width="0.647331"/>
<rect x="0.323666" y="-0.323666" width="5.50889" height="5.50889" rx="2.75444" transform="matrix(-1 0 0 1 3.46789 92.6249)" fill="#FF8A65" stroke="#FF8A65" stroke-width="0.647331"/>
<rect x="0.323666" y="-0.323666" width="5.50889" height="5.50889" rx="2.75444" transform="matrix(-1 0 0 1 143.291 68.5749)" fill="#FF8A65" stroke="#FF8A65" stroke-width="0.647331"/>
</g>
<defs>
<clipPath id="clip0_55_390">
<rect width="544" height="104" fill="white" transform="matrix(-1 0 0 1 544 0)"/>
</clipPath>
<clipPath id="clip1_55_390">
<rect width="544.133" height="92.581" fill="white" transform="matrix(-1 0 0 1 544 11.4189)"/>
</clipPath>
<clipPath id="clip2_55_390">
<rect width="544.133" height="92.625" fill="white" transform="matrix(-1 0 0 1 544 11.375)"/>
</clipPath>
</defs>
</svg>
