<svg width="40" height="40" viewBox="0 0 40 40" fill="none" xmlns="http://www.w3.org/2000/svg">
<path d="M13.0167 3.33331H26.9834C33.05 3.33331 36.6667 6.94998 36.6667 13.0166V26.9666C36.6667 33.05 33.05 36.6666 26.9834 36.6666H13.0334C6.96669 36.6666 3.35002 33.05 3.35002 26.9833V13.0166C3.33335 6.94998 6.95002 3.33331 13.0167 3.33331ZM20.8334 28.75C20.8334 29.35 21.4334 29.75 21.9834 29.5166C24 28.65 26.6334 27.85 28.4667 27.6166L28.7834 27.5833C29.8 27.45 30.6334 26.5 30.6334 25.4666V12.6333C30.6334 11.35 29.6 10.4 28.3334 10.5C26.25 10.6666 23.1667 11.6666 21.2334 12.7666C20.9667 12.9166 20.8334 13.2 20.8334 13.4833V28.75ZM9.36669 25.45C9.36669 26.4833 10.2 27.4333 11.2167 27.5666L11.5667 27.6C13.3834 27.85 16 28.6333 18.0167 29.4833C18.5667 29.7166 19.1667 29.3166 19.1667 28.7166V13.4666C19.1667 13.1666 19.0167 12.8833 18.75 12.7333C16.8167 11.65 13.8 10.6833 11.75 10.5H11.6834C10.4 10.5 9.36669 11.5333 9.36669 12.8166V25.45Z" fill="#546FFF"/>
</svg>
