<!DOCTYPE svg PUBLIC "-//W3C//DTD SVG 1.1//EN" "http://www.w3.org/Graphics/SVG/1.1/DTD/svg11.dtd">
<!-- Uploaded to: SVG Repo, www.svgrepo.com, Transformed by: SVG Repo Mixer Tools -->
<svg width="800px" height="800px" viewBox="0 0 1024 1024" class="icon" version="1.1" xmlns="http://www.w3.org/2000/svg" fill="#000000" stroke="#000000" stroke-width="0.01024">
<g id="SVGRepo_bgCarrier" stroke-width="0"/>
<g id="SVGRepo_tracerCarrier" stroke-linecap="round" stroke-linejoin="round"/>
<g id="SVGRepo_iconCarrier">
<path d="M576 149.333333h-128c-36.266667 0-64 27.733333-64 64v64h42.666667v-64c0-12.8 8.533333-21.333333 21.333333-21.333333h128c12.8 0 21.333333 8.533333 21.333333 21.333333v64h42.666667v-64c0-36.266667-27.733333-64-64-64z" fill="#424242"/>
<path d="M853.333333 917.333333H170.666667c-46.933333 0-85.333333-38.4-85.333334-85.333333V320c0-46.933333 38.4-85.333333 85.333334-85.333333h682.666666c46.933333 0 85.333333 38.4 85.333334 85.333333v512c0 46.933333-38.4 85.333333-85.333334 85.333333z" fill="#0c7192"/>
<path d="M853.333333 597.333333H170.666667c-46.933333 0-85.333333-38.4-85.333334-85.333333v-192c0-46.933333 38.4-85.333333 85.333334-85.333333h682.666666c46.933333 0 85.333333 38.4 85.333334 85.333333v192c0 46.933333-38.4 85.333333-85.333334 85.333333z" fill="#1595cb"/>
<path d="M554.666667 554.666667h-85.333334c-12.8 0-21.333333-8.533333-21.333333-21.333334v-42.666666c0-12.8 8.533333-21.333333 21.333333-21.333334h85.333334c12.8 0 21.333333 8.533333 21.333333 21.333334v42.666666c0 12.8-8.533333 21.333333-21.333333 21.333334z" fill="#FFF3E0"/>
</g>
</svg>