<!DOCTYPE svg PUBLIC "-//W3C//DTD SVG 1.1//EN" "http://www.w3.org/Graphics/SVG/1.1/DTD/svg11.dtd">
<!-- Uploaded to: SVG Find, www.svgrepo.com, Transformed by: SVG Find Mixer Tools -->
<svg fill="#052461" width="800px" height="800px" version="1.1" viewBox="144 144 512 512" xmlns="http://www.w3.org/2000/svg" stroke="#052461">
<g id="SVGRepo_bgCarrier" stroke-width="0"/>
<g id="SVGRepo_tracerCarrier" stroke-linecap="round" stroke-linejoin="round"/>
<g id="SVGRepo_iconCarrier"> <path d="m218.63 303.07v193.86c0.042969 4.3242 2.3867 8.2969 6.1445 10.43l169.18 97.59c3.7344 2.1211 8.3086 2.1211 12.039 0l169.48-97.641c3.582-2.25 5.7969-6.1484 5.8945-10.379v-193.86c-0.11719-4.1445-2.3398-7.9453-5.8945-10.078l-169.43-97.941c-3.7305-2.1289-8.3086-2.1289-12.039 0l-169.48 97.641c-3.6406 2.1953-5.875 6.1289-5.8945 10.379zm169.28 270.34-132.25-76.984 48.113-27.457 84.137 48.062zm0-84.238-72.648-41.512v-82.121l72.648 41.461zm24.184 84.336v-56.473l84.137-48.062 48.871 27.91-133.01 76.629zm0-84.336v-82.172l72.648-41.465v82.121zm145.25-13.199-48.418-27.66v-96.629l48.418-27.66zm-145.25-249.48 133 76.629-48.871 27.91-84.133-48.062zm-12.09 77.434 71.844 41.059-71.844 41.062-71.844-41.059zm-12.094-77.434v56.477l-84.137 48.062-48.871-27.91zm-145.25 97.535 48.418 27.66-0.003906 96.629-48.418 27.66z" fill-rule="evenodd"/> </g>
</svg>