<svg width="155" height="101" viewBox="0 0 155 101" fill="none" xmlns="http://www.w3.org/2000/svg">
<path d="M6.17044 1.608H24.7444C28.1484 1.608 31.5771 2.052 35.0304 2.94C38.4838 3.828 41.5918 5.308 44.3544 7.38C47.1171 9.40266 49.3618 12.0913 51.0884 15.446C52.8151 18.7513 53.6784 22.8707 53.6784 27.804C53.6784 32.392 52.8151 36.3387 51.0884 39.644C49.3618 42.9493 47.1171 45.6627 44.3544 47.784C41.5918 49.9053 38.4838 51.484 35.0304 52.52C31.5771 53.5067 28.1484 54 24.7444 54H6.17044V1.608ZM23.2644 45.86C25.6818 45.86 28.0991 45.5887 30.5164 45.046C32.9338 44.454 35.1044 43.492 37.0284 42.16C39.0018 40.7787 40.6051 38.9287 41.8384 36.61C43.0718 34.2913 43.6884 31.356 43.6884 27.804C43.6884 24.0547 43.0718 20.996 41.8384 18.628C40.6051 16.26 39.0018 14.41 37.0284 13.078C35.1044 11.746 32.9338 10.8333 30.5164 10.34C28.0991 9.84666 25.6818 9.6 23.2644 9.6H15.4944V45.86H23.2644ZM100.496 13.892C99.1148 12.0173 97.3142 10.6607 95.0942 9.822C92.8742 8.934 90.7035 8.49 88.5822 8.49C85.8688 8.49 83.4022 8.98333 81.1822 9.97C78.9622 10.9567 77.0382 12.3133 75.4102 14.04C73.8315 15.7667 72.5982 17.7893 71.7102 20.108C70.8715 22.4267 70.4522 24.9427 70.4522 27.656C70.4522 30.5173 70.8715 33.132 71.7102 35.5C72.5488 37.868 73.7328 39.9153 75.2622 41.642C76.8408 43.3193 78.7155 44.6267 80.8862 45.564C83.0568 46.5013 85.4988 46.97 88.2122 46.97C91.0242 46.97 93.5155 46.4273 95.6862 45.342C97.8568 44.2073 99.6082 42.7273 100.94 40.902L108.414 46.156C106.095 49.0667 103.259 51.336 99.9042 52.964C96.5495 54.5427 92.6275 55.332 88.1382 55.332C84.0435 55.332 80.2695 54.666 76.8162 53.334C73.4122 51.9527 70.4768 50.0533 68.0102 47.636C65.5435 45.1693 63.6195 42.2587 62.2382 38.904C60.8568 35.5 60.1662 31.7507 60.1662 27.656C60.1662 23.4627 60.8815 19.6887 62.3122 16.334C63.7922 12.93 65.7902 10.044 68.3062 7.676C70.8715 5.308 73.8808 3.48266 77.3342 2.2C80.7875 0.917332 84.5368 0.275999 88.5822 0.275999C90.2595 0.275999 92.0108 0.448665 93.8362 0.793997C95.6615 1.09 97.4128 1.58333 99.0902 2.274C100.767 2.91533 102.346 3.72933 103.826 4.716C105.306 5.70267 106.564 6.88666 107.6 8.268L100.496 13.892ZM125.994 31.282L106.31 1.608H117.706L130.878 23.66L144.198 1.608H155.002L135.318 31.282V54H125.994V31.282Z" fill="url(#paint0_linear_4046_9714)"/>
<path d="M7.14593 93.216C5.20193 93.216 3.71993 92.694 2.69993 91.65C1.67993 90.606 1.16993 88.998 1.16993 86.826C1.16993 84.69 1.68593 83.094 2.71793 82.038C3.74993 80.97 5.22593 80.436 7.14593 80.436C8.20193 80.436 9.13793 80.616 9.95393 80.976C10.7699 81.324 11.4119 81.858 11.8799 82.578C12.3599 83.286 12.5999 84.162 12.5999 85.206H10.2419C10.2419 84.306 9.95993 83.61 9.39593 83.118C8.84393 82.626 8.10593 82.38 7.18193 82.38C5.94593 82.38 5.02793 82.734 4.42793 83.442C3.82793 84.15 3.52793 85.218 3.52793 86.646V87.006C3.52793 88.446 3.82193 89.52 4.40993 90.228C5.00993 90.924 5.93393 91.272 7.18193 91.272C8.15393 91.272 8.92193 91.032 9.48593 90.552C10.0499 90.06 10.3319 89.37 10.3319 88.482H12.5999C12.5999 90.03 12.0959 91.206 11.0879 92.01C10.0919 92.814 8.77793 93.216 7.14593 93.216ZM14.6462 80.652H21.1622C22.4942 80.652 23.4962 80.982 24.1682 81.642C24.8522 82.302 25.1942 83.22 25.1942 84.396C25.1942 85.236 25.0082 85.956 24.6362 86.556C24.2642 87.144 23.7182 87.582 22.9982 87.87L25.6442 93H23.1242L20.7842 88.23H16.9502V93H14.6462V80.652ZM20.9822 86.286C21.5702 86.286 22.0322 86.118 22.3682 85.782C22.7042 85.446 22.8722 84.984 22.8722 84.396C22.8722 83.832 22.7102 83.394 22.3862 83.082C22.0622 82.77 21.5942 82.614 20.9822 82.614H16.9502V86.286H20.9822ZM30.6915 87.978L25.9215 80.652H28.5675L31.8615 85.908H31.9515L35.1915 80.652H37.7295L32.9775 87.978V93H30.6915V87.978ZM39.0973 80.652H45.0373C46.3573 80.652 47.3593 81 48.0433 81.696C48.7273 82.392 49.0693 83.358 49.0693 84.594C49.0693 85.83 48.7093 86.808 47.9893 87.528C47.2813 88.236 46.2553 88.59 44.9113 88.59H41.4013V93H39.0973V80.652ZM44.8393 86.628C45.4393 86.628 45.9073 86.448 46.2433 86.088C46.5793 85.728 46.7473 85.23 46.7473 84.594C46.7473 83.97 46.5853 83.484 46.2613 83.136C45.9373 82.788 45.4633 82.614 44.8393 82.614H41.4013V86.628H44.8393ZM54.1812 82.632H50.2032V80.652H60.4452V82.632H56.4672V93H54.1812V82.632ZM67.5147 93.216C65.5347 93.216 64.0047 92.682 62.9247 91.614C61.8447 90.546 61.3047 88.95 61.3047 86.826C61.3047 84.702 61.8447 83.106 62.9247 82.038C64.0047 80.97 65.5347 80.436 67.5147 80.436C69.4947 80.436 71.0247 80.97 72.1047 82.038C73.1967 83.106 73.7427 84.702 73.7427 86.826C73.7427 88.95 73.1967 90.546 72.1047 91.614C71.0247 92.682 69.4947 93.216 67.5147 93.216ZM67.5147 91.272C68.7867 91.272 69.7467 90.918 70.3947 90.21C71.0547 89.49 71.3847 88.428 71.3847 87.024V86.646C71.3847 85.242 71.0547 84.18 70.3947 83.46C69.7347 82.74 68.7747 82.38 67.5147 82.38C66.2667 82.38 65.3127 82.74 64.6527 83.46C63.9927 84.18 63.6627 85.242 63.6627 86.646V87.024C63.6627 88.428 63.9867 89.49 64.6347 90.21C65.2947 90.918 66.2547 91.272 67.5147 91.272ZM79.6222 80.652H82.0702L84.1042 88.644C84.1882 88.956 84.3022 89.55 84.4462 90.426H84.5362C84.6802 89.502 84.7822 88.908 84.8422 88.644L86.6962 80.652H89.6122L91.4662 88.644C91.5382 88.98 91.6462 89.574 91.7902 90.426H91.8802C92.0242 89.574 92.1442 88.98 92.2402 88.644L94.2562 80.652H96.4342L93.0502 93H90.3862L88.3882 84.864C88.2802 84.432 88.1662 83.82 88.0462 83.028H87.9742C87.8422 83.892 87.7342 84.504 87.6502 84.864L85.6702 93H83.0062L79.6222 80.652ZM100.529 80.652H103.427L108.233 93H105.749L104.741 90.318H99.0894L98.0994 93H95.7234L100.529 80.652ZM104.003 88.374L102.743 84.99C102.551 84.51 102.347 83.898 102.131 83.154C102.095 83.046 102.059 82.95 102.023 82.866C101.999 82.77 101.975 82.692 101.951 82.632H101.861L101.681 83.19L101.069 84.99L99.8094 88.374H104.003ZM109.586 80.652H111.89V91.002H118.442V93H109.586V80.652ZM120.238 80.652H122.542V91.002H129.094V93H120.238V80.652ZM130.89 80.652H140.52V82.614H133.194V85.71H139.728V87.672H133.194V91.038H140.628V93H130.89V80.652ZM145.974 82.632H141.996V80.652H152.238V82.632H148.26V93H145.974V82.632Z" fill="white"/>
<defs>
<linearGradient id="paint0_linear_4046_9714" x1="0" y1="3" x2="156.809" y2="12.4645" gradientUnits="userSpaceOnUse">
<stop stop-color="#8AD4EC"/>
<stop offset="0.217372" stop-color="#EF96FF"/>
<stop offset="0.540308" stop-color="#FF56A9"/>
<stop offset="0.852826" stop-color="#FFAA6C"/>
</linearGradient>
</defs>
</svg>
