<?xml version="1.0" encoding="utf-8"?>
<!-- Generator: Adobe Illustrator 26.0.3, SVG Export Plug-In . SVG Version: 6.00 Build 0)  -->
<svg version="1.0" id="Layer_1" xmlns="http://www.w3.org/2000/svg" xmlns:xlink="http://www.w3.org/1999/xlink" x="0px" y="0px"
	 viewBox="0 0 1162.7 867.6" style="enable-background:new 0 0 1162.7 867.6;" xml:space="preserve">
<style type="text/css">
	.st0{fill:#4CB2E1;}
	.st1{fill:#FFFFFF;}
</style>
<path class="st0" d="M877.8,755.1H284.9c-13.7,0-24.8-11-25.1-24.6V137.5c0-13.9,11.2-25.1,25.1-25.1c0,0,0,0,0,0h592.9
	c13.9,0,25.1,11.2,25.1,25.1c0,0,0,0,0,0l0,0v592.9c0,13.6-11,24.6-24.6,24.6l0,0H877.8"/>
<path class="st1" d="M532.1,361.5h-10.9c-4.1,0-5.5,4.1-5,8.2c4.1,54.3-7.8,117.7-21.4,117.7s-13.2-29.6-13.2-56.1v-45.6
	c0-5,0-5.9-5.5-6.4c-4.8-0.7-9.8-0.7-14.6,0c-4.1,0-5,4.6-9.6,14.6c-21.4,51.1-42.4,91.2-42.4,91.2c-2.6-35.2,0.4-70.7,9.1-104.9
	c0-4.1,0-6.4-4.6-6.4c-6.8-0.5-13.7,0.6-20.1,3.2c-3.8,2.5-6.3,6.5-6.8,11c-7.9,35.2-9.3,71.5-4.1,107.2c0,6.8,3.2,8.7,5.9,10.5
	c6.6,2.1,13.6,3.1,20.5,3.2c6.3,0.6,12.3-2.9,15-8.7c11.1-19.5,21.2-39.6,30.1-60.2c0,38.8,6.9,68.9,34.2,68.9
	c36,0,59.7-91.2,59.7-132.7c0-11.4-5.9-13.2-16.4-13.2"/>
<path class="st1" d="M586.3,492.4c-7.8,0-13.2-6.8-13.2-20.5c0-26,9.1-53.8,26-53.8h5c0,15,0,24.6,7.8,29.6
	c-3.7,22.8-13.7,42-25.1,42 M772.9,425.8c6.4,0,11,0,12.3-8.2c0.5-3-1.5-5.8-4.5-6.3c-0.5-0.1-1-0.1-1.5-0.1h-26.5
	c0,0,3.2-15.5,4.6-21.4c2-2.6,1.6-6.3-1-8.3c-1.1-0.9-2.6-1.3-4-1.3c-5.3-0.7-10.7-0.7-16,0c-2.6-0.3-5,1.5-5.5,4.1
	c0,6.4-3.2,14.1-4.6,24.2h-14.1c-3.2,0-4.6,0-5.5,4.6c-0.9,4.6,0,6.4,0,10.5s3.2,4.1,6.4,4.1h11c0,5.5-3.7,21-4.6,30.1
	c-5.9,19.6-18.2,34.2-28.7,34.2s-10.5-3.6-10.5-15c0.7-19.2,3.7-38.2,9.1-56.6c6.5-14.5,10.6-29.9,12.3-45.6
	c0.6-3.7-1.8-7.3-5.5-8.2c-6.5-1.4-13.2-1.4-19.6,0c-3.5,1.5-5.8,4.9-5.9,8.7c-2.7,11.9-6.8,32.8-9.6,51.5
	c-5.6,7.3-13.5,12.4-22.4,14.6c1.3-18.1-12.3-33.8-30.4-35.2c-1.7-0.1-3.5-0.1-5.2,0c-33.5,1.7-59.3,30.1-57.6,63.6c0,0,0,0,0,0
	c0,0.5,0.1,1.1,0.1,1.6c-2.9,18.9,10.2,36.6,29.1,39.5c2.9,0.4,5.8,0.5,8.8,0.2c26.9,0,45.6-18.2,53.8-52.5
	c7.3-1.8,14-5.4,19.6-10.5c-2.2,11.1-3.5,22.4-4.1,33.8c0,18.7,8.2,29.2,27.4,29.2c16-0.9,30.4-10,37.9-24.2
	c-0.1,13.3,10.7,24.2,24,24.3c1,0,1.9,0,2.9-0.1c15.3-1.5,28.8-10.6,36-24.2c2.3-3.2,3.7-5.9,2.3-7.3s-7.8-4.6-9.6,0
	c-5.9,10.9-12.8,15.5-20.1,15.5s-10-3.2-10-13.2c0.9-18.8,3.1-37.6,6.4-56.1L772.9,425.8"/>
</svg>
